M48
; DRILL file {KiCad 9.0.7} date 2026-05-14T20:20:46-0300
; FORMAT={-:-/ absolute / metric / decimal}
; #@! TF.CreationDate,2026-05-14T20:20:46-03:00
; #@! TF.GenerationSoftware,Kicad,Pcbnew,9.0.7
; #@! TF.FileFunction,Plated,1,4,PTH
FMAT,2
METRIC
; #@! TA.AperFunction,Plated,PTH,ViaDrill
T1C0.300
; #@! TA.AperFunction,Plated,PTH,ComponentDrill
T2C0.500
; #@! TA.AperFunction,Plated,PTH,ComponentDrill
T3C0.600
; #@! TA.AperFunction,Plated,PTH,ComponentDrill
T4C1.200
; #@! TA.AperFunction,Plated,PTH,ComponentDrill
T5C1.300
; #@! TA.AperFunction,Plated,PTH,ComponentDrill
T6C3.000
%
G90
G05
T1
X114.706Y-69.164
X115.646Y-94.996
X117.018Y-69.291
X117.61Y-95.04
X117.805Y-60.63
X119.534Y-70.65
X119.584Y-72.73
X119.584Y-74.87
X119.66Y-96.78
X119.66Y-101.27
X119.71Y-98.93
X122.681Y-63.985
X123.68Y-89.66
X124.19Y-101.04
X124.301Y-74.965
X124.306Y-71.01
X124.47Y-96.755
X124.654Y-117.343
X124.724Y-110.193
X124.941Y-54.396
X124.952Y-59.131
X125.401Y-75.595
X125.462Y-70.613
X125.521Y-73.245
X125.561Y-72.315
X125.915Y-96.306
X125.985Y-98.055
X126.01Y-101.17
X126.04Y-99.15
X126.871Y-78.535
X127.33Y-104.23
X128.77Y-68.94
X128.803Y-70.561
X128.803Y-72.339
X128.81Y-76.07
X128.829Y-74.092
X129.18Y-94.47
X129.235Y-96.241
X129.235Y-98.019
X129.25Y-101.76
X129.261Y-99.771
X129.896Y-76.53
X129.94Y-69.67
X129.946Y-71.45
X129.946Y-73.203
X129.972Y-74.828
X130.277Y-97.155
X130.277Y-98.908
X130.302Y-100.533
X130.35Y-102.35
X130.36Y-95.03
X130.988Y-72.339
X131.013Y-70.561
X131.013Y-74.092
X131.04Y-76.05
X131.08Y-68.94
X131.42Y-98.019
X131.445Y-96.241
X131.445Y-99.771
X131.47Y-101.75
X131.52Y-94.46
X134.411Y-73.675
X134.661Y-74.725
X134.798Y-65.227
X134.95Y-68.478
X134.95Y-94.158
X135.0Y-100.0
X135.1Y-72.27
X135.28Y-97.349
X135.687Y-88.951
X135.841Y-71.72
X136.292Y-97.432
X138.229Y-65.989
X139.39Y-102.48
X139.739Y-76.922
X140.945Y-66.599
X141.097Y-65.253
X141.338Y-77.217
X142.037Y-67.462
X142.037Y-76.65
X142.527Y-77.405
X143.104Y-56.388
X143.18Y-49.555
X146.24Y-96.167
X149.757Y-75.654
X150.474Y-74.446
X150.6Y-75.34
X152.095Y-72.847
X152.654Y-48.685
X152.655Y-58.592
X152.74Y-53.03
X152.88Y-50.73
X153.227Y-71.794
X154.04Y-45.35
X154.5Y-94.97
X154.7Y-74.625
X155.751Y-73.988
X156.13Y-87.81
X156.406Y-54.78
X156.47Y-45.31
X156.489Y-72.923
X156.5Y-89.5
X156.5Y-91.5
X156.5Y-93.5
X156.5Y-95.5
X156.54Y-110.382
X157.933Y-65.76
X157.95Y-73.97
X157.96Y-64.458
X158.21Y-87.83
X158.5Y-89.5
X158.5Y-91.5
X158.5Y-93.5
X158.5Y-95.5
X158.58Y-65.11
X158.826Y-73.101
X159.42Y-82.452
X159.54Y-74.62
X159.62Y-104.022
X160.14Y-87.85
X160.32Y-55.42
X160.5Y-50.67
X160.57Y-84.42
X160.62Y-121.06
X160.63Y-49.4
X160.706Y-73.457
X160.744Y-95.39
X160.8Y-62.0
X161.51Y-80.89
X161.519Y-45.364
X161.83Y-109.75
X162.306Y-46.05
X162.62Y-65.46
X162.738Y-46.939
X163.34Y-112.388
X164.07Y-114.69
X164.11Y-116.75
X164.236Y-96.545
X164.34Y-48.77
X164.694Y-57.252
X164.719Y-51.867
X164.719Y-53.289
X164.719Y-54.737
X165.275Y-108.18
X165.315Y-105.93
X165.37Y-47.36
X165.38Y-117.59
X165.42Y-50.17
X165.52Y-57.97
X166.116Y-51.867
X166.116Y-54.737
X166.136Y-53.31
X166.253Y-71.587
X166.319Y-57.302
X166.649Y-78.537
X166.65Y-48.8
X166.84Y-58.66
X167.199Y-70.911
X167.26Y-99.57
X167.513Y-51.918
X167.513Y-54.71
X167.538Y-53.315
X167.602Y-89.014
X167.63Y-50.17
X167.78Y-47.36
X167.792Y-71.857
X168.075Y-61.478
X168.37Y-67.194
X168.606Y-92.407
X168.85Y-61.02
X168.9Y-70.41
X169.08Y-48.8
X169.11Y-53.99
X169.14Y-51.68
X169.55Y-67.21
X169.69Y-69.78
X170.17Y-50.22
X170.29Y-55.22
X170.35Y-52.84
X170.612Y-70.46
X171.45Y-51.66
X171.47Y-54.01
X171.86Y-56.8
X172.39Y-59.03
X172.86Y-57.72
X172.9Y-61.33
X172.956Y-56.674
X173.55Y-60.39
X173.761Y-59.131
X173.82Y-61.88
X174.473Y-123.292
X174.498Y-115.722
X178.06Y-45.56
X180.34Y-118.745
X183.87Y-99.45
X183.89Y-101.94
X183.9Y-91.81
X183.91Y-81.64
X183.93Y-94.34
X183.98Y-96.88
X184.01Y-68.93
X184.01Y-76.56
X184.01Y-84.2
X184.01Y-89.26
X184.02Y-74.01
X184.02Y-79.1
X184.02Y-86.7
X184.02Y-107.08
X184.03Y-104.48
X184.06Y-71.46
X184.429Y-50.419
X184.937Y-60.35
T2
X108.342Y-48.158
X108.428Y-125.781
X109.001Y-46.567
X109.001Y-49.749
X109.087Y-124.19
X109.087Y-127.372
X110.592Y-45.908
X110.592Y-50.408
X110.678Y-123.531
X110.678Y-128.031
X112.183Y-46.567
X112.183Y-49.749
X112.269Y-124.19
X112.269Y-127.372
X112.842Y-48.158
X112.928Y-125.781
X192.552Y-125.892
X192.577Y-48.193
X193.211Y-124.301
X193.211Y-127.483
X193.236Y-46.602
X193.236Y-49.784
X194.802Y-123.642
X194.802Y-128.142
X194.827Y-45.943
X194.827Y-50.443
X196.393Y-124.301
X196.393Y-127.483
X196.418Y-46.602
X196.418Y-49.784
X197.052Y-125.892
X197.077Y-48.193
T4
X114.971Y-72.325
X114.971Y-74.865
X114.971Y-77.405
X114.971Y-79.945
X115.17Y-97.85
X115.17Y-100.39
X115.17Y-102.93
X115.17Y-105.47
X186.0Y-68.94
X186.0Y-71.48
X186.0Y-74.02
X186.0Y-76.56
X186.0Y-79.1
X186.0Y-81.64
X186.0Y-84.18
X186.0Y-86.72
X186.0Y-89.26
X186.0Y-91.8
X186.0Y-94.34
X186.0Y-96.88
X186.0Y-99.42
X186.0Y-101.96
X186.0Y-104.5
X186.0Y-107.04
X186.597Y-47.895
X186.597Y-50.435
X186.597Y-52.975
X186.867Y-57.825
X186.867Y-60.365
X186.867Y-62.905
T5
X116.877Y-111.328
X116.877Y-116.408
X183.3Y-113.65
X183.3Y-118.73
T6
X110.592Y-48.158
X110.678Y-125.781
X194.802Y-125.892
X194.827Y-48.193
T3
G00X109.728Y-53.477
M15
G01X108.928Y-53.477
M16
G05
G00X109.728Y-62.117
M15
G01X108.928Y-62.117
M16
G05
G00X114.058Y-53.477
M15
G01X112.958Y-53.477
M16
G05
G00X114.058Y-62.117
M15
G01X112.958Y-62.117
M16
G05
M30
