%TF.GenerationSoftware,KiCad,Pcbnew,9.0.7*%
%TF.CreationDate,2026-04-25T00:58:38-03:00*%
%TF.ProjectId,MAQUINA_DE_BRAILLE,4d415155-494e-4415-9f44-455f42524149,rev?*%
%TF.SameCoordinates,Original*%
%TF.FileFunction,Paste,Top*%
%TF.FilePolarity,Positive*%
%FSLAX46Y46*%
G04 Gerber Fmt 4.6, Leading zero omitted, Abs format (unit mm)*
G04 Created by KiCad (PCBNEW 9.0.7) date 2026-04-25 00:58:38*
%MOMM*%
%LPD*%
G01*
G04 APERTURE LIST*
G04 Aperture macros list*
%AMRoundRect*
0 Rectangle with rounded corners*
0 $1 Rounding radius*
0 $2 $3 $4 $5 $6 $7 $8 $9 X,Y pos of 4 corners*
0 Add a 4 corners polygon primitive as box body*
4,1,4,$2,$3,$4,$5,$6,$7,$8,$9,$2,$3,0*
0 Add four circle primitives for the rounded corners*
1,1,$1+$1,$2,$3*
1,1,$1+$1,$4,$5*
1,1,$1+$1,$6,$7*
1,1,$1+$1,$8,$9*
0 Add four rect primitives between the rounded corners*
20,1,$1+$1,$2,$3,$4,$5,0*
20,1,$1+$1,$4,$5,$6,$7,0*
20,1,$1+$1,$6,$7,$8,$9,0*
20,1,$1+$1,$8,$9,$2,$3,0*%
G04 Aperture macros list end*
%ADD10C,0.000000*%
%ADD11R,2.311400X1.497552*%
%ADD12RoundRect,0.250000X-0.337500X-0.475000X0.337500X-0.475000X0.337500X0.475000X-0.337500X0.475000X0*%
%ADD13RoundRect,0.250000X0.350000X0.450000X-0.350000X0.450000X-0.350000X-0.450000X0.350000X-0.450000X0*%
%ADD14RoundRect,0.250000X0.450000X-0.350000X0.450000X0.350000X-0.450000X0.350000X-0.450000X-0.350000X0*%
%ADD15RoundRect,0.250000X0.475000X-0.337500X0.475000X0.337500X-0.475000X0.337500X-0.475000X-0.337500X0*%
%ADD16R,1.350000X1.400000*%
%ADD17RoundRect,0.250000X-0.350000X-0.450000X0.350000X-0.450000X0.350000X0.450000X-0.350000X0.450000X0*%
%ADD18R,0.279400X0.609600*%
%ADD19R,3.048000X1.219200*%
%ADD20R,1.041400X3.505200*%
%ADD21R,10.718800X7.696200*%
%ADD22R,1.270000X0.558800*%
%ADD23RoundRect,0.250000X-0.475000X0.337500X-0.475000X-0.337500X0.475000X-0.337500X0.475000X0.337500X0*%
%ADD24RoundRect,0.250000X-0.450000X0.350000X-0.450000X-0.350000X0.450000X-0.350000X0.450000X0.350000X0*%
%ADD25RoundRect,0.150000X-0.425000X0.150000X-0.425000X-0.150000X0.425000X-0.150000X0.425000X0.150000X0*%
%ADD26RoundRect,0.075000X-0.500000X0.075000X-0.500000X-0.075000X0.500000X-0.075000X0.500000X0.075000X0*%
%ADD27O,2.100000X1.000000*%
%ADD28O,1.800000X1.000000*%
%ADD29RoundRect,0.250000X0.337500X0.475000X-0.337500X0.475000X-0.337500X-0.475000X0.337500X-0.475000X0*%
%ADD30R,1.270000X0.304800*%
%ADD31R,3.099999X5.180000*%
%ADD32R,1.498600X0.812800*%
%ADD33R,0.812800X1.498600*%
%ADD34R,0.889000X0.889000*%
%ADD35R,1.803400X0.863600*%
%ADD36R,1.000000X1.100000*%
%ADD37R,1.497552X2.311400*%
%ADD38R,2.082800X1.752600*%
%ADD39R,3.180001X2.180400*%
%ADD40R,0.460000X1.040000*%
G04 APERTURE END LIST*
D10*
G36*
X155435300Y-93395800D02*
G01*
X153631900Y-93395800D01*
X153631900Y-90246200D01*
X155435300Y-90246200D01*
X155435300Y-93395800D01*
G37*
D11*
X164211000Y-92290376D03*
X164211000Y-94806024D03*
D12*
X154152600Y-58496200D03*
X156227600Y-58496200D03*
D13*
X123040000Y-101300000D03*
X121040000Y-101300000D03*
D14*
X119159200Y-67719874D03*
X119159200Y-65719874D03*
D15*
X156340000Y-48685000D03*
X156340000Y-46610000D03*
D13*
X123110000Y-98970000D03*
X121110000Y-98970000D03*
D16*
X144246600Y-49657000D03*
X150596600Y-49657000D03*
D17*
X121072400Y-59131200D03*
X123072400Y-59131200D03*
D12*
X161780400Y-105791000D03*
X163855400Y-105791000D03*
D17*
X136343500Y-74737300D03*
X138343500Y-74737300D03*
D18*
X160790000Y-112398600D03*
X161290001Y-112398600D03*
X161790001Y-112398600D03*
X162290002Y-112398600D03*
X162290002Y-110900000D03*
X161790001Y-110900000D03*
X161290001Y-110900000D03*
X160790000Y-110900000D03*
D19*
X127393700Y-63398400D03*
X132854700Y-63398400D03*
D20*
X151319950Y-98755650D03*
D21*
X148779950Y-109917950D03*
D20*
X146239950Y-98755650D03*
D22*
X169037000Y-83006002D03*
X169037000Y-84836000D03*
X170967400Y-83921001D03*
D23*
X114706400Y-65713700D03*
X114706400Y-67788700D03*
X117830600Y-91367700D03*
X117830600Y-93442700D03*
D15*
X122340000Y-93470000D03*
X122340000Y-91395000D03*
D17*
X164598600Y-110617000D03*
X166598600Y-110617000D03*
D23*
X124131000Y-65697300D03*
X124131000Y-67772300D03*
D17*
X154194000Y-56235600D03*
X156194000Y-56235600D03*
D24*
X159610000Y-100612500D03*
X159610000Y-102612500D03*
D25*
X114083200Y-54597000D03*
X114083200Y-55397000D03*
D26*
X114083200Y-56547000D03*
X114083200Y-57547000D03*
X114083200Y-58047000D03*
X114083200Y-59047000D03*
D25*
X114083200Y-60197000D03*
X114083200Y-60997000D03*
X114083200Y-60997000D03*
X114083200Y-60197000D03*
D26*
X114083200Y-59547000D03*
X114083200Y-58547000D03*
X114083200Y-57047000D03*
X114083200Y-56047000D03*
D25*
X114083200Y-55397000D03*
X114083200Y-54597000D03*
D27*
X113508200Y-53477000D03*
D28*
X109328200Y-53477000D03*
D27*
X113508200Y-62117000D03*
D28*
X109328200Y-62117000D03*
D13*
X123060000Y-96750000D03*
X121060000Y-96750000D03*
X123060000Y-103450000D03*
X121060000Y-103450000D03*
D29*
X156415000Y-53020000D03*
X154340000Y-53020000D03*
D17*
X160560000Y-118973600D03*
X162560000Y-118973600D03*
D16*
X144272000Y-56438800D03*
X150622000Y-56438800D03*
D30*
X127388200Y-94154926D03*
X127388200Y-94804937D03*
X127388200Y-95454949D03*
X127388200Y-96104960D03*
X127388200Y-96754972D03*
X127388200Y-97404983D03*
X127388200Y-98054994D03*
X127388200Y-98705006D03*
X127388200Y-99355017D03*
X127388200Y-100005028D03*
X127388200Y-100655040D03*
X127388200Y-101305051D03*
X127388200Y-101955063D03*
X127388200Y-102605074D03*
X133331800Y-102605074D03*
X133331800Y-101955063D03*
X133331800Y-101305051D03*
X133331800Y-100655040D03*
X133331800Y-100005028D03*
X133331800Y-99355017D03*
X133331800Y-98705006D03*
X133331800Y-98054994D03*
X133331800Y-97404983D03*
X133331800Y-96754972D03*
X133331800Y-96104960D03*
X133331800Y-95454949D03*
X133331800Y-94804937D03*
X133331800Y-94154926D03*
D31*
X130360000Y-98380000D03*
D13*
X123011000Y-77054800D03*
X121011000Y-77054800D03*
D15*
X121629200Y-67772300D03*
X121629200Y-65697300D03*
D32*
X158863000Y-45590000D03*
X158863000Y-46860000D03*
X158863000Y-48130000D03*
X158863000Y-49400000D03*
X158863000Y-50670000D03*
X158863000Y-51940000D03*
X158863000Y-53210000D03*
X158863000Y-54480000D03*
X158863000Y-55750000D03*
X158863000Y-57020000D03*
X158863000Y-58290000D03*
X158863000Y-59560000D03*
X158863000Y-60830000D03*
X158863000Y-62100000D03*
D33*
X160628000Y-63350000D03*
X161898000Y-63350000D03*
X163168000Y-63350000D03*
X164438000Y-63350000D03*
X165708000Y-63350000D03*
X166978000Y-63350000D03*
X168248000Y-63350000D03*
X169518000Y-63350000D03*
X170788000Y-63350000D03*
X172058000Y-63350000D03*
X173328000Y-63350000D03*
X174598000Y-63350000D03*
D32*
X176363000Y-62100000D03*
X176363000Y-60830000D03*
X176363000Y-59560000D03*
X176363000Y-58290000D03*
X176363000Y-57020000D03*
X176363000Y-55750000D03*
X176363000Y-54480000D03*
X176363000Y-53210000D03*
X176363000Y-51940000D03*
X176363000Y-50670000D03*
X176363000Y-49400000D03*
X176363000Y-48130000D03*
X176363000Y-46860000D03*
X176363000Y-45590000D03*
D34*
X166113000Y-53310000D03*
X164713000Y-51910000D03*
X164713000Y-53310000D03*
X164713000Y-54710000D03*
X166113000Y-54710000D03*
X167513000Y-54710000D03*
X167513000Y-53310000D03*
X167513000Y-51910000D03*
X166113000Y-51910000D03*
D19*
X127622300Y-88950800D03*
X133083300Y-88950800D03*
D23*
X117043200Y-65713700D03*
X117043200Y-67788700D03*
D15*
X159664400Y-107518200D03*
X159664400Y-105443200D03*
D35*
X160731200Y-94121000D03*
X160731200Y-91821000D03*
X160731200Y-89521000D03*
D36*
X167157400Y-94112900D03*
X167157400Y-92412900D03*
D13*
X151294950Y-94819050D03*
X149294950Y-94819050D03*
D37*
X163359052Y-89014300D03*
X165874700Y-89014300D03*
D12*
X160535800Y-116763800D03*
X162610800Y-116763800D03*
D38*
X168735000Y-108375700D03*
X168735000Y-105124500D03*
D12*
X161755000Y-108127800D03*
X163830000Y-108127800D03*
D24*
X167259000Y-96234700D03*
X167259000Y-98234700D03*
D17*
X136490000Y-100220000D03*
X138490000Y-100220000D03*
D23*
X115595400Y-91342300D03*
X115595400Y-93417300D03*
D15*
X158267400Y-112318800D03*
X158267400Y-110243800D03*
D14*
X120030000Y-93425000D03*
X120030000Y-91425000D03*
D17*
X154365000Y-50730000D03*
X156365000Y-50730000D03*
D13*
X122991000Y-72724800D03*
X120991000Y-72724800D03*
X162842199Y-82377201D03*
X160842199Y-82377201D03*
D30*
X126949200Y-68469726D03*
X126949200Y-69119737D03*
X126949200Y-69769749D03*
X126949200Y-70419760D03*
X126949200Y-71069772D03*
X126949200Y-71719783D03*
X126949200Y-72369794D03*
X126949200Y-73019806D03*
X126949200Y-73669817D03*
X126949200Y-74319828D03*
X126949200Y-74969840D03*
X126949200Y-75619851D03*
X126949200Y-76269863D03*
X126949200Y-76919874D03*
X132892800Y-76919874D03*
X132892800Y-76269863D03*
X132892800Y-75619851D03*
X132892800Y-74969840D03*
X132892800Y-74319828D03*
X132892800Y-73669817D03*
X132892800Y-73019806D03*
X132892800Y-72369794D03*
X132892800Y-71719783D03*
X132892800Y-71069772D03*
X132892800Y-70419760D03*
X132892800Y-69769749D03*
X132892800Y-69119737D03*
X132892800Y-68469726D03*
D31*
X129921000Y-72694800D03*
D17*
X120970800Y-54356000D03*
X122970800Y-54356000D03*
D29*
X166827200Y-113233200D03*
X164752200Y-113233200D03*
D12*
X161820000Y-103320000D03*
X163895000Y-103320000D03*
D13*
X122981000Y-74864800D03*
X120981000Y-74864800D03*
X163855400Y-100736400D03*
X161855400Y-100736400D03*
D12*
X136258500Y-76987300D03*
X138333500Y-76987300D03*
X160485000Y-114477800D03*
X162560000Y-114477800D03*
D39*
X129056950Y-116898200D03*
X129056950Y-110643800D03*
D15*
X154180000Y-48685000D03*
X154180000Y-46610000D03*
D12*
X135875000Y-102530000D03*
X137950000Y-102530000D03*
D40*
X166072199Y-82737201D03*
X166072199Y-85117201D03*
D23*
X124770000Y-91405000D03*
X124770000Y-93480000D03*
D24*
X157251400Y-105222800D03*
X157251400Y-107222800D03*
D13*
X122971000Y-70594800D03*
X120971000Y-70594800D03*
M02*
