%TF.GenerationSoftware,KiCad,Pcbnew,9.0.7*%
%TF.CreationDate,2026-04-25T00:58:38-03:00*%
%TF.ProjectId,MAQUINA_DE_BRAILLE,4d415155-494e-4415-9f44-455f42524149,rev?*%
%TF.SameCoordinates,Original*%
%TF.FileFunction,Copper,L3,Inr*%
%TF.FilePolarity,Positive*%
%FSLAX46Y46*%
G04 Gerber Fmt 4.6, Leading zero omitted, Abs format (unit mm)*
G04 Created by KiCad (PCBNEW 9.0.7) date 2026-04-25 00:58:38*
%MOMM*%
%LPD*%
G01*
G04 APERTURE LIST*
G04 Aperture macros list*
%AMRoundRect*
0 Rectangle with rounded corners*
0 $1 Rounding radius*
0 $2 $3 $4 $5 $6 $7 $8 $9 X,Y pos of 4 corners*
0 Add a 4 corners polygon primitive as box body*
4,1,4,$2,$3,$4,$5,$6,$7,$8,$9,$2,$3,0*
0 Add four circle primitives for the rounded corners*
1,1,$1+$1,$2,$3*
1,1,$1+$1,$4,$5*
1,1,$1+$1,$6,$7*
1,1,$1+$1,$8,$9*
0 Add four rect primitives between the rounded corners*
20,1,$1+$1,$2,$3,$4,$5,0*
20,1,$1+$1,$4,$5,$6,$7,0*
20,1,$1+$1,$6,$7,$8,$9,0*
20,1,$1+$1,$8,$9,$2,$3,0*%
G04 Aperture macros list end*
%TA.AperFunction,ComponentPad*%
%ADD10RoundRect,0.250000X-1.050000X1.050000X-1.050000X-1.050000X1.050000X-1.050000X1.050000X1.050000X0*%
%TD*%
%TA.AperFunction,ComponentPad*%
%ADD11C,2.600000*%
%TD*%
%TA.AperFunction,ComponentPad*%
%ADD12RoundRect,0.250000X0.750000X-0.750000X0.750000X0.750000X-0.750000X0.750000X-0.750000X-0.750000X0*%
%TD*%
%TA.AperFunction,ComponentPad*%
%ADD13C,2.000000*%
%TD*%
%TA.AperFunction,ComponentPad*%
%ADD14RoundRect,0.250000X1.050000X-1.050000X1.050000X1.050000X-1.050000X1.050000X-1.050000X-1.050000X0*%
%TD*%
%TA.AperFunction,HeatsinkPad*%
%ADD15O,2.100000X1.000000*%
%TD*%
%TA.AperFunction,HeatsinkPad*%
%ADD16O,1.800000X1.000000*%
%TD*%
%TA.AperFunction,ComponentPad*%
%ADD17C,0.800000*%
%TD*%
%TA.AperFunction,ComponentPad*%
%ADD18C,6.000000*%
%TD*%
%TA.AperFunction,ComponentPad*%
%ADD19RoundRect,0.250000X-0.750000X0.750000X-0.750000X-0.750000X0.750000X-0.750000X0.750000X0.750000X0*%
%TD*%
%TA.AperFunction,ViaPad*%
%ADD20C,0.700000*%
%TD*%
%TA.AperFunction,Conductor*%
%ADD21C,0.700000*%
%TD*%
G04 APERTURE END LIST*
D10*
X116876950Y-111328200D03*
D11*
X116876950Y-116408200D03*
D12*
X114971000Y-79944800D03*
D13*
X114971000Y-77404800D03*
X114971000Y-74864800D03*
X114971000Y-72324800D03*
D14*
X183300000Y-118730000D03*
D11*
X183300000Y-113650000D03*
D12*
X186597500Y-52975000D03*
D13*
X186597500Y-50435000D03*
X186597500Y-47895000D03*
D15*
X113508200Y-53477000D03*
D16*
X109328200Y-53477000D03*
D15*
X113508200Y-62117000D03*
D16*
X109328200Y-62117000D03*
D12*
X115170000Y-105470000D03*
D13*
X115170000Y-102930000D03*
X115170000Y-100390000D03*
X115170000Y-97850000D03*
D12*
X186867500Y-62905000D03*
D13*
X186867500Y-60365000D03*
X186867500Y-57825000D03*
D17*
X108341600Y-48158400D03*
X109000610Y-46567410D03*
X109000610Y-49749390D03*
X110591600Y-45908400D03*
D18*
X110591600Y-48158400D03*
D17*
X110591600Y-50408400D03*
X112182590Y-46567410D03*
X112182590Y-49749390D03*
X112841600Y-48158400D03*
D19*
X186000000Y-68940000D03*
D13*
X186000000Y-71480000D03*
X186000000Y-74020000D03*
X186000000Y-76560000D03*
X186000000Y-79100000D03*
X186000000Y-81640000D03*
X186000000Y-84180000D03*
X186000000Y-86720000D03*
X186000000Y-89260000D03*
X186000000Y-91800000D03*
X186000000Y-94340000D03*
X186000000Y-96880000D03*
X186000000Y-99420000D03*
X186000000Y-101960000D03*
X186000000Y-104500000D03*
X186000000Y-107040000D03*
D17*
X192551810Y-125891610D03*
X193210820Y-124300620D03*
X193210820Y-127482600D03*
X194801810Y-123641610D03*
D18*
X194801810Y-125891610D03*
D17*
X194801810Y-128141610D03*
X196392800Y-124300620D03*
X196392800Y-127482600D03*
X197051810Y-125891610D03*
X192577210Y-48193010D03*
X193236220Y-46602020D03*
X193236220Y-49784000D03*
X194827210Y-45943010D03*
D18*
X194827210Y-48193010D03*
D17*
X194827210Y-50443010D03*
X196418200Y-46602020D03*
X196418200Y-49784000D03*
X197077210Y-48193010D03*
X108428400Y-125780800D03*
X109087410Y-124189810D03*
X109087410Y-127371790D03*
X110678400Y-123530800D03*
D18*
X110678400Y-125780800D03*
D17*
X110678400Y-128030800D03*
X112269390Y-124189810D03*
X112269390Y-127371790D03*
X112928400Y-125780800D03*
D20*
X161830000Y-109750000D03*
X165380000Y-117590000D03*
X125914788Y-96305916D03*
X125462409Y-70612672D03*
X138229200Y-65989200D03*
X122681000Y-63984800D03*
X166649400Y-78536800D03*
X123680000Y-89660000D03*
X160620000Y-121060000D03*
X124654450Y-117343200D03*
X126010000Y-101170000D03*
X125401000Y-75594800D03*
X127330000Y-104230000D03*
X129235200Y-98018600D03*
X129971800Y-74828400D03*
X129250000Y-101760000D03*
X134950200Y-94157800D03*
X130987800Y-72339200D03*
X131445000Y-96240600D03*
X129235200Y-96240600D03*
X135686800Y-88950800D03*
X165275000Y-108180000D03*
X119534200Y-70649726D03*
X131419600Y-98018600D03*
X117610000Y-95040000D03*
X134797800Y-65227200D03*
X126871000Y-78534800D03*
X117017800Y-69291200D03*
X167260200Y-99570000D03*
X139739200Y-76922226D03*
X128803400Y-72339200D03*
X130360000Y-95030000D03*
X119584200Y-74869726D03*
X130276600Y-98907600D03*
X129946400Y-73202800D03*
X139390000Y-102480000D03*
X159419999Y-82452200D03*
X131445000Y-99771200D03*
X130276600Y-97155000D03*
X131520000Y-94460000D03*
X128828800Y-74091800D03*
X180340000Y-118745000D03*
X164070000Y-114690000D03*
X119710000Y-98930000D03*
X134950200Y-68478400D03*
X135000000Y-100000000D03*
X131040000Y-76050000D03*
X164236400Y-96545400D03*
X131470000Y-101750000D03*
X129260600Y-99771200D03*
X129895600Y-76530200D03*
X129940000Y-69670000D03*
X165315000Y-105930000D03*
X131013200Y-70561200D03*
X159620000Y-104022500D03*
X119660000Y-96780000D03*
X114706400Y-69164200D03*
X167601900Y-89014300D03*
X146239950Y-96166650D03*
X163340001Y-112387800D03*
X160743900Y-95389700D03*
X119660000Y-101270000D03*
X115646200Y-94996000D03*
X128770000Y-68940000D03*
X129180000Y-94470000D03*
X156540000Y-110382500D03*
X134661000Y-74724800D03*
X130350000Y-102350000D03*
X128803400Y-70561200D03*
X119584200Y-72729726D03*
X131013200Y-74091800D03*
X131080000Y-68940000D03*
X130302000Y-100533200D03*
X174472600Y-123291600D03*
X128810000Y-76070000D03*
X129946400Y-71450200D03*
X164110000Y-116750000D03*
X152654000Y-48685000D03*
X160140000Y-87850000D03*
X158500000Y-93500000D03*
X154500000Y-94970000D03*
X158500000Y-89500000D03*
X156500000Y-89500000D03*
X156500000Y-95500000D03*
X158500000Y-95500000D03*
X158210000Y-87830000D03*
X156500000Y-93500000D03*
X152880000Y-50730000D03*
X168606400Y-92407200D03*
X158500000Y-91500000D03*
X156130000Y-87810000D03*
X156500000Y-91500000D03*
X161510000Y-80890000D03*
X117805200Y-60629800D03*
X124724450Y-110193200D03*
X125561000Y-72314800D03*
X125521000Y-73244800D03*
X124301000Y-74964800D03*
X124305620Y-71010180D03*
X126040000Y-99150000D03*
X125985006Y-98054994D03*
X124470000Y-96754983D03*
X124190000Y-101040000D03*
X172955600Y-56674400D03*
X173761400Y-59131200D03*
X162306000Y-46050200D03*
X156405700Y-54780300D03*
X169690000Y-69780000D03*
X173820000Y-61880000D03*
X142036800Y-76650000D03*
X162620000Y-65460000D03*
X160570000Y-84420000D03*
X160320000Y-55420000D03*
X184010000Y-84200000D03*
X160500000Y-50670000D03*
X134411000Y-73674800D03*
X184010000Y-89260000D03*
X184020000Y-74010000D03*
X135841000Y-71719772D03*
X160630000Y-49400000D03*
X140944600Y-66598800D03*
X158580000Y-65110000D03*
X184020000Y-79100000D03*
X168850000Y-61020000D03*
X169550000Y-67210000D03*
X183890000Y-101940000D03*
X184020000Y-86700000D03*
X166840000Y-58660000D03*
X167199240Y-70910760D03*
X183870000Y-99450000D03*
X154700000Y-74624972D03*
X159540000Y-74620000D03*
X184020000Y-107080000D03*
X183900000Y-91810000D03*
X184060000Y-71460000D03*
X184010000Y-76560000D03*
X136292486Y-97432486D03*
X165520000Y-57970000D03*
X184010000Y-68930000D03*
X155751369Y-73988027D03*
X157950000Y-73970000D03*
X160800000Y-62000000D03*
X150600000Y-75340000D03*
X183930000Y-94340000D03*
X184030000Y-104480000D03*
X183910000Y-81640000D03*
X183980000Y-96880000D03*
X169110000Y-53990000D03*
X184937400Y-60350400D03*
X160705800Y-73456800D03*
X167513000Y-51917600D03*
X124940800Y-54396000D03*
X157933172Y-65760000D03*
X167513000Y-54710000D03*
X166116000Y-51866800D03*
X152740000Y-53030000D03*
X172389800Y-59029600D03*
X149756667Y-75654313D03*
X171860000Y-56800000D03*
X162737800Y-46939200D03*
X156489400Y-72923400D03*
X172860000Y-57720000D03*
X153226580Y-71794180D03*
X124952400Y-59131200D03*
X170611800Y-70459600D03*
X166253280Y-71587480D03*
X170350000Y-52840000D03*
X154040000Y-45350000D03*
X166650000Y-48800000D03*
X169140000Y-51680000D03*
X167538400Y-53314600D03*
X156470000Y-45310000D03*
X166136166Y-53310000D03*
X172900000Y-61330000D03*
X157959504Y-64458089D03*
X168370220Y-67194220D03*
X158826200Y-73101200D03*
X167630000Y-50170000D03*
X164693600Y-57251600D03*
X174498000Y-115722400D03*
X152655100Y-58592200D03*
X178060000Y-45560000D03*
X143103600Y-56388000D03*
X141337898Y-77217046D03*
X170170000Y-50220000D03*
X165370000Y-47360000D03*
X143179800Y-49555400D03*
X166116000Y-54737000D03*
X168900000Y-70410000D03*
X164719000Y-54737000D03*
X135280400Y-97348600D03*
X168075486Y-61478400D03*
X150474205Y-74445734D03*
X142526670Y-77405004D03*
X164340000Y-48770000D03*
X167780000Y-47360000D03*
X164719000Y-51866800D03*
X141097000Y-65252600D03*
X152095200Y-72847200D03*
X169080000Y-48800000D03*
X165420000Y-50170000D03*
X173550000Y-60390000D03*
X171470000Y-54010000D03*
X166319200Y-57302400D03*
X167792400Y-71856600D03*
X170290000Y-55220000D03*
X142036800Y-67462400D03*
X135100000Y-72269772D03*
X161518600Y-45364400D03*
X171450000Y-51660000D03*
X184429400Y-50419000D03*
X164719000Y-53289200D03*
D21*
X123280000Y-94471128D02*
X123280000Y-98440000D01*
X166649400Y-78536800D02*
X150776800Y-78536800D01*
X123680000Y-89660000D02*
X123401000Y-89381000D01*
X123680000Y-89660000D02*
X123680000Y-94071128D01*
X123401000Y-64704800D02*
X122681000Y-63984800D01*
X123401000Y-65464800D02*
X123401000Y-64704800D01*
X123280000Y-98440000D02*
X126010000Y-101170000D01*
X123680000Y-94071128D02*
X123280000Y-94471128D01*
X125348872Y-70612672D02*
X123401000Y-68664800D01*
X123401000Y-89381000D02*
X123401000Y-77594800D01*
X150776800Y-78536800D02*
X138229200Y-65989200D01*
X123401000Y-77594800D02*
X123401000Y-65464800D01*
X125462409Y-70612672D02*
X125348872Y-70612672D01*
X123680000Y-94071128D02*
X125914788Y-96305916D01*
X123401000Y-77594800D02*
X125401000Y-75594800D01*
X123401000Y-68664800D02*
X123401000Y-65464800D01*
%TA.AperFunction,Conductor*%
G36*
X153224353Y-44830185D02*
G01*
X153270108Y-44882989D01*
X153280052Y-44952147D01*
X153271875Y-44981952D01*
X153222185Y-45101913D01*
X153222182Y-45101925D01*
X153189500Y-45266228D01*
X153189500Y-45433771D01*
X153222182Y-45598074D01*
X153222184Y-45598082D01*
X153286295Y-45752860D01*
X153379373Y-45892162D01*
X153497837Y-46010626D01*
X153590494Y-46072537D01*
X153637137Y-46103703D01*
X153791918Y-46167816D01*
X153956228Y-46200499D01*
X153956232Y-46200500D01*
X153956233Y-46200500D01*
X154123768Y-46200500D01*
X154123769Y-46200499D01*
X154288082Y-46167816D01*
X154442863Y-46103703D01*
X154582162Y-46010626D01*
X154700626Y-45892162D01*
X154793703Y-45752863D01*
X154857816Y-45598082D01*
X154890500Y-45433767D01*
X154890500Y-45266233D01*
X154857816Y-45101918D01*
X154857814Y-45101913D01*
X154808125Y-44981952D01*
X154800656Y-44912483D01*
X154831931Y-44850004D01*
X154892020Y-44814352D01*
X154922686Y-44810500D01*
X155570746Y-44810500D01*
X155637785Y-44830185D01*
X155683540Y-44882989D01*
X155693484Y-44952147D01*
X155685307Y-44981953D01*
X155652184Y-45061917D01*
X155652182Y-45061925D01*
X155619500Y-45226228D01*
X155619500Y-45393771D01*
X155652182Y-45558074D01*
X155652184Y-45558082D01*
X155716295Y-45712860D01*
X155809373Y-45852162D01*
X155927837Y-45970626D01*
X155987702Y-46010626D01*
X156067137Y-46063703D01*
X156221918Y-46127816D01*
X156386228Y-46160499D01*
X156386232Y-46160500D01*
X156386233Y-46160500D01*
X156553768Y-46160500D01*
X156553769Y-46160499D01*
X156718082Y-46127816D01*
X156872863Y-46063703D01*
X157012162Y-45970626D01*
X157130626Y-45852162D01*
X157223703Y-45712863D01*
X157287816Y-45558082D01*
X157320500Y-45393767D01*
X157320500Y-45226233D01*
X157287816Y-45061918D01*
X157254692Y-44981952D01*
X157247224Y-44912484D01*
X157278499Y-44850004D01*
X157338588Y-44814352D01*
X157369254Y-44810500D01*
X160641879Y-44810500D01*
X160708918Y-44830185D01*
X160754673Y-44882989D01*
X160764617Y-44952147D01*
X160756440Y-44981953D01*
X160700784Y-45116317D01*
X160700782Y-45116325D01*
X160668100Y-45280628D01*
X160668100Y-45448171D01*
X160700782Y-45612474D01*
X160700784Y-45612482D01*
X160764895Y-45767260D01*
X160857973Y-45906562D01*
X160976437Y-46025026D01*
X161034322Y-46063703D01*
X161115737Y-46118103D01*
X161115738Y-46118103D01*
X161115739Y-46118104D01*
X161139186Y-46127816D01*
X161270518Y-46182216D01*
X161391852Y-46206350D01*
X161453761Y-46238734D01*
X161484653Y-46292984D01*
X161486415Y-46292450D01*
X161488184Y-46298282D01*
X161552295Y-46453060D01*
X161645373Y-46592362D01*
X161763834Y-46710823D01*
X161763842Y-46710829D01*
X161832190Y-46756498D01*
X161876996Y-46810110D01*
X161887300Y-46859600D01*
X161887300Y-47022971D01*
X161919982Y-47187274D01*
X161919984Y-47187282D01*
X161984095Y-47342060D01*
X162077173Y-47481362D01*
X162195637Y-47599826D01*
X162288294Y-47661737D01*
X162334937Y-47692903D01*
X162489718Y-47757016D01*
X162589693Y-47776902D01*
X162654028Y-47789699D01*
X162654032Y-47789700D01*
X162654033Y-47789700D01*
X162821568Y-47789700D01*
X162821569Y-47789699D01*
X162985882Y-47757016D01*
X163140663Y-47692903D01*
X163279962Y-47599826D01*
X163398426Y-47481362D01*
X163491503Y-47342063D01*
X163555616Y-47187282D01*
X163588300Y-47022967D01*
X163588300Y-46855433D01*
X163555616Y-46691118D01*
X163491503Y-46536337D01*
X163435859Y-46453060D01*
X163398426Y-46397037D01*
X163279965Y-46278576D01*
X163279961Y-46278573D01*
X163211609Y-46232901D01*
X163166804Y-46179288D01*
X163156500Y-46129799D01*
X163156500Y-45966432D01*
X163156499Y-45966428D01*
X163125002Y-45808082D01*
X163123816Y-45802118D01*
X163059703Y-45647337D01*
X163026786Y-45598074D01*
X162966626Y-45508037D01*
X162848162Y-45389573D01*
X162708860Y-45296495D01*
X162554082Y-45232384D01*
X162554074Y-45232382D01*
X162432749Y-45208249D01*
X162370838Y-45175864D01*
X162342010Y-45133183D01*
X162337609Y-45122319D01*
X162336416Y-45116318D01*
X162280609Y-44981591D01*
X162280391Y-44981051D01*
X162276979Y-44946790D01*
X162273291Y-44912483D01*
X162273518Y-44912029D01*
X162273468Y-44911525D01*
X162289116Y-44880868D01*
X162304566Y-44850004D01*
X162305002Y-44849744D01*
X162305233Y-44849294D01*
X162335016Y-44831936D01*
X162364655Y-44814352D01*
X162365339Y-44814266D01*
X162365600Y-44814114D01*
X162366305Y-44814144D01*
X162395321Y-44810500D01*
X177307355Y-44810500D01*
X177374394Y-44830185D01*
X177420149Y-44882989D01*
X177430093Y-44952147D01*
X177403211Y-45013161D01*
X177399376Y-45017833D01*
X177306295Y-45157139D01*
X177242184Y-45311917D01*
X177242182Y-45311925D01*
X177209500Y-45476228D01*
X177209500Y-45643771D01*
X177242182Y-45808074D01*
X177242184Y-45808082D01*
X177306295Y-45962860D01*
X177399373Y-46102162D01*
X177517837Y-46220626D01*
X177544938Y-46238734D01*
X177657137Y-46313703D01*
X177811918Y-46377816D01*
X177976228Y-46410499D01*
X177976232Y-46410500D01*
X177976233Y-46410500D01*
X178143768Y-46410500D01*
X178143769Y-46410499D01*
X178308082Y-46377816D01*
X178462863Y-46313703D01*
X178602162Y-46220626D01*
X178720626Y-46102162D01*
X178813703Y-45962863D01*
X178877816Y-45808082D01*
X178910500Y-45643767D01*
X178910500Y-45476233D01*
X178877816Y-45311918D01*
X178813703Y-45157137D01*
X178750084Y-45061925D01*
X178720623Y-45017833D01*
X178716789Y-45013161D01*
X178689478Y-44948850D01*
X178701272Y-44879983D01*
X178748426Y-44828425D01*
X178812645Y-44810500D01*
X198094700Y-44810500D01*
X198161739Y-44830185D01*
X198207494Y-44882989D01*
X198218700Y-44934500D01*
X198218700Y-129133500D01*
X198199015Y-129200539D01*
X198146211Y-129246294D01*
X198094700Y-129257500D01*
X107276500Y-129257500D01*
X107209461Y-129237815D01*
X107163706Y-129185011D01*
X107152500Y-129133500D01*
X107152500Y-120976228D01*
X159769500Y-120976228D01*
X159769500Y-121143771D01*
X159802182Y-121308074D01*
X159802184Y-121308082D01*
X159866295Y-121462860D01*
X159959373Y-121602162D01*
X160077837Y-121720626D01*
X160170494Y-121782537D01*
X160217137Y-121813703D01*
X160371918Y-121877816D01*
X160536228Y-121910499D01*
X160536232Y-121910500D01*
X160536233Y-121910500D01*
X160703768Y-121910500D01*
X160703769Y-121910499D01*
X160868082Y-121877816D01*
X161022863Y-121813703D01*
X161162162Y-121720626D01*
X161280626Y-121602162D01*
X161373703Y-121462863D01*
X161437816Y-121308082D01*
X161470500Y-121143767D01*
X161470500Y-120976233D01*
X161437816Y-120811918D01*
X161373703Y-120657137D01*
X161288752Y-120529999D01*
X161280626Y-120517837D01*
X161162162Y-120399373D01*
X161022860Y-120306295D01*
X160868082Y-120242184D01*
X160868074Y-120242182D01*
X160703771Y-120209500D01*
X160703767Y-120209500D01*
X160536233Y-120209500D01*
X160536228Y-120209500D01*
X160371925Y-120242182D01*
X160371917Y-120242184D01*
X160217139Y-120306295D01*
X160077837Y-120399373D01*
X159959373Y-120517837D01*
X159866295Y-120657139D01*
X159802184Y-120811917D01*
X159802182Y-120811925D01*
X159769500Y-120976228D01*
X107152500Y-120976228D01*
X107152500Y-116290195D01*
X115076450Y-116290195D01*
X115076450Y-116526204D01*
X115076451Y-116526220D01*
X115107256Y-116760210D01*
X115168344Y-116988193D01*
X115258664Y-117206245D01*
X115258669Y-117206256D01*
X115329627Y-117329157D01*
X115376677Y-117410650D01*
X115376679Y-117410653D01*
X115376680Y-117410654D01*
X115520356Y-117597897D01*
X115520362Y-117597904D01*
X115687245Y-117764787D01*
X115687252Y-117764793D01*
X115797256Y-117849201D01*
X115874500Y-117908473D01*
X116005868Y-117984318D01*
X116078893Y-118026480D01*
X116078898Y-118026482D01*
X116078901Y-118026484D01*
X116296957Y-118116806D01*
X116524936Y-118177893D01*
X116758939Y-118208700D01*
X116758946Y-118208700D01*
X116994954Y-118208700D01*
X116994961Y-118208700D01*
X117228964Y-118177893D01*
X117456943Y-118116806D01*
X117674999Y-118026484D01*
X117879400Y-117908473D01*
X118066649Y-117764792D01*
X118233542Y-117597899D01*
X118377223Y-117410650D01*
X118464531Y-117259428D01*
X123803950Y-117259428D01*
X123803950Y-117426971D01*
X123836632Y-117591274D01*
X123836634Y-117591282D01*
X123900745Y-117746060D01*
X123993823Y-117885362D01*
X124112287Y-118003826D01*
X124146199Y-118026485D01*
X124251587Y-118096903D01*
X124406368Y-118161016D01*
X124570678Y-118193699D01*
X124570682Y-118193700D01*
X124570683Y-118193700D01*
X124738218Y-118193700D01*
X124738219Y-118193699D01*
X124902532Y-118161016D01*
X125057313Y-118096903D01*
X125196612Y-118003826D01*
X125315076Y-117885362D01*
X125408153Y-117746063D01*
X125472266Y-117591282D01*
X125489184Y-117506228D01*
X164529500Y-117506228D01*
X164529500Y-117673771D01*
X164562182Y-117838074D01*
X164562184Y-117838082D01*
X164626295Y-117992860D01*
X164719373Y-118132162D01*
X164837837Y-118250626D01*
X164930494Y-118312537D01*
X164977137Y-118343703D01*
X165131918Y-118407816D01*
X165296228Y-118440499D01*
X165296232Y-118440500D01*
X165296233Y-118440500D01*
X165463768Y-118440500D01*
X165463769Y-118440499D01*
X165628082Y-118407816D01*
X165782863Y-118343703D01*
X165922162Y-118250626D01*
X166040626Y-118132162D01*
X166133703Y-117992863D01*
X166197816Y-117838082D01*
X166230500Y-117673767D01*
X166230500Y-117630013D01*
X181500000Y-117630013D01*
X181500000Y-118480000D01*
X182699999Y-118480000D01*
X182674979Y-118540402D01*
X182650000Y-118665981D01*
X182650000Y-118794019D01*
X182674979Y-118919598D01*
X182699999Y-118980000D01*
X181500001Y-118980000D01*
X181500001Y-119829986D01*
X181510494Y-119932697D01*
X181565641Y-120099119D01*
X181565643Y-120099124D01*
X181657684Y-120248345D01*
X181781654Y-120372315D01*
X181930875Y-120464356D01*
X181930880Y-120464358D01*
X182097302Y-120519505D01*
X182097309Y-120519506D01*
X182200019Y-120529999D01*
X183049999Y-120529999D01*
X183050000Y-120529998D01*
X183050000Y-119330001D01*
X183110402Y-119355021D01*
X183235981Y-119380000D01*
X183364019Y-119380000D01*
X183489598Y-119355021D01*
X183550000Y-119330001D01*
X183550000Y-120529999D01*
X184399972Y-120529999D01*
X184399986Y-120529998D01*
X184502697Y-120519505D01*
X184669119Y-120464358D01*
X184669124Y-120464356D01*
X184818345Y-120372315D01*
X184942315Y-120248345D01*
X185034356Y-120099124D01*
X185034358Y-120099119D01*
X185089505Y-119932697D01*
X185089506Y-119932690D01*
X185099999Y-119829986D01*
X185100000Y-119829973D01*
X185100000Y-118980000D01*
X183900001Y-118980000D01*
X183925021Y-118919598D01*
X183950000Y-118794019D01*
X183950000Y-118665981D01*
X183925021Y-118540402D01*
X183900001Y-118480000D01*
X185099999Y-118480000D01*
X185099999Y-117630028D01*
X185099998Y-117630013D01*
X185089505Y-117527302D01*
X185034358Y-117360880D01*
X185034356Y-117360875D01*
X184942315Y-117211654D01*
X184818345Y-117087684D01*
X184669124Y-116995643D01*
X184669119Y-116995641D01*
X184502697Y-116940494D01*
X184502690Y-116940493D01*
X184399986Y-116930000D01*
X183550000Y-116930000D01*
X183550000Y-118129998D01*
X183489598Y-118104979D01*
X183364019Y-118080000D01*
X183235981Y-118080000D01*
X183110402Y-118104979D01*
X183050000Y-118129998D01*
X183050000Y-116930000D01*
X182200028Y-116930000D01*
X182200012Y-116930001D01*
X182097302Y-116940494D01*
X181930880Y-116995641D01*
X181930875Y-116995643D01*
X181781654Y-117087684D01*
X181657684Y-117211654D01*
X181565643Y-117360875D01*
X181565641Y-117360880D01*
X181510494Y-117527302D01*
X181510493Y-117527309D01*
X181500000Y-117630013D01*
X166230500Y-117630013D01*
X166230500Y-117506233D01*
X166197816Y-117341918D01*
X166143858Y-117211654D01*
X166133704Y-117187139D01*
X166040626Y-117047837D01*
X165922162Y-116929373D01*
X165782860Y-116836295D01*
X165628082Y-116772184D01*
X165628074Y-116772182D01*
X165463771Y-116739500D01*
X165463767Y-116739500D01*
X165296233Y-116739500D01*
X165296228Y-116739500D01*
X165131925Y-116772182D01*
X165131917Y-116772184D01*
X164977139Y-116836295D01*
X164837837Y-116929373D01*
X164719373Y-117047837D01*
X164626295Y-117187139D01*
X164562184Y-117341917D01*
X164562182Y-117341925D01*
X164529500Y-117506228D01*
X125489184Y-117506228D01*
X125504950Y-117426967D01*
X125504950Y-117259433D01*
X125472266Y-117095118D01*
X125408153Y-116940337D01*
X125376987Y-116893694D01*
X125315076Y-116801037D01*
X125196612Y-116682573D01*
X125057310Y-116589495D01*
X124902532Y-116525384D01*
X124902524Y-116525382D01*
X124738221Y-116492700D01*
X124738217Y-116492700D01*
X124570683Y-116492700D01*
X124570678Y-116492700D01*
X124406375Y-116525382D01*
X124406367Y-116525384D01*
X124251589Y-116589495D01*
X124112287Y-116682573D01*
X123993823Y-116801037D01*
X123900745Y-116940339D01*
X123836634Y-117095117D01*
X123836632Y-117095125D01*
X123803950Y-117259428D01*
X118464531Y-117259428D01*
X118495234Y-117206249D01*
X118495239Y-117206238D01*
X118495386Y-117205884D01*
X118541266Y-117095118D01*
X118585556Y-116988193D01*
X118646643Y-116760214D01*
X118677450Y-116526211D01*
X118677450Y-116290189D01*
X118646643Y-116056186D01*
X118585556Y-115828207D01*
X118507030Y-115638628D01*
X173647500Y-115638628D01*
X173647500Y-115806171D01*
X173680182Y-115970474D01*
X173680184Y-115970482D01*
X173744295Y-116125260D01*
X173837373Y-116264562D01*
X173955837Y-116383026D01*
X174048494Y-116444937D01*
X174095137Y-116476103D01*
X174249918Y-116540216D01*
X174414228Y-116572899D01*
X174414232Y-116572900D01*
X174414233Y-116572900D01*
X174581768Y-116572900D01*
X174581769Y-116572899D01*
X174746082Y-116540216D01*
X174900863Y-116476103D01*
X175040162Y-116383026D01*
X175158626Y-116264562D01*
X175251703Y-116125263D01*
X175315816Y-115970482D01*
X175348500Y-115806167D01*
X175348500Y-115638633D01*
X175315816Y-115474318D01*
X175251703Y-115319537D01*
X175217454Y-115268280D01*
X175158626Y-115180237D01*
X175040162Y-115061773D01*
X174900860Y-114968695D01*
X174746082Y-114904584D01*
X174746074Y-114904582D01*
X174581771Y-114871900D01*
X174581767Y-114871900D01*
X174414233Y-114871900D01*
X174414228Y-114871900D01*
X174249925Y-114904582D01*
X174249917Y-114904584D01*
X174095139Y-114968695D01*
X173955837Y-115061773D01*
X173837373Y-115180237D01*
X173744295Y-115319539D01*
X173680184Y-115474317D01*
X173680182Y-115474325D01*
X173647500Y-115638628D01*
X118507030Y-115638628D01*
X118495234Y-115610151D01*
X118495232Y-115610148D01*
X118495230Y-115610143D01*
X118453068Y-115537118D01*
X118377223Y-115405750D01*
X118233542Y-115218501D01*
X118233537Y-115218495D01*
X118066654Y-115051612D01*
X118066647Y-115051606D01*
X117879404Y-114907930D01*
X117879403Y-114907929D01*
X117879400Y-114907927D01*
X117797907Y-114860877D01*
X117675006Y-114789919D01*
X117674995Y-114789914D01*
X117456943Y-114699594D01*
X117228960Y-114638506D01*
X116994970Y-114607701D01*
X116994967Y-114607700D01*
X116994961Y-114607700D01*
X116758939Y-114607700D01*
X116758933Y-114607700D01*
X116758929Y-114607701D01*
X116524939Y-114638506D01*
X116296956Y-114699594D01*
X116078904Y-114789914D01*
X116078893Y-114789919D01*
X115874495Y-114907930D01*
X115687252Y-115051606D01*
X115687245Y-115051612D01*
X115520362Y-115218495D01*
X115520356Y-115218502D01*
X115376680Y-115405745D01*
X115258669Y-115610143D01*
X115258664Y-115610154D01*
X115168344Y-115828206D01*
X115107256Y-116056189D01*
X115076451Y-116290179D01*
X115076450Y-116290195D01*
X107152500Y-116290195D01*
X107152500Y-113531995D01*
X181499500Y-113531995D01*
X181499500Y-113768004D01*
X181499501Y-113768020D01*
X181530306Y-114002010D01*
X181591394Y-114229993D01*
X181681714Y-114448045D01*
X181681719Y-114448056D01*
X181752677Y-114570957D01*
X181799727Y-114652450D01*
X181799729Y-114652453D01*
X181799730Y-114652454D01*
X181943406Y-114839697D01*
X181943412Y-114839704D01*
X182110295Y-115006587D01*
X182110301Y-115006592D01*
X182297550Y-115150273D01*
X182415726Y-115218502D01*
X182501943Y-115268280D01*
X182501948Y-115268282D01*
X182501951Y-115268284D01*
X182720007Y-115358606D01*
X182947986Y-115419693D01*
X183181989Y-115450500D01*
X183181996Y-115450500D01*
X183418004Y-115450500D01*
X183418011Y-115450500D01*
X183652014Y-115419693D01*
X183879993Y-115358606D01*
X184098049Y-115268284D01*
X184302450Y-115150273D01*
X184489699Y-115006592D01*
X184656592Y-114839699D01*
X184800273Y-114652450D01*
X184918284Y-114448049D01*
X185008606Y-114229993D01*
X185069693Y-114002014D01*
X185100500Y-113768011D01*
X185100500Y-113531989D01*
X185069693Y-113297986D01*
X185008606Y-113070007D01*
X184918284Y-112851951D01*
X184918282Y-112851948D01*
X184918280Y-112851943D01*
X184829131Y-112697534D01*
X184800273Y-112647550D01*
X184656592Y-112460301D01*
X184656587Y-112460295D01*
X184489704Y-112293412D01*
X184489697Y-112293406D01*
X184302454Y-112149730D01*
X184302453Y-112149729D01*
X184302450Y-112149727D01*
X184220957Y-112102677D01*
X184098056Y-112031719D01*
X184098045Y-112031714D01*
X183879993Y-111941394D01*
X183652010Y-111880306D01*
X183418020Y-111849501D01*
X183418017Y-111849500D01*
X183418011Y-111849500D01*
X183181989Y-111849500D01*
X183181983Y-111849500D01*
X183181979Y-111849501D01*
X182947989Y-111880306D01*
X182720006Y-111941394D01*
X182501954Y-112031714D01*
X182501943Y-112031719D01*
X182297545Y-112149730D01*
X182110302Y-112293406D01*
X182110295Y-112293412D01*
X181943412Y-112460295D01*
X181943406Y-112460302D01*
X181799730Y-112647545D01*
X181681719Y-112851943D01*
X181681714Y-112851954D01*
X181591394Y-113070006D01*
X181530306Y-113297989D01*
X181499501Y-113531979D01*
X181499500Y-113531995D01*
X107152500Y-113531995D01*
X107152500Y-110228183D01*
X115076450Y-110228183D01*
X115076450Y-112428201D01*
X115076451Y-112428218D01*
X115086950Y-112530996D01*
X115086951Y-112530999D01*
X115125571Y-112647545D01*
X115142136Y-112697534D01*
X115234238Y-112846856D01*
X115358294Y-112970912D01*
X115507616Y-113063014D01*
X115674153Y-113118199D01*
X115776941Y-113128700D01*
X117976958Y-113128699D01*
X118079747Y-113118199D01*
X118246284Y-113063014D01*
X118395606Y-112970912D01*
X118519662Y-112846856D01*
X118611764Y-112697534D01*
X118666949Y-112530997D01*
X118677450Y-112428209D01*
X118677449Y-110228192D01*
X118666949Y-110125403D01*
X118661655Y-110109428D01*
X123873950Y-110109428D01*
X123873950Y-110276971D01*
X123906632Y-110441274D01*
X123906634Y-110441282D01*
X123970745Y-110596060D01*
X124063823Y-110735362D01*
X124182287Y-110853826D01*
X124274944Y-110915737D01*
X124321587Y-110946903D01*
X124476368Y-111011016D01*
X124640678Y-111043699D01*
X124640682Y-111043700D01*
X124640683Y-111043700D01*
X124808218Y-111043700D01*
X124808219Y-111043699D01*
X124972532Y-111011016D01*
X125127313Y-110946903D01*
X125266612Y-110853826D01*
X125385076Y-110735362D01*
X125478153Y-110596063D01*
X125542266Y-110441282D01*
X125574950Y-110276967D01*
X125574950Y-110109433D01*
X125542266Y-109945118D01*
X125478153Y-109790337D01*
X125395229Y-109666233D01*
X125395226Y-109666228D01*
X160979500Y-109666228D01*
X160979500Y-109833771D01*
X161012182Y-109998074D01*
X161012184Y-109998082D01*
X161076295Y-110152860D01*
X161169373Y-110292162D01*
X161287837Y-110410626D01*
X161380494Y-110472537D01*
X161427137Y-110503703D01*
X161581918Y-110567816D01*
X161746228Y-110600499D01*
X161746232Y-110600500D01*
X161746233Y-110600500D01*
X161913768Y-110600500D01*
X161913769Y-110600499D01*
X162078082Y-110567816D01*
X162232863Y-110503703D01*
X162372162Y-110410626D01*
X162490626Y-110292162D01*
X162583703Y-110152863D01*
X162647816Y-109998082D01*
X162680500Y-109833767D01*
X162680500Y-109666233D01*
X162647816Y-109501918D01*
X162583703Y-109347137D01*
X162552537Y-109300494D01*
X162490626Y-109207837D01*
X162372162Y-109089373D01*
X162232860Y-108996295D01*
X162078082Y-108932184D01*
X162078074Y-108932182D01*
X161913771Y-108899500D01*
X161913767Y-108899500D01*
X161746233Y-108899500D01*
X161746228Y-108899500D01*
X161581925Y-108932182D01*
X161581917Y-108932184D01*
X161427139Y-108996295D01*
X161287837Y-109089373D01*
X161169373Y-109207837D01*
X161076295Y-109347139D01*
X161012184Y-109501917D01*
X161012182Y-109501925D01*
X160979500Y-109666228D01*
X125395226Y-109666228D01*
X125385079Y-109651042D01*
X125385073Y-109651034D01*
X125266612Y-109532573D01*
X125127310Y-109439495D01*
X124972532Y-109375384D01*
X124972524Y-109375382D01*
X124808221Y-109342700D01*
X124808217Y-109342700D01*
X124640683Y-109342700D01*
X124640678Y-109342700D01*
X124476375Y-109375382D01*
X124476367Y-109375384D01*
X124321589Y-109439495D01*
X124182287Y-109532573D01*
X124063823Y-109651037D01*
X123970745Y-109790339D01*
X123906634Y-109945117D01*
X123906632Y-109945125D01*
X123873950Y-110109428D01*
X118661655Y-110109428D01*
X118611764Y-109958866D01*
X118519662Y-109809544D01*
X118395606Y-109685488D01*
X118246284Y-109593386D01*
X118079747Y-109538201D01*
X118079745Y-109538200D01*
X117976960Y-109527700D01*
X115776948Y-109527700D01*
X115776931Y-109527701D01*
X115674153Y-109538200D01*
X115674150Y-109538201D01*
X115507618Y-109593385D01*
X115507613Y-109593387D01*
X115358292Y-109685489D01*
X115234239Y-109809542D01*
X115142137Y-109958863D01*
X115142136Y-109958866D01*
X115086951Y-110125403D01*
X115086951Y-110125404D01*
X115086950Y-110125404D01*
X115076450Y-110228183D01*
X107152500Y-110228183D01*
X107152500Y-97731902D01*
X113669500Y-97731902D01*
X113669500Y-97968097D01*
X113706446Y-98201368D01*
X113779433Y-98425996D01*
X113853109Y-98570592D01*
X113886657Y-98636433D01*
X114025483Y-98827510D01*
X114192490Y-98994517D01*
X114227127Y-99019683D01*
X114269792Y-99075013D01*
X114275771Y-99144626D01*
X114243165Y-99206421D01*
X114227130Y-99220315D01*
X114209365Y-99233222D01*
X114192488Y-99245484D01*
X114025485Y-99412487D01*
X114025485Y-99412488D01*
X114025483Y-99412490D01*
X113965862Y-99494550D01*
X113886657Y-99603566D01*
X113779433Y-99814003D01*
X113706446Y-100038631D01*
X113669500Y-100271902D01*
X113669500Y-100508097D01*
X113706446Y-100741368D01*
X113779433Y-100965996D01*
X113859822Y-101123767D01*
X113886657Y-101176433D01*
X114025483Y-101367510D01*
X114192490Y-101534517D01*
X114227127Y-101559683D01*
X114269792Y-101615013D01*
X114275771Y-101684626D01*
X114243165Y-101746421D01*
X114227130Y-101760315D01*
X114209365Y-101773222D01*
X114192488Y-101785484D01*
X114025485Y-101952487D01*
X114025485Y-101952488D01*
X114025483Y-101952490D01*
X113976071Y-102020500D01*
X113886657Y-102143566D01*
X113779433Y-102354003D01*
X113706446Y-102578631D01*
X113669500Y-102811902D01*
X113669500Y-103048097D01*
X113706446Y-103281368D01*
X113779433Y-103505996D01*
X113885196Y-103713566D01*
X113886657Y-103716433D01*
X114025483Y-103907510D01*
X114025489Y-103907516D01*
X114028647Y-103911214D01*
X114026864Y-103912736D01*
X114055726Y-103965591D01*
X114050742Y-104035283D01*
X114008870Y-104091216D01*
X113999658Y-104097487D01*
X113951344Y-104127287D01*
X113827289Y-104251342D01*
X113735187Y-104400663D01*
X113735186Y-104400666D01*
X113680001Y-104567203D01*
X113680001Y-104567204D01*
X113680000Y-104567204D01*
X113669500Y-104669983D01*
X113669500Y-106270001D01*
X113669501Y-106270018D01*
X113680000Y-106372796D01*
X113680001Y-106372799D01*
X113710225Y-106464008D01*
X113735186Y-106539334D01*
X113827288Y-106688656D01*
X113951344Y-106812712D01*
X114100666Y-106904814D01*
X114267203Y-106959999D01*
X114369991Y-106970500D01*
X115970008Y-106970499D01*
X116072797Y-106959999D01*
X116239334Y-106904814D01*
X116388656Y-106812712D01*
X116512712Y-106688656D01*
X116604814Y-106539334D01*
X116659999Y-106372797D01*
X116670500Y-106270009D01*
X116670499Y-104669992D01*
X116659999Y-104567203D01*
X116604814Y-104400666D01*
X116512712Y-104251344D01*
X116388656Y-104127288D01*
X116388655Y-104127287D01*
X116340342Y-104097487D01*
X116293618Y-104045539D01*
X116282397Y-103976576D01*
X116310241Y-103912494D01*
X116311381Y-103911249D01*
X116311348Y-103911221D01*
X116314511Y-103907516D01*
X116314511Y-103907515D01*
X116314517Y-103907510D01*
X116453343Y-103716433D01*
X116560568Y-103505992D01*
X116633553Y-103281368D01*
X116634563Y-103274989D01*
X116670500Y-103048097D01*
X116670500Y-102811902D01*
X116633553Y-102578631D01*
X116560566Y-102354003D01*
X116504002Y-102242991D01*
X116453343Y-102143567D01*
X116314517Y-101952490D01*
X116147510Y-101785483D01*
X116112872Y-101760317D01*
X116070207Y-101704989D01*
X116064228Y-101635375D01*
X116096833Y-101573580D01*
X116112873Y-101559682D01*
X116147510Y-101534517D01*
X116314517Y-101367510D01*
X116453343Y-101176433D01*
X116560568Y-100965992D01*
X116633553Y-100741368D01*
X116634563Y-100734989D01*
X116670500Y-100508097D01*
X116670500Y-100271902D01*
X116633553Y-100038631D01*
X116560566Y-99814003D01*
X116453342Y-99603566D01*
X116416504Y-99552863D01*
X116314517Y-99412490D01*
X116147510Y-99245483D01*
X116112872Y-99220317D01*
X116070207Y-99164989D01*
X116064228Y-99095375D01*
X116096833Y-99033580D01*
X116112873Y-99019682D01*
X116147510Y-98994517D01*
X116314517Y-98827510D01*
X116453343Y-98636433D01*
X116560568Y-98425992D01*
X116633553Y-98201368D01*
X116635957Y-98186189D01*
X116670500Y-97968097D01*
X116670500Y-97731902D01*
X116633553Y-97498631D01*
X116584843Y-97348718D01*
X116560568Y-97274008D01*
X116560566Y-97274005D01*
X116560566Y-97274003D01*
X116499405Y-97153969D01*
X116453343Y-97063567D01*
X116314517Y-96872490D01*
X116147510Y-96705483D01*
X115956433Y-96566657D01*
X115745996Y-96459433D01*
X115521368Y-96386446D01*
X115288097Y-96349500D01*
X115288092Y-96349500D01*
X115051908Y-96349500D01*
X115051903Y-96349500D01*
X114818631Y-96386446D01*
X114594003Y-96459433D01*
X114383566Y-96566657D01*
X114274550Y-96645862D01*
X114192490Y-96705483D01*
X114192488Y-96705485D01*
X114192487Y-96705485D01*
X114025485Y-96872487D01*
X114025485Y-96872488D01*
X114025483Y-96872490D01*
X114012527Y-96890323D01*
X113886657Y-97063566D01*
X113779433Y-97274003D01*
X113706446Y-97498631D01*
X113669500Y-97731902D01*
X107152500Y-97731902D01*
X107152500Y-72206702D01*
X113470500Y-72206702D01*
X113470500Y-72442897D01*
X113507446Y-72676168D01*
X113580433Y-72900796D01*
X113679596Y-73095413D01*
X113687657Y-73111233D01*
X113826483Y-73302310D01*
X113993490Y-73469317D01*
X114028127Y-73494483D01*
X114070792Y-73549813D01*
X114076771Y-73619426D01*
X114044165Y-73681221D01*
X114028130Y-73695115D01*
X114014041Y-73705352D01*
X113993488Y-73720284D01*
X113826485Y-73887287D01*
X113826485Y-73887288D01*
X113826483Y-73887290D01*
X113798193Y-73926228D01*
X113687657Y-74078366D01*
X113580433Y-74288803D01*
X113507446Y-74513431D01*
X113470500Y-74746702D01*
X113470500Y-74982897D01*
X113507446Y-75216168D01*
X113580433Y-75440796D01*
X113655476Y-75588074D01*
X113687657Y-75651233D01*
X113826483Y-75842310D01*
X113993490Y-76009317D01*
X114028127Y-76034483D01*
X114070792Y-76089813D01*
X114076771Y-76159426D01*
X114044165Y-76221221D01*
X114028130Y-76235115D01*
X114011584Y-76247137D01*
X113993488Y-76260284D01*
X113826485Y-76427287D01*
X113826485Y-76427288D01*
X113826483Y-76427290D01*
X113790924Y-76476233D01*
X113687657Y-76618366D01*
X113580433Y-76828803D01*
X113507446Y-77053431D01*
X113470500Y-77286702D01*
X113470500Y-77522897D01*
X113507446Y-77756168D01*
X113580433Y-77980796D01*
X113658463Y-78133937D01*
X113687657Y-78191233D01*
X113826483Y-78382310D01*
X113826489Y-78382316D01*
X113829647Y-78386014D01*
X113827864Y-78387536D01*
X113856726Y-78440391D01*
X113851742Y-78510083D01*
X113809870Y-78566016D01*
X113800658Y-78572287D01*
X113752344Y-78602087D01*
X113628289Y-78726142D01*
X113536187Y-78875463D01*
X113536186Y-78875466D01*
X113481001Y-79042003D01*
X113481001Y-79042004D01*
X113481000Y-79042004D01*
X113470500Y-79144783D01*
X113470500Y-80744801D01*
X113470501Y-80744818D01*
X113481000Y-80847596D01*
X113481001Y-80847599D01*
X113522810Y-80973767D01*
X113536186Y-81014134D01*
X113628288Y-81163456D01*
X113752344Y-81287512D01*
X113901666Y-81379614D01*
X114068203Y-81434799D01*
X114170991Y-81445300D01*
X115771008Y-81445299D01*
X115873797Y-81434799D01*
X116040334Y-81379614D01*
X116189656Y-81287512D01*
X116313712Y-81163456D01*
X116405814Y-81014134D01*
X116460999Y-80847597D01*
X116471500Y-80744809D01*
X116471499Y-79144792D01*
X116460999Y-79042003D01*
X116405814Y-78875466D01*
X116313712Y-78726144D01*
X116189656Y-78602088D01*
X116189655Y-78602087D01*
X116141342Y-78572287D01*
X116094618Y-78520339D01*
X116083397Y-78451376D01*
X116111241Y-78387294D01*
X116112381Y-78386049D01*
X116112348Y-78386021D01*
X116115511Y-78382316D01*
X116115511Y-78382315D01*
X116115517Y-78382310D01*
X116254343Y-78191233D01*
X116361568Y-77980792D01*
X116434553Y-77756168D01*
X116440443Y-77718982D01*
X116471500Y-77522897D01*
X116471500Y-77286702D01*
X116434553Y-77053431D01*
X116361566Y-76828803D01*
X116275387Y-76659669D01*
X116254343Y-76618367D01*
X116115517Y-76427290D01*
X115948510Y-76260283D01*
X115913872Y-76235117D01*
X115871207Y-76179789D01*
X115865228Y-76110175D01*
X115897833Y-76048380D01*
X115913873Y-76034482D01*
X115948510Y-76009317D01*
X116115517Y-75842310D01*
X116254343Y-75651233D01*
X116357630Y-75448519D01*
X116361566Y-75440796D01*
X116361566Y-75440795D01*
X116361568Y-75440792D01*
X116434553Y-75216168D01*
X116442319Y-75167134D01*
X116471500Y-74982897D01*
X116471500Y-74746702D01*
X116434553Y-74513431D01*
X116385339Y-74361967D01*
X116361568Y-74288808D01*
X116361566Y-74288805D01*
X116361566Y-74288803D01*
X116284774Y-74138092D01*
X116254343Y-74078367D01*
X116115517Y-73887290D01*
X115948510Y-73720283D01*
X115913872Y-73695117D01*
X115871207Y-73639789D01*
X115865228Y-73570175D01*
X115897833Y-73508380D01*
X115913873Y-73494482D01*
X115948510Y-73469317D01*
X116115517Y-73302310D01*
X116254343Y-73111233D01*
X116361568Y-72900792D01*
X116434553Y-72676168D01*
X116441442Y-72632673D01*
X116471500Y-72442897D01*
X116471500Y-72206702D01*
X116434553Y-71973431D01*
X116389756Y-71835562D01*
X116361568Y-71748808D01*
X116361566Y-71748805D01*
X116361566Y-71748803D01*
X116284774Y-71598092D01*
X116254343Y-71538367D01*
X116115517Y-71347290D01*
X115948510Y-71180283D01*
X115757433Y-71041457D01*
X115752528Y-71038958D01*
X115546996Y-70934233D01*
X115322368Y-70861246D01*
X115089097Y-70824300D01*
X115089092Y-70824300D01*
X114852908Y-70824300D01*
X114852903Y-70824300D01*
X114619631Y-70861246D01*
X114395003Y-70934233D01*
X114184566Y-71041457D01*
X114144419Y-71070626D01*
X113993490Y-71180283D01*
X113993488Y-71180285D01*
X113993487Y-71180285D01*
X113826485Y-71347287D01*
X113826485Y-71347288D01*
X113826483Y-71347290D01*
X113794494Y-71391319D01*
X113687657Y-71538366D01*
X113580433Y-71748803D01*
X113507446Y-71973431D01*
X113470500Y-72206702D01*
X107152500Y-72206702D01*
X107152500Y-63901028D01*
X121830500Y-63901028D01*
X121830500Y-64068571D01*
X121863181Y-64232873D01*
X121863184Y-64232882D01*
X121927296Y-64387663D01*
X121927297Y-64387666D01*
X122020372Y-64526961D01*
X122020375Y-64526965D01*
X122514181Y-65020770D01*
X122547666Y-65082093D01*
X122550500Y-65108451D01*
X122550500Y-89464771D01*
X122579659Y-89611365D01*
X122583182Y-89629077D01*
X122583184Y-89629083D01*
X122647296Y-89783863D01*
X122647297Y-89783866D01*
X122740372Y-89923161D01*
X122740375Y-89923165D01*
X122793180Y-89975969D01*
X122826666Y-90037292D01*
X122829500Y-90063651D01*
X122829500Y-93667476D01*
X122809815Y-93734515D01*
X122793181Y-93755157D01*
X122619375Y-93928962D01*
X122619372Y-93928966D01*
X122526297Y-94068261D01*
X122526296Y-94068264D01*
X122492335Y-94150255D01*
X122492335Y-94150256D01*
X122462184Y-94223045D01*
X122462182Y-94223053D01*
X122429500Y-94387356D01*
X122429500Y-98523771D01*
X122462182Y-98688075D01*
X122462185Y-98688086D01*
X122473589Y-98715614D01*
X122473590Y-98715620D01*
X122473591Y-98715620D01*
X122526296Y-98842863D01*
X122526297Y-98842866D01*
X122619372Y-98982161D01*
X122619375Y-98982165D01*
X123762045Y-100124834D01*
X123795530Y-100186157D01*
X123790546Y-100255849D01*
X123748674Y-100311782D01*
X123743255Y-100315617D01*
X123647838Y-100379373D01*
X123647834Y-100379376D01*
X123529373Y-100497837D01*
X123436295Y-100637139D01*
X123372184Y-100791917D01*
X123372182Y-100791925D01*
X123339500Y-100956228D01*
X123339500Y-101123771D01*
X123372182Y-101288074D01*
X123372184Y-101288082D01*
X123436295Y-101442860D01*
X123529373Y-101582162D01*
X123647837Y-101700626D01*
X123716375Y-101746421D01*
X123787137Y-101793703D01*
X123941918Y-101857816D01*
X124106228Y-101890499D01*
X124106232Y-101890500D01*
X124106233Y-101890500D01*
X124273768Y-101890500D01*
X124273769Y-101890499D01*
X124438082Y-101857816D01*
X124592863Y-101793703D01*
X124732162Y-101700626D01*
X124850626Y-101582162D01*
X124914382Y-101486743D01*
X124967994Y-101441939D01*
X125037318Y-101433232D01*
X125100346Y-101463386D01*
X125105165Y-101467954D01*
X125467834Y-101830624D01*
X125467838Y-101830627D01*
X125607137Y-101923704D01*
X125607139Y-101923705D01*
X125607143Y-101923707D01*
X125676630Y-101952488D01*
X125716584Y-101969037D01*
X125761918Y-101987816D01*
X125926228Y-102020499D01*
X125926232Y-102020500D01*
X125926233Y-102020500D01*
X126093768Y-102020500D01*
X126093769Y-102020499D01*
X126148538Y-102009605D01*
X126258074Y-101987818D01*
X126258078Y-101987816D01*
X126258082Y-101987816D01*
X126303415Y-101969037D01*
X126412863Y-101923704D01*
X126552162Y-101830627D01*
X126670627Y-101712162D01*
X126763704Y-101572863D01*
X126817551Y-101442863D01*
X126827816Y-101418082D01*
X126860500Y-101253767D01*
X126860500Y-101086233D01*
X126827816Y-100921918D01*
X126802944Y-100861873D01*
X126763704Y-100767137D01*
X126742223Y-100734989D01*
X126670627Y-100627838D01*
X126670624Y-100627834D01*
X126220681Y-100177892D01*
X126187196Y-100116569D01*
X126192180Y-100046878D01*
X126234051Y-99990944D01*
X126284176Y-99968593D01*
X126288077Y-99967817D01*
X126288077Y-99967816D01*
X126288082Y-99967816D01*
X126442863Y-99903703D01*
X126582162Y-99810626D01*
X126700626Y-99692162D01*
X126793703Y-99552863D01*
X126857816Y-99398082D01*
X126864152Y-99366228D01*
X183019500Y-99366228D01*
X183019500Y-99533771D01*
X183052182Y-99698074D01*
X183052184Y-99698082D01*
X183116295Y-99852860D01*
X183209373Y-99992162D01*
X183327837Y-100110626D01*
X183420494Y-100172537D01*
X183467137Y-100203703D01*
X183467138Y-100203703D01*
X183467139Y-100203704D01*
X183502201Y-100218227D01*
X183621918Y-100267816D01*
X183786228Y-100300499D01*
X183786232Y-100300500D01*
X183786233Y-100300500D01*
X183953768Y-100300500D01*
X183953769Y-100300499D01*
X184118082Y-100267816D01*
X184272863Y-100203703D01*
X184412162Y-100110626D01*
X184460855Y-100061933D01*
X184522178Y-100028447D01*
X184591869Y-100033431D01*
X184647803Y-100075302D01*
X184659022Y-100093318D01*
X184716657Y-100206433D01*
X184855483Y-100397510D01*
X185022490Y-100564517D01*
X185057127Y-100589683D01*
X185099792Y-100645013D01*
X185105771Y-100714626D01*
X185073165Y-100776421D01*
X185057130Y-100790315D01*
X185054915Y-100791925D01*
X185022488Y-100815484D01*
X184855485Y-100982487D01*
X184855485Y-100982488D01*
X184855483Y-100982490D01*
X184795862Y-101064550D01*
X184716657Y-101173566D01*
X184684201Y-101237265D01*
X184662747Y-101279373D01*
X184662398Y-101280057D01*
X184614424Y-101330853D01*
X184546603Y-101347648D01*
X184480468Y-101325111D01*
X184464232Y-101311443D01*
X184432162Y-101279373D01*
X184292860Y-101186295D01*
X184138082Y-101122184D01*
X184138074Y-101122182D01*
X183973771Y-101089500D01*
X183973767Y-101089500D01*
X183806233Y-101089500D01*
X183806228Y-101089500D01*
X183641925Y-101122182D01*
X183641917Y-101122184D01*
X183487139Y-101186295D01*
X183347837Y-101279373D01*
X183229373Y-101397837D01*
X183136295Y-101537139D01*
X183072184Y-101691917D01*
X183072182Y-101691925D01*
X183039500Y-101856228D01*
X183039500Y-102023771D01*
X183072182Y-102188074D01*
X183072184Y-102188082D01*
X183136295Y-102342860D01*
X183229373Y-102482162D01*
X183347837Y-102600626D01*
X183367021Y-102613444D01*
X183487137Y-102693703D01*
X183641918Y-102757816D01*
X183806228Y-102790499D01*
X183806232Y-102790500D01*
X183806233Y-102790500D01*
X183973768Y-102790500D01*
X183973769Y-102790499D01*
X184138082Y-102757816D01*
X184292863Y-102693703D01*
X184432162Y-102600626D01*
X184450728Y-102582060D01*
X184512050Y-102548573D01*
X184581742Y-102553556D01*
X184637676Y-102595426D01*
X184648894Y-102613441D01*
X184716657Y-102746433D01*
X184855483Y-102937510D01*
X185022490Y-103104517D01*
X185057127Y-103129683D01*
X185099792Y-103185013D01*
X185105771Y-103254626D01*
X185073165Y-103316421D01*
X185057130Y-103330315D01*
X185039365Y-103343222D01*
X185022488Y-103355484D01*
X184855485Y-103522487D01*
X184855485Y-103522488D01*
X184855483Y-103522490D01*
X184786070Y-103618028D01*
X184716655Y-103713569D01*
X184703087Y-103740197D01*
X184655112Y-103790991D01*
X184587290Y-103807785D01*
X184523714Y-103787001D01*
X184432865Y-103726298D01*
X184432861Y-103726296D01*
X184278082Y-103662184D01*
X184278074Y-103662182D01*
X184113771Y-103629500D01*
X184113767Y-103629500D01*
X183946233Y-103629500D01*
X183946228Y-103629500D01*
X183781925Y-103662182D01*
X183781917Y-103662184D01*
X183627139Y-103726295D01*
X183487837Y-103819373D01*
X183369373Y-103937837D01*
X183276295Y-104077139D01*
X183212184Y-104231917D01*
X183212182Y-104231925D01*
X183179500Y-104396228D01*
X183179500Y-104563771D01*
X183212182Y-104728074D01*
X183212184Y-104728082D01*
X183276295Y-104882860D01*
X183369373Y-105022162D01*
X183487837Y-105140626D01*
X183547907Y-105180763D01*
X183627137Y-105233703D01*
X183781918Y-105297816D01*
X183946228Y-105330499D01*
X183946232Y-105330500D01*
X183946233Y-105330500D01*
X184113768Y-105330500D01*
X184113769Y-105330499D01*
X184278082Y-105297816D01*
X184432863Y-105233703D01*
X184508511Y-105183156D01*
X184575186Y-105162279D01*
X184642566Y-105180763D01*
X184687885Y-105229965D01*
X184716655Y-105286431D01*
X184724927Y-105297816D01*
X184855483Y-105477510D01*
X185022490Y-105644517D01*
X185057127Y-105669683D01*
X185099792Y-105725013D01*
X185105771Y-105794626D01*
X185073165Y-105856421D01*
X185057130Y-105870315D01*
X185039365Y-105883222D01*
X185022488Y-105895484D01*
X184855485Y-106062487D01*
X184855485Y-106062488D01*
X184855483Y-106062490D01*
X184795862Y-106144550D01*
X184716657Y-106253566D01*
X184677743Y-106329940D01*
X184629768Y-106380736D01*
X184561947Y-106397531D01*
X184498368Y-106376748D01*
X184492452Y-106372795D01*
X184422863Y-106326297D01*
X184422860Y-106326295D01*
X184422859Y-106326295D01*
X184268082Y-106262184D01*
X184268074Y-106262182D01*
X184103771Y-106229500D01*
X184103767Y-106229500D01*
X183936233Y-106229500D01*
X183936228Y-106229500D01*
X183771925Y-106262182D01*
X183771917Y-106262184D01*
X183617139Y-106326295D01*
X183477837Y-106419373D01*
X183359373Y-106537837D01*
X183266295Y-106677139D01*
X183202184Y-106831917D01*
X183202182Y-106831925D01*
X183169500Y-106996228D01*
X183169500Y-107163771D01*
X183202182Y-107328074D01*
X183202184Y-107328082D01*
X183266295Y-107482860D01*
X183359373Y-107622162D01*
X183477837Y-107740626D01*
X183570494Y-107802537D01*
X183617137Y-107833703D01*
X183771918Y-107897816D01*
X183936228Y-107930499D01*
X183936232Y-107930500D01*
X183936233Y-107930500D01*
X184103768Y-107930500D01*
X184103769Y-107930499D01*
X184268082Y-107897816D01*
X184422863Y-107833703D01*
X184528778Y-107762932D01*
X184595453Y-107742055D01*
X184662833Y-107760539D01*
X184708151Y-107809740D01*
X184716657Y-107826433D01*
X184855483Y-108017510D01*
X185022490Y-108184517D01*
X185213567Y-108323343D01*
X185312991Y-108374002D01*
X185424003Y-108430566D01*
X185424005Y-108430566D01*
X185424008Y-108430568D01*
X185544412Y-108469689D01*
X185648631Y-108503553D01*
X185881903Y-108540500D01*
X185881908Y-108540500D01*
X186118097Y-108540500D01*
X186351368Y-108503553D01*
X186575992Y-108430568D01*
X186786433Y-108323343D01*
X186977510Y-108184517D01*
X187144517Y-108017510D01*
X187283343Y-107826433D01*
X187390568Y-107615992D01*
X187463553Y-107391368D01*
X187500500Y-107158097D01*
X187500500Y-106921902D01*
X187463553Y-106688631D01*
X187429689Y-106584412D01*
X187390568Y-106464008D01*
X187390566Y-106464005D01*
X187390566Y-106464003D01*
X187291724Y-106270016D01*
X187283343Y-106253567D01*
X187144517Y-106062490D01*
X186977510Y-105895483D01*
X186942872Y-105870317D01*
X186900207Y-105814989D01*
X186894228Y-105745375D01*
X186926833Y-105683580D01*
X186942873Y-105669682D01*
X186977510Y-105644517D01*
X187144517Y-105477510D01*
X187283343Y-105286433D01*
X187390568Y-105075992D01*
X187463553Y-104851368D01*
X187500500Y-104618097D01*
X187500500Y-104381902D01*
X187463553Y-104148631D01*
X187404079Y-103965591D01*
X187390568Y-103924008D01*
X187390566Y-103924005D01*
X187390566Y-103924003D01*
X187320759Y-103787001D01*
X187283343Y-103713567D01*
X187144517Y-103522490D01*
X186977510Y-103355483D01*
X186942872Y-103330317D01*
X186900207Y-103274989D01*
X186894228Y-103205375D01*
X186926833Y-103143580D01*
X186942873Y-103129682D01*
X186977510Y-103104517D01*
X187144517Y-102937510D01*
X187283343Y-102746433D01*
X187390568Y-102535992D01*
X187463553Y-102311368D01*
X187500500Y-102078097D01*
X187500500Y-101841902D01*
X187463553Y-101608631D01*
X187417844Y-101467954D01*
X187390568Y-101384008D01*
X187390566Y-101384005D01*
X187390566Y-101384003D01*
X187283342Y-101173566D01*
X187144517Y-100982490D01*
X186977510Y-100815483D01*
X186942872Y-100790317D01*
X186900207Y-100734989D01*
X186894228Y-100665375D01*
X186926833Y-100603580D01*
X186942873Y-100589682D01*
X186977510Y-100564517D01*
X187144517Y-100397510D01*
X187283343Y-100206433D01*
X187390568Y-99995992D01*
X187463553Y-99771368D01*
X187500500Y-99538097D01*
X187500500Y-99301902D01*
X187463553Y-99068631D01*
X187411278Y-98907746D01*
X187390568Y-98844008D01*
X187390566Y-98844005D01*
X187390566Y-98844003D01*
X187321684Y-98708816D01*
X187283343Y-98633567D01*
X187144517Y-98442490D01*
X186977510Y-98275483D01*
X186942872Y-98250317D01*
X186900207Y-98194989D01*
X186894228Y-98125375D01*
X186926833Y-98063580D01*
X186942873Y-98049682D01*
X186977510Y-98024517D01*
X187144517Y-97857510D01*
X187283343Y-97666433D01*
X187390568Y-97455992D01*
X187463553Y-97231368D01*
X187468772Y-97198416D01*
X187500500Y-96998097D01*
X187500500Y-96761902D01*
X187463553Y-96528631D01*
X187418406Y-96389684D01*
X187390568Y-96304008D01*
X187390566Y-96304005D01*
X187390566Y-96304003D01*
X187317511Y-96160626D01*
X187283343Y-96093567D01*
X187144517Y-95902490D01*
X186977510Y-95735483D01*
X186942872Y-95710317D01*
X186900207Y-95654989D01*
X186894228Y-95585375D01*
X186926833Y-95523580D01*
X186942873Y-95509682D01*
X186977510Y-95484517D01*
X187144517Y-95317510D01*
X187283343Y-95126433D01*
X187390568Y-94915992D01*
X187463553Y-94691368D01*
X187483229Y-94567139D01*
X187500500Y-94458097D01*
X187500500Y-94221902D01*
X187463553Y-93988631D01*
X187429689Y-93884412D01*
X187390568Y-93764008D01*
X187390566Y-93764005D01*
X187390566Y-93764003D01*
X187330852Y-93646808D01*
X187283343Y-93553567D01*
X187144517Y-93362490D01*
X186977510Y-93195483D01*
X186942872Y-93170317D01*
X186900207Y-93114989D01*
X186894228Y-93045375D01*
X186926833Y-92983580D01*
X186942873Y-92969682D01*
X186977510Y-92944517D01*
X187144517Y-92777510D01*
X187283343Y-92586433D01*
X187390568Y-92375992D01*
X187463553Y-92151368D01*
X187478328Y-92058082D01*
X187500500Y-91918097D01*
X187500500Y-91681902D01*
X187463553Y-91448631D01*
X187399639Y-91251925D01*
X187390568Y-91224008D01*
X187390566Y-91224005D01*
X187390566Y-91224003D01*
X187283342Y-91013566D01*
X187267807Y-90992184D01*
X187144517Y-90822490D01*
X186977510Y-90655483D01*
X186942872Y-90630317D01*
X186900207Y-90574989D01*
X186894228Y-90505375D01*
X186926833Y-90443580D01*
X186942873Y-90429682D01*
X186977510Y-90404517D01*
X187144517Y-90237510D01*
X187283343Y-90046433D01*
X187390568Y-89835992D01*
X187463553Y-89611368D01*
X187463552Y-89611368D01*
X187463554Y-89611365D01*
X187500500Y-89378097D01*
X187500500Y-89141902D01*
X187463553Y-88908631D01*
X187410806Y-88746295D01*
X187390568Y-88684008D01*
X187390566Y-88684005D01*
X187390566Y-88684003D01*
X187329270Y-88563703D01*
X187283343Y-88473567D01*
X187144517Y-88282490D01*
X186977510Y-88115483D01*
X186942872Y-88090317D01*
X186900207Y-88034989D01*
X186894228Y-87965375D01*
X186926833Y-87903580D01*
X186942873Y-87889682D01*
X186977510Y-87864517D01*
X187144517Y-87697510D01*
X187283343Y-87506433D01*
X187390568Y-87295992D01*
X187463553Y-87071368D01*
X187469759Y-87032184D01*
X187500500Y-86838097D01*
X187500500Y-86601902D01*
X187463553Y-86368631D01*
X187429689Y-86264412D01*
X187390568Y-86144008D01*
X187390566Y-86144005D01*
X187390566Y-86144003D01*
X187283342Y-85933566D01*
X187144517Y-85742490D01*
X186977510Y-85575483D01*
X186942872Y-85550317D01*
X186900207Y-85494989D01*
X186894228Y-85425375D01*
X186926833Y-85363580D01*
X186942873Y-85349682D01*
X186977510Y-85324517D01*
X187144517Y-85157510D01*
X187283343Y-84966433D01*
X187390568Y-84755992D01*
X187463553Y-84531368D01*
X187476744Y-84448082D01*
X187500500Y-84298097D01*
X187500500Y-84061902D01*
X187463553Y-83828631D01*
X187390566Y-83604003D01*
X187283342Y-83393566D01*
X187144517Y-83202490D01*
X186977510Y-83035483D01*
X186942872Y-83010317D01*
X186900207Y-82954989D01*
X186894228Y-82885375D01*
X186926833Y-82823580D01*
X186942873Y-82809682D01*
X186977510Y-82784517D01*
X187144517Y-82617510D01*
X187283343Y-82426433D01*
X187390568Y-82215992D01*
X187463553Y-81991368D01*
X187479913Y-81888074D01*
X187500500Y-81758097D01*
X187500500Y-81521902D01*
X187463553Y-81288631D01*
X187414636Y-81138082D01*
X187390568Y-81064008D01*
X187390566Y-81064005D01*
X187390566Y-81064003D01*
X187334002Y-80952991D01*
X187283343Y-80853567D01*
X187144517Y-80662490D01*
X186977510Y-80495483D01*
X186942872Y-80470317D01*
X186900207Y-80414989D01*
X186894228Y-80345375D01*
X186926833Y-80283580D01*
X186942873Y-80269682D01*
X186977510Y-80244517D01*
X187144517Y-80077510D01*
X187283343Y-79886433D01*
X187390568Y-79675992D01*
X187463553Y-79451368D01*
X187500500Y-79218097D01*
X187500500Y-78981902D01*
X187463553Y-78748631D01*
X187401560Y-78557838D01*
X187390568Y-78524008D01*
X187390566Y-78524005D01*
X187390566Y-78524003D01*
X187320260Y-78386021D01*
X187283343Y-78313567D01*
X187144517Y-78122490D01*
X186977510Y-77955483D01*
X186942872Y-77930317D01*
X186900207Y-77874989D01*
X186894228Y-77805375D01*
X186926833Y-77743580D01*
X186942873Y-77729682D01*
X186977510Y-77704517D01*
X187144517Y-77537510D01*
X187283343Y-77346433D01*
X187390568Y-77135992D01*
X187463553Y-76911368D01*
X187478945Y-76814185D01*
X187500500Y-76678097D01*
X187500500Y-76441902D01*
X187463553Y-76208631D01*
X187429689Y-76104412D01*
X187390568Y-75984008D01*
X187390566Y-75984005D01*
X187390566Y-75984003D01*
X187313209Y-75832182D01*
X187283343Y-75773567D01*
X187144517Y-75582490D01*
X186977510Y-75415483D01*
X186942872Y-75390317D01*
X186900207Y-75334989D01*
X186894228Y-75265375D01*
X186926833Y-75203580D01*
X186942873Y-75189682D01*
X186977510Y-75164517D01*
X187144517Y-74997510D01*
X187283343Y-74806433D01*
X187390568Y-74595992D01*
X187463553Y-74371368D01*
X187469246Y-74335426D01*
X187500500Y-74138097D01*
X187500500Y-73901902D01*
X187463553Y-73668631D01*
X187406447Y-73492878D01*
X187390568Y-73444008D01*
X187390566Y-73444005D01*
X187390566Y-73444003D01*
X187330574Y-73326263D01*
X187283343Y-73233567D01*
X187144517Y-73042490D01*
X186977510Y-72875483D01*
X186942872Y-72850317D01*
X186900207Y-72794989D01*
X186894228Y-72725375D01*
X186926833Y-72663580D01*
X186942873Y-72649682D01*
X186977510Y-72624517D01*
X187144517Y-72457510D01*
X187283343Y-72266433D01*
X187390568Y-72055992D01*
X187463553Y-71831368D01*
X187467960Y-71803543D01*
X187500500Y-71598097D01*
X187500500Y-71361902D01*
X187463553Y-71128631D01*
X187422330Y-71001762D01*
X187390568Y-70904008D01*
X187390566Y-70904005D01*
X187390566Y-70904003D01*
X187315173Y-70756037D01*
X187283343Y-70693567D01*
X187144517Y-70502490D01*
X187144508Y-70502481D01*
X187141353Y-70498786D01*
X187143134Y-70497264D01*
X187114273Y-70444408D01*
X187119257Y-70374716D01*
X187161129Y-70318783D01*
X187170334Y-70312516D01*
X187218656Y-70282712D01*
X187342712Y-70158656D01*
X187434814Y-70009334D01*
X187489999Y-69842797D01*
X187500500Y-69740009D01*
X187500499Y-68139992D01*
X187497658Y-68112185D01*
X187489999Y-68037203D01*
X187489998Y-68037200D01*
X187460415Y-67947925D01*
X187434814Y-67870666D01*
X187342712Y-67721344D01*
X187218656Y-67597288D01*
X187069334Y-67505186D01*
X186902797Y-67450001D01*
X186902795Y-67450000D01*
X186800010Y-67439500D01*
X185199998Y-67439500D01*
X185199981Y-67439501D01*
X185097203Y-67450000D01*
X185097200Y-67450001D01*
X184930668Y-67505185D01*
X184930663Y-67505187D01*
X184781342Y-67597289D01*
X184657289Y-67721342D01*
X184565187Y-67870663D01*
X184565185Y-67870668D01*
X184539585Y-67947924D01*
X184510001Y-68037203D01*
X184510001Y-68037204D01*
X184510000Y-68037204D01*
X184509352Y-68043555D01*
X184482954Y-68108247D01*
X184425772Y-68148397D01*
X184355961Y-68151258D01*
X184338542Y-68145511D01*
X184258086Y-68112185D01*
X184258074Y-68112182D01*
X184093771Y-68079500D01*
X184093767Y-68079500D01*
X183926233Y-68079500D01*
X183926228Y-68079500D01*
X183761925Y-68112182D01*
X183761917Y-68112184D01*
X183607139Y-68176295D01*
X183467837Y-68269373D01*
X183349373Y-68387837D01*
X183256295Y-68527139D01*
X183192184Y-68681917D01*
X183192182Y-68681925D01*
X183159500Y-68846228D01*
X183159500Y-69013771D01*
X183192182Y-69178074D01*
X183192184Y-69178082D01*
X183256295Y-69332860D01*
X183349373Y-69472162D01*
X183467837Y-69590626D01*
X183544398Y-69641782D01*
X183607137Y-69683703D01*
X183761918Y-69747816D01*
X183926228Y-69780499D01*
X183926232Y-69780500D01*
X183926233Y-69780500D01*
X184093768Y-69780500D01*
X184093769Y-69780499D01*
X184258082Y-69747816D01*
X184336582Y-69715299D01*
X184406050Y-69707831D01*
X184468529Y-69739106D01*
X184504182Y-69799194D01*
X184507392Y-69817258D01*
X184510001Y-69842797D01*
X184510001Y-69842799D01*
X184564458Y-70007137D01*
X184565186Y-70009334D01*
X184657288Y-70158656D01*
X184781344Y-70282712D01*
X184796743Y-70292210D01*
X184829656Y-70312511D01*
X184876381Y-70364459D01*
X184887604Y-70433421D01*
X184859760Y-70497504D01*
X184858615Y-70498759D01*
X184858647Y-70498786D01*
X184855485Y-70502487D01*
X184855483Y-70502490D01*
X184740730Y-70660433D01*
X184716657Y-70693567D01*
X184710708Y-70705242D01*
X184662732Y-70756037D01*
X184594911Y-70772831D01*
X184531334Y-70752048D01*
X184475642Y-70714836D01*
X184462863Y-70706297D01*
X184462860Y-70706295D01*
X184462859Y-70706295D01*
X184308082Y-70642184D01*
X184308074Y-70642182D01*
X184143771Y-70609500D01*
X184143767Y-70609500D01*
X183976233Y-70609500D01*
X183976228Y-70609500D01*
X183811925Y-70642182D01*
X183811917Y-70642184D01*
X183657139Y-70706295D01*
X183517837Y-70799373D01*
X183399373Y-70917837D01*
X183306295Y-71057139D01*
X183242184Y-71211917D01*
X183242182Y-71211925D01*
X183209500Y-71376228D01*
X183209500Y-71543771D01*
X183242182Y-71708074D01*
X183242184Y-71708082D01*
X183306295Y-71862860D01*
X183399373Y-72002162D01*
X183517837Y-72120626D01*
X183609913Y-72182149D01*
X183657137Y-72213703D01*
X183811918Y-72277816D01*
X183976228Y-72310499D01*
X183976232Y-72310500D01*
X183976233Y-72310500D01*
X184143768Y-72310500D01*
X184143769Y-72310499D01*
X184308082Y-72277816D01*
X184462863Y-72213703D01*
X184516129Y-72178111D01*
X184582804Y-72157233D01*
X184650184Y-72175717D01*
X184695503Y-72224917D01*
X184716657Y-72266433D01*
X184855483Y-72457510D01*
X185022490Y-72624517D01*
X185057127Y-72649683D01*
X185099792Y-72705013D01*
X185105771Y-72774626D01*
X185073165Y-72836421D01*
X185057130Y-72850315D01*
X185039365Y-72863222D01*
X185022488Y-72875484D01*
X184855485Y-73042487D01*
X184855485Y-73042488D01*
X184855483Y-73042490D01*
X184817133Y-73095274D01*
X184716657Y-73233566D01*
X184696747Y-73272641D01*
X184648772Y-73323436D01*
X184580950Y-73340230D01*
X184517372Y-73319446D01*
X184422860Y-73256295D01*
X184268082Y-73192184D01*
X184268074Y-73192182D01*
X184103771Y-73159500D01*
X184103767Y-73159500D01*
X183936233Y-73159500D01*
X183936228Y-73159500D01*
X183771925Y-73192182D01*
X183771917Y-73192184D01*
X183617139Y-73256295D01*
X183477837Y-73349373D01*
X183359373Y-73467837D01*
X183266295Y-73607139D01*
X183202184Y-73761917D01*
X183202182Y-73761925D01*
X183169500Y-73926228D01*
X183169500Y-74093771D01*
X183202182Y-74258074D01*
X183202184Y-74258082D01*
X183266295Y-74412860D01*
X183359373Y-74552162D01*
X183477837Y-74670626D01*
X183570494Y-74732537D01*
X183617137Y-74763703D01*
X183771918Y-74827816D01*
X183936228Y-74860499D01*
X183936232Y-74860500D01*
X183936233Y-74860500D01*
X184103768Y-74860500D01*
X184103769Y-74860499D01*
X184268082Y-74827816D01*
X184422863Y-74763703D01*
X184509771Y-74705632D01*
X184576447Y-74684755D01*
X184643828Y-74703239D01*
X184689146Y-74752440D01*
X184701651Y-74776982D01*
X184716657Y-74806433D01*
X184855483Y-74997510D01*
X185022490Y-75164517D01*
X185057127Y-75189683D01*
X185099792Y-75245013D01*
X185105771Y-75314626D01*
X185073165Y-75376421D01*
X185057130Y-75390315D01*
X185039365Y-75403222D01*
X185022488Y-75415484D01*
X184855485Y-75582487D01*
X184855485Y-75582488D01*
X184855483Y-75582490D01*
X184805538Y-75651233D01*
X184716655Y-75773569D01*
X184690406Y-75825085D01*
X184642431Y-75875881D01*
X184574610Y-75892675D01*
X184511031Y-75871891D01*
X184412860Y-75806295D01*
X184258082Y-75742184D01*
X184258074Y-75742182D01*
X184093771Y-75709500D01*
X184093767Y-75709500D01*
X183926233Y-75709500D01*
X183926228Y-75709500D01*
X183761925Y-75742182D01*
X183761917Y-75742184D01*
X183607139Y-75806295D01*
X183467837Y-75899373D01*
X183349373Y-76017837D01*
X183256295Y-76157139D01*
X183192184Y-76311917D01*
X183192182Y-76311925D01*
X183159500Y-76476228D01*
X183159500Y-76643771D01*
X183192182Y-76808074D01*
X183192184Y-76808082D01*
X183256295Y-76962860D01*
X183349373Y-77102162D01*
X183467837Y-77220626D01*
X183560494Y-77282537D01*
X183607137Y-77313703D01*
X183607138Y-77313703D01*
X183607139Y-77313704D01*
X183642201Y-77328227D01*
X183761918Y-77377816D01*
X183926228Y-77410499D01*
X183926232Y-77410500D01*
X183926233Y-77410500D01*
X184093768Y-77410500D01*
X184093769Y-77410499D01*
X184258082Y-77377816D01*
X184412863Y-77313703D01*
X184511033Y-77248107D01*
X184577708Y-77227230D01*
X184645088Y-77245714D01*
X184690406Y-77294915D01*
X184716653Y-77346428D01*
X184716657Y-77346433D01*
X184855483Y-77537510D01*
X185022490Y-77704517D01*
X185057127Y-77729683D01*
X185099792Y-77785013D01*
X185105771Y-77854626D01*
X185073165Y-77916421D01*
X185057130Y-77930315D01*
X185039365Y-77943222D01*
X185022488Y-77955484D01*
X184855485Y-78122487D01*
X184855485Y-78122488D01*
X184855483Y-78122490D01*
X184847165Y-78133939D01*
X184716655Y-78313569D01*
X184692946Y-78360100D01*
X184644971Y-78410896D01*
X184577150Y-78427690D01*
X184513572Y-78406906D01*
X184422865Y-78346298D01*
X184422861Y-78346296D01*
X184268082Y-78282184D01*
X184268074Y-78282182D01*
X184103771Y-78249500D01*
X184103767Y-78249500D01*
X183936233Y-78249500D01*
X183936228Y-78249500D01*
X183771925Y-78282182D01*
X183771917Y-78282184D01*
X183617139Y-78346295D01*
X183477837Y-78439373D01*
X183359373Y-78557837D01*
X183266295Y-78697139D01*
X183202184Y-78851917D01*
X183202182Y-78851925D01*
X183169500Y-79016228D01*
X183169500Y-79183771D01*
X183202182Y-79348074D01*
X183202184Y-79348082D01*
X183266295Y-79502860D01*
X183359373Y-79642162D01*
X183477837Y-79760626D01*
X183522845Y-79790699D01*
X183617137Y-79853703D01*
X183771918Y-79917816D01*
X183936228Y-79950499D01*
X183936232Y-79950500D01*
X183936233Y-79950500D01*
X184103768Y-79950500D01*
X184103769Y-79950499D01*
X184268082Y-79917816D01*
X184422863Y-79853703D01*
X184513572Y-79793092D01*
X184580248Y-79772215D01*
X184647628Y-79790699D01*
X184692946Y-79839899D01*
X184716655Y-79886431D01*
X184739457Y-79917815D01*
X184855483Y-80077510D01*
X185022490Y-80244517D01*
X185057127Y-80269683D01*
X185099792Y-80325013D01*
X185105771Y-80394626D01*
X185073165Y-80456421D01*
X185057130Y-80470315D01*
X185039365Y-80483222D01*
X185022488Y-80495484D01*
X184855485Y-80662487D01*
X184855485Y-80662488D01*
X184855483Y-80662490D01*
X184795862Y-80744550D01*
X184716657Y-80853566D01*
X184662398Y-80960057D01*
X184614424Y-81010853D01*
X184546603Y-81027648D01*
X184480468Y-81005111D01*
X184464232Y-80991443D01*
X184452162Y-80979373D01*
X184312860Y-80886295D01*
X184158082Y-80822184D01*
X184158074Y-80822182D01*
X183993771Y-80789500D01*
X183993767Y-80789500D01*
X183826233Y-80789500D01*
X183826228Y-80789500D01*
X183661925Y-80822182D01*
X183661917Y-80822184D01*
X183507139Y-80886295D01*
X183367837Y-80979373D01*
X183249373Y-81097837D01*
X183156295Y-81237139D01*
X183092184Y-81391917D01*
X183092182Y-81391925D01*
X183059500Y-81556228D01*
X183059500Y-81723771D01*
X183092182Y-81888074D01*
X183092184Y-81888082D01*
X183156295Y-82042860D01*
X183249373Y-82182162D01*
X183367837Y-82300626D01*
X183460494Y-82362537D01*
X183507137Y-82393703D01*
X183661918Y-82457816D01*
X183826228Y-82490499D01*
X183826232Y-82490500D01*
X183826233Y-82490500D01*
X183993768Y-82490500D01*
X183993769Y-82490499D01*
X184158082Y-82457816D01*
X184312863Y-82393703D01*
X184452162Y-82300626D01*
X184464230Y-82288557D01*
X184525550Y-82255073D01*
X184595242Y-82260055D01*
X184651177Y-82301925D01*
X184662396Y-82319943D01*
X184716653Y-82426428D01*
X184716657Y-82426433D01*
X184855483Y-82617510D01*
X185022490Y-82784517D01*
X185057127Y-82809683D01*
X185099792Y-82865013D01*
X185105771Y-82934626D01*
X185073165Y-82996421D01*
X185057130Y-83010315D01*
X185039365Y-83023222D01*
X185022488Y-83035484D01*
X184855485Y-83202487D01*
X184855485Y-83202488D01*
X184855483Y-83202490D01*
X184786070Y-83298028D01*
X184716655Y-83393569D01*
X184682804Y-83460005D01*
X184634829Y-83510800D01*
X184567008Y-83527595D01*
X184503430Y-83506812D01*
X184433378Y-83460005D01*
X184412863Y-83446297D01*
X184412860Y-83446295D01*
X184412859Y-83446295D01*
X184258082Y-83382184D01*
X184258074Y-83382182D01*
X184093771Y-83349500D01*
X184093767Y-83349500D01*
X183926233Y-83349500D01*
X183926228Y-83349500D01*
X183761925Y-83382182D01*
X183761917Y-83382184D01*
X183607139Y-83446295D01*
X183467837Y-83539373D01*
X183349373Y-83657837D01*
X183256295Y-83797139D01*
X183192184Y-83951917D01*
X183192182Y-83951925D01*
X183159500Y-84116228D01*
X183159500Y-84283771D01*
X183192182Y-84448074D01*
X183192184Y-84448082D01*
X183256295Y-84602860D01*
X183349373Y-84742162D01*
X183467837Y-84860626D01*
X183560494Y-84922537D01*
X183607137Y-84953703D01*
X183607138Y-84953703D01*
X183607139Y-84953704D01*
X183637865Y-84966431D01*
X183761918Y-85017816D01*
X183926228Y-85050499D01*
X183926232Y-85050500D01*
X183926233Y-85050500D01*
X184093768Y-85050500D01*
X184093769Y-85050499D01*
X184258082Y-85017816D01*
X184412863Y-84953703D01*
X184518636Y-84883027D01*
X184585311Y-84862150D01*
X184652691Y-84880634D01*
X184698010Y-84929836D01*
X184716655Y-84966431D01*
X184753988Y-85017815D01*
X184855483Y-85157510D01*
X185022490Y-85324517D01*
X185057127Y-85349683D01*
X185099792Y-85405013D01*
X185105771Y-85474626D01*
X185073165Y-85536421D01*
X185057130Y-85550315D01*
X185039365Y-85563222D01*
X185022488Y-85575484D01*
X184855485Y-85742487D01*
X184855485Y-85742488D01*
X184855483Y-85742490D01*
X184753991Y-85882182D01*
X184716657Y-85933567D01*
X184700548Y-85965181D01*
X184652572Y-86015976D01*
X184584751Y-86032770D01*
X184521173Y-86011986D01*
X184422860Y-85946295D01*
X184268082Y-85882184D01*
X184268074Y-85882182D01*
X184103771Y-85849500D01*
X184103767Y-85849500D01*
X183936233Y-85849500D01*
X183936228Y-85849500D01*
X183771925Y-85882182D01*
X183771917Y-85882184D01*
X183617139Y-85946295D01*
X183477837Y-86039373D01*
X183359373Y-86157837D01*
X183266295Y-86297139D01*
X183202184Y-86451917D01*
X183202182Y-86451925D01*
X183169500Y-86616228D01*
X183169500Y-86783771D01*
X183202182Y-86948074D01*
X183202184Y-86948082D01*
X183266295Y-87102860D01*
X183359373Y-87242162D01*
X183477837Y-87360626D01*
X183502783Y-87377294D01*
X183617137Y-87453703D01*
X183617138Y-87453703D01*
X183617139Y-87453704D01*
X183652201Y-87468227D01*
X183771918Y-87517816D01*
X183936228Y-87550499D01*
X183936232Y-87550500D01*
X183936233Y-87550500D01*
X184103768Y-87550500D01*
X184103769Y-87550499D01*
X184268082Y-87517816D01*
X184422863Y-87453703D01*
X184505973Y-87398170D01*
X184572646Y-87377294D01*
X184640026Y-87395778D01*
X184685344Y-87444978D01*
X184716657Y-87506433D01*
X184855483Y-87697510D01*
X185022490Y-87864517D01*
X185057127Y-87889683D01*
X185099792Y-87945013D01*
X185105771Y-88014626D01*
X185073165Y-88076421D01*
X185057130Y-88090315D01*
X185046440Y-88098082D01*
X185022488Y-88115484D01*
X184855485Y-88282487D01*
X184855485Y-88282488D01*
X184855483Y-88282490D01*
X184804865Y-88352160D01*
X184716655Y-88473569D01*
X184690406Y-88525085D01*
X184642431Y-88575881D01*
X184574610Y-88592675D01*
X184511031Y-88571891D01*
X184412860Y-88506295D01*
X184258082Y-88442184D01*
X184258074Y-88442182D01*
X184093771Y-88409500D01*
X184093767Y-88409500D01*
X183926233Y-88409500D01*
X183926228Y-88409500D01*
X183761925Y-88442182D01*
X183761917Y-88442184D01*
X183607139Y-88506295D01*
X183467837Y-88599373D01*
X183349373Y-88717837D01*
X183256295Y-88857139D01*
X183192184Y-89011917D01*
X183192182Y-89011925D01*
X183159500Y-89176228D01*
X183159500Y-89343771D01*
X183192182Y-89508074D01*
X183192184Y-89508082D01*
X183256295Y-89662860D01*
X183349373Y-89802162D01*
X183467837Y-89920626D01*
X183550664Y-89975969D01*
X183607137Y-90013703D01*
X183761918Y-90077816D01*
X183926228Y-90110499D01*
X183926232Y-90110500D01*
X183926233Y-90110500D01*
X184093768Y-90110500D01*
X184093769Y-90110499D01*
X184258082Y-90077816D01*
X184412863Y-90013703D01*
X184511033Y-89948107D01*
X184577708Y-89927230D01*
X184645088Y-89945714D01*
X184690406Y-89994915D01*
X184716653Y-90046428D01*
X184739457Y-90077815D01*
X184855483Y-90237510D01*
X185022490Y-90404517D01*
X185057127Y-90429683D01*
X185099792Y-90485013D01*
X185105771Y-90554626D01*
X185073165Y-90616421D01*
X185057130Y-90630315D01*
X185039365Y-90643222D01*
X185022488Y-90655484D01*
X184855485Y-90822487D01*
X184855485Y-90822488D01*
X184855483Y-90822490D01*
X184843217Y-90839373D01*
X184716657Y-91013566D01*
X184655647Y-91133306D01*
X184607672Y-91184102D01*
X184539851Y-91200897D01*
X184473716Y-91178360D01*
X184457481Y-91164692D01*
X184442162Y-91149373D01*
X184302860Y-91056295D01*
X184148082Y-90992184D01*
X184148074Y-90992182D01*
X183983771Y-90959500D01*
X183983767Y-90959500D01*
X183816233Y-90959500D01*
X183816228Y-90959500D01*
X183651925Y-90992182D01*
X183651917Y-90992184D01*
X183497139Y-91056295D01*
X183357837Y-91149373D01*
X183239373Y-91267837D01*
X183146295Y-91407139D01*
X183082184Y-91561917D01*
X183082182Y-91561925D01*
X183049500Y-91726228D01*
X183049500Y-91893771D01*
X183082182Y-92058074D01*
X183082184Y-92058082D01*
X183146295Y-92212860D01*
X183239373Y-92352162D01*
X183357837Y-92470626D01*
X183388286Y-92490971D01*
X183497137Y-92563703D01*
X183651918Y-92627816D01*
X183760932Y-92649500D01*
X183816228Y-92660499D01*
X183816232Y-92660500D01*
X183816233Y-92660500D01*
X183983768Y-92660500D01*
X183983769Y-92660499D01*
X184148082Y-92627816D01*
X184302863Y-92563703D01*
X184442162Y-92470626D01*
X184464231Y-92448556D01*
X184525552Y-92415072D01*
X184595243Y-92420055D01*
X184651178Y-92461926D01*
X184662396Y-92479943D01*
X184716653Y-92586428D01*
X184716657Y-92586433D01*
X184855483Y-92777510D01*
X185022490Y-92944517D01*
X185057127Y-92969683D01*
X185099792Y-93025013D01*
X185105771Y-93094626D01*
X185073165Y-93156421D01*
X185057130Y-93170315D01*
X185039365Y-93183222D01*
X185022488Y-93195484D01*
X184855485Y-93362487D01*
X184855485Y-93362488D01*
X184855483Y-93362490D01*
X184786070Y-93458028D01*
X184716655Y-93553569D01*
X184669147Y-93646808D01*
X184621173Y-93697603D01*
X184553351Y-93714398D01*
X184487217Y-93691860D01*
X184476914Y-93683187D01*
X184476872Y-93683239D01*
X184472162Y-93679373D01*
X184332860Y-93586295D01*
X184178082Y-93522184D01*
X184178074Y-93522182D01*
X184013771Y-93489500D01*
X184013767Y-93489500D01*
X183846233Y-93489500D01*
X183846228Y-93489500D01*
X183681925Y-93522182D01*
X183681917Y-93522184D01*
X183527139Y-93586295D01*
X183387837Y-93679373D01*
X183269373Y-93797837D01*
X183176295Y-93937139D01*
X183112184Y-94091917D01*
X183112182Y-94091925D01*
X183079500Y-94256228D01*
X183079500Y-94423771D01*
X183112182Y-94588074D01*
X183112184Y-94588082D01*
X183176295Y-94742860D01*
X183269373Y-94882162D01*
X183387837Y-95000626D01*
X183436576Y-95033192D01*
X183527137Y-95093703D01*
X183681918Y-95157816D01*
X183846228Y-95190499D01*
X183846232Y-95190500D01*
X183846233Y-95190500D01*
X184013768Y-95190500D01*
X184013769Y-95190499D01*
X184178082Y-95157816D01*
X184332863Y-95093703D01*
X184472162Y-95000626D01*
X184476872Y-94996761D01*
X184477911Y-94998027D01*
X184532286Y-94968325D01*
X184601978Y-94973298D01*
X184657918Y-95015161D01*
X184669148Y-95033192D01*
X184716657Y-95126433D01*
X184855483Y-95317510D01*
X185022490Y-95484517D01*
X185057127Y-95509683D01*
X185099792Y-95565013D01*
X185105771Y-95634626D01*
X185073165Y-95696421D01*
X185057130Y-95710315D01*
X185039365Y-95723222D01*
X185022488Y-95735484D01*
X184855485Y-95902487D01*
X184855485Y-95902488D01*
X184855483Y-95902490D01*
X184855074Y-95903053D01*
X184716657Y-96093566D01*
X184682788Y-96160038D01*
X184634813Y-96210834D01*
X184566992Y-96227629D01*
X184503413Y-96206845D01*
X184382865Y-96126298D01*
X184382861Y-96126296D01*
X184228082Y-96062184D01*
X184228074Y-96062182D01*
X184063771Y-96029500D01*
X184063767Y-96029500D01*
X183896233Y-96029500D01*
X183896228Y-96029500D01*
X183731925Y-96062182D01*
X183731917Y-96062184D01*
X183577139Y-96126295D01*
X183437837Y-96219373D01*
X183319373Y-96337837D01*
X183226295Y-96477139D01*
X183162184Y-96631917D01*
X183162182Y-96631925D01*
X183129500Y-96796228D01*
X183129500Y-96963771D01*
X183162182Y-97128074D01*
X183162184Y-97128082D01*
X183226295Y-97282860D01*
X183319373Y-97422162D01*
X183437837Y-97540626D01*
X183502889Y-97584092D01*
X183577137Y-97633703D01*
X183731918Y-97697816D01*
X183896228Y-97730499D01*
X183896232Y-97730500D01*
X183896233Y-97730500D01*
X184063768Y-97730500D01*
X184063769Y-97730499D01*
X184228082Y-97697816D01*
X184382863Y-97633703D01*
X184503413Y-97553153D01*
X184570089Y-97532276D01*
X184637470Y-97550760D01*
X184682787Y-97599960D01*
X184716657Y-97666433D01*
X184855483Y-97857510D01*
X185022490Y-98024517D01*
X185057127Y-98049683D01*
X185099792Y-98105013D01*
X185105771Y-98174626D01*
X185073165Y-98236421D01*
X185057130Y-98250315D01*
X185039365Y-98263222D01*
X185022488Y-98275484D01*
X184855485Y-98442487D01*
X184855485Y-98442488D01*
X184855483Y-98442490D01*
X184819185Y-98492450D01*
X184716655Y-98633569D01*
X184638768Y-98786429D01*
X184590794Y-98837224D01*
X184522972Y-98854019D01*
X184456838Y-98831481D01*
X184440603Y-98817814D01*
X184412162Y-98789373D01*
X184272860Y-98696295D01*
X184118082Y-98632184D01*
X184118074Y-98632182D01*
X183953771Y-98599500D01*
X183953767Y-98599500D01*
X183786233Y-98599500D01*
X183786228Y-98599500D01*
X183621925Y-98632182D01*
X183621917Y-98632184D01*
X183467139Y-98696295D01*
X183327837Y-98789373D01*
X183209373Y-98907837D01*
X183116295Y-99047139D01*
X183052184Y-99201917D01*
X183052182Y-99201925D01*
X183019500Y-99366228D01*
X126864152Y-99366228D01*
X126890500Y-99233767D01*
X126890500Y-99066233D01*
X126857816Y-98901918D01*
X126793703Y-98747137D01*
X126715590Y-98630234D01*
X126694713Y-98563557D01*
X126713197Y-98496177D01*
X126715564Y-98492494D01*
X126738709Y-98457857D01*
X126802822Y-98303076D01*
X126835506Y-98138761D01*
X126835506Y-97971227D01*
X126802822Y-97806912D01*
X126738709Y-97652131D01*
X126685700Y-97572798D01*
X126645632Y-97512831D01*
X126527171Y-97394370D01*
X126527163Y-97394364D01*
X126482163Y-97364296D01*
X126482157Y-97364293D01*
X126387869Y-97301291D01*
X126328387Y-97276652D01*
X126321626Y-97272799D01*
X126313940Y-97264828D01*
X134429900Y-97264828D01*
X134429900Y-97432371D01*
X134462582Y-97596674D01*
X134462584Y-97596682D01*
X134526695Y-97751460D01*
X134619773Y-97890762D01*
X134738237Y-98009226D01*
X134761125Y-98024519D01*
X134877537Y-98102303D01*
X135032318Y-98166416D01*
X135196628Y-98199099D01*
X135196632Y-98199100D01*
X135196633Y-98199100D01*
X135364168Y-98199100D01*
X135364169Y-98199099D01*
X135528482Y-98166416D01*
X135671919Y-98107001D01*
X135741386Y-98099533D01*
X135788261Y-98118461D01*
X135889623Y-98186189D01*
X136044404Y-98250302D01*
X136170999Y-98275483D01*
X136208714Y-98282985D01*
X136208718Y-98282986D01*
X136208719Y-98282986D01*
X136376254Y-98282986D01*
X136376255Y-98282985D01*
X136540568Y-98250302D01*
X136695349Y-98186189D01*
X136834648Y-98093112D01*
X136953112Y-97974648D01*
X137046189Y-97835349D01*
X137110302Y-97680568D01*
X137142986Y-97516253D01*
X137142986Y-97348719D01*
X137110302Y-97184404D01*
X137046189Y-97029623D01*
X137015023Y-96982980D01*
X136953112Y-96890323D01*
X136834648Y-96771859D01*
X136695346Y-96678781D01*
X136540568Y-96614670D01*
X136540560Y-96614668D01*
X136376257Y-96581986D01*
X136376253Y-96581986D01*
X136208719Y-96581986D01*
X136208714Y-96581986D01*
X136044411Y-96614668D01*
X136044403Y-96614670D01*
X135900968Y-96674083D01*
X135831498Y-96681552D01*
X135784625Y-96662624D01*
X135683265Y-96594898D01*
X135683261Y-96594896D01*
X135528482Y-96530784D01*
X135528474Y-96530782D01*
X135364171Y-96498100D01*
X135364167Y-96498100D01*
X135196633Y-96498100D01*
X135196628Y-96498100D01*
X135032325Y-96530782D01*
X135032317Y-96530784D01*
X134877539Y-96594895D01*
X134738237Y-96687973D01*
X134619773Y-96806437D01*
X134526695Y-96945739D01*
X134462584Y-97100517D01*
X134462582Y-97100525D01*
X134429900Y-97264828D01*
X126313940Y-97264828D01*
X126302560Y-97253025D01*
X126281170Y-97235787D01*
X126278655Y-97228231D01*
X126273130Y-97222501D01*
X126267781Y-97195560D01*
X126259106Y-97169493D01*
X126261075Y-97161777D01*
X126259525Y-97153969D01*
X126269592Y-97128410D01*
X126276386Y-97101794D01*
X126282700Y-97095132D01*
X126285131Y-97088961D01*
X126295912Y-97081192D01*
X126314137Y-97061965D01*
X126317643Y-97059622D01*
X126317651Y-97059619D01*
X126456950Y-96966542D01*
X126575414Y-96848078D01*
X126668491Y-96708779D01*
X126732604Y-96553998D01*
X126765288Y-96389683D01*
X126765288Y-96222149D01*
X126732604Y-96057834D01*
X126668491Y-95903053D01*
X126613330Y-95820499D01*
X126575415Y-95763755D01*
X126521978Y-95710318D01*
X126456950Y-95645290D01*
X125697888Y-94886228D01*
X153649500Y-94886228D01*
X153649500Y-95053771D01*
X153682182Y-95218074D01*
X153682184Y-95218082D01*
X153746295Y-95372860D01*
X153839373Y-95512162D01*
X153957837Y-95630626D01*
X154050494Y-95692537D01*
X154097137Y-95723703D01*
X154251918Y-95787816D01*
X154416228Y-95820499D01*
X154416232Y-95820500D01*
X154416233Y-95820500D01*
X154583768Y-95820500D01*
X154583769Y-95820499D01*
X154748082Y-95787816D01*
X154902863Y-95723703D01*
X155042162Y-95630626D01*
X155160626Y-95512162D01*
X155224727Y-95416228D01*
X155649500Y-95416228D01*
X155649500Y-95583771D01*
X155682182Y-95748074D01*
X155682184Y-95748082D01*
X155746295Y-95902860D01*
X155839373Y-96042162D01*
X155957837Y-96160626D01*
X156027009Y-96206845D01*
X156097137Y-96253703D01*
X156251918Y-96317816D01*
X156411206Y-96349500D01*
X156416228Y-96350499D01*
X156416232Y-96350500D01*
X156416233Y-96350500D01*
X156583768Y-96350500D01*
X156583769Y-96350499D01*
X156748082Y-96317816D01*
X156902863Y-96253703D01*
X157042162Y-96160626D01*
X157160626Y-96042162D01*
X157253703Y-95902863D01*
X157317816Y-95748082D01*
X157350500Y-95583767D01*
X157350500Y-95416233D01*
X157350499Y-95416228D01*
X157649500Y-95416228D01*
X157649500Y-95583771D01*
X157682182Y-95748074D01*
X157682184Y-95748082D01*
X157746295Y-95902860D01*
X157839373Y-96042162D01*
X157957837Y-96160626D01*
X158027009Y-96206845D01*
X158097137Y-96253703D01*
X158251918Y-96317816D01*
X158411206Y-96349500D01*
X158416228Y-96350499D01*
X158416232Y-96350500D01*
X158416233Y-96350500D01*
X158583768Y-96350500D01*
X158583769Y-96350499D01*
X158748082Y-96317816D01*
X158902863Y-96253703D01*
X159042162Y-96160626D01*
X159160626Y-96042162D01*
X159253703Y-95902863D01*
X159317816Y-95748082D01*
X159350500Y-95583767D01*
X159350500Y-95416233D01*
X159317816Y-95251918D01*
X159253703Y-95097137D01*
X159198928Y-95015161D01*
X159160626Y-94957837D01*
X159042162Y-94839373D01*
X158902860Y-94746295D01*
X158748082Y-94682184D01*
X158748074Y-94682182D01*
X158583771Y-94649500D01*
X158583767Y-94649500D01*
X158416233Y-94649500D01*
X158416228Y-94649500D01*
X158251925Y-94682182D01*
X158251917Y-94682184D01*
X158097139Y-94746295D01*
X157957837Y-94839373D01*
X157839373Y-94957837D01*
X157746295Y-95097139D01*
X157682184Y-95251917D01*
X157682182Y-95251925D01*
X157649500Y-95416228D01*
X157350499Y-95416228D01*
X157317816Y-95251918D01*
X157253703Y-95097137D01*
X157198928Y-95015161D01*
X157160626Y-94957837D01*
X157042162Y-94839373D01*
X156902860Y-94746295D01*
X156748082Y-94682184D01*
X156748074Y-94682182D01*
X156583771Y-94649500D01*
X156583767Y-94649500D01*
X156416233Y-94649500D01*
X156416228Y-94649500D01*
X156251925Y-94682182D01*
X156251917Y-94682184D01*
X156097139Y-94746295D01*
X155957837Y-94839373D01*
X155839373Y-94957837D01*
X155746295Y-95097139D01*
X155682184Y-95251917D01*
X155682182Y-95251925D01*
X155649500Y-95416228D01*
X155224727Y-95416228D01*
X155253703Y-95372863D01*
X155317816Y-95218082D01*
X155350500Y-95053767D01*
X155350500Y-94886233D01*
X155317816Y-94721918D01*
X155262379Y-94588082D01*
X155253704Y-94567139D01*
X155160626Y-94427837D01*
X155042162Y-94309373D01*
X154902860Y-94216295D01*
X154748082Y-94152184D01*
X154748074Y-94152182D01*
X154583771Y-94119500D01*
X154583767Y-94119500D01*
X154416233Y-94119500D01*
X154416228Y-94119500D01*
X154251925Y-94152182D01*
X154251917Y-94152184D01*
X154097139Y-94216295D01*
X153957837Y-94309373D01*
X153839373Y-94427837D01*
X153746295Y-94567139D01*
X153682184Y-94721917D01*
X153682182Y-94721925D01*
X153649500Y-94886228D01*
X125697888Y-94886228D01*
X124566818Y-93755157D01*
X124533334Y-93693835D01*
X124530500Y-93667477D01*
X124530500Y-93416228D01*
X155649500Y-93416228D01*
X155649500Y-93583771D01*
X155682182Y-93748074D01*
X155682184Y-93748082D01*
X155746295Y-93902860D01*
X155839373Y-94042162D01*
X155957837Y-94160626D01*
X156041152Y-94216295D01*
X156097137Y-94253703D01*
X156097138Y-94253703D01*
X156097139Y-94253704D01*
X156103245Y-94256233D01*
X156251918Y-94317816D01*
X156416228Y-94350499D01*
X156416232Y-94350500D01*
X156416233Y-94350500D01*
X156583768Y-94350500D01*
X156583769Y-94350499D01*
X156748082Y-94317816D01*
X156902863Y-94253703D01*
X157042162Y-94160626D01*
X157160626Y-94042162D01*
X157253703Y-93902863D01*
X157317816Y-93748082D01*
X157350500Y-93583767D01*
X157350500Y-93416233D01*
X157350499Y-93416228D01*
X157649500Y-93416228D01*
X157649500Y-93583771D01*
X157682182Y-93748074D01*
X157682184Y-93748082D01*
X157746295Y-93902860D01*
X157839373Y-94042162D01*
X157957837Y-94160626D01*
X158041152Y-94216295D01*
X158097137Y-94253703D01*
X158097138Y-94253703D01*
X158097139Y-94253704D01*
X158103245Y-94256233D01*
X158251918Y-94317816D01*
X158416228Y-94350499D01*
X158416232Y-94350500D01*
X158416233Y-94350500D01*
X158583768Y-94350500D01*
X158583769Y-94350499D01*
X158748082Y-94317816D01*
X158902863Y-94253703D01*
X159042162Y-94160626D01*
X159160626Y-94042162D01*
X159253703Y-93902863D01*
X159317816Y-93748082D01*
X159350500Y-93583767D01*
X159350500Y-93416233D01*
X159317816Y-93251918D01*
X159253703Y-93097137D01*
X159205511Y-93025013D01*
X159160626Y-92957837D01*
X159042162Y-92839373D01*
X158902860Y-92746295D01*
X158748082Y-92682184D01*
X158748074Y-92682182D01*
X158583771Y-92649500D01*
X158583767Y-92649500D01*
X158416233Y-92649500D01*
X158416228Y-92649500D01*
X158251925Y-92682182D01*
X158251917Y-92682184D01*
X158097139Y-92746295D01*
X157957837Y-92839373D01*
X157839373Y-92957837D01*
X157746295Y-93097139D01*
X157682184Y-93251917D01*
X157682182Y-93251925D01*
X157649500Y-93416228D01*
X157350499Y-93416228D01*
X157317816Y-93251918D01*
X157253703Y-93097137D01*
X157205511Y-93025013D01*
X157160626Y-92957837D01*
X157042162Y-92839373D01*
X156902860Y-92746295D01*
X156748082Y-92682184D01*
X156748074Y-92682182D01*
X156583771Y-92649500D01*
X156583767Y-92649500D01*
X156416233Y-92649500D01*
X156416228Y-92649500D01*
X156251925Y-92682182D01*
X156251917Y-92682184D01*
X156097139Y-92746295D01*
X155957837Y-92839373D01*
X155839373Y-92957837D01*
X155746295Y-93097139D01*
X155682184Y-93251917D01*
X155682182Y-93251925D01*
X155649500Y-93416228D01*
X124530500Y-93416228D01*
X124530500Y-91416228D01*
X155649500Y-91416228D01*
X155649500Y-91583771D01*
X155682182Y-91748074D01*
X155682184Y-91748082D01*
X155746295Y-91902860D01*
X155839373Y-92042162D01*
X155957837Y-92160626D01*
X156036011Y-92212860D01*
X156097137Y-92253703D01*
X156251918Y-92317816D01*
X156416228Y-92350499D01*
X156416232Y-92350500D01*
X156416233Y-92350500D01*
X156583768Y-92350500D01*
X156583769Y-92350499D01*
X156748082Y-92317816D01*
X156902863Y-92253703D01*
X157042162Y-92160626D01*
X157160626Y-92042162D01*
X157253703Y-91902863D01*
X157317816Y-91748082D01*
X157350500Y-91583767D01*
X157350500Y-91416233D01*
X157350499Y-91416228D01*
X157649500Y-91416228D01*
X157649500Y-91583771D01*
X157682182Y-91748074D01*
X157682184Y-91748082D01*
X157746295Y-91902860D01*
X157839373Y-92042162D01*
X157957837Y-92160626D01*
X158036011Y-92212860D01*
X158097137Y-92253703D01*
X158251918Y-92317816D01*
X158416228Y-92350499D01*
X158416232Y-92350500D01*
X158416233Y-92350500D01*
X158583768Y-92350500D01*
X158583769Y-92350499D01*
X158719868Y-92323428D01*
X167755900Y-92323428D01*
X167755900Y-92490971D01*
X167788582Y-92655274D01*
X167788584Y-92655282D01*
X167852695Y-92810060D01*
X167945773Y-92949362D01*
X168064237Y-93067826D01*
X168134822Y-93114989D01*
X168203537Y-93160903D01*
X168203538Y-93160903D01*
X168203539Y-93160904D01*
X168238601Y-93175427D01*
X168358318Y-93225016D01*
X168493560Y-93251917D01*
X168522628Y-93257699D01*
X168522632Y-93257700D01*
X168522633Y-93257700D01*
X168690168Y-93257700D01*
X168690169Y-93257699D01*
X168854482Y-93225016D01*
X169009263Y-93160903D01*
X169148562Y-93067826D01*
X169267026Y-92949362D01*
X169360103Y-92810063D01*
X169424216Y-92655282D01*
X169456900Y-92490967D01*
X169456900Y-92323433D01*
X169424216Y-92159118D01*
X169360103Y-92004337D01*
X169286225Y-91893771D01*
X169267026Y-91865037D01*
X169148562Y-91746573D01*
X169009260Y-91653495D01*
X168854482Y-91589384D01*
X168854474Y-91589382D01*
X168690171Y-91556700D01*
X168690167Y-91556700D01*
X168522633Y-91556700D01*
X168522628Y-91556700D01*
X168358325Y-91589382D01*
X168358317Y-91589384D01*
X168203539Y-91653495D01*
X168064237Y-91746573D01*
X167945773Y-91865037D01*
X167852695Y-92004339D01*
X167788584Y-92159117D01*
X167788582Y-92159125D01*
X167755900Y-92323428D01*
X158719868Y-92323428D01*
X158748082Y-92317816D01*
X158902863Y-92253703D01*
X159042162Y-92160626D01*
X159160626Y-92042162D01*
X159253703Y-91902863D01*
X159317816Y-91748082D01*
X159350500Y-91583767D01*
X159350500Y-91416233D01*
X159317816Y-91251918D01*
X159253703Y-91097137D01*
X159197863Y-91013567D01*
X159160626Y-90957837D01*
X159042162Y-90839373D01*
X158902860Y-90746295D01*
X158748082Y-90682184D01*
X158748074Y-90682182D01*
X158583771Y-90649500D01*
X158583767Y-90649500D01*
X158416233Y-90649500D01*
X158416228Y-90649500D01*
X158251925Y-90682182D01*
X158251917Y-90682184D01*
X158097139Y-90746295D01*
X157957837Y-90839373D01*
X157839373Y-90957837D01*
X157746295Y-91097139D01*
X157682184Y-91251917D01*
X157682182Y-91251925D01*
X157649500Y-91416228D01*
X157350499Y-91416228D01*
X157317816Y-91251918D01*
X157253703Y-91097137D01*
X157197863Y-91013567D01*
X157160626Y-90957837D01*
X157042162Y-90839373D01*
X156902860Y-90746295D01*
X156748082Y-90682184D01*
X156748074Y-90682182D01*
X156583771Y-90649500D01*
X156583767Y-90649500D01*
X156416233Y-90649500D01*
X156416228Y-90649500D01*
X156251925Y-90682182D01*
X156251917Y-90682184D01*
X156097139Y-90746295D01*
X155957837Y-90839373D01*
X155839373Y-90957837D01*
X155746295Y-91097139D01*
X155682184Y-91251917D01*
X155682182Y-91251925D01*
X155649500Y-91416228D01*
X124530500Y-91416228D01*
X124530500Y-89576232D01*
X124530499Y-89576228D01*
X124497817Y-89411925D01*
X124497816Y-89411918D01*
X124469587Y-89343767D01*
X124433704Y-89257138D01*
X124433703Y-89257137D01*
X124433700Y-89257131D01*
X124340627Y-89117838D01*
X124340624Y-89117834D01*
X124287819Y-89065029D01*
X124254334Y-89003706D01*
X124251500Y-88977348D01*
X124251500Y-87726228D01*
X155279500Y-87726228D01*
X155279500Y-87893771D01*
X155312182Y-88058074D01*
X155312184Y-88058082D01*
X155376295Y-88212860D01*
X155469373Y-88352162D01*
X155587837Y-88470626D01*
X155624217Y-88494934D01*
X155727137Y-88563703D01*
X155881918Y-88627816D01*
X155894168Y-88630252D01*
X155956078Y-88662636D01*
X155990654Y-88723351D01*
X155986916Y-88793121D01*
X155957660Y-88839551D01*
X155839373Y-88957838D01*
X155746295Y-89097139D01*
X155682184Y-89251917D01*
X155682182Y-89251925D01*
X155649500Y-89416228D01*
X155649500Y-89583771D01*
X155682182Y-89748074D01*
X155682184Y-89748082D01*
X155746295Y-89902860D01*
X155839373Y-90042162D01*
X155957837Y-90160626D01*
X156050494Y-90222537D01*
X156097137Y-90253703D01*
X156251918Y-90317816D01*
X156416228Y-90350499D01*
X156416232Y-90350500D01*
X156416233Y-90350500D01*
X156583768Y-90350500D01*
X156583769Y-90350499D01*
X156748082Y-90317816D01*
X156902863Y-90253703D01*
X157042162Y-90160626D01*
X157160626Y-90042162D01*
X157253703Y-89902863D01*
X157317816Y-89748082D01*
X157350500Y-89583767D01*
X157350500Y-89416233D01*
X157317816Y-89251918D01*
X157253703Y-89097137D01*
X157196766Y-89011925D01*
X157160626Y-88957837D01*
X157042162Y-88839373D01*
X156902860Y-88746295D01*
X156748082Y-88682184D01*
X156748079Y-88682183D01*
X156735827Y-88679746D01*
X156673917Y-88647359D01*
X156639344Y-88586643D01*
X156643085Y-88516873D01*
X156672338Y-88470449D01*
X156790626Y-88352162D01*
X156883703Y-88212863D01*
X156947816Y-88058082D01*
X156980500Y-87893767D01*
X156980500Y-87746228D01*
X157359500Y-87746228D01*
X157359500Y-87913771D01*
X157392182Y-88078074D01*
X157392184Y-88078082D01*
X157456295Y-88232860D01*
X157549373Y-88372162D01*
X157667837Y-88490626D01*
X157719409Y-88525085D01*
X157807137Y-88583703D01*
X157807138Y-88583703D01*
X157807139Y-88583704D01*
X157807141Y-88583705D01*
X157828797Y-88592675D01*
X157923194Y-88631775D01*
X157977597Y-88675616D01*
X157999662Y-88741910D01*
X157982383Y-88809609D01*
X157961277Y-88834198D01*
X157962145Y-88835066D01*
X157839376Y-88957834D01*
X157839373Y-88957837D01*
X157746295Y-89097139D01*
X157682184Y-89251917D01*
X157682182Y-89251925D01*
X157649500Y-89416228D01*
X157649500Y-89583771D01*
X157682182Y-89748074D01*
X157682184Y-89748082D01*
X157746295Y-89902860D01*
X157839373Y-90042162D01*
X157957837Y-90160626D01*
X158050494Y-90222537D01*
X158097137Y-90253703D01*
X158251918Y-90317816D01*
X158416228Y-90350499D01*
X158416232Y-90350500D01*
X158416233Y-90350500D01*
X158583768Y-90350500D01*
X158583769Y-90350499D01*
X158748082Y-90317816D01*
X158902863Y-90253703D01*
X159042162Y-90160626D01*
X159160626Y-90042162D01*
X159253703Y-89902863D01*
X159317816Y-89748082D01*
X159350500Y-89583767D01*
X159350500Y-89416233D01*
X159317816Y-89251918D01*
X159253703Y-89097137D01*
X159196766Y-89011925D01*
X159160626Y-88957837D01*
X159042162Y-88839373D01*
X158902860Y-88746295D01*
X158792300Y-88700500D01*
X158786804Y-88698223D01*
X158732402Y-88654383D01*
X158710337Y-88588089D01*
X158727616Y-88520390D01*
X158748731Y-88495810D01*
X158747855Y-88494934D01*
X158870623Y-88372165D01*
X158870626Y-88372162D01*
X158963703Y-88232863D01*
X159027816Y-88078082D01*
X159051394Y-87959546D01*
X159083777Y-87897639D01*
X159144492Y-87863064D01*
X159214262Y-87866803D01*
X159270934Y-87907669D01*
X159294627Y-87959548D01*
X159322182Y-88098076D01*
X159322184Y-88098082D01*
X159386295Y-88252860D01*
X159479373Y-88392162D01*
X159597837Y-88510626D01*
X159689527Y-88571891D01*
X159737137Y-88603703D01*
X159891918Y-88667816D01*
X160044791Y-88698224D01*
X160056228Y-88700499D01*
X160056232Y-88700500D01*
X160056233Y-88700500D01*
X160223768Y-88700500D01*
X160223769Y-88700499D01*
X160388082Y-88667816D01*
X160542863Y-88603703D01*
X160682162Y-88510626D01*
X160800626Y-88392162D01*
X160893703Y-88252863D01*
X160957816Y-88098082D01*
X160990500Y-87933767D01*
X160990500Y-87766233D01*
X160957816Y-87601918D01*
X160893703Y-87447137D01*
X160862537Y-87400494D01*
X160800626Y-87307837D01*
X160682162Y-87189373D01*
X160542860Y-87096295D01*
X160388082Y-87032184D01*
X160388074Y-87032182D01*
X160223771Y-86999500D01*
X160223767Y-86999500D01*
X160056233Y-86999500D01*
X160056228Y-86999500D01*
X159891925Y-87032182D01*
X159891917Y-87032184D01*
X159737139Y-87096295D01*
X159597837Y-87189373D01*
X159479373Y-87307837D01*
X159386295Y-87447139D01*
X159322184Y-87601917D01*
X159322182Y-87601925D01*
X159298606Y-87720450D01*
X159266221Y-87782361D01*
X159205506Y-87816935D01*
X159135736Y-87813196D01*
X159079064Y-87772329D01*
X159055372Y-87720450D01*
X159039762Y-87641976D01*
X159027816Y-87581918D01*
X158971987Y-87447137D01*
X158963704Y-87427139D01*
X158870626Y-87287837D01*
X158752162Y-87169373D01*
X158612860Y-87076295D01*
X158458082Y-87012184D01*
X158458074Y-87012182D01*
X158293771Y-86979500D01*
X158293767Y-86979500D01*
X158126233Y-86979500D01*
X158126228Y-86979500D01*
X157961925Y-87012182D01*
X157961917Y-87012184D01*
X157807139Y-87076295D01*
X157667837Y-87169373D01*
X157549373Y-87287837D01*
X157456295Y-87427139D01*
X157392184Y-87581917D01*
X157392182Y-87581925D01*
X157359500Y-87746228D01*
X156980500Y-87746228D01*
X156980500Y-87726233D01*
X156947816Y-87561918D01*
X156883703Y-87407137D01*
X156852537Y-87360494D01*
X156790626Y-87267837D01*
X156672162Y-87149373D01*
X156532860Y-87056295D01*
X156378082Y-86992184D01*
X156378074Y-86992182D01*
X156213771Y-86959500D01*
X156213767Y-86959500D01*
X156046233Y-86959500D01*
X156046228Y-86959500D01*
X155881925Y-86992182D01*
X155881917Y-86992184D01*
X155727139Y-87056295D01*
X155587837Y-87149373D01*
X155469373Y-87267837D01*
X155376295Y-87407139D01*
X155312184Y-87561917D01*
X155312182Y-87561925D01*
X155279500Y-87726228D01*
X124251500Y-87726228D01*
X124251500Y-84336228D01*
X159719500Y-84336228D01*
X159719500Y-84503771D01*
X159752182Y-84668074D01*
X159752184Y-84668082D01*
X159816295Y-84822860D01*
X159909373Y-84962162D01*
X160027837Y-85080626D01*
X160120494Y-85142537D01*
X160167137Y-85173703D01*
X160321918Y-85237816D01*
X160486228Y-85270499D01*
X160486232Y-85270500D01*
X160486233Y-85270500D01*
X160653768Y-85270500D01*
X160653769Y-85270499D01*
X160818082Y-85237816D01*
X160972863Y-85173703D01*
X161112162Y-85080626D01*
X161230626Y-84962162D01*
X161323703Y-84822863D01*
X161387816Y-84668082D01*
X161420500Y-84503767D01*
X161420500Y-84336233D01*
X161387816Y-84171918D01*
X161323703Y-84017137D01*
X161280124Y-83951917D01*
X161230626Y-83877837D01*
X161112162Y-83759373D01*
X160972860Y-83666295D01*
X160818082Y-83602184D01*
X160818074Y-83602182D01*
X160653771Y-83569500D01*
X160653767Y-83569500D01*
X160486233Y-83569500D01*
X160486228Y-83569500D01*
X160321925Y-83602182D01*
X160321917Y-83602184D01*
X160167139Y-83666295D01*
X160027837Y-83759373D01*
X159909373Y-83877837D01*
X159816295Y-84017139D01*
X159752184Y-84171917D01*
X159752182Y-84171925D01*
X159719500Y-84336228D01*
X124251500Y-84336228D01*
X124251500Y-80806228D01*
X160659500Y-80806228D01*
X160659500Y-80973771D01*
X160692182Y-81138074D01*
X160692184Y-81138082D01*
X160756295Y-81292860D01*
X160849373Y-81432162D01*
X160967837Y-81550626D01*
X160976229Y-81556233D01*
X161107137Y-81643703D01*
X161261918Y-81707816D01*
X161426228Y-81740499D01*
X161426232Y-81740500D01*
X161426233Y-81740500D01*
X161593768Y-81740500D01*
X161593769Y-81740499D01*
X161758082Y-81707816D01*
X161912863Y-81643703D01*
X162052162Y-81550626D01*
X162170626Y-81432162D01*
X162263703Y-81292863D01*
X162327816Y-81138082D01*
X162360500Y-80973767D01*
X162360500Y-80806233D01*
X162327816Y-80641918D01*
X162267161Y-80495485D01*
X162263704Y-80487139D01*
X162170626Y-80347837D01*
X162052162Y-80229373D01*
X161912860Y-80136295D01*
X161758082Y-80072184D01*
X161758074Y-80072182D01*
X161593771Y-80039500D01*
X161593767Y-80039500D01*
X161426233Y-80039500D01*
X161426228Y-80039500D01*
X161261925Y-80072182D01*
X161261917Y-80072184D01*
X161107139Y-80136295D01*
X160967837Y-80229373D01*
X160849373Y-80347837D01*
X160756295Y-80487139D01*
X160692184Y-80641917D01*
X160692182Y-80641925D01*
X160659500Y-80806228D01*
X124251500Y-80806228D01*
X124251500Y-77998450D01*
X124271185Y-77931411D01*
X124287819Y-77910769D01*
X125065314Y-77133274D01*
X140487398Y-77133274D01*
X140487398Y-77300817D01*
X140520080Y-77465120D01*
X140520082Y-77465128D01*
X140584193Y-77619906D01*
X140677271Y-77759208D01*
X140795735Y-77877672D01*
X140874526Y-77930318D01*
X140935035Y-77970749D01*
X140935036Y-77970749D01*
X140935037Y-77970750D01*
X140959281Y-77980792D01*
X141089816Y-78034862D01*
X141244499Y-78065630D01*
X141254126Y-78067545D01*
X141254130Y-78067546D01*
X141254131Y-78067546D01*
X141421666Y-78067546D01*
X141421667Y-78067545D01*
X141585980Y-78034862D01*
X141740761Y-77970749D01*
X141745377Y-77967664D01*
X141812047Y-77946780D01*
X141879429Y-77965257D01*
X141901956Y-77983079D01*
X141984507Y-78065630D01*
X141987375Y-78067546D01*
X142123807Y-78158707D01*
X142278588Y-78222820D01*
X142412719Y-78249500D01*
X142442898Y-78255503D01*
X142442902Y-78255504D01*
X142442903Y-78255504D01*
X142610438Y-78255504D01*
X142610439Y-78255503D01*
X142774752Y-78222820D01*
X142929533Y-78158707D01*
X143068832Y-78065630D01*
X143187296Y-77947166D01*
X143280373Y-77807867D01*
X143344486Y-77653086D01*
X143377170Y-77488771D01*
X143377170Y-77321237D01*
X143344486Y-77156922D01*
X143280373Y-77002141D01*
X143219720Y-76911368D01*
X143187296Y-76862841D01*
X143068835Y-76744380D01*
X143068831Y-76744377D01*
X142942057Y-76659669D01*
X142897252Y-76606057D01*
X142887545Y-76568720D01*
X142887300Y-76566238D01*
X142887300Y-76566233D01*
X142854616Y-76401918D01*
X142790503Y-76247137D01*
X142751295Y-76188458D01*
X142697426Y-76107837D01*
X142578962Y-75989373D01*
X142439660Y-75896295D01*
X142284882Y-75832184D01*
X142284874Y-75832182D01*
X142120571Y-75799500D01*
X142120567Y-75799500D01*
X141953033Y-75799500D01*
X141953028Y-75799500D01*
X141788725Y-75832182D01*
X141788717Y-75832184D01*
X141633939Y-75896295D01*
X141494637Y-75989373D01*
X141376173Y-76107837D01*
X141283096Y-76247137D01*
X141257158Y-76309756D01*
X141213316Y-76364159D01*
X141166790Y-76383918D01*
X141089821Y-76399228D01*
X141089815Y-76399230D01*
X140935037Y-76463341D01*
X140795735Y-76556419D01*
X140677271Y-76674883D01*
X140584193Y-76814185D01*
X140520082Y-76968963D01*
X140520080Y-76968971D01*
X140487398Y-77133274D01*
X125065314Y-77133274D01*
X126061620Y-76136968D01*
X126061626Y-76136962D01*
X126154704Y-75997663D01*
X126201505Y-75884673D01*
X126218816Y-75842882D01*
X126251500Y-75678567D01*
X126251500Y-75511033D01*
X126218816Y-75346718D01*
X126205523Y-75314626D01*
X126189305Y-75275471D01*
X126154707Y-75191943D01*
X126154705Y-75191940D01*
X126154704Y-75191937D01*
X126061626Y-75052638D01*
X126061622Y-75052634D01*
X126061620Y-75052631D01*
X125943168Y-74934179D01*
X125943164Y-74934176D01*
X125943162Y-74934174D01*
X125803863Y-74841096D01*
X125803860Y-74841094D01*
X125803859Y-74841094D01*
X125803857Y-74841093D01*
X125694416Y-74795762D01*
X125694414Y-74795761D01*
X125649086Y-74776985D01*
X125649074Y-74776982D01*
X125484771Y-74744300D01*
X125484767Y-74744300D01*
X125317233Y-74744300D01*
X125317228Y-74744300D01*
X125244283Y-74758810D01*
X125174691Y-74752583D01*
X125119514Y-74709720D01*
X125105531Y-74684646D01*
X125054704Y-74561939D01*
X125048171Y-74552162D01*
X125008383Y-74492615D01*
X124961626Y-74422637D01*
X124843162Y-74304173D01*
X124703860Y-74211095D01*
X124549082Y-74146984D01*
X124549074Y-74146982D01*
X124384771Y-74114300D01*
X124384767Y-74114300D01*
X124375500Y-74114300D01*
X124308461Y-74094615D01*
X124262706Y-74041811D01*
X124251500Y-73990300D01*
X124251500Y-71984680D01*
X124271185Y-71917641D01*
X124323989Y-71871886D01*
X124375500Y-71860680D01*
X124389388Y-71860680D01*
X124389389Y-71860679D01*
X124553702Y-71827996D01*
X124625216Y-71798373D01*
X124694681Y-71790905D01*
X124757161Y-71822179D01*
X124792814Y-71882268D01*
X124790321Y-71952093D01*
X124787227Y-71960387D01*
X124743185Y-72066713D01*
X124743182Y-72066725D01*
X124710500Y-72231028D01*
X124710500Y-72398571D01*
X124743182Y-72562874D01*
X124743184Y-72562882D01*
X124798402Y-72696189D01*
X124805871Y-72765658D01*
X124786945Y-72812530D01*
X124767296Y-72841937D01*
X124703184Y-72996717D01*
X124703182Y-72996725D01*
X124670500Y-73161028D01*
X124670500Y-73328571D01*
X124703182Y-73492874D01*
X124703184Y-73492882D01*
X124767295Y-73647660D01*
X124860373Y-73786962D01*
X124978837Y-73905426D01*
X125067016Y-73964345D01*
X125118137Y-73998503D01*
X125272918Y-74062616D01*
X125429526Y-74093767D01*
X125437228Y-74095299D01*
X125437232Y-74095300D01*
X125437233Y-74095300D01*
X125604768Y-74095300D01*
X125604769Y-74095299D01*
X125769082Y-74062616D01*
X125923863Y-73998503D01*
X126063162Y-73905426D01*
X126181626Y-73786962D01*
X126274703Y-73647663D01*
X126298162Y-73591028D01*
X133560500Y-73591028D01*
X133560500Y-73758571D01*
X133593182Y-73922874D01*
X133593184Y-73922882D01*
X133657295Y-74077660D01*
X133750373Y-74216962D01*
X133868837Y-74335426D01*
X133930893Y-74376890D01*
X134008137Y-74428503D01*
X134162918Y-74492616D01*
X134305042Y-74520886D01*
X134327228Y-74525299D01*
X134327232Y-74525300D01*
X134327233Y-74525300D01*
X134494768Y-74525300D01*
X134494769Y-74525299D01*
X134659082Y-74492616D01*
X134813863Y-74428503D01*
X134953162Y-74335426D01*
X135071626Y-74216962D01*
X135164703Y-74077663D01*
X135228816Y-73922882D01*
X135261500Y-73758567D01*
X135261500Y-73591033D01*
X135228816Y-73426718D01*
X135177285Y-73302312D01*
X135165936Y-73274913D01*
X135158467Y-73205443D01*
X135189742Y-73142964D01*
X135249831Y-73107312D01*
X135256270Y-73105850D01*
X135348082Y-73087588D01*
X135502863Y-73023475D01*
X135642162Y-72930398D01*
X135760626Y-72811934D01*
X135853703Y-72672635D01*
X135868166Y-72637719D01*
X135912007Y-72583316D01*
X135958536Y-72563555D01*
X135962731Y-72562720D01*
X136089082Y-72537588D01*
X136243863Y-72473475D01*
X136383162Y-72380398D01*
X136501626Y-72261934D01*
X136594703Y-72122635D01*
X136658816Y-71967854D01*
X136691500Y-71803539D01*
X136691500Y-71636005D01*
X136658816Y-71471690D01*
X136594703Y-71316909D01*
X136551344Y-71252018D01*
X136501626Y-71177609D01*
X136383162Y-71059145D01*
X136243860Y-70966067D01*
X136089082Y-70901956D01*
X136089074Y-70901954D01*
X135924771Y-70869272D01*
X135924767Y-70869272D01*
X135757233Y-70869272D01*
X135757228Y-70869272D01*
X135592925Y-70901954D01*
X135592917Y-70901956D01*
X135438139Y-70966067D01*
X135298837Y-71059145D01*
X135180373Y-71177609D01*
X135087296Y-71316910D01*
X135072832Y-71351827D01*
X135028989Y-71406229D01*
X134982464Y-71425988D01*
X134851923Y-71451954D01*
X134851917Y-71451956D01*
X134697139Y-71516067D01*
X134557837Y-71609145D01*
X134439373Y-71727609D01*
X134346295Y-71866911D01*
X134282184Y-72021689D01*
X134282182Y-72021697D01*
X134249500Y-72186000D01*
X134249500Y-72353543D01*
X134282182Y-72517846D01*
X134282185Y-72517858D01*
X134345063Y-72669659D01*
X134352532Y-72739128D01*
X134321257Y-72801607D01*
X134261168Y-72837259D01*
X134254694Y-72838728D01*
X134162923Y-72856982D01*
X134162917Y-72856984D01*
X134008139Y-72921095D01*
X133868837Y-73014173D01*
X133750373Y-73132637D01*
X133657295Y-73271939D01*
X133593184Y-73426717D01*
X133593182Y-73426725D01*
X133560500Y-73591028D01*
X126298162Y-73591028D01*
X126338816Y-73492882D01*
X126371500Y-73328567D01*
X126371500Y-73161033D01*
X126338816Y-72996718D01*
X126283596Y-72863408D01*
X126276128Y-72793940D01*
X126295055Y-72747067D01*
X126314703Y-72717663D01*
X126378816Y-72562882D01*
X126411500Y-72398567D01*
X126411500Y-72231033D01*
X126378816Y-72066718D01*
X126314703Y-71911937D01*
X126263671Y-71835562D01*
X126221626Y-71772637D01*
X126103162Y-71654173D01*
X125963860Y-71561095D01*
X125963856Y-71561093D01*
X125937428Y-71550146D01*
X125883025Y-71506305D01*
X125860961Y-71440010D01*
X125878241Y-71372311D01*
X125915989Y-71332486D01*
X126004571Y-71273298D01*
X126123035Y-71154834D01*
X126216112Y-71015535D01*
X126280225Y-70860754D01*
X126312909Y-70696439D01*
X126312909Y-70528905D01*
X126280225Y-70364590D01*
X126216820Y-70211518D01*
X126216113Y-70209811D01*
X126123035Y-70070509D01*
X126004571Y-69952045D01*
X125865269Y-69858967D01*
X125773145Y-69820808D01*
X125732917Y-69793928D01*
X124287819Y-68348830D01*
X124254334Y-68287507D01*
X124251500Y-68261149D01*
X124251500Y-65905433D01*
X137378700Y-65905433D01*
X137378700Y-65910341D01*
X137378700Y-66072971D01*
X137411381Y-66237273D01*
X137411384Y-66237282D01*
X137475496Y-66392063D01*
X137475497Y-66392066D01*
X137568572Y-66531361D01*
X137568575Y-66531365D01*
X150234630Y-79197419D01*
X150234631Y-79197420D01*
X150234634Y-79197422D01*
X150234638Y-79197426D01*
X150373937Y-79290504D01*
X150483384Y-79335837D01*
X150528718Y-79354616D01*
X150693028Y-79387299D01*
X150693032Y-79387300D01*
X150693033Y-79387300D01*
X166733168Y-79387300D01*
X166733169Y-79387299D01*
X166897482Y-79354616D01*
X167052263Y-79290503D01*
X167191562Y-79197426D01*
X167310026Y-79078962D01*
X167403103Y-78939663D01*
X167467216Y-78784882D01*
X167499900Y-78620567D01*
X167499900Y-78453033D01*
X167467216Y-78288718D01*
X167403103Y-78133937D01*
X167336903Y-78034862D01*
X167310026Y-77994637D01*
X167191562Y-77876173D01*
X167052260Y-77783095D01*
X166897482Y-77718984D01*
X166897474Y-77718982D01*
X166733171Y-77686300D01*
X166733167Y-77686300D01*
X151180450Y-77686300D01*
X151113411Y-77666615D01*
X151092769Y-77649981D01*
X150072452Y-76629663D01*
X150038967Y-76568340D01*
X150043951Y-76498648D01*
X150085823Y-76442715D01*
X150112673Y-76427424D01*
X150159530Y-76408016D01*
X150298829Y-76314939D01*
X150391826Y-76221941D01*
X150453147Y-76188458D01*
X150503698Y-76188007D01*
X150516230Y-76190500D01*
X150516233Y-76190500D01*
X150683768Y-76190500D01*
X150683769Y-76190499D01*
X150848082Y-76157816D01*
X151002863Y-76093703D01*
X151142162Y-76000626D01*
X151260626Y-75882162D01*
X151353703Y-75742863D01*
X151417816Y-75588082D01*
X151450500Y-75423767D01*
X151450500Y-75256233D01*
X151417816Y-75091918D01*
X151353703Y-74937137D01*
X151290230Y-74842143D01*
X151269353Y-74775466D01*
X151272555Y-74745170D01*
X151274865Y-74735231D01*
X151292021Y-74693816D01*
X151322378Y-74541200D01*
X153849500Y-74541200D01*
X153849500Y-74708743D01*
X153882182Y-74873046D01*
X153882184Y-74873054D01*
X153946295Y-75027832D01*
X154039373Y-75167134D01*
X154157837Y-75285598D01*
X154249303Y-75346713D01*
X154297137Y-75378675D01*
X154451918Y-75442788D01*
X154591232Y-75470499D01*
X154616228Y-75475471D01*
X154616232Y-75475472D01*
X154616233Y-75475472D01*
X154783768Y-75475472D01*
X154783769Y-75475471D01*
X154948082Y-75442788D01*
X155102863Y-75378675D01*
X155242162Y-75285598D01*
X155360626Y-75167134D01*
X155453703Y-75027835D01*
X155455763Y-75022863D01*
X155491270Y-74937140D01*
X155503487Y-74907645D01*
X155547328Y-74853243D01*
X155613622Y-74831178D01*
X155642237Y-74833481D01*
X155667602Y-74838527D01*
X155835137Y-74838527D01*
X155835138Y-74838526D01*
X155999451Y-74805843D01*
X156154232Y-74741730D01*
X156293531Y-74648653D01*
X156411995Y-74530189D01*
X156505072Y-74390890D01*
X156569185Y-74236109D01*
X156601869Y-74071794D01*
X156601869Y-73904260D01*
X156601869Y-73904257D01*
X156601868Y-73904255D01*
X156600025Y-73894986D01*
X156606252Y-73825395D01*
X156649115Y-73770217D01*
X156697448Y-73749178D01*
X156737482Y-73741216D01*
X156892263Y-73677103D01*
X156930329Y-73651667D01*
X156997005Y-73630789D01*
X157064386Y-73649273D01*
X157111076Y-73701251D01*
X157122253Y-73770221D01*
X157120837Y-73778960D01*
X157099500Y-73886228D01*
X157099500Y-74053771D01*
X157132182Y-74218074D01*
X157132184Y-74218082D01*
X157196295Y-74372860D01*
X157289373Y-74512162D01*
X157407837Y-74630626D01*
X157488684Y-74684646D01*
X157547137Y-74723703D01*
X157701918Y-74787816D01*
X157819383Y-74811181D01*
X157866228Y-74820499D01*
X157866232Y-74820500D01*
X157866233Y-74820500D01*
X158033768Y-74820500D01*
X158033769Y-74820499D01*
X158198082Y-74787816D01*
X158352863Y-74723703D01*
X158492162Y-74630626D01*
X158492161Y-74630626D01*
X158497227Y-74627242D01*
X158498446Y-74629067D01*
X158553648Y-74605602D01*
X158622520Y-74617372D01*
X158674095Y-74664508D01*
X158689659Y-74704572D01*
X158722182Y-74868076D01*
X158722184Y-74868082D01*
X158786295Y-75022860D01*
X158879373Y-75162162D01*
X158997837Y-75280626D01*
X159024287Y-75298299D01*
X159137137Y-75373703D01*
X159137138Y-75373703D01*
X159137139Y-75373704D01*
X159172201Y-75388227D01*
X159291918Y-75437816D01*
X159456228Y-75470499D01*
X159456232Y-75470500D01*
X159456233Y-75470500D01*
X159623768Y-75470500D01*
X159623769Y-75470499D01*
X159788082Y-75437816D01*
X159942863Y-75373703D01*
X160082162Y-75280626D01*
X160200626Y-75162162D01*
X160293703Y-75022863D01*
X160357816Y-74868082D01*
X160390500Y-74703767D01*
X160390500Y-74536233D01*
X160369753Y-74431930D01*
X160375980Y-74362339D01*
X160418843Y-74307162D01*
X160484733Y-74283917D01*
X160515561Y-74286122D01*
X160622028Y-74307299D01*
X160622032Y-74307300D01*
X160622033Y-74307300D01*
X160789568Y-74307300D01*
X160789569Y-74307299D01*
X160953882Y-74274616D01*
X161108663Y-74210503D01*
X161247962Y-74117426D01*
X161366426Y-73998962D01*
X161459503Y-73859663D01*
X161523616Y-73704882D01*
X161556300Y-73540567D01*
X161556300Y-73373033D01*
X161523616Y-73208718D01*
X161459503Y-73053937D01*
X161421270Y-72996717D01*
X161366426Y-72914637D01*
X161247962Y-72796173D01*
X161108660Y-72703095D01*
X160953882Y-72638984D01*
X160953874Y-72638982D01*
X160789571Y-72606300D01*
X160789567Y-72606300D01*
X160622033Y-72606300D01*
X160622028Y-72606300D01*
X160457725Y-72638982D01*
X160457717Y-72638984D01*
X160302939Y-72703095D01*
X160163637Y-72796173D01*
X160045173Y-72914637D01*
X159952095Y-73053939D01*
X159915261Y-73142866D01*
X159871420Y-73197269D01*
X159805126Y-73219334D01*
X159737426Y-73202055D01*
X159689816Y-73150917D01*
X159676700Y-73095413D01*
X159676700Y-73017432D01*
X159676699Y-73017428D01*
X159656253Y-72914637D01*
X159644016Y-72853118D01*
X159583533Y-72707100D01*
X159579904Y-72698339D01*
X159578467Y-72696189D01*
X159544050Y-72644679D01*
X159486826Y-72559037D01*
X159368362Y-72440573D01*
X159229060Y-72347495D01*
X159074282Y-72283384D01*
X159074274Y-72283382D01*
X158909971Y-72250700D01*
X158909967Y-72250700D01*
X158742433Y-72250700D01*
X158742428Y-72250700D01*
X158578125Y-72283382D01*
X158578117Y-72283384D01*
X158423339Y-72347495D01*
X158284037Y-72440573D01*
X158165573Y-72559037D01*
X158072495Y-72698339D01*
X158008384Y-72853117D01*
X158008382Y-72853125D01*
X157975120Y-73020344D01*
X157942735Y-73082255D01*
X157882019Y-73116829D01*
X157867443Y-73119258D01*
X157701925Y-73152182D01*
X157701917Y-73152184D01*
X157547138Y-73216296D01*
X157547136Y-73216297D01*
X157509068Y-73241733D01*
X157442391Y-73262610D01*
X157375011Y-73244124D01*
X157328321Y-73192145D01*
X157317146Y-73123175D01*
X157318559Y-73114455D01*
X157339900Y-73007167D01*
X157339900Y-72839633D01*
X157307216Y-72675318D01*
X157243103Y-72520537D01*
X157192188Y-72444337D01*
X157150026Y-72381237D01*
X157031562Y-72262773D01*
X156892260Y-72169695D01*
X156737482Y-72105584D01*
X156737474Y-72105582D01*
X156573171Y-72072900D01*
X156573167Y-72072900D01*
X156405633Y-72072900D01*
X156405628Y-72072900D01*
X156241325Y-72105582D01*
X156241317Y-72105584D01*
X156086539Y-72169695D01*
X155947237Y-72262773D01*
X155828773Y-72381237D01*
X155735695Y-72520539D01*
X155671584Y-72675317D01*
X155671582Y-72675325D01*
X155638900Y-72839628D01*
X155638900Y-73007167D01*
X155640745Y-73016445D01*
X155634513Y-73086036D01*
X155591648Y-73141211D01*
X155543320Y-73162247D01*
X155503289Y-73170210D01*
X155503286Y-73170211D01*
X155348508Y-73234322D01*
X155209206Y-73327400D01*
X155090742Y-73445864D01*
X154997664Y-73585166D01*
X154947882Y-73705352D01*
X154904041Y-73759755D01*
X154837747Y-73781820D01*
X154809132Y-73779517D01*
X154783767Y-73774472D01*
X154616233Y-73774472D01*
X154616228Y-73774472D01*
X154451925Y-73807154D01*
X154451917Y-73807156D01*
X154297139Y-73871267D01*
X154157837Y-73964345D01*
X154039373Y-74082809D01*
X153946295Y-74222111D01*
X153882184Y-74376889D01*
X153882182Y-74376897D01*
X153849500Y-74541200D01*
X151322378Y-74541200D01*
X151324705Y-74529501D01*
X151324705Y-74361967D01*
X151292021Y-74197652D01*
X151227908Y-74042871D01*
X151175439Y-73964346D01*
X151134831Y-73903571D01*
X151016367Y-73785107D01*
X150877065Y-73692029D01*
X150722287Y-73627918D01*
X150722279Y-73627916D01*
X150557976Y-73595234D01*
X150557972Y-73595234D01*
X150390438Y-73595234D01*
X150390433Y-73595234D01*
X150226130Y-73627916D01*
X150226122Y-73627918D01*
X150071344Y-73692029D01*
X149932042Y-73785107D01*
X149813578Y-73903571D01*
X149720500Y-74042873D01*
X149656389Y-74197651D01*
X149656387Y-74197659D01*
X149623705Y-74361962D01*
X149623705Y-74529499D01*
X149653873Y-74681169D01*
X149647645Y-74750760D01*
X149604781Y-74805937D01*
X149556447Y-74826976D01*
X149508590Y-74836495D01*
X149508584Y-74836497D01*
X149353806Y-74900608D01*
X149214504Y-74993686D01*
X149096040Y-75112150D01*
X149002962Y-75251452D01*
X148983558Y-75298299D01*
X148939716Y-75352703D01*
X148873422Y-75374767D01*
X148805723Y-75357487D01*
X148781316Y-75338527D01*
X146206217Y-72763428D01*
X151244700Y-72763428D01*
X151244700Y-72930971D01*
X151277382Y-73095274D01*
X151277384Y-73095282D01*
X151341495Y-73250060D01*
X151434573Y-73389362D01*
X151553037Y-73507826D01*
X151641803Y-73567137D01*
X151692337Y-73600903D01*
X151847118Y-73665016D01*
X151982923Y-73692029D01*
X152011428Y-73697699D01*
X152011432Y-73697700D01*
X152011433Y-73697700D01*
X152178968Y-73697700D01*
X152178969Y-73697699D01*
X152343282Y-73665016D01*
X152498063Y-73600903D01*
X152637362Y-73507826D01*
X152755826Y-73389362D01*
X152848903Y-73250063D01*
X152913016Y-73095282D01*
X152945700Y-72930967D01*
X152945700Y-72763433D01*
X152945700Y-72757341D01*
X152948377Y-72757341D01*
X152959231Y-72700071D01*
X153007290Y-72649355D01*
X153075139Y-72632673D01*
X153093805Y-72634931D01*
X153142813Y-72644680D01*
X153310348Y-72644680D01*
X153310349Y-72644679D01*
X153474662Y-72611996D01*
X153629443Y-72547883D01*
X153768742Y-72454806D01*
X153887206Y-72336342D01*
X153980283Y-72197043D01*
X154044396Y-72042262D01*
X154077080Y-71877947D01*
X154077080Y-71710413D01*
X154044396Y-71546098D01*
X154043430Y-71543767D01*
X154026837Y-71503708D01*
X165402780Y-71503708D01*
X165402780Y-71671251D01*
X165435462Y-71835554D01*
X165435464Y-71835562D01*
X165499575Y-71990340D01*
X165592653Y-72129642D01*
X165711117Y-72248106D01*
X165755583Y-72277817D01*
X165850417Y-72341183D01*
X166005198Y-72405296D01*
X166169508Y-72437979D01*
X166169512Y-72437980D01*
X166169513Y-72437980D01*
X166337048Y-72437980D01*
X166337049Y-72437979D01*
X166501362Y-72405296D01*
X166656143Y-72341183D01*
X166795442Y-72248106D01*
X166832897Y-72210651D01*
X166894219Y-72177165D01*
X166963911Y-72182149D01*
X167019845Y-72224019D01*
X167035138Y-72250873D01*
X167038695Y-72259459D01*
X167038695Y-72259460D01*
X167131773Y-72398762D01*
X167250237Y-72517226D01*
X167342894Y-72579137D01*
X167389537Y-72610303D01*
X167389538Y-72610303D01*
X167389539Y-72610304D01*
X167423845Y-72624514D01*
X167544318Y-72674416D01*
X167698141Y-72705013D01*
X167708628Y-72707099D01*
X167708632Y-72707100D01*
X167708633Y-72707100D01*
X167876168Y-72707100D01*
X167876169Y-72707099D01*
X168040482Y-72674416D01*
X168195263Y-72610303D01*
X168334562Y-72517226D01*
X168453026Y-72398762D01*
X168546103Y-72259463D01*
X168610216Y-72104682D01*
X168642900Y-71940367D01*
X168642900Y-71772833D01*
X168610216Y-71608518D01*
X168546103Y-71453737D01*
X168522104Y-71417821D01*
X168501228Y-71351145D01*
X168519713Y-71283765D01*
X168571692Y-71237075D01*
X168640662Y-71225899D01*
X168649399Y-71227315D01*
X168651918Y-71227816D01*
X168816230Y-71260499D01*
X168816232Y-71260500D01*
X168816233Y-71260500D01*
X168983768Y-71260500D01*
X168983769Y-71260499D01*
X169148082Y-71227816D01*
X169302863Y-71163703D01*
X169442162Y-71070626D01*
X169560626Y-70952162D01*
X169638311Y-70835897D01*
X169691922Y-70791094D01*
X169761246Y-70782387D01*
X169824274Y-70812541D01*
X169855971Y-70857332D01*
X169858095Y-70862460D01*
X169951173Y-71001762D01*
X170069637Y-71120226D01*
X170134707Y-71163704D01*
X170208937Y-71213303D01*
X170363718Y-71277416D01*
X170528028Y-71310099D01*
X170528032Y-71310100D01*
X170528033Y-71310100D01*
X170695568Y-71310100D01*
X170695569Y-71310099D01*
X170859882Y-71277416D01*
X171014663Y-71213303D01*
X171153962Y-71120226D01*
X171272426Y-71001762D01*
X171365503Y-70862463D01*
X171429616Y-70707682D01*
X171462300Y-70543367D01*
X171462300Y-70375833D01*
X171429616Y-70211518D01*
X171365503Y-70056737D01*
X171332361Y-70007137D01*
X171272426Y-69917437D01*
X171153962Y-69798973D01*
X171014660Y-69705895D01*
X170859882Y-69641784D01*
X170859874Y-69641782D01*
X170695571Y-69609100D01*
X170695567Y-69609100D01*
X170622640Y-69609100D01*
X170555601Y-69589415D01*
X170509846Y-69536611D01*
X170508079Y-69532553D01*
X170443704Y-69377139D01*
X170350626Y-69237837D01*
X170232162Y-69119373D01*
X170092860Y-69026295D01*
X169938082Y-68962184D01*
X169938074Y-68962182D01*
X169773771Y-68929500D01*
X169773767Y-68929500D01*
X169606233Y-68929500D01*
X169606228Y-68929500D01*
X169441925Y-68962182D01*
X169441917Y-68962184D01*
X169287139Y-69026295D01*
X169147837Y-69119373D01*
X169029373Y-69237837D01*
X168936296Y-69377137D01*
X168890121Y-69488614D01*
X168846279Y-69543017D01*
X168799752Y-69562777D01*
X168651923Y-69592182D01*
X168651917Y-69592184D01*
X168497139Y-69656295D01*
X168357837Y-69749373D01*
X168239373Y-69867837D01*
X168146295Y-70007139D01*
X168082184Y-70161917D01*
X168082182Y-70161925D01*
X168056267Y-70292210D01*
X168023882Y-70354121D01*
X167963167Y-70388695D01*
X167893397Y-70384956D01*
X167846969Y-70355700D01*
X167741402Y-70250133D01*
X167602100Y-70157055D01*
X167447322Y-70092944D01*
X167447314Y-70092942D01*
X167283011Y-70060260D01*
X167283007Y-70060260D01*
X167115473Y-70060260D01*
X167115468Y-70060260D01*
X166951165Y-70092942D01*
X166951157Y-70092944D01*
X166796379Y-70157055D01*
X166657077Y-70250133D01*
X166538613Y-70368597D01*
X166445535Y-70507899D01*
X166382354Y-70660433D01*
X166338513Y-70714836D01*
X166272219Y-70736901D01*
X166267793Y-70736980D01*
X166169508Y-70736980D01*
X166005205Y-70769662D01*
X166005197Y-70769664D01*
X165850419Y-70833775D01*
X165711117Y-70926853D01*
X165592653Y-71045317D01*
X165499575Y-71184619D01*
X165435464Y-71339397D01*
X165435462Y-71339405D01*
X165402780Y-71503708D01*
X154026837Y-71503708D01*
X153980284Y-71391319D01*
X153967583Y-71372311D01*
X153928914Y-71314438D01*
X153887206Y-71252017D01*
X153768742Y-71133553D01*
X153629440Y-71040475D01*
X153474662Y-70976364D01*
X153474654Y-70976362D01*
X153310351Y-70943680D01*
X153310347Y-70943680D01*
X153142813Y-70943680D01*
X153142808Y-70943680D01*
X152978505Y-70976362D01*
X152978497Y-70976364D01*
X152823719Y-71040475D01*
X152684417Y-71133553D01*
X152565953Y-71252017D01*
X152472875Y-71391319D01*
X152408764Y-71546097D01*
X152408762Y-71546105D01*
X152376080Y-71710408D01*
X152376080Y-71884039D01*
X152373429Y-71884039D01*
X152362484Y-71941433D01*
X152314368Y-71992094D01*
X152246500Y-72008700D01*
X152227966Y-72006446D01*
X152178970Y-71996700D01*
X152178967Y-71996700D01*
X152011433Y-71996700D01*
X152011428Y-71996700D01*
X151847125Y-72029382D01*
X151847117Y-72029384D01*
X151692339Y-72093495D01*
X151553037Y-72186573D01*
X151434573Y-72305037D01*
X151341495Y-72444339D01*
X151277384Y-72599117D01*
X151277382Y-72599125D01*
X151244700Y-72763428D01*
X146206217Y-72763428D01*
X141967370Y-68524581D01*
X141933885Y-68463258D01*
X141938869Y-68393566D01*
X141980741Y-68337633D01*
X142046205Y-68313216D01*
X142055051Y-68312900D01*
X142120568Y-68312900D01*
X142120569Y-68312899D01*
X142284882Y-68280216D01*
X142439663Y-68216103D01*
X142578962Y-68123026D01*
X142697426Y-68004562D01*
X142790503Y-67865263D01*
X142854616Y-67710482D01*
X142887300Y-67546167D01*
X142887300Y-67378633D01*
X142854616Y-67214318D01*
X142854614Y-67214313D01*
X142828726Y-67151813D01*
X142811592Y-67110448D01*
X167519720Y-67110448D01*
X167519720Y-67277991D01*
X167552402Y-67442294D01*
X167552404Y-67442302D01*
X167616515Y-67597080D01*
X167709593Y-67736382D01*
X167828057Y-67854846D01*
X167920714Y-67916757D01*
X167967357Y-67947923D01*
X167967358Y-67947923D01*
X167967359Y-67947924D01*
X168002421Y-67962447D01*
X168122138Y-68012036D01*
X168280596Y-68043555D01*
X168286448Y-68044719D01*
X168286452Y-68044720D01*
X168286453Y-68044720D01*
X168453988Y-68044720D01*
X168453989Y-68044719D01*
X168618302Y-68012036D01*
X168773083Y-67947923D01*
X168879414Y-67876874D01*
X168946087Y-67855998D01*
X169013467Y-67874482D01*
X169017185Y-67876871D01*
X169147137Y-67963703D01*
X169301918Y-68027816D01*
X169466228Y-68060499D01*
X169466232Y-68060500D01*
X169466233Y-68060500D01*
X169633768Y-68060500D01*
X169633769Y-68060499D01*
X169798082Y-68027816D01*
X169952863Y-67963703D01*
X170092162Y-67870626D01*
X170210626Y-67752162D01*
X170303703Y-67612863D01*
X170367816Y-67458082D01*
X170400500Y-67293767D01*
X170400500Y-67126233D01*
X170367816Y-66961918D01*
X170303703Y-66807137D01*
X170272537Y-66760494D01*
X170210626Y-66667837D01*
X170092162Y-66549373D01*
X169952860Y-66456295D01*
X169798082Y-66392184D01*
X169798074Y-66392182D01*
X169633771Y-66359500D01*
X169633767Y-66359500D01*
X169466233Y-66359500D01*
X169466228Y-66359500D01*
X169301925Y-66392182D01*
X169301917Y-66392184D01*
X169147138Y-66456296D01*
X169147134Y-66456298D01*
X169040808Y-66527343D01*
X168974131Y-66548221D01*
X168906751Y-66529736D01*
X168903027Y-66527343D01*
X168773080Y-66440515D01*
X168618302Y-66376404D01*
X168618294Y-66376402D01*
X168453991Y-66343720D01*
X168453987Y-66343720D01*
X168286453Y-66343720D01*
X168286448Y-66343720D01*
X168122145Y-66376402D01*
X168122137Y-66376404D01*
X167967359Y-66440515D01*
X167828057Y-66533593D01*
X167709593Y-66652057D01*
X167616515Y-66791359D01*
X167552404Y-66946137D01*
X167552402Y-66946145D01*
X167519720Y-67110448D01*
X142811592Y-67110448D01*
X142790504Y-67059539D01*
X142697426Y-66920237D01*
X142578962Y-66801773D01*
X142439660Y-66708695D01*
X142284882Y-66644584D01*
X142284874Y-66644582D01*
X142120571Y-66611900D01*
X142120567Y-66611900D01*
X141953033Y-66611900D01*
X141941256Y-66614242D01*
X141871665Y-66608011D01*
X141816490Y-66565145D01*
X141795453Y-66516813D01*
X141795100Y-66515038D01*
X141795100Y-66515033D01*
X141762416Y-66350718D01*
X141698303Y-66195937D01*
X141617796Y-66075450D01*
X141596918Y-66008772D01*
X141615403Y-65941392D01*
X141635607Y-65918286D01*
X141634855Y-65917534D01*
X141757623Y-65794765D01*
X141757626Y-65794762D01*
X141793470Y-65741118D01*
X141836828Y-65676228D01*
X157082672Y-65676228D01*
X157082672Y-65843771D01*
X157115354Y-66008074D01*
X157115356Y-66008082D01*
X157179467Y-66162860D01*
X157272545Y-66302162D01*
X157391009Y-66420626D01*
X157454551Y-66463083D01*
X157530309Y-66513703D01*
X157530310Y-66513703D01*
X157530311Y-66513704D01*
X157537817Y-66516813D01*
X157685090Y-66577816D01*
X157836892Y-66608011D01*
X157849400Y-66610499D01*
X157849404Y-66610500D01*
X157849405Y-66610500D01*
X158016940Y-66610500D01*
X158016941Y-66610499D01*
X158181254Y-66577816D01*
X158336035Y-66513703D01*
X158475334Y-66420626D01*
X158593798Y-66302162D01*
X158686875Y-66162863D01*
X158750988Y-66008082D01*
X158750988Y-66008080D01*
X158753319Y-66002454D01*
X158754604Y-66002986D01*
X158789038Y-65950433D01*
X158823148Y-65931823D01*
X158822454Y-65930147D01*
X158828080Y-65927816D01*
X158828082Y-65927816D01*
X158982863Y-65863703D01*
X159122162Y-65770626D01*
X159240626Y-65652162D01*
X159333703Y-65512863D01*
X159390300Y-65376228D01*
X161769500Y-65376228D01*
X161769500Y-65543771D01*
X161802182Y-65708074D01*
X161802184Y-65708082D01*
X161866295Y-65862860D01*
X161959373Y-66002162D01*
X162077837Y-66120626D01*
X162141045Y-66162860D01*
X162217137Y-66213703D01*
X162371918Y-66277816D01*
X162494315Y-66302162D01*
X162536228Y-66310499D01*
X162536232Y-66310500D01*
X162536233Y-66310500D01*
X162703768Y-66310500D01*
X162703769Y-66310499D01*
X162868082Y-66277816D01*
X163022863Y-66213703D01*
X163162162Y-66120626D01*
X163280626Y-66002162D01*
X163373703Y-65862863D01*
X163437816Y-65708082D01*
X163470500Y-65543767D01*
X163470500Y-65376233D01*
X163437816Y-65211918D01*
X163373703Y-65057137D01*
X163335693Y-65000251D01*
X163280626Y-64917837D01*
X163162162Y-64799373D01*
X163022860Y-64706295D01*
X162868082Y-64642184D01*
X162868074Y-64642182D01*
X162703771Y-64609500D01*
X162703767Y-64609500D01*
X162536233Y-64609500D01*
X162536228Y-64609500D01*
X162371925Y-64642182D01*
X162371917Y-64642184D01*
X162217139Y-64706295D01*
X162077837Y-64799373D01*
X161959373Y-64917837D01*
X161866295Y-65057139D01*
X161802184Y-65211917D01*
X161802182Y-65211925D01*
X161769500Y-65376228D01*
X159390300Y-65376228D01*
X159397816Y-65358082D01*
X159430500Y-65193767D01*
X159430500Y-65026233D01*
X159397816Y-64861918D01*
X159333703Y-64707137D01*
X159276170Y-64621033D01*
X159240626Y-64567837D01*
X159122162Y-64449373D01*
X158982860Y-64356295D01*
X158851809Y-64302012D01*
X158797406Y-64258171D01*
X158779390Y-64215747D01*
X158779089Y-64215839D01*
X158778238Y-64213035D01*
X158777643Y-64211635D01*
X158777320Y-64210007D01*
X158713207Y-64055226D01*
X158659158Y-63974336D01*
X158620130Y-63915926D01*
X158501666Y-63797462D01*
X158362364Y-63704384D01*
X158207586Y-63640273D01*
X158207578Y-63640271D01*
X158043275Y-63607589D01*
X158043271Y-63607589D01*
X157875737Y-63607589D01*
X157875732Y-63607589D01*
X157711429Y-63640271D01*
X157711421Y-63640273D01*
X157556643Y-63704384D01*
X157417341Y-63797462D01*
X157298877Y-63915926D01*
X157205799Y-64055228D01*
X157141688Y-64210006D01*
X157141686Y-64210014D01*
X157109004Y-64374317D01*
X157109004Y-64541860D01*
X157141686Y-64706163D01*
X157141688Y-64706171D01*
X157205799Y-64860949D01*
X157298877Y-65000251D01*
X157306823Y-65008197D01*
X157340308Y-65069520D01*
X157335324Y-65139212D01*
X157306824Y-65183558D01*
X157272545Y-65217837D01*
X157179467Y-65357139D01*
X157115356Y-65511917D01*
X157115354Y-65511925D01*
X157082672Y-65676228D01*
X141836828Y-65676228D01*
X141850703Y-65655463D01*
X141914816Y-65500682D01*
X141947500Y-65336367D01*
X141947500Y-65168833D01*
X141914816Y-65004518D01*
X141865227Y-64884801D01*
X141850704Y-64849739D01*
X141757626Y-64710437D01*
X141639162Y-64591973D01*
X141499860Y-64498895D01*
X141345082Y-64434784D01*
X141345074Y-64434782D01*
X141180771Y-64402100D01*
X141180767Y-64402100D01*
X141013233Y-64402100D01*
X141013228Y-64402100D01*
X140848925Y-64434782D01*
X140848917Y-64434784D01*
X140694139Y-64498895D01*
X140554837Y-64591973D01*
X140436373Y-64710437D01*
X140343295Y-64849739D01*
X140279184Y-65004517D01*
X140279182Y-65004525D01*
X140246500Y-65168828D01*
X140246500Y-65336371D01*
X140279182Y-65500674D01*
X140279184Y-65500682D01*
X140343296Y-65655461D01*
X140343298Y-65655465D01*
X140423803Y-65775950D01*
X140444681Y-65842627D01*
X140426196Y-65910007D01*
X140405999Y-65933120D01*
X140406745Y-65933866D01*
X140283976Y-66056634D01*
X140283973Y-66056637D01*
X140190895Y-66195939D01*
X140126784Y-66350717D01*
X140126782Y-66350722D01*
X140116747Y-66401172D01*
X140084361Y-66463083D01*
X140023645Y-66497656D01*
X139953875Y-66493915D01*
X139907449Y-66464660D01*
X138771365Y-65328575D01*
X138771361Y-65328572D01*
X138632066Y-65235497D01*
X138632063Y-65235496D01*
X138518678Y-65188531D01*
X138477282Y-65171384D01*
X138477274Y-65171382D01*
X138312971Y-65138700D01*
X138312967Y-65138700D01*
X138145433Y-65138700D01*
X138145428Y-65138700D01*
X137981125Y-65171382D01*
X137981117Y-65171384D01*
X137939722Y-65188531D01*
X137939721Y-65188531D01*
X137826336Y-65235496D01*
X137826333Y-65235497D01*
X137687038Y-65328572D01*
X137687034Y-65328575D01*
X137568575Y-65447034D01*
X137568572Y-65447038D01*
X137475497Y-65586333D01*
X137475496Y-65586336D01*
X137436256Y-65681071D01*
X137436256Y-65681072D01*
X137411384Y-65741117D01*
X137387397Y-65861709D01*
X137387392Y-65861735D01*
X137387168Y-65862863D01*
X137378700Y-65905433D01*
X124251500Y-65905433D01*
X124251500Y-64621032D01*
X124251499Y-64621028D01*
X124240919Y-64567837D01*
X124218816Y-64456718D01*
X124196192Y-64402100D01*
X124154704Y-64301937D01*
X124061627Y-64162638D01*
X124061624Y-64162634D01*
X123223165Y-63324175D01*
X123223161Y-63324172D01*
X123083866Y-63231097D01*
X123083863Y-63231096D01*
X122974416Y-63185762D01*
X122974414Y-63185761D01*
X122929086Y-63166985D01*
X122929074Y-63166982D01*
X122764771Y-63134300D01*
X122764767Y-63134300D01*
X122597233Y-63134300D01*
X122597228Y-63134300D01*
X122432925Y-63166982D01*
X122432913Y-63166985D01*
X122387583Y-63185762D01*
X122278143Y-63231092D01*
X122278130Y-63231099D01*
X122138838Y-63324172D01*
X122138834Y-63324175D01*
X122020375Y-63442634D01*
X122020372Y-63442638D01*
X121927297Y-63581933D01*
X121927296Y-63581936D01*
X121903133Y-63640272D01*
X121903133Y-63640273D01*
X121863184Y-63736717D01*
X121863182Y-63736725D01*
X121830500Y-63901028D01*
X107152500Y-63901028D01*
X107152500Y-62215543D01*
X107927699Y-62215543D01*
X107966147Y-62408829D01*
X107966150Y-62408839D01*
X108041564Y-62590907D01*
X108041571Y-62590920D01*
X108151060Y-62754781D01*
X108151063Y-62754785D01*
X108290414Y-62894136D01*
X108290418Y-62894139D01*
X108454279Y-63003628D01*
X108454292Y-63003635D01*
X108636360Y-63079049D01*
X108636365Y-63079051D01*
X108636369Y-63079051D01*
X108636370Y-63079052D01*
X108829656Y-63117500D01*
X108829659Y-63117500D01*
X109826743Y-63117500D01*
X109956782Y-63091632D01*
X110020035Y-63079051D01*
X110202114Y-63003632D01*
X110365982Y-62894139D01*
X110505339Y-62754782D01*
X110614832Y-62590914D01*
X110690251Y-62408835D01*
X110706151Y-62328899D01*
X110728700Y-62215543D01*
X111957699Y-62215543D01*
X111996147Y-62408829D01*
X111996150Y-62408839D01*
X112071564Y-62590907D01*
X112071571Y-62590920D01*
X112181060Y-62754781D01*
X112181063Y-62754785D01*
X112320414Y-62894136D01*
X112320418Y-62894139D01*
X112484279Y-63003628D01*
X112484292Y-63003635D01*
X112666360Y-63079049D01*
X112666365Y-63079051D01*
X112666369Y-63079051D01*
X112666370Y-63079052D01*
X112859656Y-63117500D01*
X112859659Y-63117500D01*
X114156743Y-63117500D01*
X114286782Y-63091632D01*
X114350035Y-63079051D01*
X114532114Y-63003632D01*
X114695982Y-62894139D01*
X114835339Y-62754782D01*
X114944832Y-62590914D01*
X115020251Y-62408835D01*
X115036151Y-62328899D01*
X115058700Y-62215543D01*
X115058700Y-62018456D01*
X115058699Y-62018454D01*
X115041967Y-61934332D01*
X115038366Y-61916228D01*
X159949500Y-61916228D01*
X159949500Y-62083771D01*
X159982182Y-62248074D01*
X159982184Y-62248082D01*
X160046295Y-62402860D01*
X160139373Y-62542162D01*
X160257837Y-62660626D01*
X160313498Y-62697817D01*
X160397137Y-62753703D01*
X160551918Y-62817816D01*
X160716228Y-62850499D01*
X160716232Y-62850500D01*
X160716233Y-62850500D01*
X160883768Y-62850500D01*
X160883769Y-62850499D01*
X161048082Y-62817816D01*
X161202863Y-62753703D01*
X161342162Y-62660626D01*
X161460626Y-62542162D01*
X161553703Y-62402863D01*
X161617816Y-62248082D01*
X161650500Y-62083767D01*
X161650500Y-61916233D01*
X161617816Y-61751918D01*
X161553703Y-61597137D01*
X161506315Y-61526216D01*
X161460626Y-61457837D01*
X161397417Y-61394628D01*
X167224986Y-61394628D01*
X167224986Y-61562171D01*
X167257668Y-61726474D01*
X167257670Y-61726482D01*
X167321781Y-61881260D01*
X167414859Y-62020562D01*
X167533323Y-62139026D01*
X167595392Y-62180499D01*
X167672623Y-62232103D01*
X167827404Y-62296216D01*
X167991714Y-62328899D01*
X167991718Y-62328900D01*
X167991719Y-62328900D01*
X168159254Y-62328900D01*
X168159255Y-62328899D01*
X168323568Y-62296216D01*
X168478349Y-62232103D01*
X168617648Y-62139026D01*
X168736112Y-62020562D01*
X168799558Y-61925609D01*
X168853170Y-61880804D01*
X168902660Y-61870500D01*
X168933768Y-61870500D01*
X168933769Y-61870499D01*
X169098082Y-61837816D01*
X169252863Y-61773703D01*
X169392162Y-61680626D01*
X169510626Y-61562162D01*
X169603703Y-61422863D01*
X169667816Y-61268082D01*
X169700500Y-61103767D01*
X169700500Y-60936233D01*
X169667816Y-60771918D01*
X169612379Y-60638082D01*
X169603704Y-60617139D01*
X169510626Y-60477837D01*
X169392162Y-60359373D01*
X169252860Y-60266295D01*
X169098082Y-60202184D01*
X169098074Y-60202182D01*
X168933771Y-60169500D01*
X168933767Y-60169500D01*
X168766233Y-60169500D01*
X168766228Y-60169500D01*
X168601925Y-60202182D01*
X168601917Y-60202184D01*
X168447139Y-60266295D01*
X168307837Y-60359373D01*
X168189376Y-60477834D01*
X168189373Y-60477838D01*
X168125928Y-60572791D01*
X168072316Y-60617596D01*
X168022826Y-60627900D01*
X167991714Y-60627900D01*
X167827411Y-60660582D01*
X167827403Y-60660584D01*
X167672625Y-60724695D01*
X167533323Y-60817773D01*
X167414859Y-60936237D01*
X167321781Y-61075539D01*
X167257670Y-61230317D01*
X167257668Y-61230325D01*
X167224986Y-61394628D01*
X161397417Y-61394628D01*
X161342162Y-61339373D01*
X161202860Y-61246295D01*
X161048082Y-61182184D01*
X161048074Y-61182182D01*
X160883771Y-61149500D01*
X160883767Y-61149500D01*
X160716233Y-61149500D01*
X160716228Y-61149500D01*
X160551925Y-61182182D01*
X160551917Y-61182184D01*
X160397139Y-61246295D01*
X160257837Y-61339373D01*
X160139373Y-61457837D01*
X160046295Y-61597139D01*
X159982184Y-61751917D01*
X159982182Y-61751925D01*
X159949500Y-61916228D01*
X115038366Y-61916228D01*
X115020252Y-61825170D01*
X115020251Y-61825169D01*
X115020251Y-61825165D01*
X115008265Y-61796228D01*
X114944835Y-61643092D01*
X114944828Y-61643079D01*
X114835339Y-61479218D01*
X114835336Y-61479214D01*
X114695985Y-61339863D01*
X114695981Y-61339860D01*
X114532120Y-61230371D01*
X114532107Y-61230364D01*
X114350039Y-61154950D01*
X114350029Y-61154947D01*
X114156743Y-61116500D01*
X114156741Y-61116500D01*
X113466327Y-61116500D01*
X113399288Y-61096815D01*
X113353533Y-61044011D01*
X113343589Y-60974853D01*
X113358940Y-60930500D01*
X113404703Y-60851237D01*
X113433700Y-60743018D01*
X113433700Y-60630982D01*
X113410937Y-60546028D01*
X116954700Y-60546028D01*
X116954700Y-60713571D01*
X116987382Y-60877874D01*
X116987384Y-60877882D01*
X117051495Y-61032660D01*
X117144573Y-61171962D01*
X117263037Y-61290426D01*
X117337021Y-61339860D01*
X117402337Y-61383503D01*
X117557118Y-61447616D01*
X117715973Y-61479214D01*
X117721428Y-61480299D01*
X117721432Y-61480300D01*
X117721433Y-61480300D01*
X117888968Y-61480300D01*
X117888969Y-61480299D01*
X118053282Y-61447616D01*
X118208063Y-61383503D01*
X118347362Y-61290426D01*
X118465826Y-61171962D01*
X118558903Y-61032663D01*
X118623016Y-60877882D01*
X118655700Y-60713567D01*
X118655700Y-60546033D01*
X118623016Y-60381718D01*
X118558903Y-60226937D01*
X118475635Y-60102318D01*
X118465826Y-60087637D01*
X118347362Y-59969173D01*
X118208060Y-59876095D01*
X118053282Y-59811984D01*
X118053274Y-59811982D01*
X117888971Y-59779300D01*
X117888967Y-59779300D01*
X117721433Y-59779300D01*
X117721428Y-59779300D01*
X117557125Y-59811982D01*
X117557117Y-59811984D01*
X117402339Y-59876095D01*
X117263037Y-59969173D01*
X117144573Y-60087637D01*
X117051495Y-60226939D01*
X116987384Y-60381717D01*
X116987382Y-60381725D01*
X116954700Y-60546028D01*
X113410937Y-60546028D01*
X113404703Y-60522763D01*
X113348685Y-60425737D01*
X113269463Y-60346515D01*
X113172437Y-60290497D01*
X113064218Y-60261500D01*
X112952182Y-60261500D01*
X112843963Y-60290497D01*
X112843960Y-60290498D01*
X112746940Y-60346513D01*
X112746934Y-60346517D01*
X112667717Y-60425734D01*
X112667713Y-60425740D01*
X112611698Y-60522760D01*
X112611698Y-60522761D01*
X112611697Y-60522763D01*
X112582700Y-60630982D01*
X112582700Y-60743018D01*
X112602731Y-60817773D01*
X112611697Y-60851236D01*
X112611698Y-60851239D01*
X112630369Y-60883579D01*
X112667715Y-60948263D01*
X112667717Y-60948265D01*
X112682244Y-60962792D01*
X112715729Y-61024115D01*
X112710745Y-61093807D01*
X112668873Y-61149740D01*
X112642016Y-61165034D01*
X112484288Y-61230366D01*
X112484279Y-61230371D01*
X112320418Y-61339860D01*
X112320414Y-61339863D01*
X112181063Y-61479214D01*
X112181060Y-61479218D01*
X112071571Y-61643079D01*
X112071564Y-61643092D01*
X111996150Y-61825160D01*
X111996147Y-61825170D01*
X111957700Y-62018456D01*
X111957700Y-62018459D01*
X111957700Y-62215541D01*
X111957700Y-62215543D01*
X111957699Y-62215543D01*
X110728700Y-62215543D01*
X110728700Y-62018456D01*
X110690252Y-61825170D01*
X110690251Y-61825169D01*
X110690251Y-61825165D01*
X110678265Y-61796228D01*
X110614835Y-61643092D01*
X110614828Y-61643079D01*
X110505339Y-61479218D01*
X110505336Y-61479214D01*
X110365985Y-61339863D01*
X110365981Y-61339860D01*
X110202120Y-61230371D01*
X110202107Y-61230364D01*
X110020039Y-61154950D01*
X110020029Y-61154947D01*
X109826743Y-61116500D01*
X109826741Y-61116500D01*
X108829659Y-61116500D01*
X108829657Y-61116500D01*
X108636370Y-61154947D01*
X108636360Y-61154950D01*
X108454292Y-61230364D01*
X108454279Y-61230371D01*
X108290418Y-61339860D01*
X108290414Y-61339863D01*
X108151063Y-61479214D01*
X108151060Y-61479218D01*
X108041571Y-61643079D01*
X108041564Y-61643092D01*
X107966150Y-61825160D01*
X107966147Y-61825170D01*
X107927700Y-62018456D01*
X107927700Y-62018459D01*
X107927700Y-62215541D01*
X107927700Y-62215543D01*
X107927699Y-62215543D01*
X107152500Y-62215543D01*
X107152500Y-59047428D01*
X124101900Y-59047428D01*
X124101900Y-59214971D01*
X124134582Y-59379274D01*
X124134584Y-59379282D01*
X124198695Y-59534060D01*
X124291773Y-59673362D01*
X124410237Y-59791826D01*
X124494089Y-59847854D01*
X124549537Y-59884903D01*
X124549538Y-59884903D01*
X124549539Y-59884904D01*
X124584601Y-59899427D01*
X124704318Y-59949016D01*
X124868628Y-59981699D01*
X124868632Y-59981700D01*
X124868633Y-59981700D01*
X125036168Y-59981700D01*
X125036169Y-59981699D01*
X125200482Y-59949016D01*
X125355263Y-59884903D01*
X125494562Y-59791826D01*
X125613026Y-59673362D01*
X125706103Y-59534063D01*
X125770216Y-59379282D01*
X125802900Y-59214967D01*
X125802900Y-59047433D01*
X125770216Y-58883118D01*
X125706103Y-58728337D01*
X125671110Y-58675967D01*
X125613026Y-58589037D01*
X125532417Y-58508428D01*
X151804600Y-58508428D01*
X151804600Y-58675971D01*
X151837282Y-58840274D01*
X151837284Y-58840282D01*
X151901395Y-58995060D01*
X151994473Y-59134362D01*
X152112937Y-59252826D01*
X152150137Y-59277682D01*
X152252237Y-59345903D01*
X152407018Y-59410016D01*
X152519853Y-59432460D01*
X152571328Y-59442699D01*
X152571332Y-59442700D01*
X152571333Y-59442700D01*
X152738868Y-59442700D01*
X152738869Y-59442699D01*
X152903182Y-59410016D01*
X153057963Y-59345903D01*
X153197262Y-59252826D01*
X153315726Y-59134362D01*
X153408803Y-58995063D01*
X153472916Y-58840282D01*
X153505600Y-58675967D01*
X153505600Y-58508433D01*
X153472916Y-58344118D01*
X153408803Y-58189337D01*
X153361028Y-58117837D01*
X153315726Y-58050037D01*
X153197262Y-57931573D01*
X153057960Y-57838495D01*
X152903182Y-57774384D01*
X152903174Y-57774382D01*
X152738871Y-57741700D01*
X152738867Y-57741700D01*
X152571333Y-57741700D01*
X152571328Y-57741700D01*
X152407025Y-57774382D01*
X152407017Y-57774384D01*
X152252239Y-57838495D01*
X152112937Y-57931573D01*
X151994473Y-58050037D01*
X151901395Y-58189339D01*
X151837284Y-58344117D01*
X151837282Y-58344125D01*
X151804600Y-58508428D01*
X125532417Y-58508428D01*
X125494562Y-58470573D01*
X125355260Y-58377495D01*
X125200482Y-58313384D01*
X125200474Y-58313382D01*
X125036171Y-58280700D01*
X125036167Y-58280700D01*
X124868633Y-58280700D01*
X124868628Y-58280700D01*
X124704325Y-58313382D01*
X124704317Y-58313384D01*
X124549539Y-58377495D01*
X124410237Y-58470573D01*
X124291773Y-58589037D01*
X124198695Y-58728339D01*
X124134584Y-58883117D01*
X124134582Y-58883125D01*
X124101900Y-59047428D01*
X107152500Y-59047428D01*
X107152500Y-56304228D01*
X142253100Y-56304228D01*
X142253100Y-56471771D01*
X142285782Y-56636074D01*
X142285784Y-56636082D01*
X142349895Y-56790860D01*
X142442973Y-56930162D01*
X142561437Y-57048626D01*
X142604296Y-57077263D01*
X142700737Y-57141703D01*
X142855518Y-57205816D01*
X143019828Y-57238499D01*
X143019832Y-57238500D01*
X143019833Y-57238500D01*
X143187368Y-57238500D01*
X143187369Y-57238499D01*
X143351682Y-57205816D01*
X143443392Y-57167828D01*
X163843100Y-57167828D01*
X163843100Y-57335371D01*
X163875782Y-57499674D01*
X163875784Y-57499682D01*
X163939895Y-57654460D01*
X164032973Y-57793762D01*
X164151437Y-57912226D01*
X164235020Y-57968074D01*
X164290737Y-58005303D01*
X164445518Y-58069416D01*
X164600707Y-58100284D01*
X164662616Y-58132668D01*
X164697190Y-58193384D01*
X164698131Y-58197709D01*
X164702182Y-58218076D01*
X164702184Y-58218082D01*
X164766295Y-58372860D01*
X164859373Y-58512162D01*
X164977837Y-58630626D01*
X165045695Y-58675967D01*
X165117137Y-58723703D01*
X165271918Y-58787816D01*
X165436228Y-58820499D01*
X165436232Y-58820500D01*
X165436233Y-58820500D01*
X165603768Y-58820500D01*
X165603769Y-58820499D01*
X165768082Y-58787816D01*
X165841148Y-58757550D01*
X165910615Y-58750082D01*
X165973094Y-58781356D01*
X166008747Y-58841445D01*
X166010216Y-58847920D01*
X166022182Y-58908075D01*
X166022184Y-58908082D01*
X166086295Y-59062860D01*
X166179373Y-59202162D01*
X166297837Y-59320626D01*
X166390494Y-59382537D01*
X166437137Y-59413703D01*
X166591918Y-59477816D01*
X166702943Y-59499900D01*
X166756228Y-59510499D01*
X166756232Y-59510500D01*
X166756233Y-59510500D01*
X166923768Y-59510500D01*
X166923769Y-59510499D01*
X167088082Y-59477816D01*
X167242863Y-59413703D01*
X167382162Y-59320626D01*
X167500626Y-59202162D01*
X167593703Y-59062863D01*
X167657816Y-58908082D01*
X167690500Y-58743767D01*
X167690500Y-58576233D01*
X167657816Y-58411918D01*
X167601473Y-58275896D01*
X167593704Y-58257139D01*
X167500626Y-58117837D01*
X167382162Y-57999373D01*
X167242860Y-57906295D01*
X167141277Y-57864218D01*
X167086874Y-57820377D01*
X167064809Y-57754082D01*
X167074167Y-57702209D01*
X167137016Y-57550482D01*
X167169700Y-57386167D01*
X167169700Y-57218633D01*
X167137016Y-57054318D01*
X167072903Y-56899537D01*
X167011927Y-56808280D01*
X166992384Y-56779032D01*
X166992383Y-56779030D01*
X166979829Y-56760242D01*
X166979823Y-56760234D01*
X166935817Y-56716228D01*
X171009500Y-56716228D01*
X171009500Y-56883771D01*
X171042182Y-57048074D01*
X171042184Y-57048082D01*
X171106295Y-57202860D01*
X171199373Y-57342162D01*
X171317837Y-57460626D01*
X171376277Y-57499674D01*
X171457137Y-57553703D01*
X171611918Y-57617816D01*
X171776228Y-57650499D01*
X171776232Y-57650500D01*
X171885500Y-57650500D01*
X171952539Y-57670185D01*
X171998294Y-57722989D01*
X172009500Y-57774500D01*
X172009500Y-57803771D01*
X172042182Y-57968074D01*
X172042185Y-57968086D01*
X172095469Y-58096725D01*
X172102938Y-58166194D01*
X172071663Y-58228673D01*
X172028362Y-58258738D01*
X171986937Y-58275896D01*
X171847637Y-58368973D01*
X171729173Y-58487437D01*
X171636095Y-58626739D01*
X171571984Y-58781517D01*
X171571982Y-58781525D01*
X171539300Y-58945828D01*
X171539300Y-59113371D01*
X171571982Y-59277674D01*
X171571984Y-59277682D01*
X171636095Y-59432460D01*
X171729173Y-59571762D01*
X171847637Y-59690226D01*
X171894483Y-59721527D01*
X171986937Y-59783303D01*
X172141718Y-59847416D01*
X172306028Y-59880099D01*
X172306032Y-59880100D01*
X172306033Y-59880100D01*
X172473568Y-59880100D01*
X172473569Y-59880099D01*
X172523615Y-59870144D01*
X172643857Y-59846228D01*
X172644288Y-59848397D01*
X172704216Y-59847854D01*
X172763334Y-59885094D01*
X172792934Y-59948384D01*
X172784922Y-60014595D01*
X172732185Y-60141913D01*
X172732182Y-60141925D01*
X172699500Y-60306228D01*
X172699500Y-60409620D01*
X172679815Y-60476659D01*
X172627011Y-60522414D01*
X172622954Y-60524181D01*
X172497137Y-60576296D01*
X172357837Y-60669373D01*
X172239373Y-60787837D01*
X172146295Y-60927139D01*
X172082184Y-61081917D01*
X172082182Y-61081925D01*
X172049500Y-61246228D01*
X172049500Y-61413771D01*
X172082182Y-61578074D01*
X172082184Y-61578082D01*
X172146295Y-61732860D01*
X172239373Y-61872162D01*
X172357837Y-61990626D01*
X172450494Y-62052537D01*
X172497137Y-62083703D01*
X172497138Y-62083703D01*
X172497139Y-62083704D01*
X172497294Y-62083768D01*
X172651918Y-62147816D01*
X172816228Y-62180499D01*
X172816232Y-62180500D01*
X172941042Y-62180500D01*
X173008081Y-62200185D01*
X173053836Y-62252989D01*
X173055602Y-62257046D01*
X173066293Y-62282856D01*
X173066295Y-62282860D01*
X173159373Y-62422162D01*
X173277837Y-62540626D01*
X173353099Y-62590914D01*
X173417137Y-62633703D01*
X173571918Y-62697816D01*
X173736228Y-62730499D01*
X173736232Y-62730500D01*
X173736233Y-62730500D01*
X173903768Y-62730500D01*
X173903769Y-62730499D01*
X174068082Y-62697816D01*
X174222863Y-62633703D01*
X174362162Y-62540626D01*
X174480626Y-62422162D01*
X174573703Y-62282863D01*
X174637816Y-62128082D01*
X174670500Y-61963767D01*
X174670500Y-61796233D01*
X174637816Y-61631918D01*
X174573703Y-61477137D01*
X174529896Y-61411576D01*
X174480626Y-61337837D01*
X174362165Y-61219376D01*
X174362161Y-61219373D01*
X174224782Y-61127579D01*
X174179977Y-61073967D01*
X174171270Y-61004642D01*
X174201424Y-60941614D01*
X174205997Y-60936791D01*
X174210626Y-60932162D01*
X174237086Y-60892562D01*
X174303703Y-60792863D01*
X174367816Y-60638082D01*
X174400500Y-60473767D01*
X174400500Y-60306233D01*
X174396223Y-60284730D01*
X174396223Y-60284728D01*
X174392623Y-60266628D01*
X184086900Y-60266628D01*
X184086900Y-60434171D01*
X184119582Y-60598474D01*
X184119584Y-60598482D01*
X184183695Y-60753260D01*
X184276773Y-60892562D01*
X184395237Y-61011026D01*
X184444603Y-61044011D01*
X184534537Y-61104103D01*
X184689318Y-61168216D01*
X184853628Y-61200899D01*
X184853632Y-61200900D01*
X184853633Y-61200900D01*
X185021168Y-61200900D01*
X185021169Y-61200899D01*
X185185482Y-61168216D01*
X185340263Y-61104103D01*
X185388197Y-61072074D01*
X185454872Y-61051197D01*
X185522252Y-61069681D01*
X185567570Y-61118881D01*
X185583172Y-61149500D01*
X185584157Y-61151433D01*
X185722983Y-61342510D01*
X185722989Y-61342516D01*
X185726147Y-61346214D01*
X185724364Y-61347736D01*
X185753226Y-61400591D01*
X185748242Y-61470283D01*
X185706370Y-61526216D01*
X185697158Y-61532487D01*
X185648844Y-61562287D01*
X185524789Y-61686342D01*
X185432687Y-61835663D01*
X185432685Y-61835668D01*
X185405990Y-61916228D01*
X185377501Y-62002203D01*
X185377501Y-62002204D01*
X185377500Y-62002204D01*
X185367000Y-62104983D01*
X185367000Y-63705001D01*
X185367001Y-63705018D01*
X185377500Y-63807796D01*
X185377501Y-63807799D01*
X185408396Y-63901033D01*
X185432686Y-63974334D01*
X185524788Y-64123656D01*
X185648844Y-64247712D01*
X185798166Y-64339814D01*
X185964703Y-64394999D01*
X186067491Y-64405500D01*
X187667508Y-64405499D01*
X187770297Y-64394999D01*
X187936834Y-64339814D01*
X188086156Y-64247712D01*
X188210212Y-64123656D01*
X188302314Y-63974334D01*
X188357499Y-63807797D01*
X188368000Y-63705009D01*
X188367999Y-62104992D01*
X188365824Y-62083704D01*
X188357499Y-62002203D01*
X188357498Y-62002200D01*
X188344763Y-61963768D01*
X188302314Y-61835666D01*
X188210212Y-61686344D01*
X188086156Y-61562288D01*
X188086155Y-61562287D01*
X188037842Y-61532487D01*
X187991118Y-61480539D01*
X187979897Y-61411576D01*
X188007741Y-61347494D01*
X188008881Y-61346249D01*
X188008848Y-61346221D01*
X188012011Y-61342516D01*
X188012011Y-61342515D01*
X188012017Y-61342510D01*
X188150843Y-61151433D01*
X188258068Y-60940992D01*
X188331053Y-60716368D01*
X188343452Y-60638082D01*
X188368000Y-60483097D01*
X188368000Y-60246902D01*
X188331053Y-60013631D01*
X188277046Y-59847416D01*
X188258068Y-59789008D01*
X188258066Y-59789005D01*
X188258066Y-59789003D01*
X188180178Y-59636141D01*
X188150843Y-59578567D01*
X188012017Y-59387490D01*
X187845010Y-59220483D01*
X187810372Y-59195317D01*
X187767707Y-59139989D01*
X187761728Y-59070375D01*
X187794333Y-59008580D01*
X187810373Y-58994682D01*
X187845010Y-58969517D01*
X188012017Y-58802510D01*
X188150843Y-58611433D01*
X188258068Y-58400992D01*
X188331053Y-58176368D01*
X188340323Y-58117838D01*
X188368000Y-57943097D01*
X188368000Y-57706902D01*
X188331053Y-57473631D01*
X188280685Y-57318615D01*
X188258068Y-57249008D01*
X188258066Y-57249005D01*
X188258066Y-57249003D01*
X188201502Y-57137991D01*
X188150843Y-57038567D01*
X188012017Y-56847490D01*
X187845010Y-56680483D01*
X187653933Y-56541657D01*
X187443496Y-56434433D01*
X187218868Y-56361446D01*
X186985597Y-56324500D01*
X186985592Y-56324500D01*
X186749408Y-56324500D01*
X186749403Y-56324500D01*
X186516131Y-56361446D01*
X186291503Y-56434433D01*
X186081066Y-56541657D01*
X186013188Y-56590974D01*
X185889990Y-56680483D01*
X185889988Y-56680485D01*
X185889987Y-56680485D01*
X185722985Y-56847487D01*
X185722985Y-56847488D01*
X185722983Y-56847490D01*
X185685169Y-56899537D01*
X185584157Y-57038566D01*
X185476933Y-57249003D01*
X185403946Y-57473631D01*
X185367000Y-57706902D01*
X185367000Y-57943097D01*
X185403946Y-58176368D01*
X185476933Y-58400996D01*
X185546647Y-58537816D01*
X185584157Y-58611433D01*
X185722983Y-58802510D01*
X185889990Y-58969517D01*
X185924627Y-58994683D01*
X185967292Y-59050013D01*
X185973271Y-59119626D01*
X185940665Y-59181421D01*
X185924630Y-59195315D01*
X185906865Y-59208222D01*
X185889988Y-59220484D01*
X185722985Y-59387487D01*
X185722985Y-59387488D01*
X185722983Y-59387490D01*
X185673901Y-59455044D01*
X185584156Y-59578567D01*
X185578667Y-59589340D01*
X185530689Y-59640133D01*
X185462867Y-59656925D01*
X185399295Y-59636141D01*
X185340263Y-59596697D01*
X185340262Y-59596696D01*
X185340260Y-59596695D01*
X185185482Y-59532584D01*
X185185474Y-59532582D01*
X185021171Y-59499900D01*
X185021167Y-59499900D01*
X184853633Y-59499900D01*
X184853628Y-59499900D01*
X184689325Y-59532582D01*
X184689317Y-59532584D01*
X184534539Y-59596695D01*
X184395237Y-59689773D01*
X184276773Y-59808237D01*
X184183695Y-59947539D01*
X184119584Y-60102317D01*
X184119582Y-60102325D01*
X184086900Y-60266628D01*
X174392623Y-60266628D01*
X174367817Y-60141925D01*
X174367816Y-60141918D01*
X174303703Y-59987137D01*
X174281806Y-59954367D01*
X174260929Y-59887691D01*
X174279413Y-59820310D01*
X174299951Y-59796830D01*
X174299255Y-59796134D01*
X174422023Y-59673365D01*
X174422026Y-59673362D01*
X174473253Y-59596695D01*
X174515103Y-59534063D01*
X174579216Y-59379282D01*
X174611900Y-59214967D01*
X174611900Y-59047433D01*
X174579216Y-58883118D01*
X174515103Y-58728337D01*
X174480110Y-58675967D01*
X174422026Y-58589037D01*
X174303562Y-58470573D01*
X174164260Y-58377495D01*
X174009482Y-58313384D01*
X174009474Y-58313382D01*
X173845171Y-58280700D01*
X173845167Y-58280700D01*
X173733904Y-58280700D01*
X173666865Y-58261015D01*
X173621110Y-58208211D01*
X173611166Y-58139053D01*
X173619343Y-58109247D01*
X173624530Y-58096725D01*
X173677816Y-57968082D01*
X173710500Y-57803767D01*
X173710500Y-57636233D01*
X173677816Y-57471918D01*
X173614314Y-57318614D01*
X173606846Y-57249146D01*
X173625772Y-57202274D01*
X173709303Y-57077263D01*
X173773416Y-56922482D01*
X173806100Y-56758167D01*
X173806100Y-56590633D01*
X173773416Y-56426318D01*
X173709303Y-56271537D01*
X173643933Y-56173704D01*
X173616226Y-56132237D01*
X173497762Y-56013773D01*
X173358460Y-55920695D01*
X173203682Y-55856584D01*
X173203674Y-55856582D01*
X173039371Y-55823900D01*
X173039367Y-55823900D01*
X172871833Y-55823900D01*
X172871828Y-55823900D01*
X172707525Y-55856582D01*
X172707517Y-55856584D01*
X172552739Y-55920695D01*
X172413441Y-56013771D01*
X172404820Y-56022392D01*
X172343495Y-56055874D01*
X172273804Y-56050887D01*
X172268539Y-56048511D01*
X172268491Y-56048628D01*
X172108082Y-55982184D01*
X172108074Y-55982182D01*
X171943771Y-55949500D01*
X171943767Y-55949500D01*
X171776233Y-55949500D01*
X171776228Y-55949500D01*
X171611925Y-55982182D01*
X171611917Y-55982184D01*
X171457139Y-56046295D01*
X171317837Y-56139373D01*
X171199373Y-56257837D01*
X171106295Y-56397139D01*
X171042184Y-56551917D01*
X171042182Y-56551925D01*
X171009500Y-56716228D01*
X166935817Y-56716228D01*
X166861362Y-56641773D01*
X166722060Y-56548695D01*
X166567282Y-56484584D01*
X166567274Y-56484582D01*
X166402971Y-56451900D01*
X166402967Y-56451900D01*
X166235433Y-56451900D01*
X166235428Y-56451900D01*
X166071125Y-56484582D01*
X166071117Y-56484584D01*
X165916339Y-56548695D01*
X165777037Y-56641773D01*
X165658576Y-56760234D01*
X165626473Y-56808280D01*
X165572860Y-56853084D01*
X165503535Y-56861791D01*
X165440508Y-56831636D01*
X165420270Y-56808280D01*
X165354226Y-56709438D01*
X165354225Y-56709437D01*
X165354224Y-56709435D01*
X165235762Y-56590973D01*
X165096460Y-56497895D01*
X164941682Y-56433784D01*
X164941674Y-56433782D01*
X164777371Y-56401100D01*
X164777367Y-56401100D01*
X164609833Y-56401100D01*
X164609828Y-56401100D01*
X164445525Y-56433782D01*
X164445517Y-56433784D01*
X164290739Y-56497895D01*
X164151437Y-56590973D01*
X164032973Y-56709437D01*
X163939895Y-56848739D01*
X163875784Y-57003517D01*
X163875782Y-57003525D01*
X163843100Y-57167828D01*
X143443392Y-57167828D01*
X143506463Y-57141703D01*
X143645762Y-57048626D01*
X143764226Y-56930162D01*
X143857303Y-56790863D01*
X143921416Y-56636082D01*
X143954100Y-56471767D01*
X143954100Y-56304233D01*
X143921416Y-56139918D01*
X143857303Y-55985137D01*
X143826137Y-55938494D01*
X143764226Y-55845837D01*
X143645762Y-55727373D01*
X143506460Y-55634295D01*
X143351682Y-55570184D01*
X143351674Y-55570182D01*
X143187371Y-55537500D01*
X143187367Y-55537500D01*
X143019833Y-55537500D01*
X143019828Y-55537500D01*
X142855525Y-55570182D01*
X142855517Y-55570184D01*
X142700739Y-55634295D01*
X142561437Y-55727373D01*
X142442973Y-55845837D01*
X142349895Y-55985139D01*
X142285784Y-56139917D01*
X142285782Y-56139925D01*
X142253100Y-56304228D01*
X107152500Y-56304228D01*
X107152500Y-53575543D01*
X107927699Y-53575543D01*
X107966147Y-53768829D01*
X107966150Y-53768839D01*
X108041564Y-53950907D01*
X108041571Y-53950920D01*
X108151060Y-54114781D01*
X108151063Y-54114785D01*
X108290414Y-54254136D01*
X108290418Y-54254139D01*
X108454279Y-54363628D01*
X108454292Y-54363635D01*
X108573141Y-54412863D01*
X108636365Y-54439051D01*
X108636369Y-54439051D01*
X108636370Y-54439052D01*
X108829656Y-54477500D01*
X108829659Y-54477500D01*
X109826743Y-54477500D01*
X109956782Y-54451632D01*
X110020035Y-54439051D01*
X110202114Y-54363632D01*
X110365982Y-54254139D01*
X110505339Y-54114782D01*
X110614832Y-53950914D01*
X110690251Y-53768835D01*
X110712334Y-53657816D01*
X110728700Y-53575543D01*
X111957699Y-53575543D01*
X111996147Y-53768829D01*
X111996150Y-53768839D01*
X112071564Y-53950907D01*
X112071571Y-53950920D01*
X112181060Y-54114781D01*
X112181063Y-54114785D01*
X112320414Y-54254136D01*
X112320418Y-54254139D01*
X112484279Y-54363628D01*
X112484292Y-54363635D01*
X112642015Y-54428965D01*
X112696419Y-54472805D01*
X112718484Y-54539099D01*
X112701205Y-54606799D01*
X112682246Y-54631205D01*
X112667718Y-54645732D01*
X112667713Y-54645740D01*
X112611698Y-54742760D01*
X112611697Y-54742763D01*
X112582700Y-54850982D01*
X112582700Y-54963018D01*
X112611697Y-55071237D01*
X112667715Y-55168263D01*
X112746937Y-55247485D01*
X112843963Y-55303503D01*
X112952182Y-55332500D01*
X112952184Y-55332500D01*
X113064216Y-55332500D01*
X113064218Y-55332500D01*
X113172437Y-55303503D01*
X113269463Y-55247485D01*
X113348685Y-55168263D01*
X113404703Y-55071237D01*
X113433700Y-54963018D01*
X113433700Y-54850982D01*
X113404703Y-54742763D01*
X113358939Y-54663498D01*
X113342467Y-54595600D01*
X113365319Y-54529573D01*
X113420240Y-54486383D01*
X113466327Y-54477500D01*
X114156743Y-54477500D01*
X114286782Y-54451632D01*
X114350035Y-54439051D01*
X114532114Y-54363632D01*
X114609046Y-54312228D01*
X124090300Y-54312228D01*
X124090300Y-54479771D01*
X124122982Y-54644074D01*
X124122984Y-54644082D01*
X124187095Y-54798860D01*
X124280173Y-54938162D01*
X124398637Y-55056626D01*
X124482798Y-55112860D01*
X124537937Y-55149703D01*
X124692718Y-55213816D01*
X124857028Y-55246499D01*
X124857032Y-55246500D01*
X124857033Y-55246500D01*
X125024568Y-55246500D01*
X125024569Y-55246499D01*
X125188882Y-55213816D01*
X125343663Y-55149703D01*
X125482962Y-55056626D01*
X125601426Y-54938162D01*
X125694503Y-54798863D01*
X125736892Y-54696528D01*
X155555200Y-54696528D01*
X155555200Y-54864071D01*
X155587882Y-55028374D01*
X155587884Y-55028382D01*
X155651995Y-55183160D01*
X155745073Y-55322462D01*
X155863537Y-55440926D01*
X155938034Y-55490703D01*
X156002837Y-55534003D01*
X156157618Y-55598116D01*
X156282016Y-55622860D01*
X156321928Y-55630799D01*
X156321932Y-55630800D01*
X156321933Y-55630800D01*
X156489468Y-55630800D01*
X156489469Y-55630799D01*
X156653782Y-55598116D01*
X156808563Y-55534003D01*
X156947862Y-55440926D01*
X157052560Y-55336228D01*
X159469500Y-55336228D01*
X159469500Y-55503771D01*
X159502182Y-55668074D01*
X159502184Y-55668082D01*
X159566295Y-55822860D01*
X159659373Y-55962162D01*
X159777837Y-56080626D01*
X159855079Y-56132237D01*
X159917137Y-56173703D01*
X160071918Y-56237816D01*
X160236228Y-56270499D01*
X160236232Y-56270500D01*
X160236233Y-56270500D01*
X160403768Y-56270500D01*
X160403769Y-56270499D01*
X160568082Y-56237816D01*
X160722863Y-56173703D01*
X160862162Y-56080626D01*
X160980626Y-55962162D01*
X161073703Y-55822863D01*
X161137816Y-55668082D01*
X161170500Y-55503767D01*
X161170500Y-55336233D01*
X161137816Y-55171918D01*
X161073703Y-55017137D01*
X161034238Y-54958074D01*
X160980626Y-54877837D01*
X160862162Y-54759373D01*
X160722860Y-54666295D01*
X160568082Y-54602184D01*
X160568074Y-54602182D01*
X160403771Y-54569500D01*
X160403767Y-54569500D01*
X160236233Y-54569500D01*
X160236228Y-54569500D01*
X160071925Y-54602182D01*
X160071917Y-54602184D01*
X159917139Y-54666295D01*
X159777837Y-54759373D01*
X159659373Y-54877837D01*
X159566295Y-55017139D01*
X159502184Y-55171917D01*
X159502182Y-55171925D01*
X159469500Y-55336228D01*
X157052560Y-55336228D01*
X157066326Y-55322462D01*
X157159403Y-55183163D01*
X157223516Y-55028382D01*
X157256200Y-54864067D01*
X157256200Y-54696533D01*
X157223516Y-54532218D01*
X157167817Y-54397751D01*
X157159404Y-54377439D01*
X157154099Y-54369500D01*
X157095322Y-54281533D01*
X157066326Y-54238137D01*
X156947862Y-54119673D01*
X156808560Y-54026595D01*
X156653782Y-53962484D01*
X156653774Y-53962482D01*
X156489471Y-53929800D01*
X156489467Y-53929800D01*
X156321933Y-53929800D01*
X156321928Y-53929800D01*
X156157625Y-53962482D01*
X156157617Y-53962484D01*
X156002839Y-54026595D01*
X155863537Y-54119673D01*
X155745073Y-54238137D01*
X155651995Y-54377439D01*
X155587884Y-54532217D01*
X155587882Y-54532225D01*
X155555200Y-54696528D01*
X125736892Y-54696528D01*
X125758616Y-54644082D01*
X125791300Y-54479767D01*
X125791300Y-54312233D01*
X125758616Y-54147918D01*
X125694503Y-53993137D01*
X125663337Y-53946494D01*
X125601426Y-53853837D01*
X125482962Y-53735373D01*
X125343660Y-53642295D01*
X125188882Y-53578184D01*
X125188874Y-53578182D01*
X125024571Y-53545500D01*
X125024567Y-53545500D01*
X124857033Y-53545500D01*
X124857028Y-53545500D01*
X124692725Y-53578182D01*
X124692717Y-53578184D01*
X124537939Y-53642295D01*
X124398637Y-53735373D01*
X124280173Y-53853837D01*
X124187095Y-53993139D01*
X124122984Y-54147917D01*
X124122982Y-54147925D01*
X124090300Y-54312228D01*
X114609046Y-54312228D01*
X114695982Y-54254139D01*
X114712101Y-54238020D01*
X114731662Y-54218460D01*
X114835336Y-54114785D01*
X114835339Y-54114782D01*
X114944832Y-53950914D01*
X115020251Y-53768835D01*
X115042334Y-53657816D01*
X115058700Y-53575543D01*
X115058700Y-53378456D01*
X115020252Y-53185170D01*
X115020251Y-53185169D01*
X115020251Y-53185165D01*
X115009620Y-53159500D01*
X114944833Y-53003087D01*
X114944831Y-53003084D01*
X114906841Y-52946228D01*
X151889500Y-52946228D01*
X151889500Y-53113771D01*
X151922182Y-53278074D01*
X151922184Y-53278082D01*
X151986295Y-53432860D01*
X152079373Y-53572162D01*
X152197837Y-53690626D01*
X152290494Y-53752537D01*
X152337137Y-53783703D01*
X152491918Y-53847816D01*
X152642634Y-53877795D01*
X152656228Y-53880499D01*
X152656232Y-53880500D01*
X152656233Y-53880500D01*
X152823768Y-53880500D01*
X152823769Y-53880499D01*
X152988082Y-53847816D01*
X153142863Y-53783703D01*
X153282162Y-53690626D01*
X153400626Y-53572162D01*
X153493703Y-53432863D01*
X153557816Y-53278082D01*
X153590500Y-53113767D01*
X153590500Y-52946233D01*
X153557816Y-52781918D01*
X153493703Y-52627137D01*
X153460871Y-52578000D01*
X153400626Y-52487837D01*
X153282162Y-52369373D01*
X153142860Y-52276295D01*
X152988082Y-52212184D01*
X152988074Y-52212182D01*
X152823771Y-52179500D01*
X152823767Y-52179500D01*
X152656233Y-52179500D01*
X152656228Y-52179500D01*
X152491925Y-52212182D01*
X152491917Y-52212184D01*
X152337139Y-52276295D01*
X152197837Y-52369373D01*
X152079373Y-52487837D01*
X151986295Y-52627139D01*
X151922184Y-52781917D01*
X151922182Y-52781925D01*
X151889500Y-52946228D01*
X114906841Y-52946228D01*
X114835339Y-52839218D01*
X114835336Y-52839214D01*
X114695985Y-52699863D01*
X114695981Y-52699860D01*
X114532120Y-52590371D01*
X114532107Y-52590364D01*
X114350039Y-52514950D01*
X114350029Y-52514947D01*
X114156743Y-52476500D01*
X114156741Y-52476500D01*
X112859659Y-52476500D01*
X112859657Y-52476500D01*
X112666370Y-52514947D01*
X112666360Y-52514950D01*
X112484292Y-52590364D01*
X112484279Y-52590371D01*
X112320418Y-52699860D01*
X112320414Y-52699863D01*
X112181063Y-52839214D01*
X112181060Y-52839218D01*
X112071571Y-53003079D01*
X112071564Y-53003092D01*
X111996150Y-53185160D01*
X111996147Y-53185170D01*
X111957700Y-53378456D01*
X111957700Y-53378459D01*
X111957700Y-53575541D01*
X111957700Y-53575543D01*
X111957699Y-53575543D01*
X110728700Y-53575543D01*
X110728700Y-53378456D01*
X110690252Y-53185170D01*
X110690251Y-53185169D01*
X110690251Y-53185165D01*
X110679620Y-53159500D01*
X110614835Y-53003092D01*
X110614828Y-53003079D01*
X110505339Y-52839218D01*
X110505336Y-52839214D01*
X110365985Y-52699863D01*
X110365981Y-52699860D01*
X110202120Y-52590371D01*
X110202107Y-52590364D01*
X110020039Y-52514950D01*
X110020029Y-52514947D01*
X109826743Y-52476500D01*
X109826741Y-52476500D01*
X108829659Y-52476500D01*
X108829657Y-52476500D01*
X108636370Y-52514947D01*
X108636360Y-52514950D01*
X108454292Y-52590364D01*
X108454279Y-52590371D01*
X108290418Y-52699860D01*
X108290414Y-52699863D01*
X108151063Y-52839214D01*
X108151060Y-52839218D01*
X108041571Y-53003079D01*
X108041564Y-53003092D01*
X107966150Y-53185160D01*
X107966147Y-53185170D01*
X107927700Y-53378456D01*
X107927700Y-53378459D01*
X107927700Y-53575541D01*
X107927700Y-53575543D01*
X107927699Y-53575543D01*
X107152500Y-53575543D01*
X107152500Y-50646228D01*
X152029500Y-50646228D01*
X152029500Y-50813771D01*
X152062182Y-50978074D01*
X152062184Y-50978082D01*
X152126295Y-51132860D01*
X152219373Y-51272162D01*
X152337837Y-51390626D01*
X152399646Y-51431925D01*
X152477137Y-51483703D01*
X152477138Y-51483703D01*
X152477139Y-51483704D01*
X152487069Y-51487817D01*
X152631918Y-51547816D01*
X152774756Y-51576228D01*
X152796228Y-51580499D01*
X152796232Y-51580500D01*
X152796233Y-51580500D01*
X152963768Y-51580500D01*
X152963769Y-51580499D01*
X153128082Y-51547816D01*
X153282863Y-51483703D01*
X153422162Y-51390626D01*
X153540626Y-51272162D01*
X153633703Y-51132863D01*
X153697816Y-50978082D01*
X153730500Y-50813767D01*
X153730500Y-50646233D01*
X153730417Y-50645820D01*
X153722166Y-50604332D01*
X153718565Y-50586228D01*
X159649500Y-50586228D01*
X159649500Y-50753771D01*
X159682182Y-50918074D01*
X159682184Y-50918082D01*
X159746295Y-51072860D01*
X159839373Y-51212162D01*
X159957837Y-51330626D01*
X160038858Y-51384762D01*
X160097137Y-51423703D01*
X160097138Y-51423703D01*
X160097139Y-51423704D01*
X160116986Y-51431925D01*
X160251918Y-51487816D01*
X160416228Y-51520499D01*
X160416232Y-51520500D01*
X160416233Y-51520500D01*
X160583768Y-51520500D01*
X160583769Y-51520499D01*
X160748082Y-51487816D01*
X160902863Y-51423703D01*
X161042162Y-51330626D01*
X161160626Y-51212162D01*
X161253703Y-51072863D01*
X161317816Y-50918082D01*
X161350500Y-50753767D01*
X161350500Y-50586233D01*
X161317816Y-50421918D01*
X161253703Y-50267137D01*
X161194862Y-50179075D01*
X161173985Y-50112398D01*
X161192470Y-50045018D01*
X161210280Y-50022507D01*
X161290626Y-49942162D01*
X161383703Y-49802863D01*
X161447816Y-49648082D01*
X161480500Y-49483767D01*
X161480500Y-49316233D01*
X161447816Y-49151918D01*
X161392379Y-49018082D01*
X161383704Y-48997139D01*
X161290626Y-48857837D01*
X161172162Y-48739373D01*
X161092624Y-48686228D01*
X163489500Y-48686228D01*
X163489500Y-48853771D01*
X163522182Y-49018074D01*
X163522184Y-49018082D01*
X163586295Y-49172860D01*
X163679373Y-49312162D01*
X163797837Y-49430626D01*
X163859209Y-49471633D01*
X163937137Y-49523703D01*
X164091918Y-49587816D01*
X164242740Y-49617816D01*
X164256228Y-49620499D01*
X164256232Y-49620500D01*
X164256233Y-49620500D01*
X164423768Y-49620500D01*
X164423768Y-49620499D01*
X164526736Y-49600018D01*
X164596327Y-49606245D01*
X164651504Y-49649108D01*
X164674749Y-49714997D01*
X164665488Y-49769087D01*
X164602185Y-49921913D01*
X164602182Y-49921925D01*
X164569500Y-50086228D01*
X164569500Y-50253771D01*
X164602182Y-50418074D01*
X164602184Y-50418082D01*
X164666295Y-50572860D01*
X164759373Y-50712162D01*
X164851830Y-50804619D01*
X164885315Y-50865942D01*
X164880331Y-50935634D01*
X164838459Y-50991567D01*
X164772995Y-51015984D01*
X164764149Y-51016300D01*
X164635228Y-51016300D01*
X164470925Y-51048982D01*
X164470917Y-51048984D01*
X164316139Y-51113095D01*
X164176837Y-51206173D01*
X164058373Y-51324637D01*
X163965295Y-51463939D01*
X163901184Y-51618717D01*
X163901182Y-51618725D01*
X163868500Y-51783028D01*
X163868500Y-51950571D01*
X163901182Y-52114874D01*
X163901184Y-52114882D01*
X163965295Y-52269660D01*
X164058373Y-52408962D01*
X164139730Y-52490319D01*
X164173215Y-52551642D01*
X164168231Y-52621334D01*
X164139730Y-52665681D01*
X164058376Y-52747034D01*
X164058373Y-52747037D01*
X163965295Y-52886339D01*
X163901184Y-53041117D01*
X163901182Y-53041125D01*
X163868500Y-53205428D01*
X163868500Y-53372971D01*
X163901182Y-53537274D01*
X163901184Y-53537282D01*
X163965295Y-53692060D01*
X164058373Y-53831362D01*
X164152430Y-53925419D01*
X164185915Y-53986742D01*
X164180931Y-54056434D01*
X164152430Y-54100781D01*
X164058376Y-54194834D01*
X164058373Y-54194837D01*
X163965295Y-54334139D01*
X163901184Y-54488917D01*
X163901182Y-54488925D01*
X163868500Y-54653228D01*
X163868500Y-54820771D01*
X163901182Y-54985074D01*
X163901184Y-54985082D01*
X163965295Y-55139860D01*
X164058373Y-55279162D01*
X164176837Y-55397626D01*
X164269494Y-55459537D01*
X164316137Y-55490703D01*
X164470918Y-55554816D01*
X164635228Y-55587499D01*
X164635232Y-55587500D01*
X164635233Y-55587500D01*
X164802768Y-55587500D01*
X164802769Y-55587499D01*
X164967082Y-55554816D01*
X165121863Y-55490703D01*
X165261162Y-55397626D01*
X165288162Y-55370626D01*
X165329819Y-55328970D01*
X165391142Y-55295485D01*
X165460834Y-55300469D01*
X165505181Y-55328970D01*
X165573837Y-55397626D01*
X165666494Y-55459537D01*
X165713137Y-55490703D01*
X165867918Y-55554816D01*
X166032228Y-55587499D01*
X166032232Y-55587500D01*
X166032233Y-55587500D01*
X166199768Y-55587500D01*
X166199769Y-55587499D01*
X166364082Y-55554816D01*
X166518863Y-55490703D01*
X166658162Y-55397626D01*
X166685162Y-55370626D01*
X166740319Y-55315470D01*
X166801642Y-55281985D01*
X166871334Y-55286969D01*
X166915681Y-55315470D01*
X166970837Y-55370626D01*
X167011246Y-55397626D01*
X167110137Y-55463703D01*
X167110138Y-55463703D01*
X167110139Y-55463704D01*
X167145201Y-55478227D01*
X167264918Y-55527816D01*
X167429228Y-55560499D01*
X167429232Y-55560500D01*
X167429233Y-55560500D01*
X167596768Y-55560500D01*
X167596769Y-55560499D01*
X167761082Y-55527816D01*
X167915863Y-55463703D01*
X168055162Y-55370626D01*
X168173626Y-55252162D01*
X168266703Y-55112863D01*
X168330816Y-54958082D01*
X168363500Y-54793767D01*
X168363500Y-54745106D01*
X168383185Y-54678067D01*
X168435989Y-54632312D01*
X168505147Y-54622368D01*
X168562505Y-54647641D01*
X168562773Y-54647242D01*
X168565047Y-54648761D01*
X168566169Y-54649256D01*
X168567835Y-54650623D01*
X168567838Y-54650626D01*
X168707137Y-54743703D01*
X168861918Y-54807816D01*
X169026228Y-54840499D01*
X169026232Y-54840500D01*
X169026233Y-54840500D01*
X169193768Y-54840500D01*
X169193768Y-54840499D01*
X169329581Y-54813485D01*
X169399172Y-54819712D01*
X169454349Y-54862575D01*
X169477594Y-54928465D01*
X169473064Y-54965881D01*
X169473372Y-54965943D01*
X169472568Y-54969983D01*
X169472434Y-54971093D01*
X169472183Y-54971920D01*
X169439500Y-55136228D01*
X169439500Y-55303771D01*
X169472182Y-55468074D01*
X169472184Y-55468082D01*
X169536295Y-55622860D01*
X169629373Y-55762162D01*
X169747837Y-55880626D01*
X169807805Y-55920695D01*
X169887137Y-55973703D01*
X170041918Y-56037816D01*
X170206228Y-56070499D01*
X170206232Y-56070500D01*
X170206233Y-56070500D01*
X170373768Y-56070500D01*
X170373769Y-56070499D01*
X170538082Y-56037816D01*
X170692863Y-55973703D01*
X170832162Y-55880626D01*
X170950626Y-55762162D01*
X171043703Y-55622863D01*
X171107816Y-55468082D01*
X171140500Y-55303767D01*
X171140500Y-55136233D01*
X171140156Y-55134508D01*
X171109476Y-54980261D01*
X171115703Y-54910669D01*
X171158566Y-54855492D01*
X171224456Y-54832248D01*
X171255284Y-54834453D01*
X171285680Y-54840499D01*
X171386230Y-54860499D01*
X171386232Y-54860500D01*
X171386233Y-54860500D01*
X171553768Y-54860500D01*
X171553769Y-54860499D01*
X171718082Y-54827816D01*
X171872863Y-54763703D01*
X172012162Y-54670626D01*
X172130626Y-54552162D01*
X172223703Y-54412863D01*
X172287816Y-54258082D01*
X172320500Y-54093767D01*
X172320500Y-53926233D01*
X172287816Y-53761918D01*
X172223703Y-53607137D01*
X172177022Y-53537274D01*
X172130626Y-53467837D01*
X172012162Y-53349373D01*
X171872860Y-53256295D01*
X171718082Y-53192184D01*
X171718074Y-53192182D01*
X171553771Y-53159500D01*
X171553767Y-53159500D01*
X171386233Y-53159500D01*
X171367052Y-53163315D01*
X171326038Y-53171473D01*
X171256446Y-53165244D01*
X171201269Y-53122381D01*
X171178026Y-53056491D01*
X171180230Y-53025669D01*
X171200500Y-52923767D01*
X171200500Y-52756233D01*
X171178984Y-52648064D01*
X171185211Y-52578474D01*
X171228074Y-52523297D01*
X171293963Y-52500052D01*
X171324791Y-52502256D01*
X171366231Y-52510499D01*
X171366232Y-52510500D01*
X171366233Y-52510500D01*
X171533768Y-52510500D01*
X171533769Y-52510499D01*
X171698082Y-52477816D01*
X171852863Y-52413703D01*
X171992162Y-52320626D01*
X172110626Y-52202162D01*
X172203703Y-52062863D01*
X172267816Y-51908082D01*
X172300500Y-51743767D01*
X172300500Y-51576233D01*
X172267816Y-51411918D01*
X172203703Y-51257137D01*
X172172537Y-51210494D01*
X172110626Y-51117837D01*
X171992162Y-50999373D01*
X171852860Y-50906295D01*
X171698082Y-50842184D01*
X171698074Y-50842182D01*
X171533771Y-50809500D01*
X171533767Y-50809500D01*
X171366233Y-50809500D01*
X171366228Y-50809500D01*
X171201925Y-50842182D01*
X171201917Y-50842184D01*
X171047138Y-50906296D01*
X171047136Y-50906297D01*
X171000338Y-50937566D01*
X170933660Y-50958443D01*
X170866281Y-50939957D01*
X170819591Y-50887978D01*
X170808416Y-50819008D01*
X170828347Y-50765572D01*
X170830624Y-50762163D01*
X170830626Y-50762162D01*
X170923703Y-50622863D01*
X170987816Y-50468082D01*
X171014242Y-50335228D01*
X183578900Y-50335228D01*
X183578900Y-50502771D01*
X183611582Y-50667074D01*
X183611584Y-50667082D01*
X183675695Y-50821860D01*
X183768773Y-50961162D01*
X183887237Y-51079626D01*
X183974358Y-51137838D01*
X184026537Y-51172703D01*
X184181318Y-51236816D01*
X184283490Y-51257139D01*
X184345628Y-51269499D01*
X184345632Y-51269500D01*
X184345633Y-51269500D01*
X184513168Y-51269500D01*
X184513169Y-51269499D01*
X184677482Y-51236816D01*
X184832263Y-51172703D01*
X184971562Y-51079626D01*
X185029970Y-51021217D01*
X185091291Y-50987734D01*
X185160983Y-50992718D01*
X185216917Y-51034589D01*
X185228134Y-51052603D01*
X185314157Y-51221433D01*
X185452983Y-51412510D01*
X185452989Y-51412516D01*
X185456147Y-51416214D01*
X185454364Y-51417736D01*
X185483226Y-51470591D01*
X185478242Y-51540283D01*
X185436370Y-51596216D01*
X185427158Y-51602487D01*
X185378844Y-51632287D01*
X185254789Y-51756342D01*
X185162687Y-51905663D01*
X185162685Y-51905668D01*
X185155258Y-51928082D01*
X185107501Y-52072203D01*
X185107501Y-52072204D01*
X185107500Y-52072204D01*
X185097000Y-52174983D01*
X185097000Y-53775001D01*
X185097001Y-53775018D01*
X185107500Y-53877796D01*
X185107501Y-53877799D01*
X185162685Y-54044331D01*
X185162687Y-54044336D01*
X185170149Y-54056434D01*
X185254788Y-54193656D01*
X185378844Y-54317712D01*
X185528166Y-54409814D01*
X185694703Y-54464999D01*
X185797491Y-54475500D01*
X187397508Y-54475499D01*
X187500297Y-54464999D01*
X187666834Y-54409814D01*
X187816156Y-54317712D01*
X187940212Y-54193656D01*
X188032314Y-54044334D01*
X188087499Y-53877797D01*
X188098000Y-53775009D01*
X188097999Y-52174992D01*
X188087499Y-52072203D01*
X188032314Y-51905666D01*
X187940212Y-51756344D01*
X187816156Y-51632288D01*
X187816155Y-51632287D01*
X187767842Y-51602487D01*
X187721118Y-51550539D01*
X187709897Y-51481576D01*
X187737741Y-51417494D01*
X187738881Y-51416249D01*
X187738848Y-51416221D01*
X187742011Y-51412516D01*
X187742011Y-51412515D01*
X187742017Y-51412510D01*
X187880843Y-51221433D01*
X187988068Y-51010992D01*
X188061053Y-50786368D01*
X188066216Y-50753768D01*
X188098000Y-50553097D01*
X188098000Y-50316902D01*
X188061053Y-50083631D01*
X187988066Y-49859003D01*
X187895757Y-49677838D01*
X187880843Y-49648567D01*
X187742017Y-49457490D01*
X187575010Y-49290483D01*
X187540372Y-49265317D01*
X187497707Y-49209989D01*
X187491728Y-49140375D01*
X187524333Y-49078580D01*
X187540373Y-49064682D01*
X187575010Y-49039517D01*
X187742017Y-48872510D01*
X187880843Y-48681433D01*
X187988068Y-48470992D01*
X188061053Y-48246368D01*
X188068240Y-48200989D01*
X188098000Y-48013097D01*
X188098000Y-47776902D01*
X188061053Y-47543631D01*
X187988066Y-47319003D01*
X187882550Y-47111918D01*
X187880843Y-47108567D01*
X187742017Y-46917490D01*
X187575010Y-46750483D01*
X187383933Y-46611657D01*
X187173496Y-46504433D01*
X186948868Y-46431446D01*
X186715597Y-46394500D01*
X186715592Y-46394500D01*
X186479408Y-46394500D01*
X186479403Y-46394500D01*
X186246131Y-46431446D01*
X186021503Y-46504433D01*
X185811066Y-46611657D01*
X185702050Y-46690862D01*
X185619990Y-46750483D01*
X185619988Y-46750485D01*
X185619987Y-46750485D01*
X185452985Y-46917487D01*
X185452985Y-46917488D01*
X185452983Y-46917490D01*
X185393362Y-46999550D01*
X185314157Y-47108566D01*
X185206933Y-47319003D01*
X185133946Y-47543631D01*
X185097000Y-47776902D01*
X185097000Y-48013097D01*
X185133946Y-48246368D01*
X185206933Y-48470996D01*
X185273293Y-48601233D01*
X185314157Y-48681433D01*
X185452983Y-48872510D01*
X185619990Y-49039517D01*
X185654627Y-49064683D01*
X185697292Y-49120013D01*
X185703271Y-49189626D01*
X185670665Y-49251421D01*
X185654630Y-49265315D01*
X185636865Y-49278222D01*
X185619988Y-49290484D01*
X185452985Y-49457487D01*
X185452985Y-49457488D01*
X185452983Y-49457490D01*
X185420052Y-49502816D01*
X185314157Y-49648566D01*
X185238936Y-49796195D01*
X185190961Y-49846991D01*
X185123140Y-49863786D01*
X185057005Y-49841248D01*
X185040770Y-49827581D01*
X184971562Y-49758373D01*
X184832260Y-49665295D01*
X184677482Y-49601184D01*
X184677474Y-49601182D01*
X184513171Y-49568500D01*
X184513167Y-49568500D01*
X184345633Y-49568500D01*
X184345628Y-49568500D01*
X184181325Y-49601182D01*
X184181317Y-49601184D01*
X184026539Y-49665295D01*
X183887237Y-49758373D01*
X183768773Y-49876837D01*
X183675695Y-50016139D01*
X183611584Y-50170917D01*
X183611582Y-50170925D01*
X183578900Y-50335228D01*
X171014242Y-50335228D01*
X171020500Y-50303767D01*
X171020500Y-50136233D01*
X170987816Y-49971918D01*
X170923703Y-49817137D01*
X170884438Y-49758373D01*
X170830626Y-49677837D01*
X170712162Y-49559373D01*
X170572860Y-49466295D01*
X170418082Y-49402184D01*
X170418074Y-49402182D01*
X170253771Y-49369500D01*
X170253767Y-49369500D01*
X170086233Y-49369500D01*
X170058208Y-49375074D01*
X169960193Y-49394570D01*
X169890602Y-49388341D01*
X169835425Y-49345478D01*
X169812181Y-49279588D01*
X169828249Y-49211591D01*
X169832895Y-49204071D01*
X169833703Y-49202863D01*
X169897816Y-49048082D01*
X169930500Y-48883767D01*
X169930500Y-48716233D01*
X169897816Y-48551918D01*
X169833703Y-48397137D01*
X169802537Y-48350494D01*
X169740626Y-48257837D01*
X169622162Y-48139373D01*
X169482860Y-48046295D01*
X169328082Y-47982184D01*
X169328074Y-47982182D01*
X169163771Y-47949500D01*
X169163767Y-47949500D01*
X168996233Y-47949500D01*
X168996228Y-47949500D01*
X168831925Y-47982182D01*
X168831917Y-47982184D01*
X168677140Y-48046295D01*
X168584506Y-48108190D01*
X168584500Y-48108194D01*
X168537838Y-48139374D01*
X168419374Y-48257838D01*
X168418396Y-48259300D01*
X168418393Y-48259304D01*
X168326295Y-48397139D01*
X168262184Y-48551917D01*
X168262182Y-48551925D01*
X168229500Y-48716228D01*
X168229500Y-48883771D01*
X168262182Y-49048074D01*
X168262184Y-49048082D01*
X168326295Y-49202860D01*
X168419373Y-49342162D01*
X168537837Y-49460626D01*
X168600981Y-49502817D01*
X168677137Y-49553703D01*
X168831918Y-49617816D01*
X168939258Y-49639167D01*
X168996228Y-49650499D01*
X168996232Y-49650500D01*
X168996233Y-49650500D01*
X169163768Y-49650500D01*
X169163768Y-49650499D01*
X169237795Y-49635775D01*
X169289805Y-49625430D01*
X169359396Y-49631657D01*
X169414574Y-49674520D01*
X169437818Y-49740410D01*
X169421750Y-49808407D01*
X169417102Y-49815932D01*
X169416296Y-49817136D01*
X169416296Y-49817138D01*
X169352184Y-49971917D01*
X169352182Y-49971925D01*
X169319500Y-50136228D01*
X169319500Y-50303771D01*
X169352182Y-50468074D01*
X169352184Y-50468082D01*
X169387396Y-50553092D01*
X169416297Y-50622863D01*
X169438726Y-50656430D01*
X169459603Y-50723108D01*
X169441118Y-50790488D01*
X169389139Y-50837177D01*
X169320169Y-50848353D01*
X169311432Y-50846937D01*
X169223771Y-50829500D01*
X169223767Y-50829500D01*
X169056233Y-50829500D01*
X169056228Y-50829500D01*
X168891925Y-50862182D01*
X168891917Y-50862184D01*
X168737139Y-50926295D01*
X168597837Y-51019373D01*
X168479373Y-51137837D01*
X168386296Y-51277137D01*
X168366233Y-51325575D01*
X168322391Y-51379978D01*
X168256097Y-51402042D01*
X168188398Y-51384762D01*
X168163991Y-51365802D01*
X168055165Y-51256976D01*
X168055161Y-51256973D01*
X167931617Y-51174423D01*
X167886812Y-51120811D01*
X167878105Y-51051486D01*
X167908260Y-50988458D01*
X167953054Y-50956761D01*
X168032863Y-50923703D01*
X168172162Y-50830626D01*
X168290626Y-50712162D01*
X168383703Y-50572863D01*
X168447816Y-50418082D01*
X168480500Y-50253767D01*
X168480500Y-50086233D01*
X168447816Y-49921918D01*
X168383703Y-49767137D01*
X168348864Y-49714997D01*
X168290626Y-49627837D01*
X168172162Y-49509373D01*
X168032860Y-49416295D01*
X167878082Y-49352184D01*
X167878074Y-49352182D01*
X167713771Y-49319500D01*
X167713767Y-49319500D01*
X167546233Y-49319500D01*
X167540970Y-49319500D01*
X167473931Y-49299815D01*
X167428176Y-49247011D01*
X167418232Y-49177853D01*
X167426409Y-49148047D01*
X167455183Y-49078580D01*
X167467816Y-49048082D01*
X167500500Y-48883767D01*
X167500500Y-48716233D01*
X167467816Y-48551918D01*
X167403703Y-48397137D01*
X167379111Y-48360333D01*
X167358234Y-48293658D01*
X167376718Y-48226278D01*
X167428697Y-48179587D01*
X167497667Y-48168411D01*
X167529667Y-48176883D01*
X167531918Y-48177816D01*
X167648418Y-48200989D01*
X167696228Y-48210499D01*
X167696232Y-48210500D01*
X167696233Y-48210500D01*
X167863768Y-48210500D01*
X167863769Y-48210499D01*
X168028082Y-48177816D01*
X168182863Y-48113703D01*
X168322162Y-48020626D01*
X168440626Y-47902162D01*
X168533703Y-47762863D01*
X168597816Y-47608082D01*
X168630500Y-47443767D01*
X168630500Y-47276233D01*
X168597816Y-47111918D01*
X168533703Y-46957137D01*
X168468531Y-46859600D01*
X168440626Y-46817837D01*
X168322162Y-46699373D01*
X168182860Y-46606295D01*
X168028082Y-46542184D01*
X168028074Y-46542182D01*
X167863771Y-46509500D01*
X167863767Y-46509500D01*
X167696233Y-46509500D01*
X167696228Y-46509500D01*
X167531925Y-46542182D01*
X167531917Y-46542184D01*
X167377139Y-46606295D01*
X167237837Y-46699373D01*
X167119373Y-46817837D01*
X167026295Y-46957139D01*
X166962184Y-47111917D01*
X166962182Y-47111925D01*
X166929500Y-47276228D01*
X166929500Y-47443771D01*
X166962182Y-47608074D01*
X166962184Y-47608082D01*
X167026295Y-47762860D01*
X167026296Y-47762862D01*
X167026297Y-47762863D01*
X167044228Y-47789699D01*
X167050887Y-47799664D01*
X167071765Y-47866342D01*
X167053280Y-47933722D01*
X167001302Y-47980412D01*
X166932332Y-47991588D01*
X166900334Y-47983117D01*
X166898082Y-47982184D01*
X166898074Y-47982182D01*
X166733771Y-47949500D01*
X166733767Y-47949500D01*
X166566233Y-47949500D01*
X166566228Y-47949500D01*
X166401925Y-47982182D01*
X166401917Y-47982184D01*
X166247138Y-48046296D01*
X166247136Y-48046297D01*
X166200338Y-48077566D01*
X166133660Y-48098443D01*
X166066281Y-48079957D01*
X166019591Y-48027978D01*
X166008416Y-47959008D01*
X166028347Y-47905572D01*
X166030624Y-47902163D01*
X166030626Y-47902162D01*
X166123703Y-47762863D01*
X166187816Y-47608082D01*
X166220500Y-47443767D01*
X166220500Y-47276233D01*
X166187816Y-47111918D01*
X166123703Y-46957137D01*
X166058531Y-46859600D01*
X166030626Y-46817837D01*
X165912162Y-46699373D01*
X165772860Y-46606295D01*
X165618082Y-46542184D01*
X165618074Y-46542182D01*
X165453771Y-46509500D01*
X165453767Y-46509500D01*
X165286233Y-46509500D01*
X165286228Y-46509500D01*
X165121925Y-46542182D01*
X165121917Y-46542184D01*
X164967139Y-46606295D01*
X164827837Y-46699373D01*
X164709373Y-46817837D01*
X164616295Y-46957139D01*
X164552184Y-47111917D01*
X164552182Y-47111925D01*
X164519500Y-47276228D01*
X164519500Y-47443771D01*
X164552182Y-47608074D01*
X164552185Y-47608086D01*
X164615512Y-47760971D01*
X164622981Y-47830440D01*
X164591706Y-47892919D01*
X164531617Y-47928571D01*
X164476761Y-47930041D01*
X164469370Y-47928571D01*
X164462984Y-47927300D01*
X164423767Y-47919500D01*
X164256233Y-47919500D01*
X164256228Y-47919500D01*
X164091925Y-47952182D01*
X164091917Y-47952184D01*
X163937139Y-48016295D01*
X163797837Y-48109373D01*
X163679373Y-48227837D01*
X163586295Y-48367139D01*
X163522184Y-48521917D01*
X163522182Y-48521925D01*
X163489500Y-48686228D01*
X161092624Y-48686228D01*
X161032860Y-48646295D01*
X160878082Y-48582184D01*
X160878074Y-48582182D01*
X160713771Y-48549500D01*
X160713767Y-48549500D01*
X160546233Y-48549500D01*
X160546228Y-48549500D01*
X160381925Y-48582182D01*
X160381917Y-48582184D01*
X160227139Y-48646295D01*
X160087837Y-48739373D01*
X159969373Y-48857837D01*
X159876295Y-48997139D01*
X159812184Y-49151917D01*
X159812182Y-49151925D01*
X159779500Y-49316228D01*
X159779500Y-49483771D01*
X159812182Y-49648074D01*
X159812184Y-49648082D01*
X159876295Y-49802860D01*
X159935137Y-49890923D01*
X159956015Y-49957601D01*
X159937530Y-50024981D01*
X159919716Y-50047495D01*
X159839376Y-50127834D01*
X159839373Y-50127837D01*
X159746295Y-50267139D01*
X159682184Y-50421917D01*
X159682182Y-50421925D01*
X159649500Y-50586228D01*
X153718565Y-50586228D01*
X153697817Y-50481925D01*
X153697816Y-50481918D01*
X153637057Y-50335233D01*
X153633704Y-50327139D01*
X153621653Y-50309104D01*
X153593614Y-50267140D01*
X153540626Y-50187837D01*
X153422162Y-50069373D01*
X153282860Y-49976295D01*
X153128082Y-49912184D01*
X153128074Y-49912182D01*
X152963771Y-49879500D01*
X152963767Y-49879500D01*
X152796233Y-49879500D01*
X152796228Y-49879500D01*
X152631925Y-49912182D01*
X152631917Y-49912184D01*
X152477139Y-49976295D01*
X152337837Y-50069373D01*
X152219373Y-50187837D01*
X152126295Y-50327139D01*
X152062184Y-50481917D01*
X152062182Y-50481925D01*
X152029500Y-50646228D01*
X107152500Y-50646228D01*
X107152500Y-49471628D01*
X142329300Y-49471628D01*
X142329300Y-49639171D01*
X142361982Y-49803474D01*
X142361984Y-49803482D01*
X142426095Y-49958260D01*
X142519173Y-50097562D01*
X142637637Y-50216026D01*
X142694127Y-50253771D01*
X142776937Y-50309103D01*
X142931718Y-50373216D01*
X143096028Y-50405899D01*
X143096032Y-50405900D01*
X143096033Y-50405900D01*
X143263568Y-50405900D01*
X143263569Y-50405899D01*
X143427882Y-50373216D01*
X143582663Y-50309103D01*
X143721962Y-50216026D01*
X143840426Y-50097562D01*
X143933503Y-49958263D01*
X143997616Y-49803482D01*
X144030300Y-49639167D01*
X144030300Y-49471633D01*
X143997616Y-49307318D01*
X143941114Y-49170911D01*
X143933504Y-49152539D01*
X143933088Y-49151917D01*
X143890287Y-49087860D01*
X143840426Y-49013237D01*
X143721962Y-48894773D01*
X143582660Y-48801695D01*
X143427882Y-48737584D01*
X143427874Y-48737582D01*
X143323184Y-48716758D01*
X143263571Y-48704900D01*
X143263567Y-48704900D01*
X143096033Y-48704900D01*
X143096028Y-48704900D01*
X142931725Y-48737582D01*
X142931717Y-48737584D01*
X142776939Y-48801695D01*
X142637637Y-48894773D01*
X142519173Y-49013237D01*
X142426095Y-49152539D01*
X142361984Y-49307317D01*
X142361982Y-49307325D01*
X142329300Y-49471628D01*
X107152500Y-49471628D01*
X107152500Y-48601228D01*
X151803500Y-48601228D01*
X151803500Y-48768771D01*
X151836182Y-48933074D01*
X151836184Y-48933082D01*
X151900295Y-49087860D01*
X151993373Y-49227162D01*
X152111837Y-49345626D01*
X152196480Y-49402182D01*
X152251137Y-49438703D01*
X152405918Y-49502816D01*
X152570228Y-49535499D01*
X152570232Y-49535500D01*
X152570233Y-49535500D01*
X152737768Y-49535500D01*
X152737769Y-49535499D01*
X152902082Y-49502816D01*
X153056863Y-49438703D01*
X153196162Y-49345626D01*
X153314626Y-49227162D01*
X153407703Y-49087863D01*
X153471816Y-48933082D01*
X153504500Y-48768767D01*
X153504500Y-48601233D01*
X153471816Y-48436918D01*
X153422227Y-48317201D01*
X153407704Y-48282139D01*
X153314626Y-48142837D01*
X153196162Y-48024373D01*
X153056860Y-47931295D01*
X152902082Y-47867184D01*
X152902074Y-47867182D01*
X152737771Y-47834500D01*
X152737767Y-47834500D01*
X152570233Y-47834500D01*
X152570228Y-47834500D01*
X152405925Y-47867182D01*
X152405917Y-47867184D01*
X152251139Y-47931295D01*
X152111837Y-48024373D01*
X151993373Y-48142837D01*
X151900295Y-48282139D01*
X151836184Y-48436917D01*
X151836182Y-48436925D01*
X151803500Y-48601228D01*
X107152500Y-48601228D01*
X107152500Y-44934500D01*
X107172185Y-44867461D01*
X107224989Y-44821706D01*
X107276500Y-44810500D01*
X153157314Y-44810500D01*
X153224353Y-44830185D01*
G37*
%TD.AperFunction*%
M02*
