%TF.GenerationSoftware,KiCad,Pcbnew,9.0.7*%
%TF.CreationDate,2026-04-25T00:58:39-03:00*%
%TF.ProjectId,MAQUINA_DE_BRAILLE,4d415155-494e-4415-9f44-455f42524149,rev?*%
%TF.SameCoordinates,Original*%
%TF.FileFunction,AssemblyDrawing,Top*%
%FSLAX46Y46*%
G04 Gerber Fmt 4.6, Leading zero omitted, Abs format (unit mm)*
G04 Created by KiCad (PCBNEW 9.0.7) date 2026-04-25 00:58:39*
%MOMM*%
%LPD*%
G01*
G04 APERTURE LIST*
%ADD10C,0.150000*%
%ADD11C,0.080000*%
%ADD12C,0.100000*%
%ADD13C,0.025400*%
%ADD14C,0.101600*%
%ADD15C,0.010000*%
%ADD16C,0.127000*%
%ADD17C,0.200000*%
G04 APERTURE END LIST*
D10*
X163851419Y-93381533D02*
X163803800Y-93333914D01*
X163803800Y-93333914D02*
X163756180Y-93191057D01*
X163756180Y-93191057D02*
X163756180Y-93095819D01*
X163756180Y-93095819D02*
X163803800Y-92952962D01*
X163803800Y-92952962D02*
X163899038Y-92857724D01*
X163899038Y-92857724D02*
X163994276Y-92810105D01*
X163994276Y-92810105D02*
X164184752Y-92762486D01*
X164184752Y-92762486D02*
X164327609Y-92762486D01*
X164327609Y-92762486D02*
X164518085Y-92810105D01*
X164518085Y-92810105D02*
X164613323Y-92857724D01*
X164613323Y-92857724D02*
X164708561Y-92952962D01*
X164708561Y-92952962D02*
X164756180Y-93095819D01*
X164756180Y-93095819D02*
X164756180Y-93191057D01*
X164756180Y-93191057D02*
X164708561Y-93333914D01*
X164708561Y-93333914D02*
X164660942Y-93381533D01*
X164756180Y-94238676D02*
X164756180Y-94048200D01*
X164756180Y-94048200D02*
X164708561Y-93952962D01*
X164708561Y-93952962D02*
X164660942Y-93905343D01*
X164660942Y-93905343D02*
X164518085Y-93810105D01*
X164518085Y-93810105D02*
X164327609Y-93762486D01*
X164327609Y-93762486D02*
X163946657Y-93762486D01*
X163946657Y-93762486D02*
X163851419Y-93810105D01*
X163851419Y-93810105D02*
X163803800Y-93857724D01*
X163803800Y-93857724D02*
X163756180Y-93952962D01*
X163756180Y-93952962D02*
X163756180Y-94143438D01*
X163756180Y-94143438D02*
X163803800Y-94238676D01*
X163803800Y-94238676D02*
X163851419Y-94286295D01*
X163851419Y-94286295D02*
X163946657Y-94333914D01*
X163946657Y-94333914D02*
X164184752Y-94333914D01*
X164184752Y-94333914D02*
X164279990Y-94286295D01*
X164279990Y-94286295D02*
X164327609Y-94238676D01*
X164327609Y-94238676D02*
X164375228Y-94143438D01*
X164375228Y-94143438D02*
X164375228Y-93952962D01*
X164375228Y-93952962D02*
X164327609Y-93857724D01*
X164327609Y-93857724D02*
X164279990Y-93810105D01*
X164279990Y-93810105D02*
X164184752Y-93762486D01*
D11*
X155106766Y-58675730D02*
X155082957Y-58699540D01*
X155082957Y-58699540D02*
X155011528Y-58723349D01*
X155011528Y-58723349D02*
X154963909Y-58723349D01*
X154963909Y-58723349D02*
X154892481Y-58699540D01*
X154892481Y-58699540D02*
X154844862Y-58651920D01*
X154844862Y-58651920D02*
X154821052Y-58604301D01*
X154821052Y-58604301D02*
X154797243Y-58509063D01*
X154797243Y-58509063D02*
X154797243Y-58437635D01*
X154797243Y-58437635D02*
X154821052Y-58342397D01*
X154821052Y-58342397D02*
X154844862Y-58294778D01*
X154844862Y-58294778D02*
X154892481Y-58247159D01*
X154892481Y-58247159D02*
X154963909Y-58223349D01*
X154963909Y-58223349D02*
X155011528Y-58223349D01*
X155011528Y-58223349D02*
X155082957Y-58247159D01*
X155082957Y-58247159D02*
X155106766Y-58270968D01*
X155535338Y-58390016D02*
X155535338Y-58723349D01*
X155416290Y-58199540D02*
X155297243Y-58556682D01*
X155297243Y-58556682D02*
X155606766Y-58556682D01*
X121718571Y-101527149D02*
X121551905Y-101289054D01*
X121432857Y-101527149D02*
X121432857Y-101027149D01*
X121432857Y-101027149D02*
X121623333Y-101027149D01*
X121623333Y-101027149D02*
X121670952Y-101050959D01*
X121670952Y-101050959D02*
X121694762Y-101074768D01*
X121694762Y-101074768D02*
X121718571Y-101122387D01*
X121718571Y-101122387D02*
X121718571Y-101193816D01*
X121718571Y-101193816D02*
X121694762Y-101241435D01*
X121694762Y-101241435D02*
X121670952Y-101265244D01*
X121670952Y-101265244D02*
X121623333Y-101289054D01*
X121623333Y-101289054D02*
X121432857Y-101289054D01*
X122194762Y-101527149D02*
X121909048Y-101527149D01*
X122051905Y-101527149D02*
X122051905Y-101027149D01*
X122051905Y-101027149D02*
X122004286Y-101098578D01*
X122004286Y-101098578D02*
X121956667Y-101146197D01*
X121956667Y-101146197D02*
X121909048Y-101170006D01*
X122432857Y-101527149D02*
X122528095Y-101527149D01*
X122528095Y-101527149D02*
X122575714Y-101503340D01*
X122575714Y-101503340D02*
X122599523Y-101479530D01*
X122599523Y-101479530D02*
X122647142Y-101408101D01*
X122647142Y-101408101D02*
X122670952Y-101312863D01*
X122670952Y-101312863D02*
X122670952Y-101122387D01*
X122670952Y-101122387D02*
X122647142Y-101074768D01*
X122647142Y-101074768D02*
X122623333Y-101050959D01*
X122623333Y-101050959D02*
X122575714Y-101027149D01*
X122575714Y-101027149D02*
X122480476Y-101027149D01*
X122480476Y-101027149D02*
X122432857Y-101050959D01*
X122432857Y-101050959D02*
X122409047Y-101074768D01*
X122409047Y-101074768D02*
X122385238Y-101122387D01*
X122385238Y-101122387D02*
X122385238Y-101241435D01*
X122385238Y-101241435D02*
X122409047Y-101289054D01*
X122409047Y-101289054D02*
X122432857Y-101312863D01*
X122432857Y-101312863D02*
X122480476Y-101336673D01*
X122480476Y-101336673D02*
X122575714Y-101336673D01*
X122575714Y-101336673D02*
X122623333Y-101312863D01*
X122623333Y-101312863D02*
X122647142Y-101289054D01*
X122647142Y-101289054D02*
X122670952Y-101241435D01*
X119386349Y-67041302D02*
X119148254Y-67207968D01*
X119386349Y-67327016D02*
X118886349Y-67327016D01*
X118886349Y-67327016D02*
X118886349Y-67136540D01*
X118886349Y-67136540D02*
X118910159Y-67088921D01*
X118910159Y-67088921D02*
X118933968Y-67065111D01*
X118933968Y-67065111D02*
X118981587Y-67041302D01*
X118981587Y-67041302D02*
X119053016Y-67041302D01*
X119053016Y-67041302D02*
X119100635Y-67065111D01*
X119100635Y-67065111D02*
X119124444Y-67088921D01*
X119124444Y-67088921D02*
X119148254Y-67136540D01*
X119148254Y-67136540D02*
X119148254Y-67327016D01*
X119386349Y-66565111D02*
X119386349Y-66850825D01*
X119386349Y-66707968D02*
X118886349Y-66707968D01*
X118886349Y-66707968D02*
X118957778Y-66755587D01*
X118957778Y-66755587D02*
X119005397Y-66803206D01*
X119005397Y-66803206D02*
X119029206Y-66850825D01*
X118886349Y-66112731D02*
X118886349Y-66350826D01*
X118886349Y-66350826D02*
X119124444Y-66374635D01*
X119124444Y-66374635D02*
X119100635Y-66350826D01*
X119100635Y-66350826D02*
X119076825Y-66303207D01*
X119076825Y-66303207D02*
X119076825Y-66184159D01*
X119076825Y-66184159D02*
X119100635Y-66136540D01*
X119100635Y-66136540D02*
X119124444Y-66112731D01*
X119124444Y-66112731D02*
X119172063Y-66088921D01*
X119172063Y-66088921D02*
X119291111Y-66088921D01*
X119291111Y-66088921D02*
X119338730Y-66112731D01*
X119338730Y-66112731D02*
X119362540Y-66136540D01*
X119362540Y-66136540D02*
X119386349Y-66184159D01*
X119386349Y-66184159D02*
X119386349Y-66303207D01*
X119386349Y-66303207D02*
X119362540Y-66350826D01*
X119362540Y-66350826D02*
X119338730Y-66374635D01*
X156519530Y-47730833D02*
X156543340Y-47754642D01*
X156543340Y-47754642D02*
X156567149Y-47826071D01*
X156567149Y-47826071D02*
X156567149Y-47873690D01*
X156567149Y-47873690D02*
X156543340Y-47945118D01*
X156543340Y-47945118D02*
X156495720Y-47992737D01*
X156495720Y-47992737D02*
X156448101Y-48016547D01*
X156448101Y-48016547D02*
X156352863Y-48040356D01*
X156352863Y-48040356D02*
X156281435Y-48040356D01*
X156281435Y-48040356D02*
X156186197Y-48016547D01*
X156186197Y-48016547D02*
X156138578Y-47992737D01*
X156138578Y-47992737D02*
X156090959Y-47945118D01*
X156090959Y-47945118D02*
X156067149Y-47873690D01*
X156067149Y-47873690D02*
X156067149Y-47826071D01*
X156067149Y-47826071D02*
X156090959Y-47754642D01*
X156090959Y-47754642D02*
X156114768Y-47730833D01*
X156114768Y-47540356D02*
X156090959Y-47516547D01*
X156090959Y-47516547D02*
X156067149Y-47468928D01*
X156067149Y-47468928D02*
X156067149Y-47349880D01*
X156067149Y-47349880D02*
X156090959Y-47302261D01*
X156090959Y-47302261D02*
X156114768Y-47278452D01*
X156114768Y-47278452D02*
X156162387Y-47254642D01*
X156162387Y-47254642D02*
X156210006Y-47254642D01*
X156210006Y-47254642D02*
X156281435Y-47278452D01*
X156281435Y-47278452D02*
X156567149Y-47564166D01*
X156567149Y-47564166D02*
X156567149Y-47254642D01*
X121788571Y-99197149D02*
X121621905Y-98959054D01*
X121502857Y-99197149D02*
X121502857Y-98697149D01*
X121502857Y-98697149D02*
X121693333Y-98697149D01*
X121693333Y-98697149D02*
X121740952Y-98720959D01*
X121740952Y-98720959D02*
X121764762Y-98744768D01*
X121764762Y-98744768D02*
X121788571Y-98792387D01*
X121788571Y-98792387D02*
X121788571Y-98863816D01*
X121788571Y-98863816D02*
X121764762Y-98911435D01*
X121764762Y-98911435D02*
X121740952Y-98935244D01*
X121740952Y-98935244D02*
X121693333Y-98959054D01*
X121693333Y-98959054D02*
X121502857Y-98959054D01*
X122264762Y-99197149D02*
X121979048Y-99197149D01*
X122121905Y-99197149D02*
X122121905Y-98697149D01*
X122121905Y-98697149D02*
X122074286Y-98768578D01*
X122074286Y-98768578D02*
X122026667Y-98816197D01*
X122026667Y-98816197D02*
X121979048Y-98840006D01*
X122693333Y-98863816D02*
X122693333Y-99197149D01*
X122574285Y-98673340D02*
X122455238Y-99030482D01*
X122455238Y-99030482D02*
X122764761Y-99030482D01*
X121989066Y-59358349D02*
X121822400Y-59120254D01*
X121703352Y-59358349D02*
X121703352Y-58858349D01*
X121703352Y-58858349D02*
X121893828Y-58858349D01*
X121893828Y-58858349D02*
X121941447Y-58882159D01*
X121941447Y-58882159D02*
X121965257Y-58905968D01*
X121965257Y-58905968D02*
X121989066Y-58953587D01*
X121989066Y-58953587D02*
X121989066Y-59025016D01*
X121989066Y-59025016D02*
X121965257Y-59072635D01*
X121965257Y-59072635D02*
X121941447Y-59096444D01*
X121941447Y-59096444D02*
X121893828Y-59120254D01*
X121893828Y-59120254D02*
X121703352Y-59120254D01*
X122155733Y-58858349D02*
X122465257Y-58858349D01*
X122465257Y-58858349D02*
X122298590Y-59048825D01*
X122298590Y-59048825D02*
X122370019Y-59048825D01*
X122370019Y-59048825D02*
X122417638Y-59072635D01*
X122417638Y-59072635D02*
X122441447Y-59096444D01*
X122441447Y-59096444D02*
X122465257Y-59144063D01*
X122465257Y-59144063D02*
X122465257Y-59263111D01*
X122465257Y-59263111D02*
X122441447Y-59310730D01*
X122441447Y-59310730D02*
X122417638Y-59334540D01*
X122417638Y-59334540D02*
X122370019Y-59358349D01*
X122370019Y-59358349D02*
X122227162Y-59358349D01*
X122227162Y-59358349D02*
X122179543Y-59334540D01*
X122179543Y-59334540D02*
X122155733Y-59310730D01*
X162496471Y-105970530D02*
X162472662Y-105994340D01*
X162472662Y-105994340D02*
X162401233Y-106018149D01*
X162401233Y-106018149D02*
X162353614Y-106018149D01*
X162353614Y-106018149D02*
X162282186Y-105994340D01*
X162282186Y-105994340D02*
X162234567Y-105946720D01*
X162234567Y-105946720D02*
X162210757Y-105899101D01*
X162210757Y-105899101D02*
X162186948Y-105803863D01*
X162186948Y-105803863D02*
X162186948Y-105732435D01*
X162186948Y-105732435D02*
X162210757Y-105637197D01*
X162210757Y-105637197D02*
X162234567Y-105589578D01*
X162234567Y-105589578D02*
X162282186Y-105541959D01*
X162282186Y-105541959D02*
X162353614Y-105518149D01*
X162353614Y-105518149D02*
X162401233Y-105518149D01*
X162401233Y-105518149D02*
X162472662Y-105541959D01*
X162472662Y-105541959D02*
X162496471Y-105565768D01*
X162972662Y-106018149D02*
X162686948Y-106018149D01*
X162829805Y-106018149D02*
X162829805Y-105518149D01*
X162829805Y-105518149D02*
X162782186Y-105589578D01*
X162782186Y-105589578D02*
X162734567Y-105637197D01*
X162734567Y-105637197D02*
X162686948Y-105661006D01*
X163448852Y-106018149D02*
X163163138Y-106018149D01*
X163305995Y-106018149D02*
X163305995Y-105518149D01*
X163305995Y-105518149D02*
X163258376Y-105589578D01*
X163258376Y-105589578D02*
X163210757Y-105637197D01*
X163210757Y-105637197D02*
X163163138Y-105661006D01*
X137022071Y-74964449D02*
X136855405Y-74726354D01*
X136736357Y-74964449D02*
X136736357Y-74464449D01*
X136736357Y-74464449D02*
X136926833Y-74464449D01*
X136926833Y-74464449D02*
X136974452Y-74488259D01*
X136974452Y-74488259D02*
X136998262Y-74512068D01*
X136998262Y-74512068D02*
X137022071Y-74559687D01*
X137022071Y-74559687D02*
X137022071Y-74631116D01*
X137022071Y-74631116D02*
X136998262Y-74678735D01*
X136998262Y-74678735D02*
X136974452Y-74702544D01*
X136974452Y-74702544D02*
X136926833Y-74726354D01*
X136926833Y-74726354D02*
X136736357Y-74726354D01*
X137212548Y-74512068D02*
X137236357Y-74488259D01*
X137236357Y-74488259D02*
X137283976Y-74464449D01*
X137283976Y-74464449D02*
X137403024Y-74464449D01*
X137403024Y-74464449D02*
X137450643Y-74488259D01*
X137450643Y-74488259D02*
X137474452Y-74512068D01*
X137474452Y-74512068D02*
X137498262Y-74559687D01*
X137498262Y-74559687D02*
X137498262Y-74607306D01*
X137498262Y-74607306D02*
X137474452Y-74678735D01*
X137474452Y-74678735D02*
X137188738Y-74964449D01*
X137188738Y-74964449D02*
X137498262Y-74964449D01*
X137664928Y-74464449D02*
X137974452Y-74464449D01*
X137974452Y-74464449D02*
X137807785Y-74654925D01*
X137807785Y-74654925D02*
X137879214Y-74654925D01*
X137879214Y-74654925D02*
X137926833Y-74678735D01*
X137926833Y-74678735D02*
X137950642Y-74702544D01*
X137950642Y-74702544D02*
X137974452Y-74750163D01*
X137974452Y-74750163D02*
X137974452Y-74869211D01*
X137974452Y-74869211D02*
X137950642Y-74916830D01*
X137950642Y-74916830D02*
X137926833Y-74940640D01*
X137926833Y-74940640D02*
X137879214Y-74964449D01*
X137879214Y-74964449D02*
X137736357Y-74964449D01*
X137736357Y-74964449D02*
X137688738Y-74940640D01*
X137688738Y-74940640D02*
X137664928Y-74916830D01*
D10*
X129481342Y-63757980D02*
X129433723Y-63805600D01*
X129433723Y-63805600D02*
X129290866Y-63853219D01*
X129290866Y-63853219D02*
X129195628Y-63853219D01*
X129195628Y-63853219D02*
X129052771Y-63805600D01*
X129052771Y-63805600D02*
X128957533Y-63710361D01*
X128957533Y-63710361D02*
X128909914Y-63615123D01*
X128909914Y-63615123D02*
X128862295Y-63424647D01*
X128862295Y-63424647D02*
X128862295Y-63281790D01*
X128862295Y-63281790D02*
X128909914Y-63091314D01*
X128909914Y-63091314D02*
X128957533Y-62996076D01*
X128957533Y-62996076D02*
X129052771Y-62900838D01*
X129052771Y-62900838D02*
X129195628Y-62853219D01*
X129195628Y-62853219D02*
X129290866Y-62853219D01*
X129290866Y-62853219D02*
X129433723Y-62900838D01*
X129433723Y-62900838D02*
X129481342Y-62948457D01*
X129862295Y-62948457D02*
X129909914Y-62900838D01*
X129909914Y-62900838D02*
X130005152Y-62853219D01*
X130005152Y-62853219D02*
X130243247Y-62853219D01*
X130243247Y-62853219D02*
X130338485Y-62900838D01*
X130338485Y-62900838D02*
X130386104Y-62948457D01*
X130386104Y-62948457D02*
X130433723Y-63043695D01*
X130433723Y-63043695D02*
X130433723Y-63138933D01*
X130433723Y-63138933D02*
X130386104Y-63281790D01*
X130386104Y-63281790D02*
X129814676Y-63853219D01*
X129814676Y-63853219D02*
X130433723Y-63853219D01*
X131052771Y-62853219D02*
X131148009Y-62853219D01*
X131148009Y-62853219D02*
X131243247Y-62900838D01*
X131243247Y-62900838D02*
X131290866Y-62948457D01*
X131290866Y-62948457D02*
X131338485Y-63043695D01*
X131338485Y-63043695D02*
X131386104Y-63234171D01*
X131386104Y-63234171D02*
X131386104Y-63472266D01*
X131386104Y-63472266D02*
X131338485Y-63662742D01*
X131338485Y-63662742D02*
X131290866Y-63757980D01*
X131290866Y-63757980D02*
X131243247Y-63805600D01*
X131243247Y-63805600D02*
X131148009Y-63853219D01*
X131148009Y-63853219D02*
X131052771Y-63853219D01*
X131052771Y-63853219D02*
X130957533Y-63805600D01*
X130957533Y-63805600D02*
X130909914Y-63757980D01*
X130909914Y-63757980D02*
X130862295Y-63662742D01*
X130862295Y-63662742D02*
X130814676Y-63472266D01*
X130814676Y-63472266D02*
X130814676Y-63234171D01*
X130814676Y-63234171D02*
X130862295Y-63043695D01*
X130862295Y-63043695D02*
X130909914Y-62948457D01*
X130909914Y-62948457D02*
X130957533Y-62900838D01*
X130957533Y-62900838D02*
X131052771Y-62853219D01*
D11*
X114885930Y-67072628D02*
X114909740Y-67096437D01*
X114909740Y-67096437D02*
X114933549Y-67167866D01*
X114933549Y-67167866D02*
X114933549Y-67215485D01*
X114933549Y-67215485D02*
X114909740Y-67286913D01*
X114909740Y-67286913D02*
X114862120Y-67334532D01*
X114862120Y-67334532D02*
X114814501Y-67358342D01*
X114814501Y-67358342D02*
X114719263Y-67382151D01*
X114719263Y-67382151D02*
X114647835Y-67382151D01*
X114647835Y-67382151D02*
X114552597Y-67358342D01*
X114552597Y-67358342D02*
X114504978Y-67334532D01*
X114504978Y-67334532D02*
X114457359Y-67286913D01*
X114457359Y-67286913D02*
X114433549Y-67215485D01*
X114433549Y-67215485D02*
X114433549Y-67167866D01*
X114433549Y-67167866D02*
X114457359Y-67096437D01*
X114457359Y-67096437D02*
X114481168Y-67072628D01*
X114481168Y-66882151D02*
X114457359Y-66858342D01*
X114457359Y-66858342D02*
X114433549Y-66810723D01*
X114433549Y-66810723D02*
X114433549Y-66691675D01*
X114433549Y-66691675D02*
X114457359Y-66644056D01*
X114457359Y-66644056D02*
X114481168Y-66620247D01*
X114481168Y-66620247D02*
X114528787Y-66596437D01*
X114528787Y-66596437D02*
X114576406Y-66596437D01*
X114576406Y-66596437D02*
X114647835Y-66620247D01*
X114647835Y-66620247D02*
X114933549Y-66905961D01*
X114933549Y-66905961D02*
X114933549Y-66596437D01*
X114433549Y-66144057D02*
X114433549Y-66382152D01*
X114433549Y-66382152D02*
X114671644Y-66405961D01*
X114671644Y-66405961D02*
X114647835Y-66382152D01*
X114647835Y-66382152D02*
X114624025Y-66334533D01*
X114624025Y-66334533D02*
X114624025Y-66215485D01*
X114624025Y-66215485D02*
X114647835Y-66167866D01*
X114647835Y-66167866D02*
X114671644Y-66144057D01*
X114671644Y-66144057D02*
X114719263Y-66120247D01*
X114719263Y-66120247D02*
X114838311Y-66120247D01*
X114838311Y-66120247D02*
X114885930Y-66144057D01*
X114885930Y-66144057D02*
X114909740Y-66167866D01*
X114909740Y-66167866D02*
X114933549Y-66215485D01*
X114933549Y-66215485D02*
X114933549Y-66334533D01*
X114933549Y-66334533D02*
X114909740Y-66382152D01*
X114909740Y-66382152D02*
X114885930Y-66405961D01*
X118010130Y-92726628D02*
X118033940Y-92750437D01*
X118033940Y-92750437D02*
X118057749Y-92821866D01*
X118057749Y-92821866D02*
X118057749Y-92869485D01*
X118057749Y-92869485D02*
X118033940Y-92940913D01*
X118033940Y-92940913D02*
X117986320Y-92988532D01*
X117986320Y-92988532D02*
X117938701Y-93012342D01*
X117938701Y-93012342D02*
X117843463Y-93036151D01*
X117843463Y-93036151D02*
X117772035Y-93036151D01*
X117772035Y-93036151D02*
X117676797Y-93012342D01*
X117676797Y-93012342D02*
X117629178Y-92988532D01*
X117629178Y-92988532D02*
X117581559Y-92940913D01*
X117581559Y-92940913D02*
X117557749Y-92869485D01*
X117557749Y-92869485D02*
X117557749Y-92821866D01*
X117557749Y-92821866D02*
X117581559Y-92750437D01*
X117581559Y-92750437D02*
X117605368Y-92726628D01*
X118057749Y-92250437D02*
X118057749Y-92536151D01*
X118057749Y-92393294D02*
X117557749Y-92393294D01*
X117557749Y-92393294D02*
X117629178Y-92440913D01*
X117629178Y-92440913D02*
X117676797Y-92488532D01*
X117676797Y-92488532D02*
X117700606Y-92536151D01*
X117557749Y-91798057D02*
X117557749Y-92036152D01*
X117557749Y-92036152D02*
X117795844Y-92059961D01*
X117795844Y-92059961D02*
X117772035Y-92036152D01*
X117772035Y-92036152D02*
X117748225Y-91988533D01*
X117748225Y-91988533D02*
X117748225Y-91869485D01*
X117748225Y-91869485D02*
X117772035Y-91821866D01*
X117772035Y-91821866D02*
X117795844Y-91798057D01*
X117795844Y-91798057D02*
X117843463Y-91774247D01*
X117843463Y-91774247D02*
X117962511Y-91774247D01*
X117962511Y-91774247D02*
X118010130Y-91798057D01*
X118010130Y-91798057D02*
X118033940Y-91821866D01*
X118033940Y-91821866D02*
X118057749Y-91869485D01*
X118057749Y-91869485D02*
X118057749Y-91988533D01*
X118057749Y-91988533D02*
X118033940Y-92036152D01*
X118033940Y-92036152D02*
X118010130Y-92059961D01*
X122519530Y-92753928D02*
X122543340Y-92777737D01*
X122543340Y-92777737D02*
X122567149Y-92849166D01*
X122567149Y-92849166D02*
X122567149Y-92896785D01*
X122567149Y-92896785D02*
X122543340Y-92968213D01*
X122543340Y-92968213D02*
X122495720Y-93015832D01*
X122495720Y-93015832D02*
X122448101Y-93039642D01*
X122448101Y-93039642D02*
X122352863Y-93063451D01*
X122352863Y-93063451D02*
X122281435Y-93063451D01*
X122281435Y-93063451D02*
X122186197Y-93039642D01*
X122186197Y-93039642D02*
X122138578Y-93015832D01*
X122138578Y-93015832D02*
X122090959Y-92968213D01*
X122090959Y-92968213D02*
X122067149Y-92896785D01*
X122067149Y-92896785D02*
X122067149Y-92849166D01*
X122067149Y-92849166D02*
X122090959Y-92777737D01*
X122090959Y-92777737D02*
X122114768Y-92753928D01*
X122567149Y-92277737D02*
X122567149Y-92563451D01*
X122567149Y-92420594D02*
X122067149Y-92420594D01*
X122067149Y-92420594D02*
X122138578Y-92468213D01*
X122138578Y-92468213D02*
X122186197Y-92515832D01*
X122186197Y-92515832D02*
X122210006Y-92563451D01*
X122067149Y-92111071D02*
X122067149Y-91777738D01*
X122067149Y-91777738D02*
X122567149Y-91992023D01*
X165277171Y-110844149D02*
X165110505Y-110606054D01*
X164991457Y-110844149D02*
X164991457Y-110344149D01*
X164991457Y-110344149D02*
X165181933Y-110344149D01*
X165181933Y-110344149D02*
X165229552Y-110367959D01*
X165229552Y-110367959D02*
X165253362Y-110391768D01*
X165253362Y-110391768D02*
X165277171Y-110439387D01*
X165277171Y-110439387D02*
X165277171Y-110510816D01*
X165277171Y-110510816D02*
X165253362Y-110558435D01*
X165253362Y-110558435D02*
X165229552Y-110582244D01*
X165229552Y-110582244D02*
X165181933Y-110606054D01*
X165181933Y-110606054D02*
X164991457Y-110606054D01*
X165753362Y-110844149D02*
X165467648Y-110844149D01*
X165610505Y-110844149D02*
X165610505Y-110344149D01*
X165610505Y-110344149D02*
X165562886Y-110415578D01*
X165562886Y-110415578D02*
X165515267Y-110463197D01*
X165515267Y-110463197D02*
X165467648Y-110487006D01*
X166062885Y-110344149D02*
X166110504Y-110344149D01*
X166110504Y-110344149D02*
X166158123Y-110367959D01*
X166158123Y-110367959D02*
X166181933Y-110391768D01*
X166181933Y-110391768D02*
X166205742Y-110439387D01*
X166205742Y-110439387D02*
X166229552Y-110534625D01*
X166229552Y-110534625D02*
X166229552Y-110653673D01*
X166229552Y-110653673D02*
X166205742Y-110748911D01*
X166205742Y-110748911D02*
X166181933Y-110796530D01*
X166181933Y-110796530D02*
X166158123Y-110820340D01*
X166158123Y-110820340D02*
X166110504Y-110844149D01*
X166110504Y-110844149D02*
X166062885Y-110844149D01*
X166062885Y-110844149D02*
X166015266Y-110820340D01*
X166015266Y-110820340D02*
X165991457Y-110796530D01*
X165991457Y-110796530D02*
X165967647Y-110748911D01*
X165967647Y-110748911D02*
X165943838Y-110653673D01*
X165943838Y-110653673D02*
X165943838Y-110534625D01*
X165943838Y-110534625D02*
X165967647Y-110439387D01*
X165967647Y-110439387D02*
X165991457Y-110391768D01*
X165991457Y-110391768D02*
X166015266Y-110367959D01*
X166015266Y-110367959D02*
X166062885Y-110344149D01*
X124310530Y-67056228D02*
X124334340Y-67080037D01*
X124334340Y-67080037D02*
X124358149Y-67151466D01*
X124358149Y-67151466D02*
X124358149Y-67199085D01*
X124358149Y-67199085D02*
X124334340Y-67270513D01*
X124334340Y-67270513D02*
X124286720Y-67318132D01*
X124286720Y-67318132D02*
X124239101Y-67341942D01*
X124239101Y-67341942D02*
X124143863Y-67365751D01*
X124143863Y-67365751D02*
X124072435Y-67365751D01*
X124072435Y-67365751D02*
X123977197Y-67341942D01*
X123977197Y-67341942D02*
X123929578Y-67318132D01*
X123929578Y-67318132D02*
X123881959Y-67270513D01*
X123881959Y-67270513D02*
X123858149Y-67199085D01*
X123858149Y-67199085D02*
X123858149Y-67151466D01*
X123858149Y-67151466D02*
X123881959Y-67080037D01*
X123881959Y-67080037D02*
X123905768Y-67056228D01*
X123905768Y-66865751D02*
X123881959Y-66841942D01*
X123881959Y-66841942D02*
X123858149Y-66794323D01*
X123858149Y-66794323D02*
X123858149Y-66675275D01*
X123858149Y-66675275D02*
X123881959Y-66627656D01*
X123881959Y-66627656D02*
X123905768Y-66603847D01*
X123905768Y-66603847D02*
X123953387Y-66580037D01*
X123953387Y-66580037D02*
X124001006Y-66580037D01*
X124001006Y-66580037D02*
X124072435Y-66603847D01*
X124072435Y-66603847D02*
X124358149Y-66889561D01*
X124358149Y-66889561D02*
X124358149Y-66580037D01*
X123905768Y-66389561D02*
X123881959Y-66365752D01*
X123881959Y-66365752D02*
X123858149Y-66318133D01*
X123858149Y-66318133D02*
X123858149Y-66199085D01*
X123858149Y-66199085D02*
X123881959Y-66151466D01*
X123881959Y-66151466D02*
X123905768Y-66127657D01*
X123905768Y-66127657D02*
X123953387Y-66103847D01*
X123953387Y-66103847D02*
X124001006Y-66103847D01*
X124001006Y-66103847D02*
X124072435Y-66127657D01*
X124072435Y-66127657D02*
X124358149Y-66413371D01*
X124358149Y-66413371D02*
X124358149Y-66103847D01*
X155110666Y-56462749D02*
X154944000Y-56224654D01*
X154824952Y-56462749D02*
X154824952Y-55962749D01*
X154824952Y-55962749D02*
X155015428Y-55962749D01*
X155015428Y-55962749D02*
X155063047Y-55986559D01*
X155063047Y-55986559D02*
X155086857Y-56010368D01*
X155086857Y-56010368D02*
X155110666Y-56057987D01*
X155110666Y-56057987D02*
X155110666Y-56129416D01*
X155110666Y-56129416D02*
X155086857Y-56177035D01*
X155086857Y-56177035D02*
X155063047Y-56200844D01*
X155063047Y-56200844D02*
X155015428Y-56224654D01*
X155015428Y-56224654D02*
X154824952Y-56224654D01*
X155539238Y-56129416D02*
X155539238Y-56462749D01*
X155420190Y-55938940D02*
X155301143Y-56296082D01*
X155301143Y-56296082D02*
X155610666Y-56296082D01*
X159837149Y-101695833D02*
X159599054Y-101862499D01*
X159837149Y-101981547D02*
X159337149Y-101981547D01*
X159337149Y-101981547D02*
X159337149Y-101791071D01*
X159337149Y-101791071D02*
X159360959Y-101743452D01*
X159360959Y-101743452D02*
X159384768Y-101719642D01*
X159384768Y-101719642D02*
X159432387Y-101695833D01*
X159432387Y-101695833D02*
X159503816Y-101695833D01*
X159503816Y-101695833D02*
X159551435Y-101719642D01*
X159551435Y-101719642D02*
X159575244Y-101743452D01*
X159575244Y-101743452D02*
X159599054Y-101791071D01*
X159599054Y-101791071D02*
X159599054Y-101981547D01*
X159551435Y-101410118D02*
X159527625Y-101457737D01*
X159527625Y-101457737D02*
X159503816Y-101481547D01*
X159503816Y-101481547D02*
X159456197Y-101505356D01*
X159456197Y-101505356D02*
X159432387Y-101505356D01*
X159432387Y-101505356D02*
X159384768Y-101481547D01*
X159384768Y-101481547D02*
X159360959Y-101457737D01*
X159360959Y-101457737D02*
X159337149Y-101410118D01*
X159337149Y-101410118D02*
X159337149Y-101314880D01*
X159337149Y-101314880D02*
X159360959Y-101267261D01*
X159360959Y-101267261D02*
X159384768Y-101243452D01*
X159384768Y-101243452D02*
X159432387Y-101219642D01*
X159432387Y-101219642D02*
X159456197Y-101219642D01*
X159456197Y-101219642D02*
X159503816Y-101243452D01*
X159503816Y-101243452D02*
X159527625Y-101267261D01*
X159527625Y-101267261D02*
X159551435Y-101314880D01*
X159551435Y-101314880D02*
X159551435Y-101410118D01*
X159551435Y-101410118D02*
X159575244Y-101457737D01*
X159575244Y-101457737D02*
X159599054Y-101481547D01*
X159599054Y-101481547D02*
X159646673Y-101505356D01*
X159646673Y-101505356D02*
X159741911Y-101505356D01*
X159741911Y-101505356D02*
X159789530Y-101481547D01*
X159789530Y-101481547D02*
X159813340Y-101457737D01*
X159813340Y-101457737D02*
X159837149Y-101410118D01*
X159837149Y-101410118D02*
X159837149Y-101314880D01*
X159837149Y-101314880D02*
X159813340Y-101267261D01*
X159813340Y-101267261D02*
X159789530Y-101243452D01*
X159789530Y-101243452D02*
X159741911Y-101219642D01*
X159741911Y-101219642D02*
X159646673Y-101219642D01*
X159646673Y-101219642D02*
X159599054Y-101243452D01*
X159599054Y-101243452D02*
X159575244Y-101267261D01*
X159575244Y-101267261D02*
X159551435Y-101314880D01*
X121738571Y-96977149D02*
X121571905Y-96739054D01*
X121452857Y-96977149D02*
X121452857Y-96477149D01*
X121452857Y-96477149D02*
X121643333Y-96477149D01*
X121643333Y-96477149D02*
X121690952Y-96500959D01*
X121690952Y-96500959D02*
X121714762Y-96524768D01*
X121714762Y-96524768D02*
X121738571Y-96572387D01*
X121738571Y-96572387D02*
X121738571Y-96643816D01*
X121738571Y-96643816D02*
X121714762Y-96691435D01*
X121714762Y-96691435D02*
X121690952Y-96715244D01*
X121690952Y-96715244D02*
X121643333Y-96739054D01*
X121643333Y-96739054D02*
X121452857Y-96739054D01*
X122214762Y-96977149D02*
X121929048Y-96977149D01*
X122071905Y-96977149D02*
X122071905Y-96477149D01*
X122071905Y-96477149D02*
X122024286Y-96548578D01*
X122024286Y-96548578D02*
X121976667Y-96596197D01*
X121976667Y-96596197D02*
X121929048Y-96620006D01*
X122381428Y-96477149D02*
X122690952Y-96477149D01*
X122690952Y-96477149D02*
X122524285Y-96667625D01*
X122524285Y-96667625D02*
X122595714Y-96667625D01*
X122595714Y-96667625D02*
X122643333Y-96691435D01*
X122643333Y-96691435D02*
X122667142Y-96715244D01*
X122667142Y-96715244D02*
X122690952Y-96762863D01*
X122690952Y-96762863D02*
X122690952Y-96881911D01*
X122690952Y-96881911D02*
X122667142Y-96929530D01*
X122667142Y-96929530D02*
X122643333Y-96953340D01*
X122643333Y-96953340D02*
X122595714Y-96977149D01*
X122595714Y-96977149D02*
X122452857Y-96977149D01*
X122452857Y-96977149D02*
X122405238Y-96953340D01*
X122405238Y-96953340D02*
X122381428Y-96929530D01*
X121738571Y-103677149D02*
X121571905Y-103439054D01*
X121452857Y-103677149D02*
X121452857Y-103177149D01*
X121452857Y-103177149D02*
X121643333Y-103177149D01*
X121643333Y-103177149D02*
X121690952Y-103200959D01*
X121690952Y-103200959D02*
X121714762Y-103224768D01*
X121714762Y-103224768D02*
X121738571Y-103272387D01*
X121738571Y-103272387D02*
X121738571Y-103343816D01*
X121738571Y-103343816D02*
X121714762Y-103391435D01*
X121714762Y-103391435D02*
X121690952Y-103415244D01*
X121690952Y-103415244D02*
X121643333Y-103439054D01*
X121643333Y-103439054D02*
X121452857Y-103439054D01*
X122214762Y-103677149D02*
X121929048Y-103677149D01*
X122071905Y-103677149D02*
X122071905Y-103177149D01*
X122071905Y-103177149D02*
X122024286Y-103248578D01*
X122024286Y-103248578D02*
X121976667Y-103296197D01*
X121976667Y-103296197D02*
X121929048Y-103320006D01*
X122500476Y-103391435D02*
X122452857Y-103367625D01*
X122452857Y-103367625D02*
X122429047Y-103343816D01*
X122429047Y-103343816D02*
X122405238Y-103296197D01*
X122405238Y-103296197D02*
X122405238Y-103272387D01*
X122405238Y-103272387D02*
X122429047Y-103224768D01*
X122429047Y-103224768D02*
X122452857Y-103200959D01*
X122452857Y-103200959D02*
X122500476Y-103177149D01*
X122500476Y-103177149D02*
X122595714Y-103177149D01*
X122595714Y-103177149D02*
X122643333Y-103200959D01*
X122643333Y-103200959D02*
X122667142Y-103224768D01*
X122667142Y-103224768D02*
X122690952Y-103272387D01*
X122690952Y-103272387D02*
X122690952Y-103296197D01*
X122690952Y-103296197D02*
X122667142Y-103343816D01*
X122667142Y-103343816D02*
X122643333Y-103367625D01*
X122643333Y-103367625D02*
X122595714Y-103391435D01*
X122595714Y-103391435D02*
X122500476Y-103391435D01*
X122500476Y-103391435D02*
X122452857Y-103415244D01*
X122452857Y-103415244D02*
X122429047Y-103439054D01*
X122429047Y-103439054D02*
X122405238Y-103486673D01*
X122405238Y-103486673D02*
X122405238Y-103581911D01*
X122405238Y-103581911D02*
X122429047Y-103629530D01*
X122429047Y-103629530D02*
X122452857Y-103653340D01*
X122452857Y-103653340D02*
X122500476Y-103677149D01*
X122500476Y-103677149D02*
X122595714Y-103677149D01*
X122595714Y-103677149D02*
X122643333Y-103653340D01*
X122643333Y-103653340D02*
X122667142Y-103629530D01*
X122667142Y-103629530D02*
X122690952Y-103581911D01*
X122690952Y-103581911D02*
X122690952Y-103486673D01*
X122690952Y-103486673D02*
X122667142Y-103439054D01*
X122667142Y-103439054D02*
X122643333Y-103415244D01*
X122643333Y-103415244D02*
X122595714Y-103391435D01*
X155294166Y-53199530D02*
X155270357Y-53223340D01*
X155270357Y-53223340D02*
X155198928Y-53247149D01*
X155198928Y-53247149D02*
X155151309Y-53247149D01*
X155151309Y-53247149D02*
X155079881Y-53223340D01*
X155079881Y-53223340D02*
X155032262Y-53175720D01*
X155032262Y-53175720D02*
X155008452Y-53128101D01*
X155008452Y-53128101D02*
X154984643Y-53032863D01*
X154984643Y-53032863D02*
X154984643Y-52961435D01*
X154984643Y-52961435D02*
X155008452Y-52866197D01*
X155008452Y-52866197D02*
X155032262Y-52818578D01*
X155032262Y-52818578D02*
X155079881Y-52770959D01*
X155079881Y-52770959D02*
X155151309Y-52747149D01*
X155151309Y-52747149D02*
X155198928Y-52747149D01*
X155198928Y-52747149D02*
X155270357Y-52770959D01*
X155270357Y-52770959D02*
X155294166Y-52794768D01*
X155460833Y-52747149D02*
X155770357Y-52747149D01*
X155770357Y-52747149D02*
X155603690Y-52937625D01*
X155603690Y-52937625D02*
X155675119Y-52937625D01*
X155675119Y-52937625D02*
X155722738Y-52961435D01*
X155722738Y-52961435D02*
X155746547Y-52985244D01*
X155746547Y-52985244D02*
X155770357Y-53032863D01*
X155770357Y-53032863D02*
X155770357Y-53151911D01*
X155770357Y-53151911D02*
X155746547Y-53199530D01*
X155746547Y-53199530D02*
X155722738Y-53223340D01*
X155722738Y-53223340D02*
X155675119Y-53247149D01*
X155675119Y-53247149D02*
X155532262Y-53247149D01*
X155532262Y-53247149D02*
X155484643Y-53223340D01*
X155484643Y-53223340D02*
X155460833Y-53199530D01*
X161476666Y-119200749D02*
X161310000Y-118962654D01*
X161190952Y-119200749D02*
X161190952Y-118700749D01*
X161190952Y-118700749D02*
X161381428Y-118700749D01*
X161381428Y-118700749D02*
X161429047Y-118724559D01*
X161429047Y-118724559D02*
X161452857Y-118748368D01*
X161452857Y-118748368D02*
X161476666Y-118795987D01*
X161476666Y-118795987D02*
X161476666Y-118867416D01*
X161476666Y-118867416D02*
X161452857Y-118915035D01*
X161452857Y-118915035D02*
X161429047Y-118938844D01*
X161429047Y-118938844D02*
X161381428Y-118962654D01*
X161381428Y-118962654D02*
X161190952Y-118962654D01*
X161714762Y-119200749D02*
X161810000Y-119200749D01*
X161810000Y-119200749D02*
X161857619Y-119176940D01*
X161857619Y-119176940D02*
X161881428Y-119153130D01*
X161881428Y-119153130D02*
X161929047Y-119081701D01*
X161929047Y-119081701D02*
X161952857Y-118986463D01*
X161952857Y-118986463D02*
X161952857Y-118795987D01*
X161952857Y-118795987D02*
X161929047Y-118748368D01*
X161929047Y-118748368D02*
X161905238Y-118724559D01*
X161905238Y-118724559D02*
X161857619Y-118700749D01*
X161857619Y-118700749D02*
X161762381Y-118700749D01*
X161762381Y-118700749D02*
X161714762Y-118724559D01*
X161714762Y-118724559D02*
X161690952Y-118748368D01*
X161690952Y-118748368D02*
X161667143Y-118795987D01*
X161667143Y-118795987D02*
X161667143Y-118915035D01*
X161667143Y-118915035D02*
X161690952Y-118962654D01*
X161690952Y-118962654D02*
X161714762Y-118986463D01*
X161714762Y-118986463D02*
X161762381Y-119010273D01*
X161762381Y-119010273D02*
X161857619Y-119010273D01*
X161857619Y-119010273D02*
X161905238Y-118986463D01*
X161905238Y-118986463D02*
X161929047Y-118962654D01*
X161929047Y-118962654D02*
X161952857Y-118915035D01*
D10*
X129598095Y-97834819D02*
X129598095Y-98644342D01*
X129598095Y-98644342D02*
X129645714Y-98739580D01*
X129645714Y-98739580D02*
X129693333Y-98787200D01*
X129693333Y-98787200D02*
X129788571Y-98834819D01*
X129788571Y-98834819D02*
X129979047Y-98834819D01*
X129979047Y-98834819D02*
X130074285Y-98787200D01*
X130074285Y-98787200D02*
X130121904Y-98739580D01*
X130121904Y-98739580D02*
X130169523Y-98644342D01*
X130169523Y-98644342D02*
X130169523Y-97834819D01*
X130550476Y-97834819D02*
X131169523Y-97834819D01*
X131169523Y-97834819D02*
X130836190Y-98215771D01*
X130836190Y-98215771D02*
X130979047Y-98215771D01*
X130979047Y-98215771D02*
X131074285Y-98263390D01*
X131074285Y-98263390D02*
X131121904Y-98311009D01*
X131121904Y-98311009D02*
X131169523Y-98406247D01*
X131169523Y-98406247D02*
X131169523Y-98644342D01*
X131169523Y-98644342D02*
X131121904Y-98739580D01*
X131121904Y-98739580D02*
X131074285Y-98787200D01*
X131074285Y-98787200D02*
X130979047Y-98834819D01*
X130979047Y-98834819D02*
X130693333Y-98834819D01*
X130693333Y-98834819D02*
X130598095Y-98787200D01*
X130598095Y-98787200D02*
X130550476Y-98739580D01*
D11*
X121689571Y-77281949D02*
X121522905Y-77043854D01*
X121403857Y-77281949D02*
X121403857Y-76781949D01*
X121403857Y-76781949D02*
X121594333Y-76781949D01*
X121594333Y-76781949D02*
X121641952Y-76805759D01*
X121641952Y-76805759D02*
X121665762Y-76829568D01*
X121665762Y-76829568D02*
X121689571Y-76877187D01*
X121689571Y-76877187D02*
X121689571Y-76948616D01*
X121689571Y-76948616D02*
X121665762Y-76996235D01*
X121665762Y-76996235D02*
X121641952Y-77020044D01*
X121641952Y-77020044D02*
X121594333Y-77043854D01*
X121594333Y-77043854D02*
X121403857Y-77043854D01*
X121880048Y-76829568D02*
X121903857Y-76805759D01*
X121903857Y-76805759D02*
X121951476Y-76781949D01*
X121951476Y-76781949D02*
X122070524Y-76781949D01*
X122070524Y-76781949D02*
X122118143Y-76805759D01*
X122118143Y-76805759D02*
X122141952Y-76829568D01*
X122141952Y-76829568D02*
X122165762Y-76877187D01*
X122165762Y-76877187D02*
X122165762Y-76924806D01*
X122165762Y-76924806D02*
X122141952Y-76996235D01*
X122141952Y-76996235D02*
X121856238Y-77281949D01*
X121856238Y-77281949D02*
X122165762Y-77281949D01*
X122475285Y-76781949D02*
X122522904Y-76781949D01*
X122522904Y-76781949D02*
X122570523Y-76805759D01*
X122570523Y-76805759D02*
X122594333Y-76829568D01*
X122594333Y-76829568D02*
X122618142Y-76877187D01*
X122618142Y-76877187D02*
X122641952Y-76972425D01*
X122641952Y-76972425D02*
X122641952Y-77091473D01*
X122641952Y-77091473D02*
X122618142Y-77186711D01*
X122618142Y-77186711D02*
X122594333Y-77234330D01*
X122594333Y-77234330D02*
X122570523Y-77258140D01*
X122570523Y-77258140D02*
X122522904Y-77281949D01*
X122522904Y-77281949D02*
X122475285Y-77281949D01*
X122475285Y-77281949D02*
X122427666Y-77258140D01*
X122427666Y-77258140D02*
X122403857Y-77234330D01*
X122403857Y-77234330D02*
X122380047Y-77186711D01*
X122380047Y-77186711D02*
X122356238Y-77091473D01*
X122356238Y-77091473D02*
X122356238Y-76972425D01*
X122356238Y-76972425D02*
X122380047Y-76877187D01*
X122380047Y-76877187D02*
X122403857Y-76829568D01*
X122403857Y-76829568D02*
X122427666Y-76805759D01*
X122427666Y-76805759D02*
X122475285Y-76781949D01*
X121808730Y-67056228D02*
X121832540Y-67080037D01*
X121832540Y-67080037D02*
X121856349Y-67151466D01*
X121856349Y-67151466D02*
X121856349Y-67199085D01*
X121856349Y-67199085D02*
X121832540Y-67270513D01*
X121832540Y-67270513D02*
X121784920Y-67318132D01*
X121784920Y-67318132D02*
X121737301Y-67341942D01*
X121737301Y-67341942D02*
X121642063Y-67365751D01*
X121642063Y-67365751D02*
X121570635Y-67365751D01*
X121570635Y-67365751D02*
X121475397Y-67341942D01*
X121475397Y-67341942D02*
X121427778Y-67318132D01*
X121427778Y-67318132D02*
X121380159Y-67270513D01*
X121380159Y-67270513D02*
X121356349Y-67199085D01*
X121356349Y-67199085D02*
X121356349Y-67151466D01*
X121356349Y-67151466D02*
X121380159Y-67080037D01*
X121380159Y-67080037D02*
X121403968Y-67056228D01*
X121403968Y-66865751D02*
X121380159Y-66841942D01*
X121380159Y-66841942D02*
X121356349Y-66794323D01*
X121356349Y-66794323D02*
X121356349Y-66675275D01*
X121356349Y-66675275D02*
X121380159Y-66627656D01*
X121380159Y-66627656D02*
X121403968Y-66603847D01*
X121403968Y-66603847D02*
X121451587Y-66580037D01*
X121451587Y-66580037D02*
X121499206Y-66580037D01*
X121499206Y-66580037D02*
X121570635Y-66603847D01*
X121570635Y-66603847D02*
X121856349Y-66889561D01*
X121856349Y-66889561D02*
X121856349Y-66580037D01*
X121856349Y-66103847D02*
X121856349Y-66389561D01*
X121856349Y-66246704D02*
X121356349Y-66246704D01*
X121356349Y-66246704D02*
X121427778Y-66294323D01*
X121427778Y-66294323D02*
X121475397Y-66341942D01*
X121475397Y-66341942D02*
X121499206Y-66389561D01*
D10*
X157748715Y-43001009D02*
X158082048Y-43001009D01*
X158224905Y-43524819D02*
X157748715Y-43524819D01*
X157748715Y-43524819D02*
X157748715Y-42524819D01*
X157748715Y-42524819D02*
X158224905Y-42524819D01*
X158605858Y-43477200D02*
X158748715Y-43524819D01*
X158748715Y-43524819D02*
X158986810Y-43524819D01*
X158986810Y-43524819D02*
X159082048Y-43477200D01*
X159082048Y-43477200D02*
X159129667Y-43429580D01*
X159129667Y-43429580D02*
X159177286Y-43334342D01*
X159177286Y-43334342D02*
X159177286Y-43239104D01*
X159177286Y-43239104D02*
X159129667Y-43143866D01*
X159129667Y-43143866D02*
X159082048Y-43096247D01*
X159082048Y-43096247D02*
X158986810Y-43048628D01*
X158986810Y-43048628D02*
X158796334Y-43001009D01*
X158796334Y-43001009D02*
X158701096Y-42953390D01*
X158701096Y-42953390D02*
X158653477Y-42905771D01*
X158653477Y-42905771D02*
X158605858Y-42810533D01*
X158605858Y-42810533D02*
X158605858Y-42715295D01*
X158605858Y-42715295D02*
X158653477Y-42620057D01*
X158653477Y-42620057D02*
X158701096Y-42572438D01*
X158701096Y-42572438D02*
X158796334Y-42524819D01*
X158796334Y-42524819D02*
X159034429Y-42524819D01*
X159034429Y-42524819D02*
X159177286Y-42572438D01*
X159605858Y-43524819D02*
X159605858Y-42524819D01*
X159605858Y-42524819D02*
X159986810Y-42524819D01*
X159986810Y-42524819D02*
X160082048Y-42572438D01*
X160082048Y-42572438D02*
X160129667Y-42620057D01*
X160129667Y-42620057D02*
X160177286Y-42715295D01*
X160177286Y-42715295D02*
X160177286Y-42858152D01*
X160177286Y-42858152D02*
X160129667Y-42953390D01*
X160129667Y-42953390D02*
X160082048Y-43001009D01*
X160082048Y-43001009D02*
X159986810Y-43048628D01*
X159986810Y-43048628D02*
X159605858Y-43048628D01*
X160510620Y-42524819D02*
X161129667Y-42524819D01*
X161129667Y-42524819D02*
X160796334Y-42905771D01*
X160796334Y-42905771D02*
X160939191Y-42905771D01*
X160939191Y-42905771D02*
X161034429Y-42953390D01*
X161034429Y-42953390D02*
X161082048Y-43001009D01*
X161082048Y-43001009D02*
X161129667Y-43096247D01*
X161129667Y-43096247D02*
X161129667Y-43334342D01*
X161129667Y-43334342D02*
X161082048Y-43429580D01*
X161082048Y-43429580D02*
X161034429Y-43477200D01*
X161034429Y-43477200D02*
X160939191Y-43524819D01*
X160939191Y-43524819D02*
X160653477Y-43524819D01*
X160653477Y-43524819D02*
X160558239Y-43477200D01*
X160558239Y-43477200D02*
X160510620Y-43429580D01*
X161510620Y-42620057D02*
X161558239Y-42572438D01*
X161558239Y-42572438D02*
X161653477Y-42524819D01*
X161653477Y-42524819D02*
X161891572Y-42524819D01*
X161891572Y-42524819D02*
X161986810Y-42572438D01*
X161986810Y-42572438D02*
X162034429Y-42620057D01*
X162034429Y-42620057D02*
X162082048Y-42715295D01*
X162082048Y-42715295D02*
X162082048Y-42810533D01*
X162082048Y-42810533D02*
X162034429Y-42953390D01*
X162034429Y-42953390D02*
X161463001Y-43524819D01*
X161463001Y-43524819D02*
X162082048Y-43524819D01*
X162510620Y-43143866D02*
X163272525Y-43143866D01*
X163701096Y-43477200D02*
X163843953Y-43524819D01*
X163843953Y-43524819D02*
X164082048Y-43524819D01*
X164082048Y-43524819D02*
X164177286Y-43477200D01*
X164177286Y-43477200D02*
X164224905Y-43429580D01*
X164224905Y-43429580D02*
X164272524Y-43334342D01*
X164272524Y-43334342D02*
X164272524Y-43239104D01*
X164272524Y-43239104D02*
X164224905Y-43143866D01*
X164224905Y-43143866D02*
X164177286Y-43096247D01*
X164177286Y-43096247D02*
X164082048Y-43048628D01*
X164082048Y-43048628D02*
X163891572Y-43001009D01*
X163891572Y-43001009D02*
X163796334Y-42953390D01*
X163796334Y-42953390D02*
X163748715Y-42905771D01*
X163748715Y-42905771D02*
X163701096Y-42810533D01*
X163701096Y-42810533D02*
X163701096Y-42715295D01*
X163701096Y-42715295D02*
X163748715Y-42620057D01*
X163748715Y-42620057D02*
X163796334Y-42572438D01*
X163796334Y-42572438D02*
X163891572Y-42524819D01*
X163891572Y-42524819D02*
X164129667Y-42524819D01*
X164129667Y-42524819D02*
X164272524Y-42572438D01*
X164605858Y-42524819D02*
X165224905Y-42524819D01*
X165224905Y-42524819D02*
X164891572Y-42905771D01*
X164891572Y-42905771D02*
X165034429Y-42905771D01*
X165034429Y-42905771D02*
X165129667Y-42953390D01*
X165129667Y-42953390D02*
X165177286Y-43001009D01*
X165177286Y-43001009D02*
X165224905Y-43096247D01*
X165224905Y-43096247D02*
X165224905Y-43334342D01*
X165224905Y-43334342D02*
X165177286Y-43429580D01*
X165177286Y-43429580D02*
X165129667Y-43477200D01*
X165129667Y-43477200D02*
X165034429Y-43524819D01*
X165034429Y-43524819D02*
X164748715Y-43524819D01*
X164748715Y-43524819D02*
X164653477Y-43477200D01*
X164653477Y-43477200D02*
X164605858Y-43429580D01*
X165653477Y-43143866D02*
X166415382Y-43143866D01*
X166796334Y-42524819D02*
X167034429Y-43524819D01*
X167034429Y-43524819D02*
X167224905Y-42810533D01*
X167224905Y-42810533D02*
X167415381Y-43524819D01*
X167415381Y-43524819D02*
X167653477Y-42524819D01*
X168605857Y-43524819D02*
X168272524Y-43048628D01*
X168034429Y-43524819D02*
X168034429Y-42524819D01*
X168034429Y-42524819D02*
X168415381Y-42524819D01*
X168415381Y-42524819D02*
X168510619Y-42572438D01*
X168510619Y-42572438D02*
X168558238Y-42620057D01*
X168558238Y-42620057D02*
X168605857Y-42715295D01*
X168605857Y-42715295D02*
X168605857Y-42858152D01*
X168605857Y-42858152D02*
X168558238Y-42953390D01*
X168558238Y-42953390D02*
X168510619Y-43001009D01*
X168510619Y-43001009D02*
X168415381Y-43048628D01*
X168415381Y-43048628D02*
X168034429Y-43048628D01*
X169224905Y-42524819D02*
X169415381Y-42524819D01*
X169415381Y-42524819D02*
X169510619Y-42572438D01*
X169510619Y-42572438D02*
X169605857Y-42667676D01*
X169605857Y-42667676D02*
X169653476Y-42858152D01*
X169653476Y-42858152D02*
X169653476Y-43191485D01*
X169653476Y-43191485D02*
X169605857Y-43381961D01*
X169605857Y-43381961D02*
X169510619Y-43477200D01*
X169510619Y-43477200D02*
X169415381Y-43524819D01*
X169415381Y-43524819D02*
X169224905Y-43524819D01*
X169224905Y-43524819D02*
X169129667Y-43477200D01*
X169129667Y-43477200D02*
X169034429Y-43381961D01*
X169034429Y-43381961D02*
X168986810Y-43191485D01*
X168986810Y-43191485D02*
X168986810Y-42858152D01*
X168986810Y-42858152D02*
X169034429Y-42667676D01*
X169034429Y-42667676D02*
X169129667Y-42572438D01*
X169129667Y-42572438D02*
X169224905Y-42524819D01*
X170272524Y-42524819D02*
X170463000Y-42524819D01*
X170463000Y-42524819D02*
X170558238Y-42572438D01*
X170558238Y-42572438D02*
X170653476Y-42667676D01*
X170653476Y-42667676D02*
X170701095Y-42858152D01*
X170701095Y-42858152D02*
X170701095Y-43191485D01*
X170701095Y-43191485D02*
X170653476Y-43381961D01*
X170653476Y-43381961D02*
X170558238Y-43477200D01*
X170558238Y-43477200D02*
X170463000Y-43524819D01*
X170463000Y-43524819D02*
X170272524Y-43524819D01*
X170272524Y-43524819D02*
X170177286Y-43477200D01*
X170177286Y-43477200D02*
X170082048Y-43381961D01*
X170082048Y-43381961D02*
X170034429Y-43191485D01*
X170034429Y-43191485D02*
X170034429Y-42858152D01*
X170034429Y-42858152D02*
X170082048Y-42667676D01*
X170082048Y-42667676D02*
X170177286Y-42572438D01*
X170177286Y-42572438D02*
X170272524Y-42524819D01*
X171129667Y-43524819D02*
X171129667Y-42524819D01*
X171129667Y-42524819D02*
X171463000Y-43239104D01*
X171463000Y-43239104D02*
X171796333Y-42524819D01*
X171796333Y-42524819D02*
X171796333Y-43524819D01*
X172272524Y-43143866D02*
X173034429Y-43143866D01*
X174034428Y-43524819D02*
X173463000Y-43524819D01*
X173748714Y-43524819D02*
X173748714Y-42524819D01*
X173748714Y-42524819D02*
X173653476Y-42667676D01*
X173653476Y-42667676D02*
X173558238Y-42762914D01*
X173558238Y-42762914D02*
X173463000Y-42810533D01*
X174463000Y-43143866D02*
X175224905Y-43143866D01*
X175701095Y-43524819D02*
X175701095Y-42524819D01*
X175701095Y-42524819D02*
X176272523Y-43524819D01*
X176272523Y-43524819D02*
X176272523Y-42524819D01*
X177272523Y-43524819D02*
X176701095Y-43524819D01*
X176986809Y-43524819D02*
X176986809Y-42524819D01*
X176986809Y-42524819D02*
X176891571Y-42667676D01*
X176891571Y-42667676D02*
X176796333Y-42762914D01*
X176796333Y-42762914D02*
X176701095Y-42810533D01*
X178129666Y-42524819D02*
X177939190Y-42524819D01*
X177939190Y-42524819D02*
X177843952Y-42572438D01*
X177843952Y-42572438D02*
X177796333Y-42620057D01*
X177796333Y-42620057D02*
X177701095Y-42762914D01*
X177701095Y-42762914D02*
X177653476Y-42953390D01*
X177653476Y-42953390D02*
X177653476Y-43334342D01*
X177653476Y-43334342D02*
X177701095Y-43429580D01*
X177701095Y-43429580D02*
X177748714Y-43477200D01*
X177748714Y-43477200D02*
X177843952Y-43524819D01*
X177843952Y-43524819D02*
X178034428Y-43524819D01*
X178034428Y-43524819D02*
X178129666Y-43477200D01*
X178129666Y-43477200D02*
X178177285Y-43429580D01*
X178177285Y-43429580D02*
X178224904Y-43334342D01*
X178224904Y-43334342D02*
X178224904Y-43096247D01*
X178224904Y-43096247D02*
X178177285Y-43001009D01*
X178177285Y-43001009D02*
X178129666Y-42953390D01*
X178129666Y-42953390D02*
X178034428Y-42905771D01*
X178034428Y-42905771D02*
X177843952Y-42905771D01*
X177843952Y-42905771D02*
X177748714Y-42953390D01*
X177748714Y-42953390D02*
X177701095Y-43001009D01*
X177701095Y-43001009D02*
X177653476Y-43096247D01*
D11*
X117222730Y-67072628D02*
X117246540Y-67096437D01*
X117246540Y-67096437D02*
X117270349Y-67167866D01*
X117270349Y-67167866D02*
X117270349Y-67215485D01*
X117270349Y-67215485D02*
X117246540Y-67286913D01*
X117246540Y-67286913D02*
X117198920Y-67334532D01*
X117198920Y-67334532D02*
X117151301Y-67358342D01*
X117151301Y-67358342D02*
X117056063Y-67382151D01*
X117056063Y-67382151D02*
X116984635Y-67382151D01*
X116984635Y-67382151D02*
X116889397Y-67358342D01*
X116889397Y-67358342D02*
X116841778Y-67334532D01*
X116841778Y-67334532D02*
X116794159Y-67286913D01*
X116794159Y-67286913D02*
X116770349Y-67215485D01*
X116770349Y-67215485D02*
X116770349Y-67167866D01*
X116770349Y-67167866D02*
X116794159Y-67096437D01*
X116794159Y-67096437D02*
X116817968Y-67072628D01*
X117270349Y-66596437D02*
X117270349Y-66882151D01*
X117270349Y-66739294D02*
X116770349Y-66739294D01*
X116770349Y-66739294D02*
X116841778Y-66786913D01*
X116841778Y-66786913D02*
X116889397Y-66834532D01*
X116889397Y-66834532D02*
X116913206Y-66882151D01*
X117270349Y-66358342D02*
X117270349Y-66263104D01*
X117270349Y-66263104D02*
X117246540Y-66215485D01*
X117246540Y-66215485D02*
X117222730Y-66191676D01*
X117222730Y-66191676D02*
X117151301Y-66144057D01*
X117151301Y-66144057D02*
X117056063Y-66120247D01*
X117056063Y-66120247D02*
X116865587Y-66120247D01*
X116865587Y-66120247D02*
X116817968Y-66144057D01*
X116817968Y-66144057D02*
X116794159Y-66167866D01*
X116794159Y-66167866D02*
X116770349Y-66215485D01*
X116770349Y-66215485D02*
X116770349Y-66310723D01*
X116770349Y-66310723D02*
X116794159Y-66358342D01*
X116794159Y-66358342D02*
X116817968Y-66382152D01*
X116817968Y-66382152D02*
X116865587Y-66405961D01*
X116865587Y-66405961D02*
X116984635Y-66405961D01*
X116984635Y-66405961D02*
X117032254Y-66382152D01*
X117032254Y-66382152D02*
X117056063Y-66358342D01*
X117056063Y-66358342D02*
X117079873Y-66310723D01*
X117079873Y-66310723D02*
X117079873Y-66215485D01*
X117079873Y-66215485D02*
X117056063Y-66167866D01*
X117056063Y-66167866D02*
X117032254Y-66144057D01*
X117032254Y-66144057D02*
X116984635Y-66120247D01*
X159843930Y-106802128D02*
X159867740Y-106825937D01*
X159867740Y-106825937D02*
X159891549Y-106897366D01*
X159891549Y-106897366D02*
X159891549Y-106944985D01*
X159891549Y-106944985D02*
X159867740Y-107016413D01*
X159867740Y-107016413D02*
X159820120Y-107064032D01*
X159820120Y-107064032D02*
X159772501Y-107087842D01*
X159772501Y-107087842D02*
X159677263Y-107111651D01*
X159677263Y-107111651D02*
X159605835Y-107111651D01*
X159605835Y-107111651D02*
X159510597Y-107087842D01*
X159510597Y-107087842D02*
X159462978Y-107064032D01*
X159462978Y-107064032D02*
X159415359Y-107016413D01*
X159415359Y-107016413D02*
X159391549Y-106944985D01*
X159391549Y-106944985D02*
X159391549Y-106897366D01*
X159391549Y-106897366D02*
X159415359Y-106825937D01*
X159415359Y-106825937D02*
X159439168Y-106802128D01*
X159891549Y-106325937D02*
X159891549Y-106611651D01*
X159891549Y-106468794D02*
X159391549Y-106468794D01*
X159391549Y-106468794D02*
X159462978Y-106516413D01*
X159462978Y-106516413D02*
X159510597Y-106564032D01*
X159510597Y-106564032D02*
X159534406Y-106611651D01*
X159558216Y-105897366D02*
X159891549Y-105897366D01*
X159367740Y-106016414D02*
X159724882Y-106135461D01*
X159724882Y-106135461D02*
X159724882Y-105825938D01*
D10*
X164450209Y-89373880D02*
X164402590Y-89421500D01*
X164402590Y-89421500D02*
X164259733Y-89469119D01*
X164259733Y-89469119D02*
X164164495Y-89469119D01*
X164164495Y-89469119D02*
X164021638Y-89421500D01*
X164021638Y-89421500D02*
X163926400Y-89326261D01*
X163926400Y-89326261D02*
X163878781Y-89231023D01*
X163878781Y-89231023D02*
X163831162Y-89040547D01*
X163831162Y-89040547D02*
X163831162Y-88897690D01*
X163831162Y-88897690D02*
X163878781Y-88707214D01*
X163878781Y-88707214D02*
X163926400Y-88611976D01*
X163926400Y-88611976D02*
X164021638Y-88516738D01*
X164021638Y-88516738D02*
X164164495Y-88469119D01*
X164164495Y-88469119D02*
X164259733Y-88469119D01*
X164259733Y-88469119D02*
X164402590Y-88516738D01*
X164402590Y-88516738D02*
X164450209Y-88564357D01*
X165354971Y-88469119D02*
X164878781Y-88469119D01*
X164878781Y-88469119D02*
X164831162Y-88945309D01*
X164831162Y-88945309D02*
X164878781Y-88897690D01*
X164878781Y-88897690D02*
X164974019Y-88850071D01*
X164974019Y-88850071D02*
X165212114Y-88850071D01*
X165212114Y-88850071D02*
X165307352Y-88897690D01*
X165307352Y-88897690D02*
X165354971Y-88945309D01*
X165354971Y-88945309D02*
X165402590Y-89040547D01*
X165402590Y-89040547D02*
X165402590Y-89278642D01*
X165402590Y-89278642D02*
X165354971Y-89373880D01*
X165354971Y-89373880D02*
X165307352Y-89421500D01*
X165307352Y-89421500D02*
X165212114Y-89469119D01*
X165212114Y-89469119D02*
X164974019Y-89469119D01*
X164974019Y-89469119D02*
X164878781Y-89421500D01*
X164878781Y-89421500D02*
X164831162Y-89373880D01*
D11*
X161489966Y-116943330D02*
X161466157Y-116967140D01*
X161466157Y-116967140D02*
X161394728Y-116990949D01*
X161394728Y-116990949D02*
X161347109Y-116990949D01*
X161347109Y-116990949D02*
X161275681Y-116967140D01*
X161275681Y-116967140D02*
X161228062Y-116919520D01*
X161228062Y-116919520D02*
X161204252Y-116871901D01*
X161204252Y-116871901D02*
X161180443Y-116776663D01*
X161180443Y-116776663D02*
X161180443Y-116705235D01*
X161180443Y-116705235D02*
X161204252Y-116609997D01*
X161204252Y-116609997D02*
X161228062Y-116562378D01*
X161228062Y-116562378D02*
X161275681Y-116514759D01*
X161275681Y-116514759D02*
X161347109Y-116490949D01*
X161347109Y-116490949D02*
X161394728Y-116490949D01*
X161394728Y-116490949D02*
X161466157Y-116514759D01*
X161466157Y-116514759D02*
X161489966Y-116538568D01*
X161656633Y-116490949D02*
X161989966Y-116490949D01*
X161989966Y-116490949D02*
X161775681Y-116990949D01*
X162471071Y-108307330D02*
X162447262Y-108331140D01*
X162447262Y-108331140D02*
X162375833Y-108354949D01*
X162375833Y-108354949D02*
X162328214Y-108354949D01*
X162328214Y-108354949D02*
X162256786Y-108331140D01*
X162256786Y-108331140D02*
X162209167Y-108283520D01*
X162209167Y-108283520D02*
X162185357Y-108235901D01*
X162185357Y-108235901D02*
X162161548Y-108140663D01*
X162161548Y-108140663D02*
X162161548Y-108069235D01*
X162161548Y-108069235D02*
X162185357Y-107973997D01*
X162185357Y-107973997D02*
X162209167Y-107926378D01*
X162209167Y-107926378D02*
X162256786Y-107878759D01*
X162256786Y-107878759D02*
X162328214Y-107854949D01*
X162328214Y-107854949D02*
X162375833Y-107854949D01*
X162375833Y-107854949D02*
X162447262Y-107878759D01*
X162447262Y-107878759D02*
X162471071Y-107902568D01*
X162947262Y-108354949D02*
X162661548Y-108354949D01*
X162804405Y-108354949D02*
X162804405Y-107854949D01*
X162804405Y-107854949D02*
X162756786Y-107926378D01*
X162756786Y-107926378D02*
X162709167Y-107973997D01*
X162709167Y-107973997D02*
X162661548Y-107997806D01*
X163256785Y-107854949D02*
X163304404Y-107854949D01*
X163304404Y-107854949D02*
X163352023Y-107878759D01*
X163352023Y-107878759D02*
X163375833Y-107902568D01*
X163375833Y-107902568D02*
X163399642Y-107950187D01*
X163399642Y-107950187D02*
X163423452Y-108045425D01*
X163423452Y-108045425D02*
X163423452Y-108164473D01*
X163423452Y-108164473D02*
X163399642Y-108259711D01*
X163399642Y-108259711D02*
X163375833Y-108307330D01*
X163375833Y-108307330D02*
X163352023Y-108331140D01*
X163352023Y-108331140D02*
X163304404Y-108354949D01*
X163304404Y-108354949D02*
X163256785Y-108354949D01*
X163256785Y-108354949D02*
X163209166Y-108331140D01*
X163209166Y-108331140D02*
X163185357Y-108307330D01*
X163185357Y-108307330D02*
X163161547Y-108259711D01*
X163161547Y-108259711D02*
X163137738Y-108164473D01*
X163137738Y-108164473D02*
X163137738Y-108045425D01*
X163137738Y-108045425D02*
X163161547Y-107950187D01*
X163161547Y-107950187D02*
X163185357Y-107902568D01*
X163185357Y-107902568D02*
X163209166Y-107878759D01*
X163209166Y-107878759D02*
X163256785Y-107854949D01*
X167486149Y-97318033D02*
X167248054Y-97484699D01*
X167486149Y-97603747D02*
X166986149Y-97603747D01*
X166986149Y-97603747D02*
X166986149Y-97413271D01*
X166986149Y-97413271D02*
X167009959Y-97365652D01*
X167009959Y-97365652D02*
X167033768Y-97341842D01*
X167033768Y-97341842D02*
X167081387Y-97318033D01*
X167081387Y-97318033D02*
X167152816Y-97318033D01*
X167152816Y-97318033D02*
X167200435Y-97341842D01*
X167200435Y-97341842D02*
X167224244Y-97365652D01*
X167224244Y-97365652D02*
X167248054Y-97413271D01*
X167248054Y-97413271D02*
X167248054Y-97603747D01*
X166986149Y-96865652D02*
X166986149Y-97103747D01*
X166986149Y-97103747D02*
X167224244Y-97127556D01*
X167224244Y-97127556D02*
X167200435Y-97103747D01*
X167200435Y-97103747D02*
X167176625Y-97056128D01*
X167176625Y-97056128D02*
X167176625Y-96937080D01*
X167176625Y-96937080D02*
X167200435Y-96889461D01*
X167200435Y-96889461D02*
X167224244Y-96865652D01*
X167224244Y-96865652D02*
X167271863Y-96841842D01*
X167271863Y-96841842D02*
X167390911Y-96841842D01*
X167390911Y-96841842D02*
X167438530Y-96865652D01*
X167438530Y-96865652D02*
X167462340Y-96889461D01*
X167462340Y-96889461D02*
X167486149Y-96937080D01*
X167486149Y-96937080D02*
X167486149Y-97056128D01*
X167486149Y-97056128D02*
X167462340Y-97103747D01*
X167462340Y-97103747D02*
X167438530Y-97127556D01*
X137168571Y-100447149D02*
X137001905Y-100209054D01*
X136882857Y-100447149D02*
X136882857Y-99947149D01*
X136882857Y-99947149D02*
X137073333Y-99947149D01*
X137073333Y-99947149D02*
X137120952Y-99970959D01*
X137120952Y-99970959D02*
X137144762Y-99994768D01*
X137144762Y-99994768D02*
X137168571Y-100042387D01*
X137168571Y-100042387D02*
X137168571Y-100113816D01*
X137168571Y-100113816D02*
X137144762Y-100161435D01*
X137144762Y-100161435D02*
X137120952Y-100185244D01*
X137120952Y-100185244D02*
X137073333Y-100209054D01*
X137073333Y-100209054D02*
X136882857Y-100209054D01*
X137359048Y-99994768D02*
X137382857Y-99970959D01*
X137382857Y-99970959D02*
X137430476Y-99947149D01*
X137430476Y-99947149D02*
X137549524Y-99947149D01*
X137549524Y-99947149D02*
X137597143Y-99970959D01*
X137597143Y-99970959D02*
X137620952Y-99994768D01*
X137620952Y-99994768D02*
X137644762Y-100042387D01*
X137644762Y-100042387D02*
X137644762Y-100090006D01*
X137644762Y-100090006D02*
X137620952Y-100161435D01*
X137620952Y-100161435D02*
X137335238Y-100447149D01*
X137335238Y-100447149D02*
X137644762Y-100447149D01*
X137835238Y-99994768D02*
X137859047Y-99970959D01*
X137859047Y-99970959D02*
X137906666Y-99947149D01*
X137906666Y-99947149D02*
X138025714Y-99947149D01*
X138025714Y-99947149D02*
X138073333Y-99970959D01*
X138073333Y-99970959D02*
X138097142Y-99994768D01*
X138097142Y-99994768D02*
X138120952Y-100042387D01*
X138120952Y-100042387D02*
X138120952Y-100090006D01*
X138120952Y-100090006D02*
X138097142Y-100161435D01*
X138097142Y-100161435D02*
X137811428Y-100447149D01*
X137811428Y-100447149D02*
X138120952Y-100447149D01*
X115774930Y-92701228D02*
X115798740Y-92725037D01*
X115798740Y-92725037D02*
X115822549Y-92796466D01*
X115822549Y-92796466D02*
X115822549Y-92844085D01*
X115822549Y-92844085D02*
X115798740Y-92915513D01*
X115798740Y-92915513D02*
X115751120Y-92963132D01*
X115751120Y-92963132D02*
X115703501Y-92986942D01*
X115703501Y-92986942D02*
X115608263Y-93010751D01*
X115608263Y-93010751D02*
X115536835Y-93010751D01*
X115536835Y-93010751D02*
X115441597Y-92986942D01*
X115441597Y-92986942D02*
X115393978Y-92963132D01*
X115393978Y-92963132D02*
X115346359Y-92915513D01*
X115346359Y-92915513D02*
X115322549Y-92844085D01*
X115322549Y-92844085D02*
X115322549Y-92796466D01*
X115322549Y-92796466D02*
X115346359Y-92725037D01*
X115346359Y-92725037D02*
X115370168Y-92701228D01*
X115370168Y-92510751D02*
X115346359Y-92486942D01*
X115346359Y-92486942D02*
X115322549Y-92439323D01*
X115322549Y-92439323D02*
X115322549Y-92320275D01*
X115322549Y-92320275D02*
X115346359Y-92272656D01*
X115346359Y-92272656D02*
X115370168Y-92248847D01*
X115370168Y-92248847D02*
X115417787Y-92225037D01*
X115417787Y-92225037D02*
X115465406Y-92225037D01*
X115465406Y-92225037D02*
X115536835Y-92248847D01*
X115536835Y-92248847D02*
X115822549Y-92534561D01*
X115822549Y-92534561D02*
X115822549Y-92225037D01*
X115322549Y-91796466D02*
X115322549Y-91891704D01*
X115322549Y-91891704D02*
X115346359Y-91939323D01*
X115346359Y-91939323D02*
X115370168Y-91963133D01*
X115370168Y-91963133D02*
X115441597Y-92010752D01*
X115441597Y-92010752D02*
X115536835Y-92034561D01*
X115536835Y-92034561D02*
X115727311Y-92034561D01*
X115727311Y-92034561D02*
X115774930Y-92010752D01*
X115774930Y-92010752D02*
X115798740Y-91986942D01*
X115798740Y-91986942D02*
X115822549Y-91939323D01*
X115822549Y-91939323D02*
X115822549Y-91844085D01*
X115822549Y-91844085D02*
X115798740Y-91796466D01*
X115798740Y-91796466D02*
X115774930Y-91772657D01*
X115774930Y-91772657D02*
X115727311Y-91748847D01*
X115727311Y-91748847D02*
X115608263Y-91748847D01*
X115608263Y-91748847D02*
X115560644Y-91772657D01*
X115560644Y-91772657D02*
X115536835Y-91796466D01*
X115536835Y-91796466D02*
X115513025Y-91844085D01*
X115513025Y-91844085D02*
X115513025Y-91939323D01*
X115513025Y-91939323D02*
X115536835Y-91986942D01*
X115536835Y-91986942D02*
X115560644Y-92010752D01*
X115560644Y-92010752D02*
X115608263Y-92034561D01*
X158446930Y-111602728D02*
X158470740Y-111626537D01*
X158470740Y-111626537D02*
X158494549Y-111697966D01*
X158494549Y-111697966D02*
X158494549Y-111745585D01*
X158494549Y-111745585D02*
X158470740Y-111817013D01*
X158470740Y-111817013D02*
X158423120Y-111864632D01*
X158423120Y-111864632D02*
X158375501Y-111888442D01*
X158375501Y-111888442D02*
X158280263Y-111912251D01*
X158280263Y-111912251D02*
X158208835Y-111912251D01*
X158208835Y-111912251D02*
X158113597Y-111888442D01*
X158113597Y-111888442D02*
X158065978Y-111864632D01*
X158065978Y-111864632D02*
X158018359Y-111817013D01*
X158018359Y-111817013D02*
X157994549Y-111745585D01*
X157994549Y-111745585D02*
X157994549Y-111697966D01*
X157994549Y-111697966D02*
X158018359Y-111626537D01*
X158018359Y-111626537D02*
X158042168Y-111602728D01*
X158494549Y-111126537D02*
X158494549Y-111412251D01*
X158494549Y-111269394D02*
X157994549Y-111269394D01*
X157994549Y-111269394D02*
X158065978Y-111317013D01*
X158065978Y-111317013D02*
X158113597Y-111364632D01*
X158113597Y-111364632D02*
X158137406Y-111412251D01*
X157994549Y-110959871D02*
X157994549Y-110650347D01*
X157994549Y-110650347D02*
X158185025Y-110817014D01*
X158185025Y-110817014D02*
X158185025Y-110745585D01*
X158185025Y-110745585D02*
X158208835Y-110697966D01*
X158208835Y-110697966D02*
X158232644Y-110674157D01*
X158232644Y-110674157D02*
X158280263Y-110650347D01*
X158280263Y-110650347D02*
X158399311Y-110650347D01*
X158399311Y-110650347D02*
X158446930Y-110674157D01*
X158446930Y-110674157D02*
X158470740Y-110697966D01*
X158470740Y-110697966D02*
X158494549Y-110745585D01*
X158494549Y-110745585D02*
X158494549Y-110888442D01*
X158494549Y-110888442D02*
X158470740Y-110936061D01*
X158470740Y-110936061D02*
X158446930Y-110959871D01*
X120257149Y-92746428D02*
X120019054Y-92913094D01*
X120257149Y-93032142D02*
X119757149Y-93032142D01*
X119757149Y-93032142D02*
X119757149Y-92841666D01*
X119757149Y-92841666D02*
X119780959Y-92794047D01*
X119780959Y-92794047D02*
X119804768Y-92770237D01*
X119804768Y-92770237D02*
X119852387Y-92746428D01*
X119852387Y-92746428D02*
X119923816Y-92746428D01*
X119923816Y-92746428D02*
X119971435Y-92770237D01*
X119971435Y-92770237D02*
X119995244Y-92794047D01*
X119995244Y-92794047D02*
X120019054Y-92841666D01*
X120019054Y-92841666D02*
X120019054Y-93032142D01*
X120257149Y-92270237D02*
X120257149Y-92555951D01*
X120257149Y-92413094D02*
X119757149Y-92413094D01*
X119757149Y-92413094D02*
X119828578Y-92460713D01*
X119828578Y-92460713D02*
X119876197Y-92508332D01*
X119876197Y-92508332D02*
X119900006Y-92555951D01*
X119804768Y-92079761D02*
X119780959Y-92055952D01*
X119780959Y-92055952D02*
X119757149Y-92008333D01*
X119757149Y-92008333D02*
X119757149Y-91889285D01*
X119757149Y-91889285D02*
X119780959Y-91841666D01*
X119780959Y-91841666D02*
X119804768Y-91817857D01*
X119804768Y-91817857D02*
X119852387Y-91794047D01*
X119852387Y-91794047D02*
X119900006Y-91794047D01*
X119900006Y-91794047D02*
X119971435Y-91817857D01*
X119971435Y-91817857D02*
X120257149Y-92103571D01*
X120257149Y-92103571D02*
X120257149Y-91794047D01*
X155371666Y-51057149D02*
X155205000Y-50819054D01*
X155085952Y-51057149D02*
X155085952Y-50557149D01*
X155085952Y-50557149D02*
X155276428Y-50557149D01*
X155276428Y-50557149D02*
X155324047Y-50580959D01*
X155324047Y-50580959D02*
X155347857Y-50604768D01*
X155347857Y-50604768D02*
X155371666Y-50652387D01*
X155371666Y-50652387D02*
X155371666Y-50723816D01*
X155371666Y-50723816D02*
X155347857Y-50771435D01*
X155347857Y-50771435D02*
X155324047Y-50795244D01*
X155324047Y-50795244D02*
X155276428Y-50819054D01*
X155276428Y-50819054D02*
X155085952Y-50819054D01*
X155847857Y-51057149D02*
X155562143Y-51057149D01*
X155705000Y-51057149D02*
X155705000Y-50557149D01*
X155705000Y-50557149D02*
X155657381Y-50628578D01*
X155657381Y-50628578D02*
X155609762Y-50676197D01*
X155609762Y-50676197D02*
X155562143Y-50700006D01*
X121669571Y-72951949D02*
X121502905Y-72713854D01*
X121383857Y-72951949D02*
X121383857Y-72451949D01*
X121383857Y-72451949D02*
X121574333Y-72451949D01*
X121574333Y-72451949D02*
X121621952Y-72475759D01*
X121621952Y-72475759D02*
X121645762Y-72499568D01*
X121645762Y-72499568D02*
X121669571Y-72547187D01*
X121669571Y-72547187D02*
X121669571Y-72618616D01*
X121669571Y-72618616D02*
X121645762Y-72666235D01*
X121645762Y-72666235D02*
X121621952Y-72690044D01*
X121621952Y-72690044D02*
X121574333Y-72713854D01*
X121574333Y-72713854D02*
X121383857Y-72713854D01*
X122145762Y-72951949D02*
X121860048Y-72951949D01*
X122002905Y-72951949D02*
X122002905Y-72451949D01*
X122002905Y-72451949D02*
X121955286Y-72523378D01*
X121955286Y-72523378D02*
X121907667Y-72570997D01*
X121907667Y-72570997D02*
X121860048Y-72594806D01*
X122312428Y-72451949D02*
X122645761Y-72451949D01*
X122645761Y-72451949D02*
X122431476Y-72951949D01*
X161520770Y-82604350D02*
X161354104Y-82366255D01*
X161235056Y-82604350D02*
X161235056Y-82104350D01*
X161235056Y-82104350D02*
X161425532Y-82104350D01*
X161425532Y-82104350D02*
X161473151Y-82128160D01*
X161473151Y-82128160D02*
X161496961Y-82151969D01*
X161496961Y-82151969D02*
X161520770Y-82199588D01*
X161520770Y-82199588D02*
X161520770Y-82271017D01*
X161520770Y-82271017D02*
X161496961Y-82318636D01*
X161496961Y-82318636D02*
X161473151Y-82342445D01*
X161473151Y-82342445D02*
X161425532Y-82366255D01*
X161425532Y-82366255D02*
X161235056Y-82366255D01*
X161996961Y-82604350D02*
X161711247Y-82604350D01*
X161854104Y-82604350D02*
X161854104Y-82104350D01*
X161854104Y-82104350D02*
X161806485Y-82175779D01*
X161806485Y-82175779D02*
X161758866Y-82223398D01*
X161758866Y-82223398D02*
X161711247Y-82247207D01*
X162473151Y-82604350D02*
X162187437Y-82604350D01*
X162330294Y-82604350D02*
X162330294Y-82104350D01*
X162330294Y-82104350D02*
X162282675Y-82175779D01*
X162282675Y-82175779D02*
X162235056Y-82223398D01*
X162235056Y-82223398D02*
X162187437Y-82247207D01*
D10*
X129159095Y-72149619D02*
X129159095Y-72959142D01*
X129159095Y-72959142D02*
X129206714Y-73054380D01*
X129206714Y-73054380D02*
X129254333Y-73102000D01*
X129254333Y-73102000D02*
X129349571Y-73149619D01*
X129349571Y-73149619D02*
X129540047Y-73149619D01*
X129540047Y-73149619D02*
X129635285Y-73102000D01*
X129635285Y-73102000D02*
X129682904Y-73054380D01*
X129682904Y-73054380D02*
X129730523Y-72959142D01*
X129730523Y-72959142D02*
X129730523Y-72149619D01*
X130159095Y-72244857D02*
X130206714Y-72197238D01*
X130206714Y-72197238D02*
X130301952Y-72149619D01*
X130301952Y-72149619D02*
X130540047Y-72149619D01*
X130540047Y-72149619D02*
X130635285Y-72197238D01*
X130635285Y-72197238D02*
X130682904Y-72244857D01*
X130682904Y-72244857D02*
X130730523Y-72340095D01*
X130730523Y-72340095D02*
X130730523Y-72435333D01*
X130730523Y-72435333D02*
X130682904Y-72578190D01*
X130682904Y-72578190D02*
X130111476Y-73149619D01*
X130111476Y-73149619D02*
X130730523Y-73149619D01*
D11*
X121887466Y-54583149D02*
X121720800Y-54345054D01*
X121601752Y-54583149D02*
X121601752Y-54083149D01*
X121601752Y-54083149D02*
X121792228Y-54083149D01*
X121792228Y-54083149D02*
X121839847Y-54106959D01*
X121839847Y-54106959D02*
X121863657Y-54130768D01*
X121863657Y-54130768D02*
X121887466Y-54178387D01*
X121887466Y-54178387D02*
X121887466Y-54249816D01*
X121887466Y-54249816D02*
X121863657Y-54297435D01*
X121863657Y-54297435D02*
X121839847Y-54321244D01*
X121839847Y-54321244D02*
X121792228Y-54345054D01*
X121792228Y-54345054D02*
X121601752Y-54345054D01*
X122077943Y-54130768D02*
X122101752Y-54106959D01*
X122101752Y-54106959D02*
X122149371Y-54083149D01*
X122149371Y-54083149D02*
X122268419Y-54083149D01*
X122268419Y-54083149D02*
X122316038Y-54106959D01*
X122316038Y-54106959D02*
X122339847Y-54130768D01*
X122339847Y-54130768D02*
X122363657Y-54178387D01*
X122363657Y-54178387D02*
X122363657Y-54226006D01*
X122363657Y-54226006D02*
X122339847Y-54297435D01*
X122339847Y-54297435D02*
X122054133Y-54583149D01*
X122054133Y-54583149D02*
X122363657Y-54583149D01*
X165706366Y-113412730D02*
X165682557Y-113436540D01*
X165682557Y-113436540D02*
X165611128Y-113460349D01*
X165611128Y-113460349D02*
X165563509Y-113460349D01*
X165563509Y-113460349D02*
X165492081Y-113436540D01*
X165492081Y-113436540D02*
X165444462Y-113388920D01*
X165444462Y-113388920D02*
X165420652Y-113341301D01*
X165420652Y-113341301D02*
X165396843Y-113246063D01*
X165396843Y-113246063D02*
X165396843Y-113174635D01*
X165396843Y-113174635D02*
X165420652Y-113079397D01*
X165420652Y-113079397D02*
X165444462Y-113031778D01*
X165444462Y-113031778D02*
X165492081Y-112984159D01*
X165492081Y-112984159D02*
X165563509Y-112960349D01*
X165563509Y-112960349D02*
X165611128Y-112960349D01*
X165611128Y-112960349D02*
X165682557Y-112984159D01*
X165682557Y-112984159D02*
X165706366Y-113007968D01*
X165944462Y-113460349D02*
X166039700Y-113460349D01*
X166039700Y-113460349D02*
X166087319Y-113436540D01*
X166087319Y-113436540D02*
X166111128Y-113412730D01*
X166111128Y-113412730D02*
X166158747Y-113341301D01*
X166158747Y-113341301D02*
X166182557Y-113246063D01*
X166182557Y-113246063D02*
X166182557Y-113055587D01*
X166182557Y-113055587D02*
X166158747Y-113007968D01*
X166158747Y-113007968D02*
X166134938Y-112984159D01*
X166134938Y-112984159D02*
X166087319Y-112960349D01*
X166087319Y-112960349D02*
X165992081Y-112960349D01*
X165992081Y-112960349D02*
X165944462Y-112984159D01*
X165944462Y-112984159D02*
X165920652Y-113007968D01*
X165920652Y-113007968D02*
X165896843Y-113055587D01*
X165896843Y-113055587D02*
X165896843Y-113174635D01*
X165896843Y-113174635D02*
X165920652Y-113222254D01*
X165920652Y-113222254D02*
X165944462Y-113246063D01*
X165944462Y-113246063D02*
X165992081Y-113269873D01*
X165992081Y-113269873D02*
X166087319Y-113269873D01*
X166087319Y-113269873D02*
X166134938Y-113246063D01*
X166134938Y-113246063D02*
X166158747Y-113222254D01*
X166158747Y-113222254D02*
X166182557Y-113174635D01*
D10*
X109829695Y-48613219D02*
X109829695Y-47613219D01*
X109829695Y-48089409D02*
X110401123Y-48089409D01*
X110401123Y-48613219D02*
X110401123Y-47613219D01*
X111401123Y-48613219D02*
X110829695Y-48613219D01*
X111115409Y-48613219D02*
X111115409Y-47613219D01*
X111115409Y-47613219D02*
X111020171Y-47756076D01*
X111020171Y-47756076D02*
X110924933Y-47851314D01*
X110924933Y-47851314D02*
X110829695Y-47898933D01*
D11*
X162536071Y-103499530D02*
X162512262Y-103523340D01*
X162512262Y-103523340D02*
X162440833Y-103547149D01*
X162440833Y-103547149D02*
X162393214Y-103547149D01*
X162393214Y-103547149D02*
X162321786Y-103523340D01*
X162321786Y-103523340D02*
X162274167Y-103475720D01*
X162274167Y-103475720D02*
X162250357Y-103428101D01*
X162250357Y-103428101D02*
X162226548Y-103332863D01*
X162226548Y-103332863D02*
X162226548Y-103261435D01*
X162226548Y-103261435D02*
X162250357Y-103166197D01*
X162250357Y-103166197D02*
X162274167Y-103118578D01*
X162274167Y-103118578D02*
X162321786Y-103070959D01*
X162321786Y-103070959D02*
X162393214Y-103047149D01*
X162393214Y-103047149D02*
X162440833Y-103047149D01*
X162440833Y-103047149D02*
X162512262Y-103070959D01*
X162512262Y-103070959D02*
X162536071Y-103094768D01*
X163012262Y-103547149D02*
X162726548Y-103547149D01*
X162869405Y-103547149D02*
X162869405Y-103047149D01*
X162869405Y-103047149D02*
X162821786Y-103118578D01*
X162821786Y-103118578D02*
X162774167Y-103166197D01*
X162774167Y-103166197D02*
X162726548Y-103190006D01*
X163202738Y-103094768D02*
X163226547Y-103070959D01*
X163226547Y-103070959D02*
X163274166Y-103047149D01*
X163274166Y-103047149D02*
X163393214Y-103047149D01*
X163393214Y-103047149D02*
X163440833Y-103070959D01*
X163440833Y-103070959D02*
X163464642Y-103094768D01*
X163464642Y-103094768D02*
X163488452Y-103142387D01*
X163488452Y-103142387D02*
X163488452Y-103190006D01*
X163488452Y-103190006D02*
X163464642Y-103261435D01*
X163464642Y-103261435D02*
X163178928Y-103547149D01*
X163178928Y-103547149D02*
X163488452Y-103547149D01*
X121659571Y-75091949D02*
X121492905Y-74853854D01*
X121373857Y-75091949D02*
X121373857Y-74591949D01*
X121373857Y-74591949D02*
X121564333Y-74591949D01*
X121564333Y-74591949D02*
X121611952Y-74615759D01*
X121611952Y-74615759D02*
X121635762Y-74639568D01*
X121635762Y-74639568D02*
X121659571Y-74687187D01*
X121659571Y-74687187D02*
X121659571Y-74758616D01*
X121659571Y-74758616D02*
X121635762Y-74806235D01*
X121635762Y-74806235D02*
X121611952Y-74830044D01*
X121611952Y-74830044D02*
X121564333Y-74853854D01*
X121564333Y-74853854D02*
X121373857Y-74853854D01*
X121850048Y-74639568D02*
X121873857Y-74615759D01*
X121873857Y-74615759D02*
X121921476Y-74591949D01*
X121921476Y-74591949D02*
X122040524Y-74591949D01*
X122040524Y-74591949D02*
X122088143Y-74615759D01*
X122088143Y-74615759D02*
X122111952Y-74639568D01*
X122111952Y-74639568D02*
X122135762Y-74687187D01*
X122135762Y-74687187D02*
X122135762Y-74734806D01*
X122135762Y-74734806D02*
X122111952Y-74806235D01*
X122111952Y-74806235D02*
X121826238Y-75091949D01*
X121826238Y-75091949D02*
X122135762Y-75091949D01*
X122611952Y-75091949D02*
X122326238Y-75091949D01*
X122469095Y-75091949D02*
X122469095Y-74591949D01*
X122469095Y-74591949D02*
X122421476Y-74663378D01*
X122421476Y-74663378D02*
X122373857Y-74710997D01*
X122373857Y-74710997D02*
X122326238Y-74734806D01*
X162772066Y-100963549D02*
X162605400Y-100725454D01*
X162486352Y-100963549D02*
X162486352Y-100463549D01*
X162486352Y-100463549D02*
X162676828Y-100463549D01*
X162676828Y-100463549D02*
X162724447Y-100487359D01*
X162724447Y-100487359D02*
X162748257Y-100511168D01*
X162748257Y-100511168D02*
X162772066Y-100558787D01*
X162772066Y-100558787D02*
X162772066Y-100630216D01*
X162772066Y-100630216D02*
X162748257Y-100677835D01*
X162748257Y-100677835D02*
X162724447Y-100701644D01*
X162724447Y-100701644D02*
X162676828Y-100725454D01*
X162676828Y-100725454D02*
X162486352Y-100725454D01*
X163200638Y-100463549D02*
X163105400Y-100463549D01*
X163105400Y-100463549D02*
X163057781Y-100487359D01*
X163057781Y-100487359D02*
X163033971Y-100511168D01*
X163033971Y-100511168D02*
X162986352Y-100582597D01*
X162986352Y-100582597D02*
X162962543Y-100677835D01*
X162962543Y-100677835D02*
X162962543Y-100868311D01*
X162962543Y-100868311D02*
X162986352Y-100915930D01*
X162986352Y-100915930D02*
X163010162Y-100939740D01*
X163010162Y-100939740D02*
X163057781Y-100963549D01*
X163057781Y-100963549D02*
X163153019Y-100963549D01*
X163153019Y-100963549D02*
X163200638Y-100939740D01*
X163200638Y-100939740D02*
X163224447Y-100915930D01*
X163224447Y-100915930D02*
X163248257Y-100868311D01*
X163248257Y-100868311D02*
X163248257Y-100749263D01*
X163248257Y-100749263D02*
X163224447Y-100701644D01*
X163224447Y-100701644D02*
X163200638Y-100677835D01*
X163200638Y-100677835D02*
X163153019Y-100654025D01*
X163153019Y-100654025D02*
X163057781Y-100654025D01*
X163057781Y-100654025D02*
X163010162Y-100677835D01*
X163010162Y-100677835D02*
X162986352Y-100701644D01*
X162986352Y-100701644D02*
X162962543Y-100749263D01*
X136974571Y-77166830D02*
X136950762Y-77190640D01*
X136950762Y-77190640D02*
X136879333Y-77214449D01*
X136879333Y-77214449D02*
X136831714Y-77214449D01*
X136831714Y-77214449D02*
X136760286Y-77190640D01*
X136760286Y-77190640D02*
X136712667Y-77143020D01*
X136712667Y-77143020D02*
X136688857Y-77095401D01*
X136688857Y-77095401D02*
X136665048Y-77000163D01*
X136665048Y-77000163D02*
X136665048Y-76928735D01*
X136665048Y-76928735D02*
X136688857Y-76833497D01*
X136688857Y-76833497D02*
X136712667Y-76785878D01*
X136712667Y-76785878D02*
X136760286Y-76738259D01*
X136760286Y-76738259D02*
X136831714Y-76714449D01*
X136831714Y-76714449D02*
X136879333Y-76714449D01*
X136879333Y-76714449D02*
X136950762Y-76738259D01*
X136950762Y-76738259D02*
X136974571Y-76762068D01*
X137165048Y-76762068D02*
X137188857Y-76738259D01*
X137188857Y-76738259D02*
X137236476Y-76714449D01*
X137236476Y-76714449D02*
X137355524Y-76714449D01*
X137355524Y-76714449D02*
X137403143Y-76738259D01*
X137403143Y-76738259D02*
X137426952Y-76762068D01*
X137426952Y-76762068D02*
X137450762Y-76809687D01*
X137450762Y-76809687D02*
X137450762Y-76857306D01*
X137450762Y-76857306D02*
X137426952Y-76928735D01*
X137426952Y-76928735D02*
X137141238Y-77214449D01*
X137141238Y-77214449D02*
X137450762Y-77214449D01*
X137879333Y-76881116D02*
X137879333Y-77214449D01*
X137760285Y-76690640D02*
X137641238Y-77047782D01*
X137641238Y-77047782D02*
X137950761Y-77047782D01*
X161439166Y-114657330D02*
X161415357Y-114681140D01*
X161415357Y-114681140D02*
X161343928Y-114704949D01*
X161343928Y-114704949D02*
X161296309Y-114704949D01*
X161296309Y-114704949D02*
X161224881Y-114681140D01*
X161224881Y-114681140D02*
X161177262Y-114633520D01*
X161177262Y-114633520D02*
X161153452Y-114585901D01*
X161153452Y-114585901D02*
X161129643Y-114490663D01*
X161129643Y-114490663D02*
X161129643Y-114419235D01*
X161129643Y-114419235D02*
X161153452Y-114323997D01*
X161153452Y-114323997D02*
X161177262Y-114276378D01*
X161177262Y-114276378D02*
X161224881Y-114228759D01*
X161224881Y-114228759D02*
X161296309Y-114204949D01*
X161296309Y-114204949D02*
X161343928Y-114204949D01*
X161343928Y-114204949D02*
X161415357Y-114228759D01*
X161415357Y-114228759D02*
X161439166Y-114252568D01*
X161724881Y-114419235D02*
X161677262Y-114395425D01*
X161677262Y-114395425D02*
X161653452Y-114371616D01*
X161653452Y-114371616D02*
X161629643Y-114323997D01*
X161629643Y-114323997D02*
X161629643Y-114300187D01*
X161629643Y-114300187D02*
X161653452Y-114252568D01*
X161653452Y-114252568D02*
X161677262Y-114228759D01*
X161677262Y-114228759D02*
X161724881Y-114204949D01*
X161724881Y-114204949D02*
X161820119Y-114204949D01*
X161820119Y-114204949D02*
X161867738Y-114228759D01*
X161867738Y-114228759D02*
X161891547Y-114252568D01*
X161891547Y-114252568D02*
X161915357Y-114300187D01*
X161915357Y-114300187D02*
X161915357Y-114323997D01*
X161915357Y-114323997D02*
X161891547Y-114371616D01*
X161891547Y-114371616D02*
X161867738Y-114395425D01*
X161867738Y-114395425D02*
X161820119Y-114419235D01*
X161820119Y-114419235D02*
X161724881Y-114419235D01*
X161724881Y-114419235D02*
X161677262Y-114443044D01*
X161677262Y-114443044D02*
X161653452Y-114466854D01*
X161653452Y-114466854D02*
X161629643Y-114514473D01*
X161629643Y-114514473D02*
X161629643Y-114609711D01*
X161629643Y-114609711D02*
X161653452Y-114657330D01*
X161653452Y-114657330D02*
X161677262Y-114681140D01*
X161677262Y-114681140D02*
X161724881Y-114704949D01*
X161724881Y-114704949D02*
X161820119Y-114704949D01*
X161820119Y-114704949D02*
X161867738Y-114681140D01*
X161867738Y-114681140D02*
X161891547Y-114657330D01*
X161891547Y-114657330D02*
X161915357Y-114609711D01*
X161915357Y-114609711D02*
X161915357Y-114514473D01*
X161915357Y-114514473D02*
X161891547Y-114466854D01*
X161891547Y-114466854D02*
X161867738Y-114443044D01*
X161867738Y-114443044D02*
X161820119Y-114419235D01*
X154359530Y-47730833D02*
X154383340Y-47754642D01*
X154383340Y-47754642D02*
X154407149Y-47826071D01*
X154407149Y-47826071D02*
X154407149Y-47873690D01*
X154407149Y-47873690D02*
X154383340Y-47945118D01*
X154383340Y-47945118D02*
X154335720Y-47992737D01*
X154335720Y-47992737D02*
X154288101Y-48016547D01*
X154288101Y-48016547D02*
X154192863Y-48040356D01*
X154192863Y-48040356D02*
X154121435Y-48040356D01*
X154121435Y-48040356D02*
X154026197Y-48016547D01*
X154026197Y-48016547D02*
X153978578Y-47992737D01*
X153978578Y-47992737D02*
X153930959Y-47945118D01*
X153930959Y-47945118D02*
X153907149Y-47873690D01*
X153907149Y-47873690D02*
X153907149Y-47826071D01*
X153907149Y-47826071D02*
X153930959Y-47754642D01*
X153930959Y-47754642D02*
X153954768Y-47730833D01*
X154407149Y-47254642D02*
X154407149Y-47540356D01*
X154407149Y-47397499D02*
X153907149Y-47397499D01*
X153907149Y-47397499D02*
X153978578Y-47445118D01*
X153978578Y-47445118D02*
X154026197Y-47492737D01*
X154026197Y-47492737D02*
X154050006Y-47540356D01*
X136591071Y-102709530D02*
X136567262Y-102733340D01*
X136567262Y-102733340D02*
X136495833Y-102757149D01*
X136495833Y-102757149D02*
X136448214Y-102757149D01*
X136448214Y-102757149D02*
X136376786Y-102733340D01*
X136376786Y-102733340D02*
X136329167Y-102685720D01*
X136329167Y-102685720D02*
X136305357Y-102638101D01*
X136305357Y-102638101D02*
X136281548Y-102542863D01*
X136281548Y-102542863D02*
X136281548Y-102471435D01*
X136281548Y-102471435D02*
X136305357Y-102376197D01*
X136305357Y-102376197D02*
X136329167Y-102328578D01*
X136329167Y-102328578D02*
X136376786Y-102280959D01*
X136376786Y-102280959D02*
X136448214Y-102257149D01*
X136448214Y-102257149D02*
X136495833Y-102257149D01*
X136495833Y-102257149D02*
X136567262Y-102280959D01*
X136567262Y-102280959D02*
X136591071Y-102304768D01*
X136781548Y-102304768D02*
X136805357Y-102280959D01*
X136805357Y-102280959D02*
X136852976Y-102257149D01*
X136852976Y-102257149D02*
X136972024Y-102257149D01*
X136972024Y-102257149D02*
X137019643Y-102280959D01*
X137019643Y-102280959D02*
X137043452Y-102304768D01*
X137043452Y-102304768D02*
X137067262Y-102352387D01*
X137067262Y-102352387D02*
X137067262Y-102400006D01*
X137067262Y-102400006D02*
X137043452Y-102471435D01*
X137043452Y-102471435D02*
X136757738Y-102757149D01*
X136757738Y-102757149D02*
X137067262Y-102757149D01*
X137233928Y-102257149D02*
X137543452Y-102257149D01*
X137543452Y-102257149D02*
X137376785Y-102447625D01*
X137376785Y-102447625D02*
X137448214Y-102447625D01*
X137448214Y-102447625D02*
X137495833Y-102471435D01*
X137495833Y-102471435D02*
X137519642Y-102495244D01*
X137519642Y-102495244D02*
X137543452Y-102542863D01*
X137543452Y-102542863D02*
X137543452Y-102661911D01*
X137543452Y-102661911D02*
X137519642Y-102709530D01*
X137519642Y-102709530D02*
X137495833Y-102733340D01*
X137495833Y-102733340D02*
X137448214Y-102757149D01*
X137448214Y-102757149D02*
X137305357Y-102757149D01*
X137305357Y-102757149D02*
X137257738Y-102733340D01*
X137257738Y-102733340D02*
X137233928Y-102709530D01*
X124949530Y-92763928D02*
X124973340Y-92787737D01*
X124973340Y-92787737D02*
X124997149Y-92859166D01*
X124997149Y-92859166D02*
X124997149Y-92906785D01*
X124997149Y-92906785D02*
X124973340Y-92978213D01*
X124973340Y-92978213D02*
X124925720Y-93025832D01*
X124925720Y-93025832D02*
X124878101Y-93049642D01*
X124878101Y-93049642D02*
X124782863Y-93073451D01*
X124782863Y-93073451D02*
X124711435Y-93073451D01*
X124711435Y-93073451D02*
X124616197Y-93049642D01*
X124616197Y-93049642D02*
X124568578Y-93025832D01*
X124568578Y-93025832D02*
X124520959Y-92978213D01*
X124520959Y-92978213D02*
X124497149Y-92906785D01*
X124497149Y-92906785D02*
X124497149Y-92859166D01*
X124497149Y-92859166D02*
X124520959Y-92787737D01*
X124520959Y-92787737D02*
X124544768Y-92763928D01*
X124997149Y-92287737D02*
X124997149Y-92573451D01*
X124997149Y-92430594D02*
X124497149Y-92430594D01*
X124497149Y-92430594D02*
X124568578Y-92478213D01*
X124568578Y-92478213D02*
X124616197Y-92525832D01*
X124616197Y-92525832D02*
X124640006Y-92573451D01*
X124711435Y-92002023D02*
X124687625Y-92049642D01*
X124687625Y-92049642D02*
X124663816Y-92073452D01*
X124663816Y-92073452D02*
X124616197Y-92097261D01*
X124616197Y-92097261D02*
X124592387Y-92097261D01*
X124592387Y-92097261D02*
X124544768Y-92073452D01*
X124544768Y-92073452D02*
X124520959Y-92049642D01*
X124520959Y-92049642D02*
X124497149Y-92002023D01*
X124497149Y-92002023D02*
X124497149Y-91906785D01*
X124497149Y-91906785D02*
X124520959Y-91859166D01*
X124520959Y-91859166D02*
X124544768Y-91835357D01*
X124544768Y-91835357D02*
X124592387Y-91811547D01*
X124592387Y-91811547D02*
X124616197Y-91811547D01*
X124616197Y-91811547D02*
X124663816Y-91835357D01*
X124663816Y-91835357D02*
X124687625Y-91859166D01*
X124687625Y-91859166D02*
X124711435Y-91906785D01*
X124711435Y-91906785D02*
X124711435Y-92002023D01*
X124711435Y-92002023D02*
X124735244Y-92049642D01*
X124735244Y-92049642D02*
X124759054Y-92073452D01*
X124759054Y-92073452D02*
X124806673Y-92097261D01*
X124806673Y-92097261D02*
X124901911Y-92097261D01*
X124901911Y-92097261D02*
X124949530Y-92073452D01*
X124949530Y-92073452D02*
X124973340Y-92049642D01*
X124973340Y-92049642D02*
X124997149Y-92002023D01*
X124997149Y-92002023D02*
X124997149Y-91906785D01*
X124997149Y-91906785D02*
X124973340Y-91859166D01*
X124973340Y-91859166D02*
X124949530Y-91835357D01*
X124949530Y-91835357D02*
X124901911Y-91811547D01*
X124901911Y-91811547D02*
X124806673Y-91811547D01*
X124806673Y-91811547D02*
X124759054Y-91835357D01*
X124759054Y-91835357D02*
X124735244Y-91859166D01*
X124735244Y-91859166D02*
X124711435Y-91906785D01*
X157478549Y-106306133D02*
X157240454Y-106472799D01*
X157478549Y-106591847D02*
X156978549Y-106591847D01*
X156978549Y-106591847D02*
X156978549Y-106401371D01*
X156978549Y-106401371D02*
X157002359Y-106353752D01*
X157002359Y-106353752D02*
X157026168Y-106329942D01*
X157026168Y-106329942D02*
X157073787Y-106306133D01*
X157073787Y-106306133D02*
X157145216Y-106306133D01*
X157145216Y-106306133D02*
X157192835Y-106329942D01*
X157192835Y-106329942D02*
X157216644Y-106353752D01*
X157216644Y-106353752D02*
X157240454Y-106401371D01*
X157240454Y-106401371D02*
X157240454Y-106591847D01*
X156978549Y-106139466D02*
X156978549Y-105806133D01*
X156978549Y-105806133D02*
X157478549Y-106020418D01*
X121649571Y-70821949D02*
X121482905Y-70583854D01*
X121363857Y-70821949D02*
X121363857Y-70321949D01*
X121363857Y-70321949D02*
X121554333Y-70321949D01*
X121554333Y-70321949D02*
X121601952Y-70345759D01*
X121601952Y-70345759D02*
X121625762Y-70369568D01*
X121625762Y-70369568D02*
X121649571Y-70417187D01*
X121649571Y-70417187D02*
X121649571Y-70488616D01*
X121649571Y-70488616D02*
X121625762Y-70536235D01*
X121625762Y-70536235D02*
X121601952Y-70560044D01*
X121601952Y-70560044D02*
X121554333Y-70583854D01*
X121554333Y-70583854D02*
X121363857Y-70583854D01*
X122125762Y-70821949D02*
X121840048Y-70821949D01*
X121982905Y-70821949D02*
X121982905Y-70321949D01*
X121982905Y-70321949D02*
X121935286Y-70393378D01*
X121935286Y-70393378D02*
X121887667Y-70440997D01*
X121887667Y-70440997D02*
X121840048Y-70464806D01*
X122554333Y-70321949D02*
X122459095Y-70321949D01*
X122459095Y-70321949D02*
X122411476Y-70345759D01*
X122411476Y-70345759D02*
X122387666Y-70369568D01*
X122387666Y-70369568D02*
X122340047Y-70440997D01*
X122340047Y-70440997D02*
X122316238Y-70536235D01*
X122316238Y-70536235D02*
X122316238Y-70726711D01*
X122316238Y-70726711D02*
X122340047Y-70774330D01*
X122340047Y-70774330D02*
X122363857Y-70798140D01*
X122363857Y-70798140D02*
X122411476Y-70821949D01*
X122411476Y-70821949D02*
X122506714Y-70821949D01*
X122506714Y-70821949D02*
X122554333Y-70798140D01*
X122554333Y-70798140D02*
X122578142Y-70774330D01*
X122578142Y-70774330D02*
X122601952Y-70726711D01*
X122601952Y-70726711D02*
X122601952Y-70607663D01*
X122601952Y-70607663D02*
X122578142Y-70560044D01*
X122578142Y-70560044D02*
X122554333Y-70536235D01*
X122554333Y-70536235D02*
X122506714Y-70512425D01*
X122506714Y-70512425D02*
X122411476Y-70512425D01*
X122411476Y-70512425D02*
X122363857Y-70536235D01*
X122363857Y-70536235D02*
X122340047Y-70560044D01*
X122340047Y-70560044D02*
X122316238Y-70607663D01*
D10*
X194039905Y-126346429D02*
X194039905Y-125346429D01*
X194039905Y-125822619D02*
X194611333Y-125822619D01*
X194611333Y-126346429D02*
X194611333Y-125346429D01*
X195516095Y-125679762D02*
X195516095Y-126346429D01*
X195278000Y-125298810D02*
X195039905Y-126013095D01*
X195039905Y-126013095D02*
X195658952Y-126013095D01*
X194065305Y-48647829D02*
X194065305Y-47647829D01*
X194065305Y-48124019D02*
X194636733Y-48124019D01*
X194636733Y-48647829D02*
X194636733Y-47647829D01*
X195065305Y-47743067D02*
X195112924Y-47695448D01*
X195112924Y-47695448D02*
X195208162Y-47647829D01*
X195208162Y-47647829D02*
X195446257Y-47647829D01*
X195446257Y-47647829D02*
X195541495Y-47695448D01*
X195541495Y-47695448D02*
X195589114Y-47743067D01*
X195589114Y-47743067D02*
X195636733Y-47838305D01*
X195636733Y-47838305D02*
X195636733Y-47933543D01*
X195636733Y-47933543D02*
X195589114Y-48076400D01*
X195589114Y-48076400D02*
X195017686Y-48647829D01*
X195017686Y-48647829D02*
X195636733Y-48647829D01*
X109916495Y-126235619D02*
X109916495Y-125235619D01*
X109916495Y-125711809D02*
X110487923Y-125711809D01*
X110487923Y-126235619D02*
X110487923Y-125235619D01*
X110868876Y-125235619D02*
X111487923Y-125235619D01*
X111487923Y-125235619D02*
X111154590Y-125616571D01*
X111154590Y-125616571D02*
X111297447Y-125616571D01*
X111297447Y-125616571D02*
X111392685Y-125664190D01*
X111392685Y-125664190D02*
X111440304Y-125711809D01*
X111440304Y-125711809D02*
X111487923Y-125807047D01*
X111487923Y-125807047D02*
X111487923Y-126045142D01*
X111487923Y-126045142D02*
X111440304Y-126140380D01*
X111440304Y-126140380D02*
X111392685Y-126188000D01*
X111392685Y-126188000D02*
X111297447Y-126235619D01*
X111297447Y-126235619D02*
X111011733Y-126235619D01*
X111011733Y-126235619D02*
X110916495Y-126188000D01*
X110916495Y-126188000D02*
X110868876Y-126140380D01*
D12*
X111576950Y-109288200D02*
X112076950Y-108788200D01*
X111576950Y-118948200D02*
X111576950Y-109288200D01*
X112076950Y-108788200D02*
X112076950Y-118948200D01*
X112076950Y-108788200D02*
X122776950Y-108788200D01*
X114576950Y-108788200D02*
X114576950Y-118948200D01*
X118149950Y-112845200D02*
X115359950Y-110055200D01*
X118149950Y-117925200D02*
X115359950Y-115135200D01*
X118393950Y-112601200D02*
X115603950Y-109811200D01*
X118393950Y-117681200D02*
X115603950Y-114891200D01*
X120776950Y-108788200D02*
X120776950Y-118948200D01*
X122776950Y-108788200D02*
X122776950Y-118948200D01*
X122776950Y-118948200D02*
X111576950Y-118948200D01*
X118876950Y-111328200D02*
G75*
G02*
X114876950Y-111328200I-2000000J0D01*
G01*
X114876950Y-111328200D02*
G75*
G02*
X118876950Y-111328200I2000000J0D01*
G01*
X118876950Y-116408200D02*
G75*
G02*
X114876950Y-116408200I-2000000J0D01*
G01*
X114876950Y-116408200D02*
G75*
G02*
X118876950Y-116408200I2000000J0D01*
G01*
D13*
X162712400Y-91694000D02*
X162712400Y-95402400D01*
X162712400Y-95402400D02*
X165709600Y-95402400D01*
X165709600Y-91694000D02*
X162712400Y-91694000D01*
X165709600Y-95402400D02*
X165709600Y-91694000D01*
D12*
X154190100Y-57871200D02*
X156190100Y-57871200D01*
X156190100Y-59121200D01*
X154190100Y-59121200D01*
X154190100Y-57871200D01*
X111871000Y-70804800D02*
X118371000Y-70804800D01*
X111871000Y-81464800D02*
X111871000Y-70804800D01*
X113471000Y-81464800D02*
X113471000Y-70804800D01*
X114213000Y-71688800D02*
X115607000Y-73082800D01*
X114213000Y-74228800D02*
X115607000Y-75622800D01*
X114213000Y-76768800D02*
X115607000Y-78162800D01*
X114213000Y-79308800D02*
X115607000Y-80702800D01*
X114335000Y-71566800D02*
X115729000Y-72960800D01*
X114335000Y-74106800D02*
X115729000Y-75500800D01*
X114335000Y-76646800D02*
X115729000Y-78040800D01*
X114335000Y-79186800D02*
X115729000Y-80580800D01*
X116571000Y-81464800D02*
X116571000Y-70804800D01*
X117571000Y-81464800D02*
X111871000Y-81464800D01*
X117571000Y-81464800D02*
X117571000Y-70804800D01*
X118371000Y-70804800D02*
X118371000Y-80664800D01*
X118371000Y-80664800D02*
X117571000Y-81464800D01*
X115971000Y-72324800D02*
G75*
G02*
X113971000Y-72324800I-1000000J0D01*
G01*
X113971000Y-72324800D02*
G75*
G02*
X115971000Y-72324800I1000000J0D01*
G01*
X115971000Y-74864800D02*
G75*
G02*
X113971000Y-74864800I-1000000J0D01*
G01*
X113971000Y-74864800D02*
G75*
G02*
X115971000Y-74864800I1000000J0D01*
G01*
X115971000Y-77404800D02*
G75*
G02*
X113971000Y-77404800I-1000000J0D01*
G01*
X113971000Y-77404800D02*
G75*
G02*
X115971000Y-77404800I1000000J0D01*
G01*
X115971000Y-79944800D02*
G75*
G02*
X113971000Y-79944800I-1000000J0D01*
G01*
X113971000Y-79944800D02*
G75*
G02*
X115971000Y-79944800I1000000J0D01*
G01*
X123040000Y-101925000D02*
X121040000Y-101925000D01*
X121040000Y-100675000D01*
X123040000Y-100675000D01*
X123040000Y-101925000D01*
X118534200Y-67719874D02*
X119784200Y-67719874D01*
X119784200Y-65719874D01*
X118534200Y-65719874D01*
X118534200Y-67719874D01*
X155715000Y-48647500D02*
X156965000Y-48647500D01*
X156965000Y-46647500D01*
X155715000Y-46647500D01*
X155715000Y-48647500D01*
X123110000Y-99595000D02*
X121110000Y-99595000D01*
X121110000Y-98345000D01*
X123110000Y-98345000D01*
X123110000Y-99595000D01*
X144421600Y-47707000D02*
X144421600Y-51607000D01*
X144421600Y-51607000D02*
X150421600Y-51607000D01*
X150421600Y-47707000D02*
X144421600Y-47707000D01*
X150421600Y-51607000D02*
X150421600Y-47707000D01*
X121072400Y-58506200D02*
X123072400Y-58506200D01*
X123072400Y-59756200D01*
X121072400Y-59756200D01*
X121072400Y-58506200D01*
X161817900Y-105166000D02*
X163817900Y-105166000D01*
X163817900Y-106416000D01*
X161817900Y-106416000D01*
X161817900Y-105166000D01*
X136343500Y-74112300D02*
X138343500Y-74112300D01*
X138343500Y-75362300D01*
X136343500Y-75362300D01*
X136343500Y-74112300D01*
D13*
X160435101Y-111001600D02*
X160435101Y-112297000D01*
X160435101Y-112297000D02*
X162644901Y-112297000D01*
X162644901Y-111001600D02*
X160435101Y-111001600D01*
X162644901Y-112297000D02*
X162644901Y-111001600D01*
X160435101Y-111344500D02*
G75*
G02*
X160435101Y-111954100I0J-304800D01*
G01*
X160866201Y-112093800D02*
G75*
G02*
X160713801Y-112093800I-76200J0D01*
G01*
X160713801Y-112093800D02*
G75*
G02*
X160866201Y-112093800I76200J0D01*
G01*
X126720600Y-59994800D02*
X126720600Y-66802000D01*
X126720600Y-61696600D02*
X128422400Y-59994800D01*
X126720600Y-65100200D02*
X128422400Y-66802000D01*
X126720600Y-66802000D02*
X133527800Y-66802000D01*
X133527800Y-59994800D02*
X126720600Y-59994800D01*
X133527800Y-66802000D02*
X133527800Y-59994800D01*
X127228601Y-63398400D02*
X127228601Y-63398400D01*
X127228601Y-63398400D01*
X127228601Y-63398400D01*
X127228601Y-63398400D01*
X127228601Y-63398400D01*
X127228601Y-63398401D01*
X127228601Y-63398401D01*
X127228601Y-63398401D01*
X127228601Y-63398401D01*
X127228601Y-63398401D01*
X127228601Y-63398401D01*
X127228601Y-63398401D01*
X127228600Y-63398401D01*
X127228600Y-63398401D01*
X127228600Y-63398401D01*
X127228600Y-63398401D01*
X127228600Y-63398401D01*
X127228600Y-63398401D01*
X127228600Y-63398401D01*
X127228600Y-63398401D01*
X127228600Y-63398401D01*
X127228600Y-63398401D01*
X127228600Y-63398401D01*
X127228600Y-63398401D01*
X127228599Y-63398401D01*
X127228599Y-63398401D01*
X127228599Y-63398401D01*
X127228599Y-63398401D01*
X127228599Y-63398401D01*
X127228599Y-63398401D01*
X127228599Y-63398400D01*
X127228599Y-63398400D01*
X127228599Y-63398400D01*
X127228599Y-63398400D01*
X127228599Y-63398400D01*
X127228599Y-63398400D01*
X127228599Y-63398400D02*
X127228599Y-63398400D01*
X127228599Y-63398400D01*
X127228599Y-63398400D01*
X127228599Y-63398400D01*
X127228599Y-63398400D01*
X127228599Y-63398400D01*
X127228599Y-63398399D01*
X127228599Y-63398399D01*
X127228599Y-63398399D01*
X127228599Y-63398399D01*
X127228599Y-63398399D01*
X127228600Y-63398399D01*
X127228600Y-63398399D01*
X127228600Y-63398399D01*
X127228600Y-63398399D01*
X127228600Y-63398399D01*
X127228600Y-63398399D01*
X127228600Y-63398399D01*
X127228600Y-63398399D01*
X127228600Y-63398399D01*
X127228600Y-63398399D01*
X127228600Y-63398399D01*
X127228600Y-63398399D01*
X127228601Y-63398399D01*
X127228601Y-63398399D01*
X127228601Y-63398399D01*
X127228601Y-63398399D01*
X127228601Y-63398399D01*
X127228601Y-63398399D01*
X127228601Y-63398400D01*
X127228601Y-63398400D01*
X127228601Y-63398400D01*
X127228601Y-63398400D01*
X127228601Y-63398400D01*
X127228601Y-63398400D01*
X127228601Y-63398400D01*
X143445950Y-101930650D02*
X143445950Y-111582650D01*
X143445950Y-111582650D02*
X154113950Y-111582650D01*
X145744650Y-97358650D02*
X145744650Y-101930650D01*
X145744650Y-101930650D02*
X146735250Y-101930650D01*
X146735250Y-97358650D02*
X145744650Y-97358650D01*
X146735250Y-101930650D02*
X146735250Y-97358650D01*
X148284650Y-100152650D02*
X148284650Y-101930650D01*
X148284650Y-101930650D02*
X149275250Y-101930650D01*
X149275250Y-100152650D02*
X148284650Y-100152650D01*
X149275250Y-101930650D02*
X149275250Y-100152650D01*
X150824650Y-97358650D02*
X150824650Y-101930650D01*
X150824650Y-101930650D02*
X151815250Y-101930650D01*
X151815250Y-97358650D02*
X150824650Y-97358650D01*
X151815250Y-101930650D02*
X151815250Y-97358650D01*
X154113950Y-101930650D02*
X143445950Y-101930650D01*
X154113950Y-111582650D02*
X154113950Y-101930650D01*
D12*
X177400000Y-111110000D02*
X188600000Y-111110000D01*
X177400000Y-121270000D02*
X177400000Y-111110000D01*
X179400000Y-121270000D02*
X179400000Y-111110000D01*
X181783000Y-112377000D02*
X184573000Y-115167000D01*
X181783000Y-117457000D02*
X184573000Y-120247000D01*
X182027000Y-112133000D02*
X184817000Y-114923000D01*
X182027000Y-117213000D02*
X184817000Y-120003000D01*
X185600000Y-121270000D02*
X185600000Y-111110000D01*
X188100000Y-121270000D02*
X177400000Y-121270000D01*
X188100000Y-121270000D02*
X188100000Y-111110000D01*
X188600000Y-111110000D02*
X188600000Y-120770000D01*
X188600000Y-120770000D02*
X188100000Y-121270000D01*
X185300000Y-113650000D02*
G75*
G02*
X181300000Y-113650000I-2000000J0D01*
G01*
X181300000Y-113650000D02*
G75*
G02*
X185300000Y-113650000I2000000J0D01*
G01*
X185300000Y-118730000D02*
G75*
G02*
X181300000Y-118730000I-2000000J0D01*
G01*
X181300000Y-118730000D02*
G75*
G02*
X185300000Y-118730000I2000000J0D01*
G01*
D13*
X168757600Y-82752001D02*
X168757600Y-83260001D01*
X168757600Y-83260001D02*
X169303700Y-83260001D01*
X168757600Y-84582001D02*
X168757600Y-85090001D01*
X168757600Y-85090001D02*
X169303700Y-85090001D01*
X169303700Y-82422401D02*
X169303700Y-85419601D01*
X169303700Y-82752001D02*
X168757600Y-82752001D01*
X169303700Y-83260001D02*
X169303700Y-82752001D01*
X169303700Y-84582001D02*
X168757600Y-84582001D01*
X169303700Y-85090001D02*
X169303700Y-84582001D01*
X169303700Y-85419601D02*
X170700700Y-85419601D01*
X170700700Y-82422401D02*
X169303700Y-82422401D01*
X170700700Y-83667001D02*
X170700700Y-84175001D01*
X170700700Y-84175001D02*
X171246800Y-84175001D01*
X170700700Y-85419601D02*
X170700700Y-82422401D01*
X171246800Y-83667001D02*
X170700700Y-83667001D01*
X171246800Y-84175001D02*
X171246800Y-83667001D01*
X169684700Y-82676401D02*
G75*
G02*
X169430700Y-82676401I-127000J0D01*
G01*
X169430700Y-82676401D02*
G75*
G02*
X169684700Y-82676401I127000J0D01*
G01*
D12*
X115331400Y-65751200D02*
X114081400Y-65751200D01*
X114081400Y-67751200D01*
X115331400Y-67751200D01*
X115331400Y-65751200D01*
X118455600Y-91405200D02*
X117205600Y-91405200D01*
X117205600Y-93405200D01*
X118455600Y-93405200D01*
X118455600Y-91405200D01*
X183497500Y-46375000D02*
X189997500Y-46375000D01*
X183497500Y-54495000D02*
X183497500Y-46375000D01*
X185097500Y-54495000D02*
X185097500Y-46375000D01*
X185839500Y-47259000D02*
X187233500Y-48653000D01*
X185839500Y-49799000D02*
X187233500Y-51193000D01*
X185839500Y-52339000D02*
X187233500Y-53733000D01*
X185961500Y-47137000D02*
X187355500Y-48531000D01*
X185961500Y-49677000D02*
X187355500Y-51071000D01*
X185961500Y-52217000D02*
X187355500Y-53611000D01*
X188197500Y-54495000D02*
X188197500Y-46375000D01*
X189197500Y-54495000D02*
X183497500Y-54495000D01*
X189197500Y-54495000D02*
X189197500Y-46375000D01*
X189997500Y-46375000D02*
X189997500Y-53695000D01*
X189997500Y-53695000D02*
X189197500Y-54495000D01*
X187597500Y-47895000D02*
G75*
G02*
X185597500Y-47895000I-1000000J0D01*
G01*
X185597500Y-47895000D02*
G75*
G02*
X187597500Y-47895000I1000000J0D01*
G01*
X187597500Y-50435000D02*
G75*
G02*
X185597500Y-50435000I-1000000J0D01*
G01*
X185597500Y-50435000D02*
G75*
G02*
X187597500Y-50435000I1000000J0D01*
G01*
X187597500Y-52975000D02*
G75*
G02*
X185597500Y-52975000I-1000000J0D01*
G01*
X185597500Y-52975000D02*
G75*
G02*
X187597500Y-52975000I1000000J0D01*
G01*
X121715000Y-93432500D02*
X122965000Y-93432500D01*
X122965000Y-91432500D01*
X121715000Y-91432500D01*
X121715000Y-93432500D01*
X164598600Y-109992000D02*
X166598600Y-109992000D01*
X166598600Y-111242000D01*
X164598600Y-111242000D01*
X164598600Y-109992000D01*
X124756000Y-65734800D02*
X123506000Y-65734800D01*
X123506000Y-67734800D01*
X124756000Y-67734800D01*
X124756000Y-65734800D01*
X154194000Y-55610600D02*
X156194000Y-55610600D01*
X156194000Y-56860600D01*
X154194000Y-56860600D01*
X154194000Y-55610600D01*
X160235000Y-100612500D02*
X158985000Y-100612500D01*
X158985000Y-102612500D01*
X160235000Y-102612500D01*
X160235000Y-100612500D01*
X114078200Y-53327000D02*
X106728200Y-53327000D01*
X106728200Y-62267000D01*
X114078200Y-62267000D01*
X114078200Y-53327000D01*
X123060000Y-97375000D02*
X121060000Y-97375000D01*
X121060000Y-96125000D01*
X123060000Y-96125000D01*
X123060000Y-97375000D01*
X123060000Y-104075000D02*
X121060000Y-104075000D01*
X121060000Y-102825000D01*
X123060000Y-102825000D01*
X123060000Y-104075000D01*
X156377500Y-53645000D02*
X154377500Y-53645000D01*
X154377500Y-52395000D01*
X156377500Y-52395000D01*
X156377500Y-53645000D01*
X160560000Y-118348600D02*
X162560000Y-118348600D01*
X162560000Y-119598600D01*
X160560000Y-119598600D01*
X160560000Y-118348600D01*
X144447000Y-54488800D02*
X144447000Y-58388800D01*
X144447000Y-58388800D02*
X150447000Y-58388800D01*
X150447000Y-54488800D02*
X144447000Y-54488800D01*
X150447000Y-58388800D02*
X150447000Y-54488800D01*
D13*
X127058000Y-94002526D02*
X127058000Y-94307326D01*
X127058000Y-94307326D02*
X128112100Y-94307326D01*
X127058000Y-94652537D02*
X127058000Y-94957337D01*
X127058000Y-94957337D02*
X128112100Y-94957337D01*
X127058000Y-95302549D02*
X127058000Y-95607349D01*
X127058000Y-95607349D02*
X128112100Y-95607349D01*
X127058000Y-95952560D02*
X127058000Y-96257360D01*
X127058000Y-96257360D02*
X128112100Y-96257360D01*
X127058000Y-96602571D02*
X127058000Y-96907371D01*
X127058000Y-96907371D02*
X128112100Y-96907371D01*
X127058000Y-97252583D02*
X127058000Y-97557383D01*
X127058000Y-97557383D02*
X128112100Y-97557383D01*
X127058000Y-97902594D02*
X127058000Y-98207394D01*
X127058000Y-98207394D02*
X128112100Y-98207394D01*
X127058000Y-98552606D02*
X127058000Y-98857406D01*
X127058000Y-98857406D02*
X128112100Y-98857406D01*
X127058000Y-99202617D02*
X127058000Y-99507417D01*
X127058000Y-99507417D02*
X128112100Y-99507417D01*
X127058000Y-99852628D02*
X127058000Y-100157428D01*
X127058000Y-100157428D02*
X128112100Y-100157428D01*
X127058000Y-100502640D02*
X127058000Y-100807440D01*
X127058000Y-100807440D02*
X128112100Y-100807440D01*
X127058000Y-101152651D02*
X127058000Y-101457451D01*
X127058000Y-101457451D02*
X128112100Y-101457451D01*
X127058000Y-101802662D02*
X127058000Y-102107462D01*
X127058000Y-102107462D02*
X128112100Y-102107462D01*
X127058000Y-102452674D02*
X127058000Y-102757474D01*
X127058000Y-102757474D02*
X128112100Y-102757474D01*
X128112100Y-93479997D02*
X128112100Y-103280003D01*
X128112100Y-94002526D02*
X127058000Y-94002526D01*
X128112100Y-94307326D02*
X128112100Y-94002526D01*
X128112100Y-94652537D02*
X127058000Y-94652537D01*
X128112100Y-94957337D02*
X128112100Y-94652537D01*
X128112100Y-95302549D02*
X127058000Y-95302549D01*
X128112100Y-95607349D02*
X128112100Y-95302549D01*
X128112100Y-95952560D02*
X127058000Y-95952560D01*
X128112100Y-96257360D02*
X128112100Y-95952560D01*
X128112100Y-96602571D02*
X127058000Y-96602571D01*
X128112100Y-96907371D02*
X128112100Y-96602571D01*
X128112100Y-97252583D02*
X127058000Y-97252583D01*
X128112100Y-97557383D02*
X128112100Y-97252583D01*
X128112100Y-97902594D02*
X127058000Y-97902594D01*
X128112100Y-98207394D02*
X128112100Y-97902594D01*
X128112100Y-98552606D02*
X127058000Y-98552606D01*
X128112100Y-98857406D02*
X128112100Y-98552606D01*
X128112100Y-99202617D02*
X127058000Y-99202617D01*
X128112100Y-99507417D02*
X128112100Y-99202617D01*
X128112100Y-99852628D02*
X127058000Y-99852628D01*
X128112100Y-100157428D02*
X128112100Y-99852628D01*
X128112100Y-100502640D02*
X127058000Y-100502640D01*
X128112100Y-100807440D02*
X128112100Y-100502640D01*
X128112100Y-101152651D02*
X127058000Y-101152651D01*
X128112100Y-101457451D02*
X128112100Y-101152651D01*
X128112100Y-101802662D02*
X127058000Y-101802662D01*
X128112100Y-102107462D02*
X128112100Y-101802662D01*
X128112100Y-102452674D02*
X127058000Y-102452674D01*
X128112100Y-102757474D02*
X128112100Y-102452674D01*
X128112100Y-103280003D02*
X132607900Y-103280003D01*
X132607900Y-93479997D02*
X128112100Y-93479997D01*
X132607900Y-94002526D02*
X132607900Y-94307326D01*
X132607900Y-94307326D02*
X133662000Y-94307326D01*
X132607900Y-94652538D02*
X132607900Y-94957338D01*
X132607900Y-94957338D02*
X133662000Y-94957338D01*
X132607900Y-95302549D02*
X132607900Y-95607349D01*
X132607900Y-95607349D02*
X133662000Y-95607349D01*
X132607900Y-95952560D02*
X132607900Y-96257360D01*
X132607900Y-96257360D02*
X133662000Y-96257360D01*
X132607900Y-96602572D02*
X132607900Y-96907372D01*
X132607900Y-96907372D02*
X133662000Y-96907372D01*
X132607900Y-97252583D02*
X132607900Y-97557383D01*
X132607900Y-97557383D02*
X133662000Y-97557383D01*
X132607900Y-97902595D02*
X132607900Y-98207395D01*
X132607900Y-98207395D02*
X133662000Y-98207395D01*
X132607900Y-98552606D02*
X132607900Y-98857406D01*
X132607900Y-98857406D02*
X133662000Y-98857406D01*
X132607900Y-99202617D02*
X132607900Y-99507417D01*
X132607900Y-99507417D02*
X133662000Y-99507417D01*
X132607900Y-99852629D02*
X132607900Y-100157429D01*
X132607900Y-100157429D02*
X133662000Y-100157429D01*
X132607900Y-100502640D02*
X132607900Y-100807440D01*
X132607900Y-100807440D02*
X133662000Y-100807440D01*
X132607900Y-101152651D02*
X132607900Y-101457451D01*
X132607900Y-101457451D02*
X133662000Y-101457451D01*
X132607900Y-101802663D02*
X132607900Y-102107463D01*
X132607900Y-102107463D02*
X133662000Y-102107463D01*
X132607900Y-102452674D02*
X132607900Y-102757474D01*
X132607900Y-102757474D02*
X133662000Y-102757474D01*
X132607900Y-103280003D02*
X132607900Y-93479997D01*
X133662000Y-94002526D02*
X132607900Y-94002526D01*
X133662000Y-94307326D02*
X133662000Y-94002526D01*
X133662000Y-94652538D02*
X132607900Y-94652538D01*
X133662000Y-94957338D02*
X133662000Y-94652538D01*
X133662000Y-95302549D02*
X132607900Y-95302549D01*
X133662000Y-95607349D02*
X133662000Y-95302549D01*
X133662000Y-95952560D02*
X132607900Y-95952560D01*
X133662000Y-96257360D02*
X133662000Y-95952560D01*
X133662000Y-96602572D02*
X132607900Y-96602572D01*
X133662000Y-96907372D02*
X133662000Y-96602572D01*
X133662000Y-97252583D02*
X132607900Y-97252583D01*
X133662000Y-97557383D02*
X133662000Y-97252583D01*
X133662000Y-97902595D02*
X132607900Y-97902595D01*
X133662000Y-98207395D02*
X133662000Y-97902595D01*
X133662000Y-98552606D02*
X132607900Y-98552606D01*
X133662000Y-98857406D02*
X133662000Y-98552606D01*
X133662000Y-99202617D02*
X132607900Y-99202617D01*
X133662000Y-99507417D02*
X133662000Y-99202617D01*
X133662000Y-99852629D02*
X132607900Y-99852629D01*
X133662000Y-100157429D02*
X133662000Y-99852629D01*
X133662000Y-100502640D02*
X132607900Y-100502640D01*
X133662000Y-100807440D02*
X133662000Y-100502640D01*
X133662000Y-101152651D02*
X132607900Y-101152651D01*
X133662000Y-101457451D02*
X133662000Y-101152651D01*
X133662000Y-101802663D02*
X132607900Y-101802663D01*
X133662000Y-102107463D02*
X133662000Y-101802663D01*
X133662000Y-102452674D02*
X132607900Y-102452674D01*
X133662000Y-102757474D02*
X133662000Y-102452674D01*
X130664800Y-93479997D02*
G75*
G02*
X130055200Y-93479997I-304800J0D01*
G01*
D12*
X123011000Y-77679800D02*
X121011000Y-77679800D01*
X121011000Y-76429800D01*
X123011000Y-76429800D01*
X123011000Y-77679800D01*
X121004200Y-67734800D02*
X122254200Y-67734800D01*
X122254200Y-65734800D01*
X121004200Y-65734800D01*
X121004200Y-67734800D01*
X112070000Y-96330000D02*
X118570000Y-96330000D01*
X112070000Y-106990000D02*
X112070000Y-96330000D01*
X113670000Y-106990000D02*
X113670000Y-96330000D01*
X114412000Y-97214000D02*
X115806000Y-98608000D01*
X114412000Y-99754000D02*
X115806000Y-101148000D01*
X114412000Y-102294000D02*
X115806000Y-103688000D01*
X114412000Y-104834000D02*
X115806000Y-106228000D01*
X114534000Y-97092000D02*
X115928000Y-98486000D01*
X114534000Y-99632000D02*
X115928000Y-101026000D01*
X114534000Y-102172000D02*
X115928000Y-103566000D01*
X114534000Y-104712000D02*
X115928000Y-106106000D01*
X116770000Y-106990000D02*
X116770000Y-96330000D01*
X117770000Y-106990000D02*
X112070000Y-106990000D01*
X117770000Y-106990000D02*
X117770000Y-96330000D01*
X118570000Y-96330000D02*
X118570000Y-106190000D01*
X118570000Y-106190000D02*
X117770000Y-106990000D01*
X116170000Y-97850000D02*
G75*
G02*
X114170000Y-97850000I-1000000J0D01*
G01*
X114170000Y-97850000D02*
G75*
G02*
X116170000Y-97850000I1000000J0D01*
G01*
X116170000Y-100390000D02*
G75*
G02*
X114170000Y-100390000I-1000000J0D01*
G01*
X114170000Y-100390000D02*
G75*
G02*
X116170000Y-100390000I1000000J0D01*
G01*
X116170000Y-102930000D02*
G75*
G02*
X114170000Y-102930000I-1000000J0D01*
G01*
X114170000Y-102930000D02*
G75*
G02*
X116170000Y-102930000I1000000J0D01*
G01*
X116170000Y-105470000D02*
G75*
G02*
X114170000Y-105470000I-1000000J0D01*
G01*
X114170000Y-105470000D02*
G75*
G02*
X116170000Y-105470000I1000000J0D01*
G01*
X183767500Y-56305000D02*
X190267500Y-56305000D01*
X183767500Y-64425000D02*
X183767500Y-56305000D01*
X185367500Y-64425000D02*
X185367500Y-56305000D01*
X186109500Y-57189000D02*
X187503500Y-58583000D01*
X186109500Y-59729000D02*
X187503500Y-61123000D01*
X186109500Y-62269000D02*
X187503500Y-63663000D01*
X186231500Y-57067000D02*
X187625500Y-58461000D01*
X186231500Y-59607000D02*
X187625500Y-61001000D01*
X186231500Y-62147000D02*
X187625500Y-63541000D01*
X188467500Y-64425000D02*
X188467500Y-56305000D01*
X189467500Y-64425000D02*
X183767500Y-64425000D01*
X189467500Y-64425000D02*
X189467500Y-56305000D01*
X190267500Y-56305000D02*
X190267500Y-63625000D01*
X190267500Y-63625000D02*
X189467500Y-64425000D01*
X187867500Y-57825000D02*
G75*
G02*
X185867500Y-57825000I-1000000J0D01*
G01*
X185867500Y-57825000D02*
G75*
G02*
X187867500Y-57825000I1000000J0D01*
G01*
X187867500Y-60365000D02*
G75*
G02*
X185867500Y-60365000I-1000000J0D01*
G01*
X185867500Y-60365000D02*
G75*
G02*
X187867500Y-60365000I1000000J0D01*
G01*
X187867500Y-62905000D02*
G75*
G02*
X185867500Y-62905000I-1000000J0D01*
G01*
X185867500Y-62905000D02*
G75*
G02*
X187867500Y-62905000I1000000J0D01*
G01*
D13*
X158608700Y-38099200D02*
X158608700Y-63600800D01*
X158608700Y-39369200D02*
X159878700Y-38099200D01*
X158608700Y-63600800D02*
X176617300Y-63600800D01*
X176617300Y-38099200D02*
X158608700Y-38099200D01*
X176617300Y-63600800D02*
X176617300Y-38099200D01*
X126949200Y-85547200D02*
X126949200Y-92354400D01*
X126949200Y-87249000D02*
X128651000Y-85547200D01*
X126949200Y-90652600D02*
X128651000Y-92354400D01*
X126949200Y-92354400D02*
X133756400Y-92354400D01*
X133756400Y-85547200D02*
X126949200Y-85547200D01*
X133756400Y-92354400D02*
X133756400Y-85547200D01*
X127457201Y-88950800D02*
X127457201Y-88950800D01*
X127457201Y-88950800D01*
X127457201Y-88950800D01*
X127457201Y-88950800D01*
X127457201Y-88950800D01*
X127457201Y-88950801D01*
X127457201Y-88950801D01*
X127457201Y-88950801D01*
X127457201Y-88950801D01*
X127457201Y-88950801D01*
X127457201Y-88950801D01*
X127457201Y-88950801D01*
X127457200Y-88950801D01*
X127457200Y-88950801D01*
X127457200Y-88950801D01*
X127457200Y-88950801D01*
X127457200Y-88950801D01*
X127457200Y-88950801D01*
X127457200Y-88950801D01*
X127457200Y-88950801D01*
X127457200Y-88950801D01*
X127457200Y-88950801D01*
X127457200Y-88950801D01*
X127457200Y-88950801D01*
X127457199Y-88950801D01*
X127457199Y-88950801D01*
X127457199Y-88950801D01*
X127457199Y-88950801D01*
X127457199Y-88950801D01*
X127457199Y-88950801D01*
X127457199Y-88950800D01*
X127457199Y-88950800D01*
X127457199Y-88950800D01*
X127457199Y-88950800D01*
X127457199Y-88950800D01*
X127457199Y-88950800D01*
X127457199Y-88950800D02*
X127457199Y-88950800D01*
X127457199Y-88950800D01*
X127457199Y-88950800D01*
X127457199Y-88950800D01*
X127457199Y-88950800D01*
X127457199Y-88950800D01*
X127457199Y-88950799D01*
X127457199Y-88950799D01*
X127457199Y-88950799D01*
X127457199Y-88950799D01*
X127457199Y-88950799D01*
X127457200Y-88950799D01*
X127457200Y-88950799D01*
X127457200Y-88950799D01*
X127457200Y-88950799D01*
X127457200Y-88950799D01*
X127457200Y-88950799D01*
X127457200Y-88950799D01*
X127457200Y-88950799D01*
X127457200Y-88950799D01*
X127457200Y-88950799D01*
X127457200Y-88950799D01*
X127457200Y-88950799D01*
X127457201Y-88950799D01*
X127457201Y-88950799D01*
X127457201Y-88950799D01*
X127457201Y-88950799D01*
X127457201Y-88950799D01*
X127457201Y-88950799D01*
X127457201Y-88950800D01*
X127457201Y-88950800D01*
X127457201Y-88950800D01*
X127457201Y-88950800D01*
X127457201Y-88950800D01*
X127457201Y-88950800D01*
X127457201Y-88950800D01*
D12*
X117668200Y-65751200D02*
X116418200Y-65751200D01*
X116418200Y-67751200D01*
X117668200Y-67751200D01*
X117668200Y-65751200D01*
X159039400Y-107480700D02*
X160289400Y-107480700D01*
X160289400Y-105480700D01*
X159039400Y-105480700D01*
X159039400Y-107480700D01*
D13*
X153987500Y-90271600D02*
X153987500Y-93370400D01*
X153987500Y-93370400D02*
X155778200Y-93370400D01*
X155778200Y-88468200D02*
X155778200Y-95173800D01*
X155778200Y-90271600D02*
X153987500Y-90271600D01*
X155778200Y-93370400D02*
X155778200Y-90271600D01*
X155778200Y-95173800D02*
X159486600Y-95173800D01*
X159486600Y-88468200D02*
X155778200Y-88468200D01*
X159486600Y-89114600D02*
X159486600Y-89927400D01*
X159486600Y-89927400D02*
X161277300Y-89927400D01*
X159486600Y-91414600D02*
X159486600Y-92227400D01*
X159486600Y-92227400D02*
X161277300Y-92227400D01*
X159486600Y-93714600D02*
X159486600Y-94527400D01*
X159486600Y-94527400D02*
X161277300Y-94527400D01*
X159486600Y-95173800D02*
X159486600Y-88468200D01*
X161277300Y-89114600D02*
X159486600Y-89114600D01*
X161277300Y-89927400D02*
X161277300Y-89114600D01*
X161277300Y-91414600D02*
X159486600Y-91414600D01*
X161277300Y-92227400D02*
X161277300Y-91414600D01*
X161277300Y-93714600D02*
X159486600Y-93714600D01*
X161277300Y-94527400D02*
X161277300Y-93714600D01*
X159359600Y-94919800D02*
G75*
G02*
X159105600Y-94919800I-127000J0D01*
G01*
X159105600Y-94919800D02*
G75*
G02*
X159359600Y-94919800I127000J0D01*
G01*
D14*
X166725400Y-93618900D02*
X166725400Y-92906900D01*
X167576400Y-93618900D02*
X167576400Y-92906900D01*
D15*
X167628010Y-92932201D02*
X166677300Y-92932201D01*
X166677300Y-92432600D01*
X167628010Y-92432600D01*
X167628010Y-92932201D01*
G36*
X167628010Y-92932201D02*
G01*
X166677300Y-92932201D01*
X166677300Y-92432600D01*
X167628010Y-92432600D01*
X167628010Y-92932201D01*
G37*
X167628491Y-94103226D02*
X166677300Y-94103226D01*
X166677300Y-93601000D01*
X167628491Y-93601000D01*
X167628491Y-94103226D01*
G36*
X167628491Y-94103226D02*
G01*
X166677300Y-94103226D01*
X166677300Y-93601000D01*
X167628491Y-93601000D01*
X167628491Y-94103226D01*
G37*
D12*
X151294950Y-95444050D02*
X149294950Y-95444050D01*
X149294950Y-94194050D01*
X151294950Y-94194050D01*
X151294950Y-95444050D01*
D13*
X162762676Y-87515700D02*
X162762676Y-90512900D01*
X162762676Y-90512900D02*
X166471076Y-90512900D01*
X166471076Y-87515700D02*
X162762676Y-87515700D01*
X166471076Y-90512900D02*
X166471076Y-87515700D01*
D12*
X160573300Y-116138800D02*
X162573300Y-116138800D01*
X162573300Y-117388800D01*
X160573300Y-117388800D01*
X160573300Y-116138800D01*
D13*
X166576000Y-104400600D02*
X166576000Y-109099600D01*
X166576000Y-109099600D02*
X170894000Y-109099600D01*
X170894000Y-104400600D02*
X166576000Y-104400600D01*
X170894000Y-109099600D02*
X170894000Y-104400600D01*
X168811200Y-108591600D02*
G75*
G02*
X168658800Y-108591600I-76200J0D01*
G01*
X168658800Y-108591600D02*
G75*
G02*
X168811200Y-108591600I76200J0D01*
G01*
D12*
X161792500Y-107502800D02*
X163792500Y-107502800D01*
X163792500Y-108752800D01*
X161792500Y-108752800D01*
X161792500Y-107502800D01*
X167884000Y-96234700D02*
X166634000Y-96234700D01*
X166634000Y-98234700D01*
X167884000Y-98234700D01*
X167884000Y-96234700D01*
X136490000Y-99595000D02*
X138490000Y-99595000D01*
X138490000Y-100845000D01*
X136490000Y-100845000D01*
X136490000Y-99595000D01*
X116220400Y-91379800D02*
X114970400Y-91379800D01*
X114970400Y-93379800D01*
X116220400Y-93379800D01*
X116220400Y-91379800D01*
X157642400Y-112281300D02*
X158892400Y-112281300D01*
X158892400Y-110281300D01*
X157642400Y-110281300D01*
X157642400Y-112281300D01*
X119405000Y-93425000D02*
X120655000Y-93425000D01*
X120655000Y-91425000D01*
X119405000Y-91425000D01*
X119405000Y-93425000D01*
X154365000Y-50105000D02*
X156365000Y-50105000D01*
X156365000Y-51355000D01*
X154365000Y-51355000D01*
X154365000Y-50105000D01*
X122991000Y-73349800D02*
X120991000Y-73349800D01*
X120991000Y-72099800D01*
X122991000Y-72099800D01*
X122991000Y-73349800D01*
X162842199Y-83002201D02*
X160842199Y-83002201D01*
X160842199Y-81752201D01*
X162842199Y-81752201D01*
X162842199Y-83002201D01*
D13*
X126619000Y-68317326D02*
X126619000Y-68622126D01*
X126619000Y-68622126D02*
X127673100Y-68622126D01*
X126619000Y-68967337D02*
X126619000Y-69272137D01*
X126619000Y-69272137D02*
X127673100Y-69272137D01*
X126619000Y-69617349D02*
X126619000Y-69922149D01*
X126619000Y-69922149D02*
X127673100Y-69922149D01*
X126619000Y-70267360D02*
X126619000Y-70572160D01*
X126619000Y-70572160D02*
X127673100Y-70572160D01*
X126619000Y-70917371D02*
X126619000Y-71222171D01*
X126619000Y-71222171D02*
X127673100Y-71222171D01*
X126619000Y-71567383D02*
X126619000Y-71872183D01*
X126619000Y-71872183D02*
X127673100Y-71872183D01*
X126619000Y-72217394D02*
X126619000Y-72522194D01*
X126619000Y-72522194D02*
X127673100Y-72522194D01*
X126619000Y-72867406D02*
X126619000Y-73172206D01*
X126619000Y-73172206D02*
X127673100Y-73172206D01*
X126619000Y-73517417D02*
X126619000Y-73822217D01*
X126619000Y-73822217D02*
X127673100Y-73822217D01*
X126619000Y-74167428D02*
X126619000Y-74472228D01*
X126619000Y-74472228D02*
X127673100Y-74472228D01*
X126619000Y-74817440D02*
X126619000Y-75122240D01*
X126619000Y-75122240D02*
X127673100Y-75122240D01*
X126619000Y-75467451D02*
X126619000Y-75772251D01*
X126619000Y-75772251D02*
X127673100Y-75772251D01*
X126619000Y-76117462D02*
X126619000Y-76422262D01*
X126619000Y-76422262D02*
X127673100Y-76422262D01*
X126619000Y-76767474D02*
X126619000Y-77072274D01*
X126619000Y-77072274D02*
X127673100Y-77072274D01*
X127673100Y-67794797D02*
X127673100Y-77594803D01*
X127673100Y-68317326D02*
X126619000Y-68317326D01*
X127673100Y-68622126D02*
X127673100Y-68317326D01*
X127673100Y-68967337D02*
X126619000Y-68967337D01*
X127673100Y-69272137D02*
X127673100Y-68967337D01*
X127673100Y-69617349D02*
X126619000Y-69617349D01*
X127673100Y-69922149D02*
X127673100Y-69617349D01*
X127673100Y-70267360D02*
X126619000Y-70267360D01*
X127673100Y-70572160D02*
X127673100Y-70267360D01*
X127673100Y-70917371D02*
X126619000Y-70917371D01*
X127673100Y-71222171D02*
X127673100Y-70917371D01*
X127673100Y-71567383D02*
X126619000Y-71567383D01*
X127673100Y-71872183D02*
X127673100Y-71567383D01*
X127673100Y-72217394D02*
X126619000Y-72217394D01*
X127673100Y-72522194D02*
X127673100Y-72217394D01*
X127673100Y-72867406D02*
X126619000Y-72867406D01*
X127673100Y-73172206D02*
X127673100Y-72867406D01*
X127673100Y-73517417D02*
X126619000Y-73517417D01*
X127673100Y-73822217D02*
X127673100Y-73517417D01*
X127673100Y-74167428D02*
X126619000Y-74167428D01*
X127673100Y-74472228D02*
X127673100Y-74167428D01*
X127673100Y-74817440D02*
X126619000Y-74817440D01*
X127673100Y-75122240D02*
X127673100Y-74817440D01*
X127673100Y-75467451D02*
X126619000Y-75467451D01*
X127673100Y-75772251D02*
X127673100Y-75467451D01*
X127673100Y-76117462D02*
X126619000Y-76117462D01*
X127673100Y-76422262D02*
X127673100Y-76117462D01*
X127673100Y-76767474D02*
X126619000Y-76767474D01*
X127673100Y-77072274D02*
X127673100Y-76767474D01*
X127673100Y-77594803D02*
X132168900Y-77594803D01*
X132168900Y-67794797D02*
X127673100Y-67794797D01*
X132168900Y-68317326D02*
X132168900Y-68622126D01*
X132168900Y-68622126D02*
X133223000Y-68622126D01*
X132168900Y-68967338D02*
X132168900Y-69272138D01*
X132168900Y-69272138D02*
X133223000Y-69272138D01*
X132168900Y-69617349D02*
X132168900Y-69922149D01*
X132168900Y-69922149D02*
X133223000Y-69922149D01*
X132168900Y-70267360D02*
X132168900Y-70572160D01*
X132168900Y-70572160D02*
X133223000Y-70572160D01*
X132168900Y-70917372D02*
X132168900Y-71222172D01*
X132168900Y-71222172D02*
X133223000Y-71222172D01*
X132168900Y-71567383D02*
X132168900Y-71872183D01*
X132168900Y-71872183D02*
X133223000Y-71872183D01*
X132168900Y-72217395D02*
X132168900Y-72522195D01*
X132168900Y-72522195D02*
X133223000Y-72522195D01*
X132168900Y-72867406D02*
X132168900Y-73172206D01*
X132168900Y-73172206D02*
X133223000Y-73172206D01*
X132168900Y-73517417D02*
X132168900Y-73822217D01*
X132168900Y-73822217D02*
X133223000Y-73822217D01*
X132168900Y-74167429D02*
X132168900Y-74472229D01*
X132168900Y-74472229D02*
X133223000Y-74472229D01*
X132168900Y-74817440D02*
X132168900Y-75122240D01*
X132168900Y-75122240D02*
X133223000Y-75122240D01*
X132168900Y-75467451D02*
X132168900Y-75772251D01*
X132168900Y-75772251D02*
X133223000Y-75772251D01*
X132168900Y-76117463D02*
X132168900Y-76422263D01*
X132168900Y-76422263D02*
X133223000Y-76422263D01*
X132168900Y-76767474D02*
X132168900Y-77072274D01*
X132168900Y-77072274D02*
X133223000Y-77072274D01*
X132168900Y-77594803D02*
X132168900Y-67794797D01*
X133223000Y-68317326D02*
X132168900Y-68317326D01*
X133223000Y-68622126D02*
X133223000Y-68317326D01*
X133223000Y-68967338D02*
X132168900Y-68967338D01*
X133223000Y-69272138D02*
X133223000Y-68967338D01*
X133223000Y-69617349D02*
X132168900Y-69617349D01*
X133223000Y-69922149D02*
X133223000Y-69617349D01*
X133223000Y-70267360D02*
X132168900Y-70267360D01*
X133223000Y-70572160D02*
X133223000Y-70267360D01*
X133223000Y-70917372D02*
X132168900Y-70917372D01*
X133223000Y-71222172D02*
X133223000Y-70917372D01*
X133223000Y-71567383D02*
X132168900Y-71567383D01*
X133223000Y-71872183D02*
X133223000Y-71567383D01*
X133223000Y-72217395D02*
X132168900Y-72217395D01*
X133223000Y-72522195D02*
X133223000Y-72217395D01*
X133223000Y-72867406D02*
X132168900Y-72867406D01*
X133223000Y-73172206D02*
X133223000Y-72867406D01*
X133223000Y-73517417D02*
X132168900Y-73517417D01*
X133223000Y-73822217D02*
X133223000Y-73517417D01*
X133223000Y-74167429D02*
X132168900Y-74167429D01*
X133223000Y-74472229D02*
X133223000Y-74167429D01*
X133223000Y-74817440D02*
X132168900Y-74817440D01*
X133223000Y-75122240D02*
X133223000Y-74817440D01*
X133223000Y-75467451D02*
X132168900Y-75467451D01*
X133223000Y-75772251D02*
X133223000Y-75467451D01*
X133223000Y-76117463D02*
X132168900Y-76117463D01*
X133223000Y-76422263D02*
X133223000Y-76117463D01*
X133223000Y-76767474D02*
X132168900Y-76767474D01*
X133223000Y-77072274D02*
X133223000Y-76767474D01*
X130225800Y-67794797D02*
G75*
G02*
X129616200Y-67794797I-304800J0D01*
G01*
D12*
X120970800Y-53731000D02*
X122970800Y-53731000D01*
X122970800Y-54981000D01*
X120970800Y-54981000D01*
X120970800Y-53731000D01*
X166789700Y-113858200D02*
X164789700Y-113858200D01*
X164789700Y-112608200D01*
X166789700Y-112608200D01*
X166789700Y-113858200D01*
X161857500Y-102695000D02*
X163857500Y-102695000D01*
X163857500Y-103945000D01*
X161857500Y-103945000D01*
X161857500Y-102695000D01*
X122981000Y-75489800D02*
X120981000Y-75489800D01*
X120981000Y-74239800D01*
X122981000Y-74239800D01*
X122981000Y-75489800D01*
X163855400Y-101361400D02*
X161855400Y-101361400D01*
X161855400Y-100111400D01*
X163855400Y-100111400D01*
X163855400Y-101361400D01*
X136296000Y-76362300D02*
X138296000Y-76362300D01*
X138296000Y-77612300D01*
X136296000Y-77612300D01*
X136296000Y-76362300D01*
X160522500Y-113852800D02*
X162522500Y-113852800D01*
X162522500Y-115102800D01*
X160522500Y-115102800D01*
X160522500Y-113852800D01*
D13*
X125946951Y-109705999D02*
X125946951Y-117836001D01*
X125946951Y-117836001D02*
X132166949Y-117836001D01*
X128421950Y-118598001D02*
X129691950Y-118598001D01*
X128421950Y-119360001D02*
X129691950Y-119360001D01*
X129056950Y-118344001D02*
X129056950Y-119614001D01*
X129056950Y-119360001D02*
X128421950Y-118598001D01*
X129056950Y-119360001D02*
X128548950Y-118598001D01*
X129056950Y-119360001D02*
X128675950Y-118598001D01*
X129056950Y-119360001D02*
X128802950Y-118598001D01*
X129056950Y-119360001D02*
X128929950Y-118598001D01*
X129056950Y-119360001D02*
X129183950Y-118598001D01*
X129056950Y-119360001D02*
X129310950Y-118598001D01*
X129056950Y-119360001D02*
X129437950Y-118598001D01*
X129056950Y-119360001D02*
X129564950Y-118598001D01*
X129056950Y-119360001D02*
X129691950Y-118598001D01*
X132166949Y-109705999D02*
X125946951Y-109705999D01*
X132166949Y-117836001D02*
X132166949Y-109705999D01*
D12*
X153555000Y-48647500D02*
X154805000Y-48647500D01*
X154805000Y-46647500D01*
X153555000Y-46647500D01*
X153555000Y-48647500D01*
X135912500Y-101905000D02*
X137912500Y-101905000D01*
X137912500Y-103155000D01*
X135912500Y-103155000D01*
X135912500Y-101905000D01*
D16*
X165422199Y-83077201D02*
X165422199Y-84777201D01*
X165422199Y-84777201D02*
X166722199Y-84777201D01*
X166722199Y-83077201D02*
X165422199Y-83077201D01*
X166722199Y-84777201D02*
X166722199Y-83077201D01*
D17*
X166172199Y-86127201D02*
G75*
G02*
X165972199Y-86127201I-100000J0D01*
G01*
X165972199Y-86127201D02*
G75*
G02*
X166172199Y-86127201I100000J0D01*
G01*
D12*
X182600000Y-68220000D02*
X183400000Y-67420000D01*
X182600000Y-108560000D02*
X182600000Y-68220000D01*
X183400000Y-67420000D02*
X183400000Y-108560000D01*
X183400000Y-67420000D02*
X189100000Y-67420000D01*
X184400000Y-67420000D02*
X184400000Y-108560000D01*
X186636000Y-69698000D02*
X185242000Y-68304000D01*
X186636000Y-72238000D02*
X185242000Y-70844000D01*
X186636000Y-74778000D02*
X185242000Y-73384000D01*
X186636000Y-77318000D02*
X185242000Y-75924000D01*
X186636000Y-79858000D02*
X185242000Y-78464000D01*
X186636000Y-82398000D02*
X185242000Y-81004000D01*
X186636000Y-84938000D02*
X185242000Y-83544000D01*
X186636000Y-87478000D02*
X185242000Y-86084000D01*
X186636000Y-90018000D02*
X185242000Y-88624000D01*
X186636000Y-92558000D02*
X185242000Y-91164000D01*
X186636000Y-95098000D02*
X185242000Y-93704000D01*
X186636000Y-97638000D02*
X185242000Y-96244000D01*
X186636000Y-100178000D02*
X185242000Y-98784000D01*
X186636000Y-102718000D02*
X185242000Y-101324000D01*
X186636000Y-105258000D02*
X185242000Y-103864000D01*
X186636000Y-107798000D02*
X185242000Y-106404000D01*
X186758000Y-69576000D02*
X185364000Y-68182000D01*
X186758000Y-72116000D02*
X185364000Y-70722000D01*
X186758000Y-74656000D02*
X185364000Y-73262000D01*
X186758000Y-77196000D02*
X185364000Y-75802000D01*
X186758000Y-79736000D02*
X185364000Y-78342000D01*
X186758000Y-82276000D02*
X185364000Y-80882000D01*
X186758000Y-84816000D02*
X185364000Y-83422000D01*
X186758000Y-87356000D02*
X185364000Y-85962000D01*
X186758000Y-89896000D02*
X185364000Y-88502000D01*
X186758000Y-92436000D02*
X185364000Y-91042000D01*
X186758000Y-94976000D02*
X185364000Y-93582000D01*
X186758000Y-97516000D02*
X185364000Y-96122000D01*
X186758000Y-100056000D02*
X185364000Y-98662000D01*
X186758000Y-102596000D02*
X185364000Y-101202000D01*
X186758000Y-105136000D02*
X185364000Y-103742000D01*
X186758000Y-107676000D02*
X185364000Y-106282000D01*
X187500000Y-67420000D02*
X187500000Y-108560000D01*
X189100000Y-67420000D02*
X189100000Y-108560000D01*
X189100000Y-108560000D02*
X182600000Y-108560000D01*
X187000000Y-68940000D02*
G75*
G02*
X185000000Y-68940000I-1000000J0D01*
G01*
X185000000Y-68940000D02*
G75*
G02*
X187000000Y-68940000I1000000J0D01*
G01*
X187000000Y-71480000D02*
G75*
G02*
X185000000Y-71480000I-1000000J0D01*
G01*
X185000000Y-71480000D02*
G75*
G02*
X187000000Y-71480000I1000000J0D01*
G01*
X187000000Y-74020000D02*
G75*
G02*
X185000000Y-74020000I-1000000J0D01*
G01*
X185000000Y-74020000D02*
G75*
G02*
X187000000Y-74020000I1000000J0D01*
G01*
X187000000Y-76560000D02*
G75*
G02*
X185000000Y-76560000I-1000000J0D01*
G01*
X185000000Y-76560000D02*
G75*
G02*
X187000000Y-76560000I1000000J0D01*
G01*
X187000000Y-79100000D02*
G75*
G02*
X185000000Y-79100000I-1000000J0D01*
G01*
X185000000Y-79100000D02*
G75*
G02*
X187000000Y-79100000I1000000J0D01*
G01*
X187000000Y-81640000D02*
G75*
G02*
X185000000Y-81640000I-1000000J0D01*
G01*
X185000000Y-81640000D02*
G75*
G02*
X187000000Y-81640000I1000000J0D01*
G01*
X187000000Y-84180000D02*
G75*
G02*
X185000000Y-84180000I-1000000J0D01*
G01*
X185000000Y-84180000D02*
G75*
G02*
X187000000Y-84180000I1000000J0D01*
G01*
X187000000Y-86720000D02*
G75*
G02*
X185000000Y-86720000I-1000000J0D01*
G01*
X185000000Y-86720000D02*
G75*
G02*
X187000000Y-86720000I1000000J0D01*
G01*
X187000000Y-89260000D02*
G75*
G02*
X185000000Y-89260000I-1000000J0D01*
G01*
X185000000Y-89260000D02*
G75*
G02*
X187000000Y-89260000I1000000J0D01*
G01*
X187000000Y-91800000D02*
G75*
G02*
X185000000Y-91800000I-1000000J0D01*
G01*
X185000000Y-91800000D02*
G75*
G02*
X187000000Y-91800000I1000000J0D01*
G01*
X187000000Y-94340000D02*
G75*
G02*
X185000000Y-94340000I-1000000J0D01*
G01*
X185000000Y-94340000D02*
G75*
G02*
X187000000Y-94340000I1000000J0D01*
G01*
X187000000Y-96880000D02*
G75*
G02*
X185000000Y-96880000I-1000000J0D01*
G01*
X185000000Y-96880000D02*
G75*
G02*
X187000000Y-96880000I1000000J0D01*
G01*
X187000000Y-99420000D02*
G75*
G02*
X185000000Y-99420000I-1000000J0D01*
G01*
X185000000Y-99420000D02*
G75*
G02*
X187000000Y-99420000I1000000J0D01*
G01*
X187000000Y-101960000D02*
G75*
G02*
X185000000Y-101960000I-1000000J0D01*
G01*
X185000000Y-101960000D02*
G75*
G02*
X187000000Y-101960000I1000000J0D01*
G01*
X187000000Y-104500000D02*
G75*
G02*
X185000000Y-104500000I-1000000J0D01*
G01*
X185000000Y-104500000D02*
G75*
G02*
X187000000Y-104500000I1000000J0D01*
G01*
X187000000Y-107040000D02*
G75*
G02*
X185000000Y-107040000I-1000000J0D01*
G01*
X185000000Y-107040000D02*
G75*
G02*
X187000000Y-107040000I1000000J0D01*
G01*
X125395000Y-91442500D02*
X124145000Y-91442500D01*
X124145000Y-93442500D01*
X125395000Y-93442500D01*
X125395000Y-91442500D01*
X157876400Y-105222800D02*
X156626400Y-105222800D01*
X156626400Y-107222800D01*
X157876400Y-107222800D01*
X157876400Y-105222800D01*
X122971000Y-71219800D02*
X120971000Y-71219800D01*
X120971000Y-69969800D01*
X122971000Y-69969800D01*
X122971000Y-71219800D01*
M02*
