%TF.GenerationSoftware,KiCad,Pcbnew,9.0.7*%
%TF.CreationDate,2026-04-25T00:58:39-03:00*%
%TF.ProjectId,MAQUINA_DE_BRAILLE,4d415155-494e-4415-9f44-455f42524149,rev?*%
%TF.SameCoordinates,Original*%
%TF.FileFunction,Other,User*%
%FSLAX46Y46*%
G04 Gerber Fmt 4.6, Leading zero omitted, Abs format (unit mm)*
G04 Created by KiCad (PCBNEW 9.0.7) date 2026-04-25 00:58:39*
%MOMM*%
%LPD*%
G01*
G04 APERTURE LIST*
%ADD10C,0.050000*%
%ADD11C,0.152400*%
G04 APERTURE END LIST*
D10*
X123276950Y-108288200D02*
X111076950Y-108288200D01*
X111076950Y-119458200D01*
X123276950Y-119458200D01*
X123276950Y-108288200D01*
D11*
X162458400Y-91440000D02*
X162801300Y-91440000D01*
X162458400Y-95656400D02*
X162458400Y-91440000D01*
X162801300Y-91287600D02*
X165620700Y-91287600D01*
X162801300Y-91440000D02*
X162801300Y-91287600D01*
X162801300Y-95656400D02*
X162458400Y-95656400D01*
X162801300Y-95808800D02*
X162801300Y-95656400D01*
X165620700Y-91287600D02*
X165620700Y-91440000D01*
X165620700Y-91440000D02*
X165963600Y-91440000D01*
X165620700Y-95656400D02*
X165620700Y-95808800D01*
X165620700Y-95808800D02*
X162801300Y-95808800D01*
X165963600Y-91440000D02*
X165963600Y-95656400D01*
X165963600Y-95656400D02*
X165620700Y-95656400D01*
D10*
X153310100Y-57516200D02*
X157070100Y-57516200D01*
X157070100Y-59476200D01*
X153310100Y-59476200D01*
X153310100Y-57516200D01*
X111371000Y-81964800D02*
X118871000Y-81964800D01*
X118871000Y-70304800D01*
X111371000Y-70304800D01*
X111371000Y-81964800D01*
X123890000Y-102250000D02*
X120190000Y-102250000D01*
X120190000Y-100350000D01*
X123890000Y-100350000D01*
X123890000Y-102250000D01*
X118209200Y-68569874D02*
X120109200Y-68569874D01*
X120109200Y-64869874D01*
X118209200Y-64869874D01*
X118209200Y-68569874D01*
X155360000Y-49527500D02*
X157320000Y-49527500D01*
X157320000Y-45767500D01*
X155360000Y-45767500D01*
X155360000Y-49527500D01*
X123960000Y-99920000D02*
X120260000Y-99920000D01*
X120260000Y-98020000D01*
X123960000Y-98020000D01*
X123960000Y-99920000D01*
X120222400Y-58181200D02*
X123922400Y-58181200D01*
X123922400Y-60081200D01*
X120222400Y-60081200D01*
X120222400Y-58181200D01*
X160937900Y-104811000D02*
X164697900Y-104811000D01*
X164697900Y-106771000D01*
X160937900Y-106771000D01*
X160937900Y-104811000D01*
X135493500Y-73787300D02*
X139193500Y-73787300D01*
X139193500Y-75687300D01*
X135493500Y-75687300D01*
X135493500Y-73787300D01*
D11*
X160181101Y-110747600D02*
X160396301Y-110747600D01*
X160181101Y-112551000D02*
X160181101Y-110747600D01*
X160396301Y-110341200D02*
X162683701Y-110341200D01*
X160396301Y-110747600D02*
X160396301Y-110341200D01*
X160396301Y-112551000D02*
X160181101Y-112551000D01*
X160396301Y-112957400D02*
X160396301Y-112551000D01*
X162683701Y-110341200D02*
X162683701Y-110747600D01*
X162683701Y-110747600D02*
X162898901Y-110747600D01*
X162683701Y-112551000D02*
X162683701Y-112957400D01*
X162683701Y-112957400D02*
X160396301Y-112957400D01*
X162898901Y-110747600D02*
X162898901Y-112551000D01*
X162898901Y-112551000D02*
X162683701Y-112551000D01*
X125615700Y-62534800D02*
X126466600Y-62534800D01*
X125615700Y-64262000D02*
X125615700Y-62534800D01*
X126466600Y-59740800D02*
X133781800Y-59740800D01*
X126466600Y-62534800D02*
X126466600Y-59740800D01*
X126466600Y-64262000D02*
X125615700Y-64262000D01*
X126466600Y-67056000D02*
X126466600Y-64262000D01*
X133781800Y-59740800D02*
X133781800Y-62534800D01*
X133781800Y-62534800D02*
X134632700Y-62534800D01*
X133781800Y-64262000D02*
X133781800Y-67056000D01*
X133781800Y-67056000D02*
X126466600Y-67056000D01*
X134632700Y-62534800D02*
X134632700Y-64262000D01*
X134632700Y-64262000D02*
X133781800Y-64262000D01*
X143191950Y-101676650D02*
X145465250Y-101676650D01*
X143191950Y-111836650D02*
X143191950Y-101676650D01*
X143191950Y-111836650D02*
X143191950Y-111836650D01*
X143191950Y-114020050D02*
X143191950Y-111836650D01*
X145465250Y-96749050D02*
X152094650Y-96749050D01*
X145465250Y-101676650D02*
X145465250Y-96749050D01*
X152094650Y-96749050D02*
X152094650Y-101676650D01*
X152094650Y-101676650D02*
X154367950Y-101676650D01*
X154367950Y-101676650D02*
X154367950Y-111836650D01*
X154367950Y-111836650D02*
X154367950Y-111836650D01*
X154367950Y-111836650D02*
X154367950Y-114020050D01*
X154367950Y-114020050D02*
X143191950Y-114020050D01*
D10*
X176900000Y-121770000D02*
X189100000Y-121770000D01*
X189100000Y-110600000D01*
X176900000Y-110600000D01*
X176900000Y-121770000D01*
D11*
X168148000Y-82472601D02*
X168148000Y-85369401D01*
X169049700Y-82168401D02*
X169049700Y-82472601D01*
X169049700Y-82168401D02*
X170954700Y-82168401D01*
X169049700Y-82472601D02*
X168148000Y-82472601D01*
X169049700Y-85369401D02*
X168148000Y-85369401D01*
X169049700Y-85673601D02*
X169049700Y-85369401D01*
X170954700Y-82168401D02*
X170954700Y-83387601D01*
X170954700Y-83387601D02*
X171856400Y-83387601D01*
X170954700Y-84454401D02*
X171856400Y-84454401D01*
X170954700Y-85673601D02*
X169049700Y-85673601D01*
X170954700Y-85673601D02*
X170954700Y-84454401D01*
X171856400Y-83387601D02*
X171856400Y-84454401D01*
D10*
X115686400Y-64871200D02*
X113726400Y-64871200D01*
X113726400Y-68631200D01*
X115686400Y-68631200D01*
X115686400Y-64871200D01*
X118810600Y-90525200D02*
X116850600Y-90525200D01*
X116850600Y-94285200D01*
X118810600Y-94285200D01*
X118810600Y-90525200D01*
X182997500Y-54995000D02*
X190497500Y-54995000D01*
X190497500Y-45865000D01*
X182997500Y-45865000D01*
X182997500Y-54995000D01*
X121360000Y-94312500D02*
X123320000Y-94312500D01*
X123320000Y-90552500D01*
X121360000Y-90552500D01*
X121360000Y-94312500D01*
X163748600Y-109667000D02*
X167448600Y-109667000D01*
X167448600Y-111567000D01*
X163748600Y-111567000D01*
X163748600Y-109667000D01*
X125111000Y-64854800D02*
X123151000Y-64854800D01*
X123151000Y-68614800D01*
X125111000Y-68614800D01*
X125111000Y-64854800D01*
X153344000Y-55285600D02*
X157044000Y-55285600D01*
X157044000Y-57185600D01*
X153344000Y-57185600D01*
X153344000Y-55285600D01*
X160560000Y-99762500D02*
X158660000Y-99762500D01*
X158660000Y-103462500D01*
X160560000Y-103462500D01*
X160560000Y-99762500D01*
X115163200Y-52477000D02*
X106223200Y-52477000D01*
X106223200Y-63117000D01*
X115163200Y-63117000D01*
X115163200Y-52477000D01*
X123910000Y-97700000D02*
X120210000Y-97700000D01*
X120210000Y-95800000D01*
X123910000Y-95800000D01*
X123910000Y-97700000D01*
X123910000Y-104400000D02*
X120210000Y-104400000D01*
X120210000Y-102500000D01*
X123910000Y-102500000D01*
X123910000Y-104400000D01*
X157257500Y-54000000D02*
X153497500Y-54000000D01*
X153497500Y-52040000D01*
X157257500Y-52040000D01*
X157257500Y-54000000D01*
X159710000Y-118023600D02*
X163410000Y-118023600D01*
X163410000Y-119923600D01*
X159710000Y-119923600D01*
X159710000Y-118023600D01*
D11*
X126499200Y-93225997D02*
X134220800Y-93225997D01*
X126499200Y-103534003D02*
X126499200Y-93225997D01*
X134220800Y-93225997D02*
X134220800Y-103534003D01*
X134220800Y-103534003D02*
X126499200Y-103534003D01*
D10*
X123861000Y-78004800D02*
X120161000Y-78004800D01*
X120161000Y-76104800D01*
X123861000Y-76104800D01*
X123861000Y-78004800D01*
X120649200Y-68614800D02*
X122609200Y-68614800D01*
X122609200Y-64854800D01*
X120649200Y-64854800D01*
X120649200Y-68614800D01*
X111570000Y-107490000D02*
X119070000Y-107490000D01*
X119070000Y-95830000D01*
X111570000Y-95830000D01*
X111570000Y-107490000D01*
X183267500Y-64925000D02*
X190767500Y-64925000D01*
X190767500Y-55795000D01*
X183267500Y-55795000D01*
X183267500Y-64925000D01*
D11*
X157859700Y-44929600D02*
X157859700Y-62760400D01*
X157859700Y-62760400D02*
X158354700Y-62760400D01*
X158354700Y-37845200D02*
X158354700Y-44929600D01*
X158354700Y-44929600D02*
X157859700Y-44929600D01*
X158354700Y-62760400D02*
X158354700Y-63854800D01*
X158354700Y-63854800D02*
X159967600Y-63854800D01*
X159967600Y-63854800D02*
X159967600Y-64353300D01*
X159967600Y-64353300D02*
X175258400Y-64353300D01*
X175258400Y-63854800D02*
X176871300Y-63854800D01*
X175258400Y-64353300D02*
X175258400Y-63854800D01*
X176871300Y-37845200D02*
X158354700Y-37845200D01*
X176871300Y-44929600D02*
X176871300Y-37845200D01*
X176871300Y-62760400D02*
X177366300Y-62760400D01*
X176871300Y-63854800D02*
X176871300Y-62760400D01*
X177366300Y-44929600D02*
X176871300Y-44929600D01*
X177366300Y-62760400D02*
X177366300Y-44929600D01*
X125844300Y-88087200D02*
X126695200Y-88087200D01*
X125844300Y-89814400D02*
X125844300Y-88087200D01*
X126695200Y-85293200D02*
X134010400Y-85293200D01*
X126695200Y-88087200D02*
X126695200Y-85293200D01*
X126695200Y-89814400D02*
X125844300Y-89814400D01*
X126695200Y-92608400D02*
X126695200Y-89814400D01*
X134010400Y-85293200D02*
X134010400Y-88087200D01*
X134010400Y-88087200D02*
X134861300Y-88087200D01*
X134010400Y-89814400D02*
X134010400Y-92608400D01*
X134010400Y-92608400D02*
X126695200Y-92608400D01*
X134861300Y-88087200D02*
X134861300Y-89814400D01*
X134861300Y-89814400D02*
X134010400Y-89814400D01*
D10*
X118023200Y-64871200D02*
X116063200Y-64871200D01*
X116063200Y-68631200D01*
X118023200Y-68631200D01*
X118023200Y-64871200D01*
X158684400Y-108360700D02*
X160644400Y-108360700D01*
X160644400Y-104600700D01*
X158684400Y-104600700D01*
X158684400Y-108360700D01*
D11*
X153377900Y-90017600D02*
X155524200Y-90017600D01*
X153377900Y-93624400D02*
X153377900Y-90017600D01*
X155524200Y-88214200D02*
X159740600Y-88214200D01*
X155524200Y-90017600D02*
X155524200Y-88214200D01*
X155524200Y-93624400D02*
X153377900Y-93624400D01*
X155524200Y-95427800D02*
X155524200Y-93624400D01*
X159740600Y-88214200D02*
X159740600Y-88860600D01*
X159740600Y-88860600D02*
X161886900Y-88860600D01*
X159740600Y-94781400D02*
X159740600Y-95427800D01*
X159740600Y-95427800D02*
X155524200Y-95427800D01*
X161886900Y-88860600D02*
X161886900Y-94781400D01*
X161886900Y-94781400D02*
X159740600Y-94781400D01*
D10*
X152144950Y-95769050D02*
X148444950Y-95769050D01*
X148444950Y-93869050D01*
X152144950Y-93869050D01*
X152144950Y-95769050D01*
D11*
X162356276Y-87604600D02*
X162508676Y-87604600D01*
X162356276Y-90424000D02*
X162356276Y-87604600D01*
X162508676Y-87261700D02*
X166725076Y-87261700D01*
X162508676Y-87604600D02*
X162508676Y-87261700D01*
X162508676Y-90424000D02*
X162356276Y-90424000D01*
X162508676Y-90766900D02*
X162508676Y-90424000D01*
X166725076Y-87261700D02*
X166725076Y-87604600D01*
X166725076Y-87604600D02*
X166877476Y-87604600D01*
X166725076Y-90424000D02*
X166725076Y-90766900D01*
X166725076Y-90766900D02*
X162508676Y-90766900D01*
X166877476Y-87604600D02*
X166877476Y-90424000D01*
X166877476Y-90424000D02*
X166725076Y-90424000D01*
D10*
X159693300Y-115783800D02*
X163453300Y-115783800D01*
X163453300Y-117743800D01*
X159693300Y-117743800D01*
X159693300Y-115783800D01*
D11*
X166322000Y-104146600D02*
X167439600Y-104146600D01*
X166322000Y-109353600D02*
X166322000Y-104146600D01*
X167439600Y-103994200D02*
X170030400Y-103994200D01*
X167439600Y-104146600D02*
X167439600Y-103994200D01*
X167439600Y-109353600D02*
X166322000Y-109353600D01*
X167439600Y-109506000D02*
X167439600Y-109353600D01*
X170030400Y-103994200D02*
X170030400Y-104146600D01*
X170030400Y-104146600D02*
X171148000Y-104146600D01*
X170030400Y-109353600D02*
X170030400Y-109506000D01*
X170030400Y-109506000D02*
X167439600Y-109506000D01*
X171148000Y-104146600D02*
X171148000Y-109353600D01*
X171148000Y-109353600D02*
X170030400Y-109353600D01*
D10*
X160912500Y-107147800D02*
X164672500Y-107147800D01*
X164672500Y-109107800D01*
X160912500Y-109107800D01*
X160912500Y-107147800D01*
X168209000Y-95384700D02*
X166309000Y-95384700D01*
X166309000Y-99084700D01*
X168209000Y-99084700D01*
X168209000Y-95384700D01*
X135640000Y-99270000D02*
X139340000Y-99270000D01*
X139340000Y-101170000D01*
X135640000Y-101170000D01*
X135640000Y-99270000D01*
X116575400Y-90499800D02*
X114615400Y-90499800D01*
X114615400Y-94259800D01*
X116575400Y-94259800D01*
X116575400Y-90499800D01*
X157287400Y-113161300D02*
X159247400Y-113161300D01*
X159247400Y-109401300D01*
X157287400Y-109401300D01*
X157287400Y-113161300D01*
X119080000Y-94275000D02*
X120980000Y-94275000D01*
X120980000Y-90575000D01*
X119080000Y-90575000D01*
X119080000Y-94275000D01*
X153515000Y-49780000D02*
X157215000Y-49780000D01*
X157215000Y-51680000D01*
X153515000Y-51680000D01*
X153515000Y-49780000D01*
X123841000Y-73674800D02*
X120141000Y-73674800D01*
X120141000Y-71774800D01*
X123841000Y-71774800D01*
X123841000Y-73674800D01*
X163692199Y-83327201D02*
X159992199Y-83327201D01*
X159992199Y-81427201D01*
X163692199Y-81427201D01*
X163692199Y-83327201D01*
D11*
X126060200Y-67540797D02*
X133781800Y-67540797D01*
X126060200Y-77848803D02*
X126060200Y-67540797D01*
X133781800Y-67540797D02*
X133781800Y-77848803D01*
X133781800Y-77848803D02*
X126060200Y-77848803D01*
D10*
X120120800Y-53406000D02*
X123820800Y-53406000D01*
X123820800Y-55306000D01*
X120120800Y-55306000D01*
X120120800Y-53406000D01*
X167669700Y-114213200D02*
X163909700Y-114213200D01*
X163909700Y-112253200D01*
X167669700Y-112253200D01*
X167669700Y-114213200D01*
X113841600Y-48158400D02*
G75*
G02*
X107341600Y-48158400I-3250000J0D01*
G01*
X107341600Y-48158400D02*
G75*
G02*
X113841600Y-48158400I3250000J0D01*
G01*
X160977500Y-102340000D02*
X164737500Y-102340000D01*
X164737500Y-104300000D01*
X160977500Y-104300000D01*
X160977500Y-102340000D01*
X123831000Y-75814800D02*
X120131000Y-75814800D01*
X120131000Y-73914800D01*
X123831000Y-73914800D01*
X123831000Y-75814800D01*
X164705400Y-101686400D02*
X161005400Y-101686400D01*
X161005400Y-99786400D01*
X164705400Y-99786400D01*
X164705400Y-101686400D01*
X135416000Y-76007300D02*
X139176000Y-76007300D01*
X139176000Y-77967300D01*
X135416000Y-77967300D01*
X135416000Y-76007300D01*
X159642500Y-113497800D02*
X163402500Y-113497800D01*
X163402500Y-115457800D01*
X159642500Y-115457800D01*
X159642500Y-113497800D01*
D11*
X125692950Y-109452000D02*
X127212949Y-109452000D01*
X125692950Y-118090000D02*
X125692950Y-109452000D01*
X127212949Y-109299600D02*
X130900951Y-109299600D01*
X127212949Y-109452000D02*
X127212949Y-109299600D01*
X127212949Y-118090000D02*
X125692950Y-118090000D01*
X127212949Y-118242400D02*
X127212949Y-118090000D01*
X130900951Y-109299600D02*
X130900951Y-109452000D01*
X130900951Y-109452000D02*
X132420950Y-109452000D01*
X130900951Y-118090000D02*
X130900951Y-118242400D01*
X130900951Y-118242400D02*
X127212949Y-118242400D01*
X132420950Y-109452000D02*
X132420950Y-118090000D01*
X132420950Y-118090000D02*
X130900951Y-118090000D01*
D10*
X153200000Y-49527500D02*
X155160000Y-49527500D01*
X155160000Y-45767500D01*
X153200000Y-45767500D01*
X153200000Y-49527500D01*
X135032500Y-101550000D02*
X138792500Y-101550000D01*
X138792500Y-103510000D01*
X135032500Y-103510000D01*
X135032500Y-101550000D01*
X165172199Y-81967201D02*
X165172199Y-85887201D01*
X165172199Y-85887201D02*
X166972199Y-85887201D01*
X166972199Y-81967201D02*
X165172199Y-81967201D01*
X166972199Y-85887201D02*
X166972199Y-81967201D01*
X189600000Y-66920000D02*
X182100000Y-66920000D01*
X182100000Y-109060000D01*
X189600000Y-109060000D01*
X189600000Y-66920000D01*
X125750000Y-90562500D02*
X123790000Y-90562500D01*
X123790000Y-94322500D01*
X125750000Y-94322500D01*
X125750000Y-90562500D01*
X158201400Y-104372800D02*
X156301400Y-104372800D01*
X156301400Y-108072800D01*
X158201400Y-108072800D01*
X158201400Y-104372800D01*
X123821000Y-71544800D02*
X120121000Y-71544800D01*
X120121000Y-69644800D01*
X123821000Y-69644800D01*
X123821000Y-71544800D01*
X198051810Y-125891610D02*
G75*
G02*
X191551810Y-125891610I-3250000J0D01*
G01*
X191551810Y-125891610D02*
G75*
G02*
X198051810Y-125891610I3250000J0D01*
G01*
X198077210Y-48193010D02*
G75*
G02*
X191577210Y-48193010I-3250000J0D01*
G01*
X191577210Y-48193010D02*
G75*
G02*
X198077210Y-48193010I3250000J0D01*
G01*
X113928400Y-125780800D02*
G75*
G02*
X107428400Y-125780800I-3250000J0D01*
G01*
X107428400Y-125780800D02*
G75*
G02*
X113928400Y-125780800I3250000J0D01*
G01*
M02*
