%TF.GenerationSoftware,KiCad,Pcbnew,9.0.4*%
%TF.CreationDate,2026-04-18T11:50:53-03:00*%
%TF.ProjectId,MAQUINA_DE_BRAILLE,4d415155-494e-4415-9f44-455f42524149,rev?*%
%TF.SameCoordinates,Original*%
%TF.FileFunction,Copper,L1,Top*%
%TF.FilePolarity,Positive*%
%FSLAX46Y46*%
G04 Gerber Fmt 4.6, Leading zero omitted, Abs format (unit mm)*
G04 Created by KiCad (PCBNEW 9.0.4) date 2026-04-18 11:50:53*
%MOMM*%
%LPD*%
G01*
G04 APERTURE LIST*
G04 Aperture macros list*
%AMRoundRect*
0 Rectangle with rounded corners*
0 $1 Rounding radius*
0 $2 $3 $4 $5 $6 $7 $8 $9 X,Y pos of 4 corners*
0 Add a 4 corners polygon primitive as box body*
4,1,4,$2,$3,$4,$5,$6,$7,$8,$9,$2,$3,0*
0 Add four circle primitives for the rounded corners*
1,1,$1+$1,$2,$3*
1,1,$1+$1,$4,$5*
1,1,$1+$1,$6,$7*
1,1,$1+$1,$8,$9*
0 Add four rect primitives between the rounded corners*
20,1,$1+$1,$2,$3,$4,$5,0*
20,1,$1+$1,$4,$5,$6,$7,0*
20,1,$1+$1,$6,$7,$8,$9,0*
20,1,$1+$1,$8,$9,$2,$3,0*%
G04 Aperture macros list end*
%TA.AperFunction,EtchedComponent*%
%ADD10C,0.000000*%
%TD*%
%TA.AperFunction,ComponentPad*%
%ADD11RoundRect,0.250000X-1.050000X1.050000X-1.050000X-1.050000X1.050000X-1.050000X1.050000X1.050000X0*%
%TD*%
%TA.AperFunction,ComponentPad*%
%ADD12C,2.600000*%
%TD*%
%TA.AperFunction,SMDPad,CuDef*%
%ADD13R,2.311400X1.497552*%
%TD*%
%TA.AperFunction,SMDPad,CuDef*%
%ADD14RoundRect,0.250000X-0.337500X-0.475000X0.337500X-0.475000X0.337500X0.475000X-0.337500X0.475000X0*%
%TD*%
%TA.AperFunction,ComponentPad*%
%ADD15RoundRect,0.250000X0.750000X-0.750000X0.750000X0.750000X-0.750000X0.750000X-0.750000X-0.750000X0*%
%TD*%
%TA.AperFunction,ComponentPad*%
%ADD16C,2.000000*%
%TD*%
%TA.AperFunction,SMDPad,CuDef*%
%ADD17RoundRect,0.250000X0.350000X0.450000X-0.350000X0.450000X-0.350000X-0.450000X0.350000X-0.450000X0*%
%TD*%
%TA.AperFunction,SMDPad,CuDef*%
%ADD18RoundRect,0.250000X0.450000X-0.350000X0.450000X0.350000X-0.450000X0.350000X-0.450000X-0.350000X0*%
%TD*%
%TA.AperFunction,SMDPad,CuDef*%
%ADD19RoundRect,0.250000X0.475000X-0.337500X0.475000X0.337500X-0.475000X0.337500X-0.475000X-0.337500X0*%
%TD*%
%TA.AperFunction,SMDPad,CuDef*%
%ADD20R,1.350000X1.400000*%
%TD*%
%TA.AperFunction,SMDPad,CuDef*%
%ADD21RoundRect,0.250000X-0.350000X-0.450000X0.350000X-0.450000X0.350000X0.450000X-0.350000X0.450000X0*%
%TD*%
%TA.AperFunction,SMDPad,CuDef*%
%ADD22R,0.279400X0.609600*%
%TD*%
%TA.AperFunction,SMDPad,CuDef*%
%ADD23R,3.048000X1.219200*%
%TD*%
%TA.AperFunction,SMDPad,CuDef*%
%ADD24R,1.041400X3.505200*%
%TD*%
%TA.AperFunction,SMDPad,CuDef*%
%ADD25R,10.718800X7.696200*%
%TD*%
%TA.AperFunction,ComponentPad*%
%ADD26RoundRect,0.250000X1.050000X-1.050000X1.050000X1.050000X-1.050000X1.050000X-1.050000X-1.050000X0*%
%TD*%
%TA.AperFunction,SMDPad,CuDef*%
%ADD27R,1.270000X0.558800*%
%TD*%
%TA.AperFunction,SMDPad,CuDef*%
%ADD28RoundRect,0.250000X-0.475000X0.337500X-0.475000X-0.337500X0.475000X-0.337500X0.475000X0.337500X0*%
%TD*%
%TA.AperFunction,SMDPad,CuDef*%
%ADD29RoundRect,0.250000X-0.450000X0.350000X-0.450000X-0.350000X0.450000X-0.350000X0.450000X0.350000X0*%
%TD*%
%TA.AperFunction,SMDPad,CuDef*%
%ADD30RoundRect,0.150000X-0.425000X0.150000X-0.425000X-0.150000X0.425000X-0.150000X0.425000X0.150000X0*%
%TD*%
%TA.AperFunction,SMDPad,CuDef*%
%ADD31RoundRect,0.075000X-0.500000X0.075000X-0.500000X-0.075000X0.500000X-0.075000X0.500000X0.075000X0*%
%TD*%
%TA.AperFunction,HeatsinkPad*%
%ADD32O,2.100000X1.000000*%
%TD*%
%TA.AperFunction,HeatsinkPad*%
%ADD33O,1.800000X1.000000*%
%TD*%
%TA.AperFunction,SMDPad,CuDef*%
%ADD34RoundRect,0.250000X0.337500X0.475000X-0.337500X0.475000X-0.337500X-0.475000X0.337500X-0.475000X0*%
%TD*%
%TA.AperFunction,SMDPad,CuDef*%
%ADD35R,1.270000X0.304800*%
%TD*%
%TA.AperFunction,SMDPad,CuDef*%
%ADD36R,3.099999X5.180000*%
%TD*%
%TA.AperFunction,SMDPad,CuDef*%
%ADD37R,1.498600X0.812800*%
%TD*%
%TA.AperFunction,SMDPad,CuDef*%
%ADD38R,0.812800X1.498600*%
%TD*%
%TA.AperFunction,SMDPad,CuDef*%
%ADD39R,0.889000X0.889000*%
%TD*%
%TA.AperFunction,SMDPad,CuDef*%
%ADD40R,1.803400X0.863600*%
%TD*%
%TA.AperFunction,SMDPad,CuDef*%
%ADD41R,1.000000X1.100000*%
%TD*%
%TA.AperFunction,SMDPad,CuDef*%
%ADD42R,1.497552X2.311400*%
%TD*%
%TA.AperFunction,SMDPad,CuDef*%
%ADD43R,2.082800X1.752600*%
%TD*%
%TA.AperFunction,SMDPad,CuDef*%
%ADD44C,2.000000*%
%TD*%
%TA.AperFunction,SMDPad,CuDef*%
%ADD45R,3.180001X2.180400*%
%TD*%
%TA.AperFunction,SMDPad,CuDef*%
%ADD46R,0.460000X1.040000*%
%TD*%
%TA.AperFunction,ComponentPad*%
%ADD47RoundRect,0.250000X-0.750000X0.750000X-0.750000X-0.750000X0.750000X-0.750000X0.750000X0.750000X0*%
%TD*%
%TA.AperFunction,ViaPad*%
%ADD48C,0.700000*%
%TD*%
%TA.AperFunction,ViaPad*%
%ADD49C,0.500000*%
%TD*%
%TA.AperFunction,Conductor*%
%ADD50C,0.200000*%
%TD*%
%TA.AperFunction,Conductor*%
%ADD51C,0.600000*%
%TD*%
%TA.AperFunction,Conductor*%
%ADD52C,0.700000*%
%TD*%
%TA.AperFunction,Conductor*%
%ADD53C,0.300000*%
%TD*%
%TA.AperFunction,Conductor*%
%ADD54C,0.400000*%
%TD*%
%TA.AperFunction,Conductor*%
%ADD55C,0.350000*%
%TD*%
%TA.AperFunction,Conductor*%
%ADD56C,0.150000*%
%TD*%
G04 APERTURE END LIST*
D10*
%TA.AperFunction,EtchedComponent*%
G36*
X155435300Y-93395800D02*
G01*
X153631900Y-93395800D01*
X153631900Y-90246200D01*
X155435300Y-90246200D01*
X155435300Y-93395800D01*
G37*
%TD.AperFunction*%
%TA.AperFunction,EtchedComponent*%
G36*
X175498000Y-121532400D02*
G01*
X173498000Y-121532400D01*
X173498000Y-117532400D01*
X175498000Y-117532400D01*
X175498000Y-121532400D01*
G37*
%TD.AperFunction*%
D11*
X118442500Y-114025000D03*
D12*
X118442500Y-119105000D03*
D13*
X164211000Y-92290376D03*
X164211000Y-94806024D03*
D14*
X154152600Y-58496200D03*
X156227600Y-58496200D03*
D15*
X114971000Y-79944800D03*
D16*
X114971000Y-77404800D03*
X114971000Y-74864800D03*
X114971000Y-72324800D03*
D17*
X123040000Y-101300000D03*
X121040000Y-101300000D03*
D18*
X119159200Y-67719874D03*
X119159200Y-65719874D03*
D19*
X156340000Y-48685000D03*
X156340000Y-46610000D03*
D17*
X123110000Y-98970000D03*
X121110000Y-98970000D03*
D20*
X144246600Y-49657000D03*
X150596600Y-49657000D03*
D21*
X128290000Y-54240000D03*
X130290000Y-54240000D03*
D14*
X161780400Y-105791000D03*
X163855400Y-105791000D03*
D21*
X136343500Y-74737300D03*
X138343500Y-74737300D03*
D22*
X160790000Y-112398600D03*
X161290001Y-112398600D03*
X161790001Y-112398600D03*
X162290002Y-112398600D03*
X162290002Y-110900000D03*
X161790001Y-110900000D03*
X161290001Y-110900000D03*
X160790000Y-110900000D03*
D23*
X127393700Y-63398400D03*
X132854700Y-63398400D03*
D24*
X151319950Y-98755650D03*
D25*
X148779950Y-109917950D03*
D24*
X146239950Y-98755650D03*
D26*
X183300000Y-118730000D03*
D12*
X183300000Y-113650000D03*
D27*
X169037000Y-83006002D03*
X169037000Y-84836000D03*
X170967400Y-83921001D03*
D28*
X114706400Y-65713700D03*
X114706400Y-67788700D03*
X117830600Y-91367700D03*
X117830600Y-93442700D03*
D15*
X186597500Y-52975000D03*
D16*
X186597500Y-50435000D03*
X186597500Y-47895000D03*
D19*
X122340000Y-93470000D03*
X122340000Y-91395000D03*
D21*
X164598600Y-110617000D03*
X166598600Y-110617000D03*
D28*
X124131000Y-65697300D03*
X124131000Y-67772300D03*
D21*
X154194000Y-56235600D03*
X156194000Y-56235600D03*
D29*
X159610000Y-100612500D03*
X159610000Y-102612500D03*
D30*
X114083200Y-48870000D03*
X114083200Y-49670000D03*
D31*
X114083200Y-50820000D03*
X114083200Y-51820000D03*
X114083200Y-52320000D03*
X114083200Y-53320000D03*
D30*
X114083200Y-54470000D03*
X114083200Y-55270000D03*
X114083200Y-55270000D03*
X114083200Y-54470000D03*
D31*
X114083200Y-53820000D03*
X114083200Y-52820000D03*
X114083200Y-51320000D03*
X114083200Y-50320000D03*
D30*
X114083200Y-49670000D03*
X114083200Y-48870000D03*
D32*
X113508200Y-47750000D03*
D33*
X109328200Y-47750000D03*
D32*
X113508200Y-56390000D03*
D33*
X109328200Y-56390000D03*
D17*
X123060000Y-96750000D03*
X121060000Y-96750000D03*
X123060000Y-103450000D03*
X121060000Y-103450000D03*
D34*
X156415000Y-53020000D03*
X154340000Y-53020000D03*
D21*
X160560000Y-118973600D03*
X162560000Y-118973600D03*
D20*
X144272000Y-56438800D03*
X150622000Y-56438800D03*
D35*
X127388200Y-94154926D03*
X127388200Y-94804937D03*
X127388200Y-95454949D03*
X127388200Y-96104960D03*
X127388200Y-96754972D03*
X127388200Y-97404983D03*
X127388200Y-98054994D03*
X127388200Y-98705006D03*
X127388200Y-99355017D03*
X127388200Y-100005028D03*
X127388200Y-100655040D03*
X127388200Y-101305051D03*
X127388200Y-101955063D03*
X127388200Y-102605074D03*
X133331800Y-102605074D03*
X133331800Y-101955063D03*
X133331800Y-101305051D03*
X133331800Y-100655040D03*
X133331800Y-100005028D03*
X133331800Y-99355017D03*
X133331800Y-98705006D03*
X133331800Y-98054994D03*
X133331800Y-97404983D03*
X133331800Y-96754972D03*
X133331800Y-96104960D03*
X133331800Y-95454949D03*
X133331800Y-94804937D03*
X133331800Y-94154926D03*
D36*
X130360000Y-98380000D03*
D17*
X123011000Y-77054800D03*
X121011000Y-77054800D03*
D19*
X121629200Y-67772300D03*
X121629200Y-65697300D03*
D15*
X115170000Y-105470000D03*
D16*
X115170000Y-102930000D03*
X115170000Y-100390000D03*
X115170000Y-97850000D03*
D15*
X186867500Y-62905000D03*
D16*
X186867500Y-60365000D03*
X186867500Y-57825000D03*
D37*
X158863000Y-45590000D03*
X158863000Y-46860000D03*
X158863000Y-48130000D03*
X158863000Y-49400000D03*
X158863000Y-50670000D03*
X158863000Y-51940000D03*
X158863000Y-53210000D03*
X158863000Y-54480000D03*
X158863000Y-55750000D03*
X158863000Y-57020000D03*
X158863000Y-58290000D03*
X158863000Y-59560000D03*
X158863000Y-60830000D03*
X158863000Y-62100000D03*
D38*
X160628000Y-63350000D03*
X161898000Y-63350000D03*
X163168000Y-63350000D03*
X164438000Y-63350000D03*
X165708000Y-63350000D03*
X166978000Y-63350000D03*
X168248000Y-63350000D03*
X169518000Y-63350000D03*
X170788000Y-63350000D03*
X172058000Y-63350000D03*
X173328000Y-63350000D03*
X174598000Y-63350000D03*
D37*
X176363000Y-62100000D03*
X176363000Y-60830000D03*
X176363000Y-59560000D03*
X176363000Y-58290000D03*
X176363000Y-57020000D03*
X176363000Y-55750000D03*
X176363000Y-54480000D03*
X176363000Y-53210000D03*
X176363000Y-51940000D03*
X176363000Y-50670000D03*
X176363000Y-49400000D03*
X176363000Y-48130000D03*
X176363000Y-46860000D03*
X176363000Y-45590000D03*
D39*
X166113000Y-53310000D03*
X164713000Y-51910000D03*
X164713000Y-53310000D03*
X164713000Y-54710000D03*
X166113000Y-54710000D03*
X167513000Y-54710000D03*
X167513000Y-53310000D03*
X167513000Y-51910000D03*
X166113000Y-51910000D03*
D23*
X127622300Y-88950800D03*
X133083300Y-88950800D03*
D28*
X117043200Y-65713700D03*
X117043200Y-67788700D03*
D19*
X159664400Y-107518200D03*
X159664400Y-105443200D03*
D40*
X160731200Y-94121000D03*
X160731200Y-91821000D03*
X160731200Y-89521000D03*
D41*
X167157400Y-94112900D03*
X167157400Y-92412900D03*
D17*
X151294950Y-94819050D03*
X149294950Y-94819050D03*
D42*
X163359052Y-89014300D03*
X165874700Y-89014300D03*
D14*
X160535800Y-116763800D03*
X162610800Y-116763800D03*
D43*
X168735000Y-108375700D03*
X168735000Y-105124500D03*
D14*
X161755000Y-108127800D03*
X163830000Y-108127800D03*
D44*
X174498000Y-121532400D03*
X174498000Y-117532400D03*
D29*
X167259000Y-96234700D03*
X167259000Y-98234700D03*
D21*
X136490000Y-100220000D03*
X138490000Y-100220000D03*
D28*
X115595400Y-91342300D03*
X115595400Y-93417300D03*
D19*
X158267400Y-112318800D03*
X158267400Y-110243800D03*
D18*
X120030000Y-93425000D03*
X120030000Y-91425000D03*
D21*
X154365000Y-50730000D03*
X156365000Y-50730000D03*
D17*
X122991000Y-72724800D03*
X120991000Y-72724800D03*
X162842199Y-82377201D03*
X160842199Y-82377201D03*
D35*
X126949200Y-68469726D03*
X126949200Y-69119737D03*
X126949200Y-69769749D03*
X126949200Y-70419760D03*
X126949200Y-71069772D03*
X126949200Y-71719783D03*
X126949200Y-72369794D03*
X126949200Y-73019806D03*
X126949200Y-73669817D03*
X126949200Y-74319828D03*
X126949200Y-74969840D03*
X126949200Y-75619851D03*
X126949200Y-76269863D03*
X126949200Y-76919874D03*
X132892800Y-76919874D03*
X132892800Y-76269863D03*
X132892800Y-75619851D03*
X132892800Y-74969840D03*
X132892800Y-74319828D03*
X132892800Y-73669817D03*
X132892800Y-73019806D03*
X132892800Y-72369794D03*
X132892800Y-71719783D03*
X132892800Y-71069772D03*
X132892800Y-70419760D03*
X132892800Y-69769749D03*
X132892800Y-69119737D03*
X132892800Y-68469726D03*
D36*
X129921000Y-72694800D03*
D21*
X127920000Y-47810000D03*
X129920000Y-47810000D03*
D34*
X166827200Y-113233200D03*
X164752200Y-113233200D03*
D14*
X161820000Y-103320000D03*
X163895000Y-103320000D03*
D17*
X122981000Y-74864800D03*
X120981000Y-74864800D03*
X163855400Y-100736400D03*
X161855400Y-100736400D03*
D14*
X136258500Y-76987300D03*
X138333500Y-76987300D03*
X160485000Y-114477800D03*
X162560000Y-114477800D03*
D45*
X130622500Y-119595000D03*
X130622500Y-113340600D03*
D19*
X154180000Y-48685000D03*
X154180000Y-46610000D03*
D14*
X135875000Y-102530000D03*
X137950000Y-102530000D03*
D46*
X166072199Y-82737201D03*
X166072199Y-85117201D03*
D47*
X186000000Y-68940000D03*
D16*
X186000000Y-71480000D03*
X186000000Y-74020000D03*
X186000000Y-76560000D03*
X186000000Y-79100000D03*
X186000000Y-81640000D03*
X186000000Y-84180000D03*
X186000000Y-86720000D03*
X186000000Y-89260000D03*
X186000000Y-91800000D03*
X186000000Y-94340000D03*
X186000000Y-96880000D03*
X186000000Y-99420000D03*
X186000000Y-101960000D03*
X186000000Y-104500000D03*
X186000000Y-107040000D03*
D28*
X124770000Y-91405000D03*
X124770000Y-93480000D03*
D29*
X157251400Y-105222800D03*
X157251400Y-107222800D03*
D17*
X122971000Y-70594800D03*
X120971000Y-70594800D03*
D48*
X161830000Y-109750000D03*
X165380000Y-117590000D03*
X125914788Y-96305916D03*
X125462409Y-70612672D03*
X138229200Y-65989200D03*
X122681000Y-63984800D03*
X166649400Y-78536800D03*
X123680000Y-89660000D03*
X160620000Y-121060000D03*
X126220000Y-120040000D03*
X126010000Y-101170000D03*
X125401000Y-75594800D03*
X127330000Y-104230000D03*
X129235200Y-98018600D03*
X129971800Y-74828400D03*
D49*
X129250000Y-101760000D03*
D48*
X134950200Y-94157800D03*
X130987800Y-72339200D03*
X131445000Y-96240600D03*
X129235200Y-96240600D03*
X135686800Y-88950800D03*
X165275000Y-108180000D03*
X119534200Y-70649726D03*
X131419600Y-98018600D03*
X117610000Y-95040000D03*
X134797800Y-65227200D03*
X126871000Y-78534800D03*
X117017800Y-69291200D03*
X167260200Y-99570000D03*
X139739200Y-76922226D03*
X128803400Y-72339200D03*
D49*
X130360000Y-95030000D03*
D48*
X119584200Y-74869726D03*
X130276600Y-98907600D03*
X129946400Y-73202800D03*
X139390000Y-102480000D03*
X159419999Y-82452200D03*
X131445000Y-99771200D03*
X130276600Y-97155000D03*
D49*
X131520000Y-94460000D03*
D48*
X128828800Y-74091800D03*
X180340000Y-118745000D03*
X164070000Y-114690000D03*
X119710000Y-98930000D03*
X134950200Y-68478400D03*
X135000000Y-100000000D03*
D49*
X131040000Y-76050000D03*
D48*
X164236400Y-96545400D03*
D49*
X131470000Y-101750000D03*
D48*
X129260600Y-99771200D03*
D49*
X129940000Y-76630000D03*
X129940000Y-69670000D03*
D48*
X165315000Y-105930000D03*
X131013200Y-70561200D03*
X159620000Y-104022500D03*
X119660000Y-96780000D03*
X114706400Y-69164200D03*
X167601900Y-89014300D03*
X146239950Y-96166650D03*
X163340001Y-112387800D03*
X160743900Y-95389700D03*
X119660000Y-101270000D03*
X115646200Y-94996000D03*
D49*
X128770000Y-68940000D03*
X129180000Y-94470000D03*
D48*
X156540000Y-110382500D03*
X134661000Y-74724800D03*
D49*
X130350000Y-102350000D03*
D48*
X128803400Y-70561200D03*
X119584200Y-72729726D03*
X131013200Y-74091800D03*
D49*
X131080000Y-68940000D03*
D48*
X130302000Y-100533200D03*
X174472600Y-123291600D03*
D49*
X128810000Y-76070000D03*
D48*
X129946400Y-71450200D03*
X164110000Y-116750000D03*
X152654000Y-48685000D03*
X160140000Y-87850000D03*
X158500000Y-93500000D03*
X154500000Y-94970000D03*
X158500000Y-89500000D03*
X156500000Y-89500000D03*
X156500000Y-95500000D03*
X158500000Y-95500000D03*
X158210000Y-87830000D03*
X156500000Y-93500000D03*
X152880000Y-50730000D03*
X168606400Y-92407200D03*
X158500000Y-91500000D03*
X156130000Y-87810000D03*
X156500000Y-91500000D03*
X161510000Y-80890000D03*
X123500000Y-54320000D03*
X126290000Y-112890000D03*
X125561000Y-72314800D03*
X125521000Y-73244800D03*
X124301000Y-74964800D03*
X124305620Y-71010180D03*
X126040000Y-99150000D03*
X125985006Y-98054994D03*
X124470000Y-96754983D03*
X124190000Y-101040000D03*
X172955600Y-56674400D03*
X173761400Y-59131200D03*
X162306000Y-46050200D03*
X156405700Y-54780300D03*
X169690000Y-69780000D03*
X173820000Y-61880000D03*
X142036800Y-76650000D03*
X162620000Y-65460000D03*
X160570000Y-84420000D03*
X160320000Y-55420000D03*
X184010000Y-84200000D03*
X160500000Y-50670000D03*
X134411000Y-73674800D03*
X184010000Y-89260000D03*
X184020000Y-74010000D03*
X135841000Y-71719772D03*
X160630000Y-49400000D03*
X140944600Y-66598800D03*
X158580000Y-65110000D03*
X184020000Y-79100000D03*
X168850000Y-61020000D03*
X169550000Y-67210000D03*
X183890000Y-101940000D03*
X184020000Y-86700000D03*
X166840000Y-58660000D03*
X167199240Y-70910760D03*
X183870000Y-99450000D03*
X154700000Y-74624972D03*
X159540000Y-74620000D03*
X184020000Y-107080000D03*
X183900000Y-91810000D03*
X184060000Y-71460000D03*
X184010000Y-76560000D03*
X136292486Y-97432486D03*
X165520000Y-57970000D03*
X184010000Y-68930000D03*
X155751369Y-73988027D03*
X157950000Y-73970000D03*
X160800000Y-62000000D03*
X150600000Y-75340000D03*
X183930000Y-94340000D03*
X184030000Y-104480000D03*
X183910000Y-81640000D03*
X183980000Y-96880000D03*
D49*
X169110000Y-53990000D03*
D48*
X184937400Y-60350400D03*
D49*
X160220000Y-73960000D03*
D48*
X167513000Y-51917600D03*
X131890000Y-47850000D03*
D49*
X157600000Y-65660000D03*
D48*
X167513000Y-54710000D03*
X166116000Y-51866800D03*
X152740000Y-53030000D03*
D49*
X172570000Y-59450000D03*
X149570000Y-75270000D03*
X171860000Y-56800000D03*
X163060000Y-46690000D03*
X155970000Y-73090000D03*
X172860000Y-57720000D03*
X152980000Y-72110000D03*
D48*
X132170000Y-54240000D03*
D49*
X169878909Y-71018909D03*
X166210000Y-71430000D03*
X170350000Y-52840000D03*
D48*
X154040000Y-45350000D03*
D49*
X166650000Y-48800000D03*
X169140000Y-51680000D03*
D48*
X167538400Y-53314600D03*
X156470000Y-45310000D03*
X166136166Y-53310000D03*
D49*
X172900000Y-61330000D03*
X157590000Y-64550000D03*
X168360000Y-67550000D03*
X158770000Y-73290000D03*
X167630000Y-50170000D03*
X164711091Y-57748909D03*
D48*
X174498000Y-115722400D03*
X152655100Y-58592200D03*
X178060000Y-45560000D03*
X143103600Y-56388000D03*
D49*
X141430000Y-75060000D03*
X170170000Y-50220000D03*
X165370000Y-47360000D03*
D48*
X143179800Y-49555400D03*
X166116000Y-54737000D03*
D49*
X168900000Y-70410000D03*
D48*
X164719000Y-54737000D03*
D49*
X135390000Y-97237514D03*
X168000000Y-61320000D03*
X150233525Y-74346475D03*
X140220000Y-75080000D03*
X164340000Y-48770000D03*
X167780000Y-47360000D03*
D48*
X164719000Y-51866800D03*
D49*
X141770000Y-66030000D03*
X152229696Y-72932486D03*
X169080000Y-48800000D03*
X165420000Y-50170000D03*
X173550000Y-60390000D03*
X171470000Y-54010000D03*
X165508909Y-56991091D03*
X167143909Y-72063909D03*
X170290000Y-55220000D03*
X141760000Y-67190000D03*
X135100000Y-72269772D03*
X163060000Y-45400000D03*
X171450000Y-51660000D03*
D48*
X184429400Y-50419000D03*
X164719000Y-53289200D03*
D50*
X161290001Y-110270001D02*
X161290001Y-110900000D01*
X159680000Y-108660000D02*
X161290001Y-110270001D01*
X159680000Y-107417500D02*
X159680000Y-108660000D01*
X160711100Y-112477500D02*
X160790000Y-112398600D01*
X158090000Y-112477500D02*
X160711100Y-112477500D01*
D51*
X163920000Y-119050000D02*
X165380000Y-117590000D01*
D50*
X161830000Y-110860001D02*
X161790001Y-110900000D01*
X161830000Y-109750000D02*
X161830000Y-110860001D01*
D51*
X162565000Y-119050000D02*
X163920000Y-119050000D01*
D50*
X164645000Y-113160000D02*
X162004902Y-113160000D01*
X162004902Y-113160000D02*
X161790001Y-112945099D01*
X168735000Y-108375700D02*
X168735000Y-113755000D01*
X168735000Y-113755000D02*
X167630000Y-114860000D01*
X164645000Y-113795000D02*
X164645000Y-113160000D01*
X167630000Y-114860000D02*
X165710000Y-114860000D01*
X161790001Y-112945099D02*
X161790001Y-112398600D01*
X165710000Y-114860000D02*
X164645000Y-113795000D01*
X162380002Y-110810000D02*
X162290002Y-110900000D01*
X164655000Y-110810000D02*
X162380002Y-110810000D01*
D51*
X157040000Y-107360000D02*
X157530058Y-107360000D01*
X160649301Y-110739301D02*
X160649301Y-110900000D01*
X157270000Y-107360000D02*
X160649301Y-110739301D01*
X157040000Y-107360000D02*
X157270000Y-107360000D01*
D50*
X125401000Y-75594800D02*
X126025960Y-74969840D01*
D52*
X123267400Y-63398400D02*
X127393700Y-63398400D01*
X117049374Y-65719874D02*
X117043200Y-65713700D01*
X160502500Y-116732500D02*
X160510000Y-116740000D01*
X119159200Y-65719874D02*
X117049374Y-65719874D01*
X121629200Y-65697300D02*
X121629200Y-65036600D01*
X129384500Y-120833000D02*
X130622500Y-119595000D01*
X160502500Y-114440000D02*
X160502500Y-114157500D01*
D53*
X126115744Y-96104960D02*
X127388200Y-96104960D01*
D52*
X126220000Y-120040000D02*
X127013000Y-120833000D01*
D50*
X126066693Y-70419760D02*
X126949200Y-70419760D01*
X126060653Y-70425800D02*
X126066693Y-70419760D01*
D53*
X125914788Y-96305916D02*
X126115744Y-96104960D01*
D52*
X122681000Y-63984800D02*
X123267400Y-63398400D01*
D50*
X125462409Y-70612672D02*
X125649281Y-70425800D01*
D52*
X122340000Y-91395000D02*
X122340000Y-91000000D01*
X120030000Y-91425000D02*
X117702500Y-91425000D01*
X117043200Y-65713700D02*
X114706400Y-65713700D01*
X115595400Y-91342300D02*
X117805200Y-91342300D01*
X160502500Y-114440000D02*
X160502500Y-116732500D01*
D50*
X126010000Y-101170000D02*
X126124200Y-101170000D01*
D52*
X117702500Y-91425000D02*
X117620000Y-91342500D01*
X121629200Y-65036600D02*
X122681000Y-63984800D01*
X117805200Y-91342300D02*
X117830600Y-91367700D01*
D50*
X161305000Y-113435000D02*
X161305000Y-112413599D01*
D52*
X127622300Y-88950800D02*
X124389200Y-88950800D01*
X160565000Y-119050000D02*
X160565000Y-116795000D01*
X122340000Y-91395000D02*
X120060000Y-91395000D01*
D50*
X127383240Y-100660000D02*
X127388200Y-100655040D01*
D52*
X161205000Y-113535000D02*
X160502500Y-114237500D01*
D50*
X161205000Y-113535000D02*
X161305000Y-113435000D01*
X126025960Y-74969840D02*
X126949200Y-74969840D01*
X161305000Y-112413599D02*
X161290001Y-112398600D01*
X126124200Y-101170000D02*
X126634200Y-100660000D01*
D52*
X160502500Y-114237500D02*
X160502500Y-114440000D01*
X120060000Y-91395000D02*
X120030000Y-91425000D01*
X119181774Y-65697300D02*
X119159200Y-65719874D01*
X122340000Y-91000000D02*
X123680000Y-89660000D01*
X160565000Y-121005000D02*
X160620000Y-121060000D01*
X127013000Y-120833000D02*
X129384500Y-120833000D01*
X124389200Y-88950800D02*
X123680000Y-89660000D01*
D50*
X125649281Y-70425800D02*
X126060653Y-70425800D01*
D52*
X121629200Y-65697300D02*
X119181774Y-65697300D01*
X160565000Y-116795000D02*
X160510000Y-116740000D01*
D50*
X126634200Y-100660000D02*
X127383240Y-100660000D01*
D52*
X160565000Y-119050000D02*
X160565000Y-121005000D01*
D54*
X116924600Y-69291200D02*
X117017800Y-69291200D01*
X133993953Y-74319828D02*
X134398925Y-74724800D01*
X174498000Y-123266200D02*
X174472600Y-123291600D01*
X132901474Y-68478400D02*
X132892800Y-68469726D01*
X174498000Y-121532400D02*
X174498000Y-123266200D01*
X146239950Y-98755650D02*
X146239950Y-96166650D01*
X159620000Y-104022500D02*
X159620000Y-105282500D01*
X137950000Y-102530000D02*
X139340000Y-102530000D01*
X165255000Y-105870000D02*
X165315000Y-105930000D01*
X167259000Y-98234700D02*
X167259000Y-99568800D01*
X134398925Y-74724800D02*
X134661000Y-74724800D01*
X164211000Y-96520000D02*
X164236400Y-96545400D01*
X139674126Y-76987300D02*
X139739200Y-76922226D01*
X119589126Y-72724800D02*
X119584200Y-72729726D01*
X119589126Y-70594800D02*
X119534200Y-70649726D01*
X133100858Y-63398400D02*
X134797800Y-65095342D01*
X134950200Y-94157800D02*
X133334674Y-94157800D01*
X117043200Y-67788700D02*
X117043200Y-69265800D01*
X133334674Y-94157800D02*
X133331800Y-94154926D01*
X121040000Y-101300000D02*
X119690000Y-101300000D01*
X139340000Y-102530000D02*
X139390000Y-102480000D01*
X120991000Y-72724800D02*
X119589126Y-72724800D01*
X133331800Y-100005028D02*
X134994972Y-100005028D01*
X117043200Y-69265800D02*
X117017800Y-69291200D01*
X159620000Y-105282500D02*
X159680000Y-105342500D01*
X160731200Y-95377000D02*
X160743900Y-95389700D01*
X159610000Y-104012500D02*
X159620000Y-104022500D01*
X115595400Y-94945200D02*
X115646200Y-94996000D01*
X163875000Y-108280000D02*
X165175000Y-108280000D01*
X134950200Y-68478400D02*
X132901474Y-68478400D01*
X162577500Y-114440000D02*
X163820000Y-114440000D01*
X120971000Y-70594800D02*
X119589126Y-70594800D01*
X132854700Y-63398400D02*
X133100858Y-63398400D01*
X126949200Y-76919874D02*
X126949200Y-78456600D01*
X114706400Y-69164200D02*
X114706400Y-67788700D01*
X134994972Y-100005028D02*
X135000000Y-100000000D01*
X115595400Y-93417300D02*
X115595400Y-94945200D01*
X117620000Y-95030000D02*
X117610000Y-95040000D01*
X164100000Y-116740000D02*
X164110000Y-116750000D01*
X119589126Y-74864800D02*
X119584200Y-74869726D01*
X120981000Y-74864800D02*
X119589126Y-74864800D01*
X164211000Y-94806024D02*
X164211000Y-96520000D01*
X132892800Y-74319828D02*
X133993953Y-74319828D01*
X160842199Y-82377201D02*
X159494998Y-82377201D01*
X121060000Y-96750000D02*
X119690000Y-96750000D01*
X133083300Y-88950800D02*
X135686800Y-88950800D01*
X117620000Y-93417500D02*
X117620000Y-95030000D01*
X163340001Y-112387800D02*
X163329201Y-112398600D01*
X163925000Y-105870000D02*
X165255000Y-105870000D01*
X163329201Y-112398600D02*
X162330701Y-112398600D01*
X127388200Y-104171800D02*
X127330000Y-104230000D01*
X126949200Y-78456600D02*
X126871000Y-78534800D01*
X159610000Y-102612500D02*
X159610000Y-104012500D01*
X159494998Y-82377201D02*
X159419999Y-82452200D01*
X167259000Y-99568800D02*
X167260200Y-99570000D01*
X162585000Y-116740000D02*
X164100000Y-116740000D01*
X127388200Y-102605074D02*
X127388200Y-104171800D01*
X163820000Y-114440000D02*
X164070000Y-114690000D01*
X134797800Y-65095342D02*
X134797800Y-65227200D01*
X160731200Y-94121000D02*
X160731200Y-95377000D01*
X156540000Y-110382500D02*
X158070000Y-110382500D01*
X121110000Y-98970000D02*
X119750000Y-98970000D01*
X158070000Y-110382500D02*
X158090000Y-110402500D01*
X165175000Y-108280000D02*
X165275000Y-108180000D01*
X165874700Y-89014300D02*
X167601900Y-89014300D01*
X138333500Y-76987300D02*
X139674126Y-76987300D01*
D51*
X167157400Y-92412900D02*
X168600700Y-92412900D01*
D50*
X158680000Y-47050000D02*
X158870000Y-46860000D01*
D51*
X152654000Y-48685000D02*
X154180000Y-48685000D01*
X158165000Y-46860000D02*
X158870000Y-46860000D01*
X166188300Y-91443800D02*
X167157400Y-92412900D01*
X164211000Y-92290376D02*
X165057576Y-91443800D01*
X154180000Y-48685000D02*
X156340000Y-48685000D01*
X161108400Y-91443800D02*
X163364424Y-91443800D01*
X160731200Y-91821000D02*
X161108400Y-91443800D01*
X163364424Y-91443800D02*
X164211000Y-92290376D01*
X156340000Y-48685000D02*
X158165000Y-46860000D01*
X165057576Y-91443800D02*
X166188300Y-91443800D01*
X168600700Y-92412900D02*
X168606400Y-92407200D01*
D50*
X158870000Y-46860000D02*
X158340000Y-46860000D01*
D51*
X154365000Y-50730000D02*
X152880000Y-50730000D01*
D50*
X157650000Y-49445000D02*
X156365000Y-50730000D01*
X158870000Y-48130000D02*
X158382300Y-48130000D01*
X152095200Y-59766200D02*
X150825200Y-58496200D01*
X156227600Y-58496200D02*
X157302200Y-57421600D01*
X156227600Y-58496200D02*
X154957600Y-59766200D01*
X156365000Y-52970000D02*
X156415000Y-53020000D01*
X156445000Y-50550000D02*
X156395000Y-50500000D01*
X154957600Y-59766200D02*
X152095200Y-59766200D01*
X150825200Y-58496200D02*
X150825200Y-56515000D01*
X158382300Y-48130000D02*
X157650000Y-48862300D01*
X157302200Y-57421600D02*
X157302200Y-53907200D01*
X157650000Y-48862300D02*
X157650000Y-49445000D01*
X156365000Y-50730000D02*
X156755000Y-50730000D01*
X156415000Y-53020000D02*
X157302200Y-53907200D01*
X156365000Y-50730000D02*
X156365000Y-52970000D01*
X156415000Y-50780000D02*
X156365000Y-50730000D01*
D51*
X162512476Y-88167724D02*
X163359052Y-89014300D01*
X166072199Y-85117201D02*
X166072199Y-84803601D01*
X164837097Y-85117201D02*
X162512476Y-87441822D01*
X166072199Y-85117201D02*
X164837097Y-85117201D01*
X166700200Y-84175600D02*
X168376600Y-84175600D01*
X166072199Y-84803601D02*
X166700200Y-84175600D01*
X162512476Y-87441822D02*
X162512476Y-88167724D01*
X160731200Y-89521000D02*
X162852352Y-89521000D01*
X162852352Y-89521000D02*
X163359052Y-89014300D01*
X168376600Y-84175600D02*
X169037000Y-84836000D01*
D50*
X166655000Y-113095000D02*
X166720000Y-113160000D01*
X166655000Y-110810000D02*
X166655000Y-113095000D01*
D51*
X170535600Y-100228400D02*
X170535600Y-84352801D01*
X163895000Y-103825000D02*
X161850000Y-105870000D01*
X170535600Y-84352801D02*
X170916600Y-83971801D01*
X163855000Y-100770000D02*
X163855000Y-103280000D01*
X161850000Y-108230000D02*
X161800000Y-108280000D01*
X163895000Y-103320000D02*
X163895000Y-103825000D01*
X163855000Y-100770000D02*
X169994000Y-100770000D01*
X168735000Y-105124500D02*
X168735000Y-105117922D01*
X168735000Y-105117922D02*
X166937078Y-103320000D01*
X161850000Y-105870000D02*
X161850000Y-108230000D01*
X166937078Y-103320000D02*
X163895000Y-103320000D01*
X169994000Y-100770000D02*
X170535600Y-100228400D01*
X163855000Y-103280000D02*
X163895000Y-103320000D01*
D50*
X161855000Y-103285000D02*
X161820000Y-103320000D01*
X161855000Y-100770000D02*
X161855000Y-103285000D01*
X157040000Y-103182500D02*
X157040000Y-105360000D01*
X159610000Y-100612500D02*
X157040000Y-103182500D01*
X161855000Y-100770000D02*
X159767500Y-100770000D01*
D51*
X122340000Y-93470000D02*
X124260000Y-95390000D01*
X124260000Y-95390000D02*
X126170000Y-95390000D01*
D50*
X126234949Y-95454949D02*
X126170000Y-95390000D01*
D51*
X120030000Y-93425000D02*
X122295000Y-93425000D01*
D50*
X122295000Y-93425000D02*
X122340000Y-93470000D01*
D55*
X127323251Y-95390000D02*
X127388200Y-95454949D01*
X126170000Y-95390000D02*
X127323251Y-95390000D01*
D50*
X124770000Y-91405000D02*
X124770000Y-91536726D01*
X124770000Y-91536726D02*
X127388200Y-94154926D01*
X124770000Y-93480000D02*
X125400000Y-94110000D01*
X125400000Y-94110000D02*
X125940000Y-94110000D01*
X125940000Y-94110000D02*
X126634937Y-94804937D01*
X126634937Y-94804937D02*
X127388200Y-94804937D01*
D52*
X119159200Y-67719874D02*
X121576774Y-67719874D01*
D50*
X121576774Y-67719874D02*
X121629200Y-67772300D01*
D52*
X124361000Y-69164800D02*
X124371000Y-69174800D01*
X125791000Y-69764800D02*
X125791000Y-69774800D01*
X125201000Y-69174800D02*
X125791000Y-69764800D01*
X124371000Y-69174800D02*
X125201000Y-69174800D01*
X121629200Y-67772300D02*
X121629200Y-68463000D01*
D50*
X125796051Y-69769749D02*
X125791000Y-69774800D01*
D52*
X122331000Y-69164800D02*
X124361000Y-69164800D01*
D55*
X126949200Y-69769749D02*
X125796051Y-69769749D01*
D52*
X121629200Y-68463000D02*
X122331000Y-69164800D01*
D50*
X124131000Y-65697300D02*
X124176774Y-65697300D01*
X124176774Y-65697300D02*
X126949200Y-68469726D01*
X126949200Y-69119737D02*
X126752589Y-68923126D01*
X126013200Y-68923126D02*
X124862374Y-67772300D01*
X124862374Y-67772300D02*
X124131000Y-67772300D01*
X126752589Y-68923126D02*
X126013200Y-68923126D01*
D51*
X135805000Y-102600000D02*
X133336874Y-102600000D01*
X132915000Y-105490000D02*
X135875000Y-102530000D01*
X136068498Y-102530000D02*
X135875000Y-102530000D01*
X133336874Y-102600000D02*
X133331800Y-102605074D01*
X135875000Y-102530000D02*
X135805000Y-102600000D01*
X126740000Y-105490000D02*
X132915000Y-105490000D01*
X133331800Y-102605074D02*
X133331800Y-101955063D01*
X125100000Y-105490000D02*
X127590000Y-105490000D01*
X138378498Y-100220000D02*
X136068498Y-102530000D01*
D50*
X122610000Y-103360000D02*
X122610000Y-103190000D01*
D51*
X123060000Y-103450000D02*
X125100000Y-105490000D01*
X138490000Y-100220000D02*
X138490000Y-100512500D01*
X133331800Y-101955063D02*
X133331800Y-101308440D01*
X138490000Y-100220000D02*
X138378498Y-100220000D01*
X123651000Y-77054800D02*
X126521000Y-79924800D01*
X126521000Y-79924800D02*
X132615374Y-79924800D01*
X132615374Y-79924800D02*
X135552874Y-76987300D01*
X132892800Y-76269863D02*
X132892800Y-76919874D01*
X138343500Y-74737300D02*
X138343500Y-74902300D01*
X138343500Y-74902300D02*
X136258500Y-76987300D01*
X123011000Y-77054800D02*
X123651000Y-77054800D01*
X135485448Y-76919874D02*
X132892800Y-76919874D01*
X132912800Y-76899874D02*
X132892800Y-76919874D01*
X135552874Y-76987300D02*
X136258500Y-76987300D01*
X132892800Y-76269863D02*
X132892800Y-75623240D01*
X135552874Y-76987300D02*
X135485448Y-76919874D01*
D50*
X114222600Y-54330600D02*
X114083200Y-54470000D01*
X114083200Y-49670000D02*
X113615630Y-49670000D01*
X113615630Y-54470000D02*
X114083200Y-54470000D01*
X123500000Y-54320000D02*
X123489400Y-54330600D01*
X114182400Y-54370800D02*
X114083200Y-54470000D01*
D51*
X162842199Y-82222199D02*
X162842199Y-82377201D01*
D50*
X112856200Y-50429430D02*
X112856200Y-53710570D01*
D51*
X163202199Y-82737201D02*
X162842199Y-82377201D01*
X123500000Y-54320000D02*
X115483200Y-54320000D01*
X168768199Y-82737201D02*
X169037000Y-83006002D01*
D50*
X113615630Y-49670000D02*
X112856200Y-50429430D01*
D51*
X166072199Y-82737201D02*
X163202199Y-82737201D01*
D50*
X114224576Y-54457600D02*
X115620800Y-54457600D01*
D51*
X161510000Y-80890000D02*
X162842199Y-82222199D01*
D50*
X112856200Y-53710570D02*
X113615630Y-54470000D01*
D51*
X166072199Y-82737201D02*
X168768199Y-82737201D01*
D50*
X167157400Y-96133100D02*
X167259000Y-96234700D01*
X167157400Y-94112900D02*
X167157400Y-96133100D01*
D52*
X134045150Y-109917950D02*
X148779950Y-109917950D01*
X130622500Y-113340600D02*
X134045150Y-109917950D01*
X129384500Y-112102600D02*
X130622500Y-113340600D01*
X126290000Y-112890000D02*
X127077400Y-112102600D01*
X127077400Y-112102600D02*
X129384500Y-112102600D01*
D50*
X125615994Y-72369794D02*
X126949200Y-72369794D01*
X125561000Y-72314800D02*
X125615994Y-72369794D01*
X126949200Y-73019806D02*
X125745994Y-73019806D01*
X125745994Y-73019806D02*
X125521000Y-73244800D01*
X125627100Y-74715800D02*
X126023072Y-74319828D01*
X126023072Y-74319828D02*
X126949200Y-74319828D01*
X124550000Y-74715800D02*
X125627100Y-74715800D01*
X124301000Y-74964800D02*
X124550000Y-74715800D01*
X124305620Y-71010180D02*
X124559240Y-71263800D01*
X124559240Y-71263800D02*
X126755172Y-71263800D01*
X126755172Y-71263800D02*
X126949200Y-71069772D01*
X126040000Y-99150000D02*
X126484994Y-98705006D01*
X126484994Y-98705006D02*
X127388200Y-98705006D01*
X125985006Y-98054994D02*
X127388200Y-98054994D01*
X124719000Y-97003983D02*
X126135961Y-97003983D01*
X126384972Y-96754972D02*
X127388200Y-96754972D01*
X124470000Y-96754983D02*
X124719000Y-97003983D01*
X126135961Y-97003983D02*
X126384972Y-96754972D01*
X126207100Y-100520000D02*
X126722072Y-100005028D01*
X124190000Y-101040000D02*
X124710000Y-100520000D01*
X126722072Y-100005028D02*
X127388200Y-100005028D01*
X124710000Y-100520000D02*
X126207100Y-100520000D01*
X114889600Y-50820000D02*
X114083200Y-50820000D01*
X117906800Y-47802800D02*
X114889600Y-50820000D01*
X125321624Y-47802800D02*
X117906800Y-47802800D01*
X114132200Y-50771000D02*
X114083200Y-50820000D01*
X127920000Y-47810000D02*
X125328824Y-47810000D01*
X125328824Y-47810000D02*
X125321624Y-47802800D01*
D56*
X114083200Y-51820000D02*
X114157200Y-51746000D01*
X144992156Y-61665000D02*
X157311049Y-61665000D01*
X114083200Y-51820000D02*
X114656668Y-51820000D01*
X114656668Y-51820000D02*
X114934200Y-52097532D01*
X114856668Y-51620000D02*
X134947156Y-51620000D01*
X157311049Y-61665000D02*
X157746049Y-62100000D01*
X114805868Y-51670800D02*
X114856668Y-51620000D01*
X114934200Y-52097532D02*
X114934200Y-52543999D01*
X114934200Y-52543999D02*
X114658199Y-52820000D01*
X114658199Y-52820000D02*
X114083200Y-52820000D01*
X134947156Y-51620000D02*
X144992156Y-61665000D01*
X157746049Y-62100000D02*
X158870000Y-62100000D01*
X114157200Y-51746000D02*
X114730668Y-51746000D01*
X114730668Y-51746000D02*
X114805868Y-51670800D01*
D50*
X114741024Y-53771000D02*
X114842024Y-53670000D01*
X114132200Y-53771000D02*
X114741024Y-53771000D01*
X114083200Y-53820000D02*
X114132200Y-53771000D01*
X127720000Y-53670000D02*
X128290000Y-54240000D01*
X114842024Y-53670000D02*
X127720000Y-53670000D01*
D56*
X157746049Y-60830000D02*
X158870000Y-60830000D01*
X114083200Y-51320000D02*
X114132400Y-51270800D01*
X114756668Y-51220000D02*
X114656668Y-51320000D01*
X114656668Y-51320000D02*
X114083200Y-51320000D01*
X114756668Y-51220000D02*
X135112844Y-51220000D01*
X113232200Y-52149000D02*
X113403200Y-52320000D01*
X145157844Y-61265000D02*
X157311049Y-61265000D01*
X114083200Y-51320000D02*
X113509732Y-51320000D01*
X113509732Y-51320000D02*
X113232200Y-51597532D01*
X113232200Y-51597532D02*
X113232200Y-52149000D01*
X157311049Y-61265000D02*
X157746049Y-60830000D01*
X135112844Y-51220000D02*
X145157844Y-61265000D01*
X113403200Y-52320000D02*
X114083200Y-52320000D01*
X114083200Y-51320000D02*
X114157200Y-51246000D01*
D50*
X172955600Y-56674400D02*
X169950000Y-59680000D01*
X169950000Y-59680000D02*
X163142900Y-59680000D01*
X159212900Y-55750000D02*
X158870000Y-55750000D01*
X163142900Y-59680000D02*
X159212900Y-55750000D01*
X173761400Y-59131200D02*
X173761400Y-59283600D01*
X172825000Y-60220000D02*
X162412900Y-60220000D01*
X162412900Y-60220000D02*
X159212900Y-57020000D01*
X173761400Y-59283600D02*
X172825000Y-60220000D01*
X159212900Y-57020000D02*
X158870000Y-57020000D01*
X151294950Y-98730650D02*
X151319950Y-98755650D01*
X151294950Y-94819050D02*
X151294950Y-98730650D01*
X156405700Y-56023900D02*
X156194000Y-56235600D01*
X156405700Y-54780300D02*
X156405700Y-56023900D01*
X176370000Y-62100000D02*
X175882300Y-62100000D01*
X168980200Y-46050200D02*
X162306000Y-46050200D01*
X174929800Y-51999800D02*
X168980200Y-46050200D01*
X175882300Y-62100000D02*
X174929800Y-61147500D01*
X174929800Y-61147500D02*
X174929800Y-51999800D01*
X150850600Y-49733200D02*
X150850600Y-52705000D01*
X154194000Y-56048400D02*
X154194000Y-56235600D01*
X150850600Y-52705000D02*
X154194000Y-56048400D01*
X125354983Y-97404983D02*
X127388200Y-97404983D01*
X123060000Y-96750000D02*
X123714983Y-97404983D01*
X123714983Y-97404983D02*
X125560000Y-97404983D01*
X123110000Y-99700000D02*
X123450000Y-100040000D01*
X126120000Y-100040000D02*
X126804983Y-99355017D01*
X123450000Y-100040000D02*
X126120000Y-100040000D01*
X126804983Y-99355017D02*
X127388200Y-99355017D01*
X123110000Y-98970000D02*
X123110000Y-99700000D01*
X124041000Y-71664800D02*
X126894217Y-71664800D01*
X122971000Y-70594800D02*
X124041000Y-71664800D01*
X126894217Y-71664800D02*
X126949200Y-71719783D01*
X122991000Y-73094800D02*
X122991000Y-72724800D01*
X125461000Y-74314800D02*
X124211000Y-74314800D01*
X126105983Y-73669817D02*
X125461000Y-74314800D01*
X124211000Y-74314800D02*
X122991000Y-73094800D01*
X126949200Y-73669817D02*
X126105983Y-73669817D01*
X123040000Y-101300000D02*
X123695063Y-101955063D01*
X121060000Y-103450000D02*
X121060000Y-103280000D01*
X127388200Y-101305051D02*
X127388200Y-101955063D01*
X123695063Y-101955063D02*
X127388200Y-101955063D01*
X121060000Y-103280000D02*
X123040000Y-101300000D01*
X126949200Y-75619851D02*
X126949200Y-76269863D01*
X125935937Y-76269863D02*
X125501000Y-76704800D01*
X122981000Y-74864800D02*
X122981000Y-75084800D01*
X122981000Y-75194800D02*
X122981000Y-74864800D01*
X125501000Y-76704800D02*
X124491000Y-76704800D01*
X122981000Y-75084800D02*
X121011000Y-77054800D01*
X126949200Y-75619851D02*
X126585949Y-75619851D01*
X124491000Y-76704800D02*
X122981000Y-75194800D01*
X126949200Y-76269863D02*
X125935937Y-76269863D01*
X165715000Y-63007100D02*
X166842100Y-61880000D01*
X166842100Y-61880000D02*
X173820000Y-61880000D01*
X133331800Y-100655040D02*
X134205040Y-100655040D01*
X165715000Y-63350000D02*
X165715000Y-63007100D01*
X169690000Y-69780000D02*
X169690000Y-70430000D01*
X136490000Y-100220000D02*
X136044960Y-100665040D01*
X135780000Y-100930000D02*
X136490000Y-100220000D01*
X140901000Y-99219000D02*
X137491000Y-99219000D01*
X134205040Y-100655040D02*
X134480000Y-100930000D01*
X137491000Y-99219000D02*
X136490000Y-100220000D01*
X134480000Y-100930000D02*
X135780000Y-100930000D01*
X169690000Y-70430000D02*
X140901000Y-99219000D01*
X132892800Y-74969840D02*
X133736040Y-74969840D01*
X142036800Y-76650000D02*
X140830000Y-75443200D01*
X162620000Y-65460000D02*
X162677900Y-65460000D01*
X137986000Y-73094800D02*
X136343500Y-74737300D01*
X164445000Y-63692900D02*
X164445000Y-63350000D01*
X136262834Y-74952340D02*
X136582800Y-74632374D01*
X133736040Y-74969840D02*
X134371000Y-75604800D01*
X135476000Y-75604800D02*
X136343500Y-74737300D01*
X139541200Y-73094800D02*
X137986000Y-73094800D01*
X162677900Y-65460000D02*
X164445000Y-63692900D01*
X140830000Y-75443200D02*
X140830000Y-74383600D01*
X140830000Y-74383600D02*
X139541200Y-73094800D01*
X134371000Y-75604800D02*
X135476000Y-75604800D01*
X156950000Y-84420000D02*
X160570000Y-84420000D01*
X149294950Y-92075050D02*
X156950000Y-84420000D01*
X159380000Y-54480000D02*
X160320000Y-55420000D01*
X158870000Y-54480000D02*
X159380000Y-54480000D01*
X149294950Y-94819050D02*
X149294950Y-92075050D01*
X180517800Y-82448400D02*
X180517800Y-56987800D01*
X177950000Y-54420000D02*
X176390000Y-54420000D01*
X182295800Y-84226400D02*
X180517800Y-82448400D01*
X180517800Y-56987800D02*
X177950000Y-54420000D01*
X184010000Y-84200000D02*
X183983600Y-84226400D01*
X183983600Y-84226400D02*
X182295800Y-84226400D01*
X161052951Y-69769749D02*
X166985000Y-63837700D01*
X133516749Y-95270000D02*
X135552700Y-95270000D01*
X133331800Y-95454949D02*
X133516749Y-95270000D01*
X135552700Y-95270000D02*
X161052951Y-69769749D01*
X166985000Y-63837700D02*
X166985000Y-63350000D01*
X132892800Y-69769749D02*
X161052951Y-69769749D01*
X132892800Y-73669817D02*
X134391000Y-73669817D01*
X134391000Y-73669817D02*
X134406017Y-73669817D01*
X158870000Y-50670000D02*
X160500000Y-50670000D01*
X134406017Y-73669817D02*
X134411000Y-73674800D01*
X179374800Y-58394800D02*
X177930000Y-56950000D01*
X177930000Y-56950000D02*
X176370000Y-56950000D01*
X184010000Y-89260000D02*
X179374800Y-84624800D01*
X179374800Y-84624800D02*
X179374800Y-58394800D01*
X182651400Y-54281400D02*
X182651400Y-72641400D01*
X176310000Y-49410000D02*
X177780000Y-49410000D01*
X182651400Y-72641400D02*
X184020000Y-74010000D01*
X177780000Y-49410000D02*
X182651400Y-54281400D01*
X140944600Y-66598800D02*
X153257000Y-66598800D01*
X133566006Y-72369794D02*
X132892800Y-72369794D01*
X134216028Y-71719772D02*
X133566006Y-72369794D01*
X153257000Y-66598800D02*
X154745800Y-65110000D01*
X154745800Y-65110000D02*
X158580000Y-65110000D01*
X135841000Y-71719772D02*
X134216028Y-71719772D01*
X158870000Y-49400000D02*
X160630000Y-49400000D01*
X176370000Y-51940000D02*
X177960000Y-51940000D01*
X181660800Y-55640800D02*
X181660800Y-76740800D01*
X177960000Y-51940000D02*
X181660800Y-55640800D01*
X181660800Y-76740800D02*
X184020000Y-79100000D01*
X163175000Y-62365000D02*
X163175000Y-63350000D01*
X169550000Y-67210000D02*
X138520000Y-98240000D01*
X138520000Y-98240000D02*
X134700000Y-98240000D01*
X168850000Y-61020000D02*
X168600000Y-60770000D01*
X168600000Y-60770000D02*
X164770000Y-60770000D01*
X164770000Y-60770000D02*
X163175000Y-62365000D01*
X134234994Y-98705006D02*
X133331800Y-98705006D01*
X134700000Y-98240000D02*
X134234994Y-98705006D01*
X183890000Y-101940000D02*
X181543600Y-101940000D01*
X174294800Y-94691200D02*
X174294800Y-68494800D01*
X181543600Y-101940000D02*
X174294800Y-94691200D01*
X174294800Y-68494800D02*
X173335000Y-67535000D01*
X173335000Y-67535000D02*
X173335000Y-63350000D01*
X177840000Y-55680000D02*
X176370000Y-55680000D01*
X180009800Y-57849800D02*
X177840000Y-55680000D01*
X184020000Y-86700000D02*
X182864400Y-86700000D01*
X182864400Y-86700000D02*
X180009800Y-83845400D01*
X184020000Y-86700000D02*
X184010200Y-86690200D01*
X180009800Y-83845400D02*
X180009800Y-57849800D01*
X164750000Y-58660000D02*
X159300000Y-53210000D01*
X167199240Y-70910760D02*
X167199240Y-71230760D01*
X167199240Y-71230760D02*
X139789000Y-98641000D01*
X159300000Y-53210000D02*
X158870000Y-53210000D01*
X166840000Y-58660000D02*
X164750000Y-58660000D01*
X139789000Y-98641000D02*
X135209000Y-98641000D01*
X135209000Y-98641000D02*
X134494983Y-99355017D01*
X134494983Y-99355017D02*
X133331800Y-99355017D01*
X180704600Y-99450000D02*
X183870000Y-99450000D01*
X174605000Y-67035000D02*
X175260000Y-67690000D01*
X174605000Y-63350000D02*
X174605000Y-67035000D01*
X175260000Y-67690000D02*
X175260000Y-94005400D01*
X175260000Y-94005400D02*
X180704600Y-99450000D01*
X159540000Y-74620000D02*
X160390000Y-74620000D01*
X160390000Y-74620000D02*
X169525000Y-65485000D01*
X138450000Y-96560000D02*
X160390000Y-74620000D01*
X154700000Y-74624972D02*
X151093428Y-71018400D01*
X133526772Y-96560000D02*
X138450000Y-96560000D01*
X151093428Y-71018400D02*
X133578600Y-71018400D01*
X169525000Y-65485000D02*
X169525000Y-63350000D01*
X133331800Y-96754972D02*
X133526772Y-96560000D01*
X172618400Y-69799200D02*
X172618400Y-95678400D01*
X170795000Y-67975800D02*
X172618400Y-69799200D01*
X170795000Y-63350000D02*
X170795000Y-67975800D01*
X172618400Y-95678400D02*
X184020000Y-107080000D01*
X178714400Y-59461400D02*
X178714400Y-86624400D01*
X176410000Y-58220000D02*
X177473000Y-58220000D01*
X177473000Y-58220000D02*
X178714400Y-59461400D01*
X178714400Y-86624400D02*
X183900000Y-91810000D01*
X177930000Y-48130000D02*
X176370000Y-48130000D01*
X184060000Y-71460000D02*
X183108600Y-70508600D01*
X183108600Y-70508600D02*
X183108600Y-53308600D01*
X183108600Y-53308600D02*
X177930000Y-48130000D01*
X182143400Y-54953400D02*
X182143400Y-74693400D01*
X176310000Y-50680000D02*
X177870000Y-50680000D01*
X177870000Y-50680000D02*
X182143400Y-54953400D01*
X182143400Y-74693400D02*
X184010000Y-76560000D01*
X134312486Y-97787514D02*
X134045006Y-98054994D01*
X135922486Y-97787514D02*
X134312486Y-97787514D01*
X165520000Y-57780000D02*
X165520000Y-57970000D01*
X158870000Y-51940000D02*
X159680000Y-51940000D01*
X159680000Y-51940000D02*
X165520000Y-57780000D01*
X136277514Y-97432486D02*
X135922486Y-97787514D01*
X134045006Y-98054994D02*
X133331800Y-98054994D01*
X176370000Y-46860000D02*
X177840000Y-46860000D01*
X177840000Y-46860000D02*
X184010000Y-53030000D01*
X184010000Y-53030000D02*
X184010000Y-68930000D01*
X159080000Y-73970000D02*
X159085000Y-73975000D01*
X134267800Y-95900000D02*
X134267800Y-95908349D01*
X159085000Y-73975000D02*
X137160000Y-95900000D01*
X157950000Y-73970000D02*
X159080000Y-73970000D01*
X133528411Y-95908349D02*
X133331800Y-96104960D01*
X152183102Y-70419760D02*
X132892800Y-70419760D01*
X134267800Y-95908349D02*
X133528411Y-95908349D01*
X137160000Y-95900000D02*
X134267800Y-95900000D01*
X155751369Y-73988027D02*
X152183102Y-70419760D01*
X155885040Y-73974960D02*
X155890000Y-73970000D01*
X168255000Y-63350000D02*
X168255000Y-64805000D01*
X157950000Y-73970000D02*
X158000000Y-74020000D01*
X168255000Y-64805000D02*
X159085000Y-73975000D01*
X159212900Y-59560000D02*
X158870000Y-59560000D01*
X160800000Y-61147100D02*
X159212900Y-59560000D01*
X158940000Y-59630000D02*
X158870000Y-59560000D01*
X146874800Y-71774800D02*
X137251000Y-71774800D01*
X150600000Y-75340000D02*
X150440000Y-75340000D01*
X137251000Y-71774800D02*
X136005994Y-73019806D01*
X150121000Y-75021000D02*
X150121000Y-75011768D01*
X149798232Y-74689000D02*
X149789000Y-74689000D01*
X160800000Y-62000000D02*
X160800000Y-61147100D01*
X149789000Y-74689000D02*
X146874800Y-71774800D01*
X150121000Y-75011768D02*
X149798232Y-74689000D01*
X150440000Y-75340000D02*
X150121000Y-75021000D01*
X136005994Y-73019806D02*
X132892800Y-73019806D01*
X178181000Y-60680600D02*
X178181000Y-88591000D01*
X176990400Y-59490000D02*
X178181000Y-60680600D01*
X178181000Y-88591000D02*
X183930000Y-94340000D01*
X176410000Y-59490000D02*
X176990400Y-59490000D01*
X173304200Y-95173800D02*
X173304200Y-69004200D01*
X184030000Y-104480000D02*
X182610400Y-104480000D01*
X182610400Y-104480000D02*
X173304200Y-95173800D01*
X172065000Y-67765000D02*
X172065000Y-63350000D01*
X173304200Y-69004200D02*
X172065000Y-67765000D01*
X181076600Y-56366600D02*
X177860000Y-53150000D01*
X183910000Y-81640000D02*
X182833600Y-81640000D01*
X182833600Y-81640000D02*
X181076600Y-79883000D01*
X177860000Y-53150000D02*
X176390000Y-53150000D01*
X181076600Y-79883000D02*
X181076600Y-56366600D01*
X177664600Y-90564600D02*
X177664600Y-61044600D01*
X177664600Y-61044600D02*
X177390000Y-60770000D01*
X177390000Y-60770000D02*
X176520000Y-60770000D01*
X183980000Y-96880000D02*
X177664600Y-90564600D01*
D54*
X156340000Y-45440000D02*
X156470000Y-45310000D01*
X129920000Y-47810000D02*
X131850000Y-47810000D01*
X152750000Y-53020000D02*
X152740000Y-53030000D01*
D50*
X156485000Y-45325000D02*
X156470000Y-45310000D01*
D54*
X167520000Y-53450000D02*
X167590000Y-53380000D01*
X154340000Y-53020000D02*
X152750000Y-53020000D01*
X114083200Y-55815000D02*
X113508200Y-56390000D01*
X154152600Y-58496200D02*
X152751100Y-58496200D01*
X144145000Y-49555400D02*
X144246600Y-49657000D01*
D50*
X152751100Y-58496200D02*
X152655100Y-58592200D01*
D54*
X114083200Y-55270000D02*
X114083200Y-55815000D01*
X131850000Y-47810000D02*
X131890000Y-47850000D01*
X144221200Y-56388000D02*
X144272000Y-56438800D01*
X156340000Y-46610000D02*
X156340000Y-45440000D01*
X143103600Y-56388000D02*
X144221200Y-56388000D01*
X154180000Y-45490000D02*
X154040000Y-45350000D01*
D50*
X166160000Y-51870000D02*
X166120000Y-51910000D01*
X167540000Y-51890000D02*
X167520000Y-51910000D01*
D54*
X114083200Y-48870000D02*
X114083200Y-48325000D01*
D50*
X164710000Y-53300000D02*
X164720000Y-53310000D01*
D54*
X156750000Y-45590000D02*
X156470000Y-45310000D01*
X164690000Y-54680000D02*
X164720000Y-54710000D01*
X114083200Y-48325000D02*
X113508200Y-47750000D01*
X158870000Y-45590000D02*
X156750000Y-45590000D01*
D50*
X178030000Y-45590000D02*
X178060000Y-45560000D01*
X166100000Y-54730000D02*
X166120000Y-54710000D01*
D54*
X176370000Y-45590000D02*
X178030000Y-45590000D01*
X174498000Y-117532400D02*
X174498000Y-115722400D01*
X130290000Y-54240000D02*
X132170000Y-54240000D01*
D50*
X153975000Y-45415000D02*
X154040000Y-45350000D01*
X164680000Y-51870000D02*
X164720000Y-51910000D01*
D54*
X154180000Y-46610000D02*
X154180000Y-45490000D01*
D50*
X167590000Y-53380000D02*
X167520000Y-53310000D01*
D54*
X143179800Y-49555400D02*
X144145000Y-49555400D01*
%TA.AperFunction,Conductor*%
G36*
X131677431Y-68509370D02*
G01*
X131682440Y-68509383D01*
X131749430Y-68529237D01*
X131795051Y-68582157D01*
X131806124Y-68634311D01*
X131799528Y-69516022D01*
X131779342Y-69582912D01*
X131726197Y-69628271D01*
X131656966Y-69637696D01*
X131632198Y-69631276D01*
X131578379Y-69611203D01*
X131578372Y-69611201D01*
X131518844Y-69604800D01*
X130171000Y-69604800D01*
X130171000Y-75784800D01*
X131518828Y-75784800D01*
X131518844Y-75784799D01*
X131578372Y-75778398D01*
X131578380Y-75778396D01*
X131584487Y-75776119D01*
X131654179Y-75771134D01*
X131715502Y-75804618D01*
X131748988Y-75865941D01*
X131751819Y-75893228D01*
X131745134Y-76786928D01*
X131724948Y-76853818D01*
X131671803Y-76899177D01*
X131621137Y-76910000D01*
X128184150Y-76910000D01*
X128117111Y-76890315D01*
X128071356Y-76837511D01*
X128060150Y-76785851D01*
X128061226Y-75893228D01*
X128061240Y-75881354D01*
X128081005Y-75814341D01*
X128133865Y-75768650D01*
X128203035Y-75758789D01*
X128228576Y-75765325D01*
X128263622Y-75778397D01*
X128263627Y-75778398D01*
X128323155Y-75784799D01*
X128323172Y-75784800D01*
X129671000Y-75784800D01*
X129671000Y-69604800D01*
X128323155Y-69604800D01*
X128263627Y-69611201D01*
X128263616Y-69611204D01*
X128236263Y-69621406D01*
X128166571Y-69626390D01*
X128105248Y-69592904D01*
X128071764Y-69531580D01*
X128068931Y-69505082D01*
X128069994Y-68624414D01*
X128089760Y-68557400D01*
X128142619Y-68511709D01*
X128194303Y-68500565D01*
X131677431Y-68509370D01*
G37*
%TD.AperFunction*%
%TA.AperFunction,Conductor*%
G36*
X132142815Y-94209685D02*
G01*
X132188570Y-94262489D01*
X132199776Y-94313842D01*
X132200885Y-95186095D01*
X132181286Y-95253160D01*
X132128540Y-95298982D01*
X132059394Y-95309013D01*
X132033552Y-95302435D01*
X132017379Y-95296403D01*
X132017372Y-95296401D01*
X131957844Y-95290000D01*
X130610000Y-95290000D01*
X130610000Y-101470000D01*
X131957828Y-101470000D01*
X131957844Y-101469999D01*
X132017372Y-101463598D01*
X132017380Y-101463596D01*
X132041672Y-101454536D01*
X132111363Y-101449550D01*
X132172687Y-101483035D01*
X132206173Y-101544357D01*
X132209007Y-101570559D01*
X132210236Y-102535842D01*
X132190637Y-102602907D01*
X132137891Y-102648729D01*
X132086236Y-102660000D01*
X128673922Y-102660000D01*
X128606883Y-102640315D01*
X128561128Y-102587511D01*
X128549922Y-102536158D01*
X128549922Y-102535842D01*
X128548711Y-101584097D01*
X128568309Y-101517037D01*
X128621055Y-101471215D01*
X128690201Y-101461184D01*
X128701224Y-101463267D01*
X128702626Y-101463598D01*
X128762155Y-101469999D01*
X128762172Y-101470000D01*
X130110000Y-101470000D01*
X130110000Y-95290000D01*
X128762155Y-95290000D01*
X128702627Y-95296401D01*
X128695070Y-95298187D01*
X128694412Y-95295402D01*
X128638191Y-95299418D01*
X128576871Y-95265927D01*
X128543392Y-95204601D01*
X128540561Y-95178416D01*
X128539462Y-94314158D01*
X128559061Y-94247093D01*
X128611807Y-94201271D01*
X128663462Y-94190000D01*
X132075776Y-94190000D01*
X132142815Y-94209685D01*
G37*
%TD.AperFunction*%
%TA.AperFunction,Conductor*%
G36*
X160943039Y-87019685D02*
G01*
X160988794Y-87072489D01*
X161000000Y-87124000D01*
X161000000Y-88764700D01*
X160980315Y-88831739D01*
X160927511Y-88877494D01*
X160876000Y-88888700D01*
X159809747Y-88888700D01*
X159751270Y-88900331D01*
X159751269Y-88900332D01*
X159684947Y-88944647D01*
X159640632Y-89010969D01*
X159640631Y-89010970D01*
X159629000Y-89069447D01*
X159629000Y-89972552D01*
X159640631Y-90031029D01*
X159640632Y-90031030D01*
X159684947Y-90097352D01*
X159751269Y-90141667D01*
X159751270Y-90141668D01*
X159809747Y-90153299D01*
X159809750Y-90153300D01*
X160882181Y-90153300D01*
X160949220Y-90172985D01*
X160971378Y-90191161D01*
X161000000Y-90220799D01*
X161000000Y-90220800D01*
X162373098Y-90268721D01*
X162439407Y-90290731D01*
X162455701Y-90307303D01*
X162457088Y-90305917D01*
X162465722Y-90314551D01*
X162532045Y-90358867D01*
X162532046Y-90358868D01*
X162590523Y-90370499D01*
X162590526Y-90370500D01*
X162590528Y-90370500D01*
X162689476Y-90370500D01*
X162756515Y-90390185D01*
X162802270Y-90442989D01*
X162804467Y-90453091D01*
X162813476Y-90462100D01*
X166420275Y-90462100D01*
X166420276Y-90462100D01*
X166420276Y-90462099D01*
X166432525Y-90449850D01*
X166493848Y-90416364D01*
X166524522Y-90413605D01*
X168880326Y-90495823D01*
X168946637Y-90517834D01*
X168990522Y-90572202D01*
X169000000Y-90619748D01*
X169000000Y-93143028D01*
X168980315Y-93210067D01*
X168927511Y-93255822D01*
X168880198Y-93266957D01*
X168252474Y-93288219D01*
X168184806Y-93270815D01*
X168137290Y-93219590D01*
X168125011Y-93150808D01*
X168132095Y-93120954D01*
X168150997Y-93070277D01*
X168150998Y-93070272D01*
X168157399Y-93010744D01*
X168157400Y-93010727D01*
X168157400Y-92662900D01*
X166157400Y-92662900D01*
X166157400Y-93010744D01*
X166163801Y-93070272D01*
X166163803Y-93070279D01*
X166209923Y-93193934D01*
X166211967Y-93222527D01*
X166217006Y-93250749D01*
X166214428Y-93256938D01*
X166214907Y-93263626D01*
X166201167Y-93288787D01*
X166190149Y-93315251D01*
X166184635Y-93319064D01*
X166181422Y-93324949D01*
X166156259Y-93338688D01*
X166132683Y-93354993D01*
X166123344Y-93356660D01*
X166120098Y-93358433D01*
X166097938Y-93361196D01*
X165961268Y-93365825D01*
X165893601Y-93348421D01*
X165846085Y-93297196D01*
X165833806Y-93228414D01*
X165840890Y-93198561D01*
X165860296Y-93146532D01*
X165860298Y-93146524D01*
X165866699Y-93086996D01*
X165866700Y-93086979D01*
X165866700Y-92540376D01*
X165782800Y-92540376D01*
X165715761Y-92520691D01*
X165670006Y-92467887D01*
X165658800Y-92416376D01*
X165658800Y-92164376D01*
X165678485Y-92097337D01*
X165731289Y-92051582D01*
X165782800Y-92040376D01*
X165866700Y-92040376D01*
X165866700Y-91815055D01*
X166157400Y-91815055D01*
X166157400Y-92162900D01*
X166907400Y-92162900D01*
X167407400Y-92162900D01*
X168157400Y-92162900D01*
X168157400Y-91815072D01*
X168157399Y-91815055D01*
X168150998Y-91755527D01*
X168150996Y-91755520D01*
X168100754Y-91620813D01*
X168100750Y-91620806D01*
X168014590Y-91505712D01*
X168014587Y-91505709D01*
X167899493Y-91419549D01*
X167899486Y-91419545D01*
X167764779Y-91369303D01*
X167764772Y-91369301D01*
X167705244Y-91362900D01*
X167407400Y-91362900D01*
X167407400Y-92162900D01*
X166907400Y-92162900D01*
X166907400Y-91362900D01*
X166609555Y-91362900D01*
X166550027Y-91369301D01*
X166550020Y-91369303D01*
X166415313Y-91419545D01*
X166415306Y-91419549D01*
X166300212Y-91505709D01*
X166300209Y-91505712D01*
X166214049Y-91620806D01*
X166214045Y-91620813D01*
X166163803Y-91755520D01*
X166163801Y-91755527D01*
X166157400Y-91815055D01*
X165866700Y-91815055D01*
X165866700Y-91493772D01*
X165866699Y-91493755D01*
X165860298Y-91434227D01*
X165860296Y-91434220D01*
X165810054Y-91299513D01*
X165810050Y-91299506D01*
X165723890Y-91184412D01*
X165723887Y-91184409D01*
X165608793Y-91098249D01*
X165608786Y-91098245D01*
X165474079Y-91048003D01*
X165474072Y-91048001D01*
X165414544Y-91041600D01*
X164461000Y-91041600D01*
X164461000Y-92040376D01*
X165293500Y-92040376D01*
X165360539Y-92060061D01*
X165406294Y-92112865D01*
X165417500Y-92164376D01*
X165417500Y-92416376D01*
X165397815Y-92483415D01*
X165345011Y-92529170D01*
X165293500Y-92540376D01*
X163128500Y-92540376D01*
X163061461Y-92520691D01*
X163015706Y-92467887D01*
X163004500Y-92416376D01*
X163004500Y-92164376D01*
X163024185Y-92097337D01*
X163076989Y-92051582D01*
X163128500Y-92040376D01*
X163961000Y-92040376D01*
X163961000Y-91041600D01*
X163007455Y-91041600D01*
X162947927Y-91048001D01*
X162947920Y-91048003D01*
X162813213Y-91098245D01*
X162813206Y-91098249D01*
X162698112Y-91184409D01*
X162698109Y-91184412D01*
X162611949Y-91299506D01*
X162611945Y-91299513D01*
X162561703Y-91434220D01*
X162561701Y-91434227D01*
X162555300Y-91493755D01*
X162555300Y-92040376D01*
X162639200Y-92040376D01*
X162706239Y-92060061D01*
X162751994Y-92112865D01*
X162763200Y-92164376D01*
X162763200Y-92416376D01*
X162743515Y-92483415D01*
X162690711Y-92529170D01*
X162639200Y-92540376D01*
X162555300Y-92540376D01*
X162555300Y-93086996D01*
X162561701Y-93146524D01*
X162561703Y-93146531D01*
X162611945Y-93281238D01*
X162611949Y-93281245D01*
X162614144Y-93284177D01*
X162615423Y-93287607D01*
X162616197Y-93289024D01*
X162615993Y-93289135D01*
X162638562Y-93349641D01*
X162623711Y-93417914D01*
X162574306Y-93467320D01*
X162519076Y-93482417D01*
X161999999Y-93499999D01*
X161986901Y-93513549D01*
X161980315Y-93535979D01*
X161927511Y-93581734D01*
X161858353Y-93591678D01*
X161794797Y-93562653D01*
X161786322Y-93553048D01*
X161786088Y-93553283D01*
X161777453Y-93544648D01*
X161711130Y-93500332D01*
X161711129Y-93500331D01*
X161652652Y-93488700D01*
X161652648Y-93488700D01*
X159809752Y-93488700D01*
X159809747Y-93488700D01*
X159751270Y-93500331D01*
X159751269Y-93500332D01*
X159684947Y-93544647D01*
X159640632Y-93610969D01*
X159640631Y-93610970D01*
X159629000Y-93669447D01*
X159629000Y-94572552D01*
X159640631Y-94631029D01*
X159640632Y-94631030D01*
X159684947Y-94697352D01*
X159751269Y-94741667D01*
X159751270Y-94741668D01*
X159809747Y-94753299D01*
X159809750Y-94753300D01*
X159809752Y-94753300D01*
X160206700Y-94753300D01*
X160215385Y-94755850D01*
X160224347Y-94754562D01*
X160248387Y-94765540D01*
X160273739Y-94772985D01*
X160279666Y-94779825D01*
X160287903Y-94783587D01*
X160302192Y-94805821D01*
X160319494Y-94825789D01*
X160321781Y-94836303D01*
X160325677Y-94842365D01*
X160330700Y-94877300D01*
X160330700Y-94974003D01*
X160311015Y-95041042D01*
X160305076Y-95049489D01*
X160303391Y-95051684D01*
X160230917Y-95177211D01*
X160230916Y-95177215D01*
X160193400Y-95317225D01*
X160193400Y-95462175D01*
X160216939Y-95550021D01*
X160230917Y-95602188D01*
X160303388Y-95727711D01*
X160303390Y-95727713D01*
X160303391Y-95727715D01*
X160405885Y-95830209D01*
X160405886Y-95830210D01*
X160405888Y-95830211D01*
X160531411Y-95902682D01*
X160531412Y-95902682D01*
X160531415Y-95902684D01*
X160671425Y-95940200D01*
X160671428Y-95940200D01*
X160816372Y-95940200D01*
X160816375Y-95940200D01*
X160956385Y-95902684D01*
X161081915Y-95830209D01*
X161184409Y-95727715D01*
X161256884Y-95602185D01*
X161294400Y-95462175D01*
X161294400Y-95317225D01*
X161256884Y-95177215D01*
X161184409Y-95051685D01*
X161168019Y-95035295D01*
X161153315Y-95008367D01*
X161136723Y-94982549D01*
X161135831Y-94976348D01*
X161134534Y-94973972D01*
X161131700Y-94947614D01*
X161131700Y-94877300D01*
X161151385Y-94810261D01*
X161204189Y-94764506D01*
X161255700Y-94753300D01*
X161652650Y-94753300D01*
X161652651Y-94753299D01*
X161667468Y-94750352D01*
X161711129Y-94741668D01*
X161711129Y-94741667D01*
X161711131Y-94741667D01*
X161777452Y-94697352D01*
X161777453Y-94697351D01*
X161786088Y-94688717D01*
X161788500Y-94691129D01*
X161826509Y-94659364D01*
X161895834Y-94650655D01*
X161958862Y-94680810D01*
X161995581Y-94740252D01*
X162000000Y-94773059D01*
X162000000Y-96376000D01*
X161980315Y-96443039D01*
X161927511Y-96488794D01*
X161876000Y-96500000D01*
X153122775Y-96500000D01*
X153055736Y-96480315D01*
X153009981Y-96427511D01*
X152998781Y-96377231D01*
X152993350Y-95830211D01*
X152937905Y-90246195D01*
X153426400Y-90246195D01*
X153426400Y-93395804D01*
X153431551Y-93441528D01*
X153471233Y-93523926D01*
X153471234Y-93523927D01*
X153542737Y-93580949D01*
X153609328Y-93596148D01*
X153631895Y-93601299D01*
X153631900Y-93601300D01*
X155435303Y-93601300D01*
X155435303Y-93601299D01*
X155481028Y-93596148D01*
X155563427Y-93556466D01*
X155620449Y-93484963D01*
X155640800Y-93395800D01*
X155640800Y-92300644D01*
X159329500Y-92300644D01*
X159335901Y-92360172D01*
X159335903Y-92360179D01*
X159386145Y-92494886D01*
X159386149Y-92494893D01*
X159472309Y-92609987D01*
X159472312Y-92609990D01*
X159587406Y-92696150D01*
X159587413Y-92696154D01*
X159722120Y-92746396D01*
X159722127Y-92746398D01*
X159781655Y-92752799D01*
X159781672Y-92752800D01*
X160481200Y-92752800D01*
X160981200Y-92752800D01*
X161680728Y-92752800D01*
X161680744Y-92752799D01*
X161740272Y-92746398D01*
X161740279Y-92746396D01*
X161874986Y-92696154D01*
X161874993Y-92696150D01*
X161990087Y-92609990D01*
X161990090Y-92609987D01*
X162076250Y-92494893D01*
X162076254Y-92494886D01*
X162126496Y-92360179D01*
X162126498Y-92360172D01*
X162132899Y-92300644D01*
X162132900Y-92300627D01*
X162132900Y-92071000D01*
X160981200Y-92071000D01*
X160981200Y-92752800D01*
X160481200Y-92752800D01*
X160481200Y-92071000D01*
X159329500Y-92071000D01*
X159329500Y-92300644D01*
X155640800Y-92300644D01*
X155640800Y-91341355D01*
X159329500Y-91341355D01*
X159329500Y-91571000D01*
X160481200Y-91571000D01*
X160981200Y-91571000D01*
X162132900Y-91571000D01*
X162132900Y-91341372D01*
X162132899Y-91341355D01*
X162126498Y-91281827D01*
X162126496Y-91281820D01*
X162076254Y-91147113D01*
X162076250Y-91147106D01*
X161990090Y-91032012D01*
X161990087Y-91032009D01*
X161874993Y-90945849D01*
X161874986Y-90945845D01*
X161740279Y-90895603D01*
X161740272Y-90895601D01*
X161680744Y-90889200D01*
X160981200Y-90889200D01*
X160981200Y-91571000D01*
X160481200Y-91571000D01*
X160481200Y-90889200D01*
X159781655Y-90889200D01*
X159722127Y-90895601D01*
X159722120Y-90895603D01*
X159587413Y-90945845D01*
X159587406Y-90945849D01*
X159472312Y-91032009D01*
X159472309Y-91032012D01*
X159386149Y-91147106D01*
X159386145Y-91147113D01*
X159335903Y-91281820D01*
X159335901Y-91281827D01*
X159329500Y-91341355D01*
X155640800Y-91341355D01*
X155640800Y-90246200D01*
X155635648Y-90200472D01*
X155630483Y-90189748D01*
X155595966Y-90118073D01*
X155524463Y-90061051D01*
X155435304Y-90040700D01*
X155435300Y-90040700D01*
X153631900Y-90040700D01*
X153631895Y-90040700D01*
X153586171Y-90045851D01*
X153503773Y-90085533D01*
X153446751Y-90157036D01*
X153426400Y-90246195D01*
X152937905Y-90246195D01*
X152931273Y-89578290D01*
X152950291Y-89511062D01*
X153002638Y-89464785D01*
X153058260Y-89453098D01*
X155000000Y-89500000D01*
X155000000Y-89499999D01*
X155000000Y-87124000D01*
X155019685Y-87056961D01*
X155072489Y-87011206D01*
X155124000Y-87000000D01*
X160876000Y-87000000D01*
X160943039Y-87019685D01*
G37*
%TD.AperFunction*%
%TA.AperFunction,Conductor*%
G36*
X168699061Y-46819704D02*
G01*
X168765982Y-46839777D01*
X168786021Y-46856021D01*
X171833590Y-49903590D01*
X171867075Y-49964913D01*
X171869909Y-49991489D01*
X171860216Y-55516368D01*
X171840414Y-55583372D01*
X171787529Y-55629035D01*
X171736367Y-55640150D01*
X168463419Y-55644126D01*
X168396355Y-55624523D01*
X168350536Y-55571774D01*
X168340509Y-55502628D01*
X168364002Y-55445813D01*
X168400854Y-55396585D01*
X168451096Y-55261879D01*
X168451098Y-55261872D01*
X168457499Y-55202344D01*
X168457500Y-55202327D01*
X168457500Y-54960000D01*
X164837000Y-54960000D01*
X164769961Y-54940315D01*
X164724206Y-54887511D01*
X164713000Y-54836000D01*
X164713000Y-54710000D01*
X164587000Y-54710000D01*
X164519961Y-54690315D01*
X164474206Y-54637511D01*
X164463000Y-54586000D01*
X164463000Y-54460000D01*
X164963000Y-54460000D01*
X165863000Y-54460000D01*
X166363000Y-54460000D01*
X167263000Y-54460000D01*
X167763000Y-54460000D01*
X168457500Y-54460000D01*
X168457500Y-54217672D01*
X168457499Y-54217655D01*
X168451098Y-54158127D01*
X168451097Y-54158123D01*
X168412013Y-54053334D01*
X168407029Y-53983642D01*
X168412013Y-53966666D01*
X168451097Y-53861876D01*
X168451098Y-53861872D01*
X168457499Y-53802344D01*
X168457500Y-53802327D01*
X168457500Y-53560000D01*
X167763000Y-53560000D01*
X167763000Y-54460000D01*
X167263000Y-54460000D01*
X167263000Y-53560000D01*
X166363000Y-53560000D01*
X166363000Y-54460000D01*
X165863000Y-54460000D01*
X165863000Y-53560000D01*
X164963000Y-53560000D01*
X164963000Y-54460000D01*
X164463000Y-54460000D01*
X164463000Y-53060000D01*
X164963000Y-53060000D01*
X165863000Y-53060000D01*
X166363000Y-53060000D01*
X167263000Y-53060000D01*
X167763000Y-53060000D01*
X168457500Y-53060000D01*
X168457500Y-52817672D01*
X168457499Y-52817655D01*
X168451098Y-52758127D01*
X168451097Y-52758123D01*
X168412013Y-52653334D01*
X168407029Y-52583642D01*
X168412013Y-52566666D01*
X168451097Y-52461876D01*
X168451098Y-52461872D01*
X168457499Y-52402344D01*
X168457500Y-52402327D01*
X168457500Y-52160000D01*
X167763000Y-52160000D01*
X167763000Y-53060000D01*
X167263000Y-53060000D01*
X167263000Y-52160000D01*
X166363000Y-52160000D01*
X166363000Y-53060000D01*
X165863000Y-53060000D01*
X165863000Y-52160000D01*
X164963000Y-52160000D01*
X164963000Y-53060000D01*
X164463000Y-53060000D01*
X164463000Y-51660000D01*
X164963000Y-51660000D01*
X165863000Y-51660000D01*
X166363000Y-51660000D01*
X167263000Y-51660000D01*
X167763000Y-51660000D01*
X168457500Y-51660000D01*
X168457500Y-51417672D01*
X168457499Y-51417655D01*
X168451098Y-51358127D01*
X168451096Y-51358120D01*
X168400854Y-51223413D01*
X168400850Y-51223406D01*
X168314690Y-51108312D01*
X168314687Y-51108309D01*
X168199593Y-51022149D01*
X168199586Y-51022145D01*
X168064879Y-50971903D01*
X168064872Y-50971901D01*
X168005344Y-50965500D01*
X167763000Y-50965500D01*
X167763000Y-51660000D01*
X167263000Y-51660000D01*
X167263000Y-50965500D01*
X167020655Y-50965500D01*
X166961127Y-50971901D01*
X166961119Y-50971903D01*
X166856333Y-51010986D01*
X166786641Y-51015970D01*
X166769667Y-51010986D01*
X166664880Y-50971903D01*
X166664872Y-50971901D01*
X166605344Y-50965500D01*
X166363000Y-50965500D01*
X166363000Y-51660000D01*
X165863000Y-51660000D01*
X165863000Y-50965500D01*
X165620655Y-50965500D01*
X165561127Y-50971901D01*
X165561119Y-50971903D01*
X165456333Y-51010986D01*
X165386641Y-51015970D01*
X165369667Y-51010986D01*
X165264880Y-50971903D01*
X165264872Y-50971901D01*
X165205344Y-50965500D01*
X164963000Y-50965500D01*
X164963000Y-51660000D01*
X164463000Y-51660000D01*
X164463000Y-50965500D01*
X164220655Y-50965500D01*
X164161127Y-50971901D01*
X164161120Y-50971903D01*
X164026413Y-51022145D01*
X164026406Y-51022149D01*
X163911312Y-51108309D01*
X163822809Y-51226533D01*
X163766875Y-51268403D01*
X163697183Y-51273387D01*
X163635861Y-51239901D01*
X163602376Y-51178577D01*
X163599546Y-51153067D01*
X163570850Y-46915563D01*
X163590080Y-46848393D01*
X163642573Y-46802282D01*
X163695564Y-46790727D01*
X168699061Y-46819704D01*
G37*
%TD.AperFunction*%
M02*
